<svg xmlns="http://www.w3.org/2000/svg" width="580" height="360" viewBox="0 0 580 360">
  <defs>
    <marker id="g" markerWidth="8" markerHeight="6" refX="7" refY="3" orient="auto">
      <polygon points="0 0, 8 3, 0 6" fill="#2C2418"/>
    </marker>
    <marker id="g-accent" markerWidth="8" markerHeight="6" refX="7" refY="3" orient="auto">
      <polygon points="0 0, 8 3, 0 6" fill="#B8860B"/>
    </marker>
    <marker id="g-green" markerWidth="8" markerHeight="6" refX="7" refY="3" orient="auto">
      <polygon points="0 0, 8 3, 0 6" fill="#6B705C"/>
    </marker>
    <marker id="g-red" markerWidth="8" markerHeight="6" refX="7" refY="3" orient="auto">
      <polygon points="0 0, 8 3, 0 6" fill="#A0522D"/>
    </marker>
  </defs>
  <text x="290" y="22" text-anchor="middle" font-family="Georgia, serif" font-size="15" fill="#2C2418" font-weight="bold">Grundy values on a game DAG</text>
  <line x1="130.4" y1="75.2" x2="91.7" y2="136.4" stroke="#2C2418" stroke-width="1.5" marker-end="url(#g)"/>
  <line x1="154.9" y1="70.1" x2="261.8" y2="142.6" stroke="#2C2418" stroke-width="1.5" marker-end="url(#g)"/>
  <line x1="157.3" y1="65.1" x2="438.9" y2="148.7" stroke="#2C2418" stroke-width="1.5" marker-end="url(#g)"/>
  <line x1="405.1" y1="70.1" x2="298.2" y2="142.6" stroke="#2C2418" stroke-width="1.5" marker-end="url(#g)"/>
  <line x1="427.0" y1="76.6" x2="451.5" y2="134.7" stroke="#2C2418" stroke-width="1.5" marker-end="url(#g)"/>
  <line x1="91.2" y1="169.1" x2="146.3" y2="237.8" stroke="#2C2418" stroke-width="1.5" marker-end="url(#g)"/>
  <line x1="97.1" y1="160.7" x2="359.1" y2="248.0" stroke="#2C2418" stroke-width="1.5" marker-end="url(#g)"/>
  <line x1="280.0" y1="173.0" x2="280.0" y2="308.0" stroke="#2C2418" stroke-width="1.5" marker-end="url(#g)"/>
  <line x1="448.8" y1="169.1" x2="393.7" y2="237.8" stroke="#2C2418" stroke-width="1.5" marker-end="url(#g)"/>
  <line x1="447.1" y1="167.5" x2="295.8" y2="314.7" stroke="#2C2418" stroke-width="1.5" marker-end="url(#g)"/>
  <line x1="175.3" y1="264.5" x2="261.3" y2="318.3" stroke="#2C2418" stroke-width="1.5" marker-end="url(#g)"/>
  <line x1="365.6" y1="265.8" x2="297.6" y2="316.8" stroke="#2C2418" stroke-width="1.5" marker-end="url(#g)"/>
  <circle cx="140" cy="60" r="18" fill="#A0522D" fill-opacity="0.2" stroke="#A0522D" stroke-width="2"/>
  <text x="140" y="65" text-anchor="middle" font-family="Georgia, serif" font-size="14" fill="#2C2418" font-weight="bold">A</text>
  <text x="164" y="56" text-anchor="start" font-family="Georgia, serif" font-size="12" fill="#A0522D" font-weight="bold">γ = 2</text>
  <circle cx="420" cy="60" r="18" fill="#A0522D" fill-opacity="0.2" stroke="#A0522D" stroke-width="2"/>
  <text x="420" y="65" text-anchor="middle" font-family="Georgia, serif" font-size="14" fill="#2C2418" font-weight="bold">B</text>
  <text x="444" y="56" text-anchor="start" font-family="Georgia, serif" font-size="12" fill="#A0522D" font-weight="bold">γ = 1</text>
  <circle cx="80" cy="155" r="18" fill="#A0522D" fill-opacity="0.2" stroke="#A0522D" stroke-width="2"/>
  <text x="80" y="160" text-anchor="middle" font-family="Georgia, serif" font-size="14" fill="#2C2418" font-weight="bold">C</text>
  <text x="104" y="151" text-anchor="start" font-family="Georgia, serif" font-size="12" fill="#A0522D" font-weight="bold">γ = 1</text>
  <circle cx="280" cy="155" r="18" fill="#6B705C" fill-opacity="0.2" stroke="#6B705C" stroke-width="2"/>
  <text x="280" y="160" text-anchor="middle" font-family="Georgia, serif" font-size="14" fill="#2C2418" font-weight="bold">D</text>
  <text x="304" y="151" text-anchor="start" font-family="Georgia, serif" font-size="12" fill="#6B705C" font-weight="bold">γ = 0</text>
  <circle cx="460" cy="155" r="18" fill="#A0522D" fill-opacity="0.2" stroke="#A0522D" stroke-width="2"/>
  <text x="460" y="160" text-anchor="middle" font-family="Georgia, serif" font-size="14" fill="#2C2418" font-weight="bold">E</text>
  <text x="484" y="151" text-anchor="start" font-family="Georgia, serif" font-size="12" fill="#A0522D" font-weight="bold">γ = 2</text>
  <circle cx="160" cy="255" r="18" fill="#6B705C" fill-opacity="0.2" stroke="#6B705C" stroke-width="2"/>
  <text x="160" y="260" text-anchor="middle" font-family="Georgia, serif" font-size="14" fill="#2C2418" font-weight="bold">F</text>
  <text x="184" y="251" text-anchor="start" font-family="Georgia, serif" font-size="12" fill="#6B705C" font-weight="bold">γ = 0</text>
  <circle cx="380" cy="255" r="18" fill="#A0522D" fill-opacity="0.2" stroke="#A0522D" stroke-width="2"/>
  <text x="380" y="260" text-anchor="middle" font-family="Georgia, serif" font-size="14" fill="#2C2418" font-weight="bold">G</text>
  <text x="404" y="251" text-anchor="start" font-family="Georgia, serif" font-size="12" fill="#A0522D" font-weight="bold">γ = 1</text>
  <circle cx="280" cy="330" r="18" fill="#6B705C" fill-opacity="0.2" stroke="#6B705C" stroke-width="2"/>
  <text x="280" y="335" text-anchor="middle" font-family="Georgia, serif" font-size="14" fill="#2C2418" font-weight="bold">H</text>
  <text x="304" y="326" text-anchor="start" font-family="Georgia, serif" font-size="12" fill="#6B705C" font-weight="bold">γ = 0</text>
  <text x="304" y="343" text-anchor="start" font-family="Georgia, serif" font-size="10" fill="#6B705C" font-style="italic">(terminal)</text>
</svg>