<svg xmlns="http://www.w3.org/2000/svg" width="700" height="310" viewBox="0 0 700 310">
  <defs>
    <marker id="k" markerWidth="8" markerHeight="6" refX="7" refY="3" orient="auto">
      <polygon points="0 0, 8 3, 0 6" fill="#2C2418"/>
    </marker>
    <marker id="k-accent" markerWidth="8" markerHeight="6" refX="7" refY="3" orient="auto">
      <polygon points="0 0, 8 3, 0 6" fill="#B8860B"/>
    </marker>
    <marker id="k-green" markerWidth="8" markerHeight="6" refX="7" refY="3" orient="auto">
      <polygon points="0 0, 8 3, 0 6" fill="#6B705C"/>
    </marker>
    <marker id="k-red" markerWidth="8" markerHeight="6" refX="7" refY="3" orient="auto">
      <polygon points="0 0, 8 3, 0 6" fill="#A0522D"/>
    </marker>
  </defs>
  <g transform="translate(10, 15)">
    <text x="75" y="0" text-anchor="middle" font-family="Georgia, serif" font-size="12" fill="#2C2418" font-weight="bold">(a) S = {1, 6}</text>
    <text x="75" y="15" text-anchor="middle" font-family="Georgia, serif" font-size="10" fill="#6B705C">stable, not absorbing</text>
    <line x1="41.0" y1="65.0" x2="105.0" y2="65.0" stroke="#2C2418" stroke-width="1.5" marker-end="url(#k)"/>
    <line x1="125.0" y1="81.0" x2="125.0" y2="110.0" stroke="#2C2418" stroke-width="1.5" marker-end="url(#k)"/>
    <line x1="25.0" y1="114.0" x2="25.0" y2="85.0" stroke="#2C2418" stroke-width="1.5" marker-end="url(#k)"/>
    <line x1="59.0" y1="130.0" x2="45.0" y2="130.0" stroke="#2C2418" stroke-width="1.5" marker-end="url(#k)"/>
    <line x1="109.0" y1="130.0" x2="95.0" y2="130.0" stroke="#2C2418" stroke-width="1.5" marker-end="url(#k)"/>
    <line x1="75.0" y1="81.0" x2="75.0" y2="110.0" stroke="#2C2418" stroke-width="1.5" marker-end="url(#k)"/>
    <circle cx="25" cy="65" r="16" fill="#B8860B" stroke="#B8860B" stroke-width="2"/>
    <text x="25" y="70" text-anchor="middle" font-family="Georgia, serif" font-size="13" fill="#2C2418" font-weight="bold">1</text>
    <circle cx="75" cy="65" r="16" fill="white" stroke="#2C2418" stroke-width="1.5"/>
    <text x="75" y="70" text-anchor="middle" font-family="Georgia, serif" font-size="13" fill="#2C2418">2</text>
    <circle cx="125" cy="65" r="16" fill="white" stroke="#2C2418" stroke-width="1.5"/>
    <text x="125" y="70" text-anchor="middle" font-family="Georgia, serif" font-size="13" fill="#2C2418">3</text>
    <circle cx="25" cy="130" r="16" fill="white" stroke="#2C2418" stroke-width="1.5"/>
    <text x="25" y="135" text-anchor="middle" font-family="Georgia, serif" font-size="13" fill="#2C2418">4</text>
    <circle cx="75" cy="130" r="16" fill="white" stroke="#2C2418" stroke-width="1.5"/>
    <text x="75" y="135" text-anchor="middle" font-family="Georgia, serif" font-size="13" fill="#2C2418">5</text>
    <circle cx="125" cy="130" r="16" fill="#B8860B" stroke="#B8860B" stroke-width="2"/>
    <text x="125" y="135" text-anchor="middle" font-family="Georgia, serif" font-size="13" fill="#2C2418" font-weight="bold">6</text>
    <text x="75" y="175" text-anchor="middle" font-family="Georgia, serif" font-size="9" fill="#A0522D" font-style="italic">2 cannot reach {1,6}</text>
  </g>
  <g transform="translate(180, 15)">
    <text x="75" y="0" text-anchor="middle" font-family="Georgia, serif" font-size="12" fill="#2C2418" font-weight="bold">(b) S = {1, 2, 3}</text>
    <text x="75" y="15" text-anchor="middle" font-family="Georgia, serif" font-size="10" fill="#6B705C">absorbing, not stable</text>
    <line x1="25.0" y1="114.0" x2="25.0" y2="85.0" stroke="#2C2418" stroke-width="1.5" marker-end="url(#k)"/>
    <line x1="109.0" y1="130.0" x2="95.0" y2="130.0" stroke="#2C2418" stroke-width="1.5" marker-end="url(#k)"/>
    <line x1="91.0" y1="65.0" x2="105.0" y2="65.0" stroke="#2C2418" stroke-width="1.5" marker-end="url(#k)"/>
    <line x1="41.0" y1="65.0" x2="105.0" y2="65.0" stroke="#A0522D" stroke-width="2" marker-end="url(#k-red)"/>
    <circle cx="25" cy="65" r="16" fill="#B8860B" stroke="#B8860B" stroke-width="2"/>
    <text x="25" y="70" text-anchor="middle" font-family="Georgia, serif" font-size="13" fill="#2C2418" font-weight="bold">1</text>
    <circle cx="75" cy="65" r="16" fill="white" stroke="#2C2418" stroke-width="1.5"/>
    <text x="75" y="70" text-anchor="middle" font-family="Georgia, serif" font-size="13" fill="#2C2418">6</text>
    <circle cx="125" cy="65" r="16" fill="#B8860B" stroke="#B8860B" stroke-width="2"/>
    <text x="125" y="70" text-anchor="middle" font-family="Georgia, serif" font-size="13" fill="#2C2418" font-weight="bold">2</text>
    <circle cx="25" cy="130" r="16" fill="white" stroke="#2C2418" stroke-width="1.5"/>
    <text x="25" y="135" text-anchor="middle" font-family="Georgia, serif" font-size="13" fill="#2C2418">4</text>
    <circle cx="75" cy="130" r="16" fill="#B8860B" stroke="#B8860B" stroke-width="2"/>
    <text x="75" y="135" text-anchor="middle" font-family="Georgia, serif" font-size="13" fill="#2C2418" font-weight="bold">3</text>
    <circle cx="125" cy="130" r="16" fill="white" stroke="#2C2418" stroke-width="1.5"/>
    <text x="125" y="135" text-anchor="middle" font-family="Georgia, serif" font-size="13" fill="#2C2418">5</text>
    <text x="75" y="175" text-anchor="middle" font-family="Georgia, serif" font-size="9" fill="#A0522D" font-style="italic">arc 1→2 : not stable</text>
  </g>
  <g transform="translate(350, 15)">
    <text x="75" y="0" text-anchor="middle" font-family="Georgia, serif" font-size="12" fill="#2C2418" font-weight="bold">(c) K = {2, 6}</text>
    <text x="75" y="15" text-anchor="middle" font-family="Georgia, serif" font-size="10" fill="#6B705C">kernel (stable + absorbing)</text>
    <line x1="41.0" y1="65.0" x2="55.0" y2="65.0" stroke="#2C2418" stroke-width="1.5" marker-end="url(#k)"/>
    <line x1="125.0" y1="81.0" x2="125.0" y2="110.0" stroke="#2C2418" stroke-width="1.5" marker-end="url(#k)"/>
    <line x1="34.8" y1="117.3" x2="62.8" y2="80.9" stroke="#2C2418" stroke-width="1.5" marker-end="url(#k)"/>
    <line x1="91.0" y1="130.0" x2="105.0" y2="130.0" stroke="#2C2418" stroke-width="1.5" marker-end="url(#k)"/>
    <line x1="25.0" y1="81.0" x2="25.0" y2="110.0" stroke="#2C2418" stroke-width="1.5" marker-end="url(#k)"/>
    <line x1="115.2" y1="77.7" x2="87.2" y2="114.1" stroke="#2C2418" stroke-width="1.5" marker-end="url(#k)"/>
    <circle cx="25" cy="65" r="16" fill="white" stroke="#2C2418" stroke-width="1.5"/>
    <text x="25" y="70" text-anchor="middle" font-family="Georgia, serif" font-size="13" fill="#2C2418">1</text>
    <circle cx="75" cy="65" r="16" fill="#B8860B" stroke="#B8860B" stroke-width="2"/>
    <text x="75" y="70" text-anchor="middle" font-family="Georgia, serif" font-size="13" fill="#2C2418" font-weight="bold">2</text>
    <circle cx="125" cy="65" r="16" fill="white" stroke="#2C2418" stroke-width="1.5"/>
    <text x="125" y="70" text-anchor="middle" font-family="Georgia, serif" font-size="13" fill="#2C2418">3</text>
    <circle cx="25" cy="130" r="16" fill="white" stroke="#2C2418" stroke-width="1.5"/>
    <text x="25" y="135" text-anchor="middle" font-family="Georgia, serif" font-size="13" fill="#2C2418">4</text>
    <circle cx="75" cy="130" r="16" fill="white" stroke="#2C2418" stroke-width="1.5"/>
    <text x="75" y="135" text-anchor="middle" font-family="Georgia, serif" font-size="13" fill="#2C2418">5</text>
    <circle cx="125" cy="130" r="16" fill="#B8860B" stroke="#B8860B" stroke-width="2"/>
    <text x="125" y="135" text-anchor="middle" font-family="Georgia, serif" font-size="13" fill="#2C2418" font-weight="bold">6</text>
  </g>
  <g transform="translate(520, 15)">
    <text x="75" y="0" text-anchor="middle" font-family="Georgia, serif" font-size="12" fill="#2C2418" font-weight="bold">(d) K = {3, 6}</text>
    <text x="75" y="15" text-anchor="middle" font-family="Georgia, serif" font-size="10" fill="#6B705C">kernel (stable + absorbing)</text>
    <line x1="41.0" y1="65.0" x2="105.0" y2="65.0" stroke="#2C2418" stroke-width="1.5" marker-end="url(#k)"/>
    <line x1="91.0" y1="65.0" x2="105.0" y2="65.0" stroke="#2C2418" stroke-width="1.5" marker-end="url(#k)"/>
    <line x1="41.0" y1="130.0" x2="105.0" y2="130.0" stroke="#2C2418" stroke-width="1.5" marker-end="url(#k)"/>
    <line x1="91.0" y1="130.0" x2="105.0" y2="130.0" stroke="#2C2418" stroke-width="1.5" marker-end="url(#k)"/>
    <line x1="34.8" y1="77.7" x2="62.8" y2="114.1" stroke="#2C2418" stroke-width="1.5" marker-end="url(#k)"/>
    <line x1="65.2" y1="77.7" x2="37.2" y2="114.1" stroke="#2C2418" stroke-width="1.5" marker-end="url(#k)"/>
    <circle cx="25" cy="65" r="16" fill="white" stroke="#2C2418" stroke-width="1.5"/>
    <text x="25" y="70" text-anchor="middle" font-family="Georgia, serif" font-size="13" fill="#2C2418">1</text>
    <circle cx="75" cy="65" r="16" fill="white" stroke="#2C2418" stroke-width="1.5"/>
    <text x="75" y="70" text-anchor="middle" font-family="Georgia, serif" font-size="13" fill="#2C2418">2</text>
    <circle cx="125" cy="65" r="16" fill="#B8860B" stroke="#B8860B" stroke-width="2"/>
    <text x="125" y="70" text-anchor="middle" font-family="Georgia, serif" font-size="13" fill="#2C2418" font-weight="bold">3</text>
    <circle cx="25" cy="130" r="16" fill="white" stroke="#2C2418" stroke-width="1.5"/>
    <text x="25" y="135" text-anchor="middle" font-family="Georgia, serif" font-size="13" fill="#2C2418">4</text>
    <circle cx="75" cy="130" r="16" fill="white" stroke="#2C2418" stroke-width="1.5"/>
    <text x="75" y="135" text-anchor="middle" font-family="Georgia, serif" font-size="13" fill="#2C2418">5</text>
    <circle cx="125" cy="130" r="16" fill="#B8860B" stroke="#B8860B" stroke-width="2"/>
    <text x="125" y="135" text-anchor="middle" font-family="Georgia, serif" font-size="13" fill="#2C2418" font-weight="bold">6</text>
  </g>
  <g transform="translate(120, 240)">
    <circle cx="0" cy="0" r="9" fill="#B8860B" stroke="#B8860B" stroke-width="1.5"/>
    <text x="15" y="4" font-family="Georgia, serif" font-size="12" fill="#2C2418">Vertex in S (or K)</text>
    <circle cx="200" cy="0" r="9" fill="white" stroke="#2C2418" stroke-width="1.5"/>
    <text x="215" y="4" font-family="Georgia, serif" font-size="12" fill="#2C2418">Vertex outside S (or K)</text>
  </g>
  <g transform="translate(20, 270)">
    <text x="0" y="0" font-family="Georgia, serif" font-size="11" fill="#6B705C" font-style="italic">Stable: no arc between vertices of S</text>
    <text x="0" y="16" font-family="Georgia, serif" font-size="11" fill="#6B705C" font-style="italic">Absorbing: every vertex outside S has a successor in S</text>
    <text x="0" y="32" font-family="Georgia, serif" font-size="11" fill="#6B705C" font-style="italic">Kernel = stable + absorbing</text>
  </g>
</svg>