<svg xmlns="http://www.w3.org/2000/svg" width="560" height="240" viewBox="0 0 560 240">
  <defs>
    <marker id="t" markerWidth="8" markerHeight="6" refX="7" refY="3" orient="auto">
      <polygon points="0 0, 8 3, 0 6" fill="#2C2418"/>
    </marker>
    <marker id="t-accent" markerWidth="8" markerHeight="6" refX="7" refY="3" orient="auto">
      <polygon points="0 0, 8 3, 0 6" fill="#B8860B"/>
    </marker>
    <marker id="t-green" markerWidth="8" markerHeight="6" refX="7" refY="3" orient="auto">
      <polygon points="0 0, 8 3, 0 6" fill="#6B705C"/>
    </marker>
    <marker id="t-red" markerWidth="8" markerHeight="6" refX="7" refY="3" orient="auto">
      <polygon points="0 0, 8 3, 0 6" fill="#A0522D"/>
    </marker>
  </defs>
  <line x1="259.4" y1="62.3" x2="90.6" y2="162.7" stroke="#2C2418" stroke-width="1.5" marker-end="url(#t)"/>
  <line x1="265.0" y1="68.7" x2="195.0" y2="156.3" stroke="#2C2418" stroke-width="1.5" marker-end="url(#t)"/>
  <line x1="295.9" y1="68.0" x2="374.1" y2="157.0" stroke="#2C2418" stroke-width="1.5" marker-end="url(#t)"/>
  <line x1="300.9" y1="61.9" x2="479.1" y2="163.1" stroke="#2C2418" stroke-width="1.5" marker-end="url(#t)"/>
  <line x1="280" y1="74" x2="280" y2="160" stroke="#2C2418" stroke-width="1.5" stroke-dasharray="4,3"/>
  <text x="280" y="178" text-anchor="middle" font-family="Georgia, serif" font-size="22" fill="#6B705C">⋯</text>
  <circle cx="280" cy="50" r="24" fill="#B8860B" fill-opacity="0.15" stroke="#B8860B" stroke-width="2"/>
  <text x="280" y="55" text-anchor="middle" font-family="Georgia, serif" font-size="15" fill="#2C2418" font-weight="bold" font-style="italic">m+1</text>
  <circle cx="70" cy="175" r="20" fill="white" stroke="#2C2418" stroke-width="1.8"/>
    <text x="70" y="180" text-anchor="middle" font-family="Georgia, serif" font-size="14" fill="#2C2418">m</text>
  <text x="70" y="211" text-anchor="middle" font-family="Georgia, serif" font-size="11" fill="#6B705C">remove 1</text>
  <circle cx="180" cy="175" r="20" fill="white" stroke="#2C2418" stroke-width="1.8"/>
    <text x="180" y="180" text-anchor="middle" font-family="Georgia, serif" font-size="14" fill="#2C2418">m−1</text>
  <text x="180" y="211" text-anchor="middle" font-family="Georgia, serif" font-size="11" fill="#6B705C">remove 2</text>
  <circle cx="390" cy="175" r="20" fill="white" stroke="#2C2418" stroke-width="1.8"/>
    <text x="390" y="180" text-anchor="middle" font-family="Georgia, serif" font-size="14" fill="#2C2418">1</text>
  <text x="390" y="211" text-anchor="middle" font-family="Georgia, serif" font-size="11" fill="#6B705C">remove m</text>
  <circle cx="500" cy="175" r="20" fill="#6B705C" stroke="#6B705C" stroke-width="2"/>
    <text x="500" y="180" text-anchor="middle" font-family="Georgia, serif" font-size="14" fill="#2C2418" font-weight="bold">0</text>
  <text x="500" y="211" text-anchor="middle" font-family="Georgia, serif" font-size="11" fill="#6B705C">remove m+1</text>
  <text x="280" y="232" text-anchor="middle" font-family="Georgia, serif" font-size="13" fill="#2C2418" font-style="italic">Succ(m+1) = {0, 1, 2, ..., m}</text>
</svg>