<svg xmlns="http://www.w3.org/2000/svg" width="600" height="250" viewBox="0 0 600 250">
  <g transform="translate(120, 30)">
    <text x="0" y="0" text-anchor="middle" font-family="Georgia, serif" font-size="16" fill="#2C2418" font-weight="bold">Heap 1</text>
    <text x="0" y="18" text-anchor="middle" font-family="Georgia, serif" font-size="13" fill="#6B705C">(n₁ = 1)</text>
    <circle cx="0" cy="185" r="14" fill="#B8860B" fill-opacity="0.2" stroke="#2C2418" stroke-width="1.5"/>
    <circle cx="0" cy="185" r="4" fill="#B8860B" fill-opacity="0.8"/>
    <line x1="-25" y1="205" x2="25" y2="205" stroke="#2C2418" stroke-width="1.5" stroke-linecap="round"/>
  </g>
  <g transform="translate(300, 30)">
    <text x="0" y="0" text-anchor="middle" font-family="Georgia, serif" font-size="16" fill="#2C2418" font-weight="bold">Heap 2</text>
    <text x="0" y="18" text-anchor="middle" font-family="Georgia, serif" font-size="13" fill="#6B705C">(n₂ = 3)</text>
    <circle cx="0" cy="185" r="14" fill="#B8860B" fill-opacity="0.2" stroke="#2C2418" stroke-width="1.5"/>
    <circle cx="0" cy="185" r="4" fill="#B8860B" fill-opacity="0.8"/>
    <circle cx="0" cy="153" r="14" fill="#B8860B" fill-opacity="0.2" stroke="#2C2418" stroke-width="1.5"/>
    <circle cx="0" cy="153" r="4" fill="#B8860B" fill-opacity="0.8"/>
    <circle cx="0" cy="121" r="14" fill="#B8860B" fill-opacity="0.2" stroke="#2C2418" stroke-width="1.5"/>
    <circle cx="0" cy="121" r="4" fill="#B8860B" fill-opacity="0.8"/>
    <line x1="-25" y1="205" x2="25" y2="205" stroke="#2C2418" stroke-width="1.5" stroke-linecap="round"/>
  </g>
  <g transform="translate(480, 30)">
    <text x="0" y="0" text-anchor="middle" font-family="Georgia, serif" font-size="16" fill="#2C2418" font-weight="bold">Heap 3</text>
    <text x="0" y="18" text-anchor="middle" font-family="Georgia, serif" font-size="13" fill="#6B705C">(n₃ = 5)</text>
    <circle cx="0" cy="185" r="14" fill="#B8860B" fill-opacity="0.2" stroke="#2C2418" stroke-width="1.5"/>
    <circle cx="0" cy="185" r="4" fill="#B8860B" fill-opacity="0.8"/>
    <circle cx="0" cy="153" r="14" fill="#B8860B" fill-opacity="0.2" stroke="#2C2418" stroke-width="1.5"/>
    <circle cx="0" cy="153" r="4" fill="#B8860B" fill-opacity="0.8"/>
    <circle cx="0" cy="121" r="14" fill="#B8860B" fill-opacity="0.2" stroke="#2C2418" stroke-width="1.5"/>
    <circle cx="0" cy="121" r="4" fill="#B8860B" fill-opacity="0.8"/>
    <circle cx="0" cy="89" r="14" fill="#B8860B" fill-opacity="0.2" stroke="#2C2418" stroke-width="1.5"/>
    <circle cx="0" cy="89" r="4" fill="#B8860B" fill-opacity="0.8"/>
    <circle cx="0" cy="57" r="14" fill="#B8860B" fill-opacity="0.2" stroke="#2C2418" stroke-width="1.5"/>
    <circle cx="0" cy="57" r="4" fill="#B8860B" fill-opacity="0.8"/>
    <line x1="-25" y1="205" x2="25" y2="205" stroke="#2C2418" stroke-width="1.5" stroke-linecap="round"/>
  </g>
  <text x="300" y="240" text-anchor="middle" font-family="Georgia, serif" font-size="14" fill="#2C2418" font-style="italic">Nim position: (1, 3, 5)</text>
</svg>