<svg xmlns="http://www.w3.org/2000/svg" width="560" height="280" viewBox="0 0 560 280">
  <defs>
    <marker id="s" markerWidth="8" markerHeight="6" refX="7" refY="3" orient="auto">
      <polygon points="0 0, 8 3, 0 6" fill="#2C2418"/>
    </marker>
    <marker id="s-accent" markerWidth="8" markerHeight="6" refX="7" refY="3" orient="auto">
      <polygon points="0 0, 8 3, 0 6" fill="#B8860B"/>
    </marker>
    <marker id="s-green" markerWidth="8" markerHeight="6" refX="7" refY="3" orient="auto">
      <polygon points="0 0, 8 3, 0 6" fill="#6B705C"/>
    </marker>
    <marker id="s-red" markerWidth="8" markerHeight="6" refX="7" refY="3" orient="auto">
      <polygon points="0 0, 8 3, 0 6" fill="#A0522D"/>
    </marker>
  </defs>
  <text x="280" y="22" text-anchor="middle" font-family="Georgia, serif" font-size="15" fill="#2C2418" font-weight="bold">Successors in the sum G₁ + G₂</text>
  <circle cx="280" cy="80" r="26" fill="#B8860B" fill-opacity="0.1" stroke="#2C2418" stroke-width="2"/>
  <text x="280" y="85" text-anchor="middle" font-family="Georgia, serif" font-size="15" fill="#2C2418" font-weight="bold">(y₁, y₂)</text>
  <line x1="258.4" y1="94.4" x2="121.6" y2="185.6" stroke="#B8860B" stroke-width="2" marker-end="url(#s-accent)"/>
  <circle cx="100" cy="200" r="22" fill="white" stroke="#B8860B" stroke-width="1.8"/>
  <text x="100" y="205" text-anchor="middle" font-family="Georgia, serif" font-size="12" fill="#2C2418">(z₁, y₂)</text>
  <line x1="267.7" y1="102.9" x2="222.3" y2="187.1" stroke="#B8860B" stroke-width="2" marker-end="url(#s-accent)"/>
  <circle cx="210" cy="210" r="22" fill="white" stroke="#B8860B" stroke-width="1.8"/>
  <text x="210" y="215" text-anchor="middle" font-family="Georgia, serif" font-size="12" fill="#2C2418">(z'₁, y₂)</text>
  <text x="80" y="150" font-family="Georgia, serif" font-size="13" fill="#B8860B" font-weight="bold">move in G₁</text>
  <line x1="301.6" y1="94.4" x2="438.4" y2="185.6" stroke="#6B705C" stroke-width="2" marker-end="url(#s-green)"/>
  <circle cx="460" cy="200" r="22" fill="white" stroke="#6B705C" stroke-width="1.8"/>
  <text x="460" y="205" text-anchor="middle" font-family="Georgia, serif" font-size="12" fill="#2C2418">(y₁, z₂)</text>
  <line x1="292.3" y1="102.9" x2="337.7" y2="187.1" stroke="#6B705C" stroke-width="2" marker-end="url(#s-green)"/>
  <circle cx="350" cy="210" r="22" fill="white" stroke="#6B705C" stroke-width="1.8"/>
  <text x="350" y="215" text-anchor="middle" font-family="Georgia, serif" font-size="12" fill="#2C2418">(y₁, z'₂)</text>
  <text x="475" y="150" font-family="Georgia, serif" font-size="13" fill="#6B705C" font-weight="bold">move in G₂</text>
  <text x="280" y="265" text-anchor="middle" font-family="Georgia, serif" font-size="13" fill="#2C2418" font-style="italic">
    Succ(y₁, y₂) = { (z₁, y₂) : z₁ ∈ Succ(y₁) } ∪ { (y₁, z₂) : z₂ ∈ Succ(y₂) }
  </text>
</svg>