<svg xmlns="http://www.w3.org/2000/svg" xmlns:xlink="http://www.w3.org/1999/xlink" xmlns:inkscape="http://www.inkscape.org/namespaces/inkscape" version="1.1" width="720" height="648" viewBox="0 0 720 648">
<defs>
<clipPath id="clip_1">
<path transform="matrix(1,0,0,-1,0,648)" d="M168.50276 129.88622H680V608H168.50276Z"/>
</clipPath>
<path id="font_2_18" d="M.25898744 .5049896V0H.34700013V.70899966H.2889862C.2579956 .59999087 .23799134 .58499148 .101989749 .56799319V.5049896H.25898744Z"/>
<path id="font_2_76" d="M.14099121 .7285156H.057998659V0H.14099121V.20385742L.22200012 .28381349 .39898683 0H.5019989L.28799439 .34277345 .46998597 .52363589H.36299134L.14099121 .30178834V.7285156Z"/>
<clipPath id="clip_3">
<path transform="matrix(1,0,0,-1,0,648)" d="M168.50276 129.88622H680V608H168.50276Z"/>
</clipPath>
<path id="font_2_19" d="M.5059967 .08699036H.1329956C.14199829 .14498902 .17399597 .18199158 .26098634 .23298645L.36099244 .2869873C.45999146 .34098817 .5109863 .4139862 .5109863 .50097659 .5109863 .5599823 .4869995 .614975 .44499208 .65296939 .40299989 .690979 .35099793 .7089844 .28399659 .7089844 .19400025 .7089844 .1269989 .67697146 .08799744 .6169739 .06298828 .5789795 .051986696 .53497317 .049987794 .46298219H.13798523C.14099121 .5109863 .14698792 .539978 .15899658 .562973 .18199158 .6059723 .22799683 .63197329 .2809906 .63197329 .36099244 .63197329 .42099 .5749817 .42099 .49897767 .42099 .4429779 .3880005 .394989 .32499696 .35897828L.23298645 .30699159C.084991458 .22299195 .041992189 .1559906 .033996583 0H.5059967V.08699036Z"/>
<clipPath id="clip_4">
<path transform="matrix(1,0,0,-1,0,648)" d="M168.50276 129.88622H680V608H168.50276Z"/>
</clipPath>
<path id="font_2_25" d="M.3909912 .37297059C.46398927 .41697694 .48799134 .4529724 .48799134 .51997378 .48799134 .63098147 .40098573 .7089844 .2749939 .7089844 .1499939 .7089844 .06199646 .63098147 .06199646 .51997378 .06199646 .4539795 .085998538 .417984 .1579895 .37297059 .07699585 .33398438 .036987306 .27488709 .036987306 .19676209 .036987306 .0665741 .1349945-.0234375 .2749939-.0234375 .4149933-.0234375 .5130005 .0665741 .5130005 .19577027 .5130005 .27488709 .47299195 .33398438 .3909912 .37297059M.2749939 .63098147C.34999085 .63098147 .397995 .5869751 .397995 .51797488 .397995 .4519806 .34899903 .40797425 .2749939 .40797425 .20098877 .40797425 .1519928 .4519806 .1519928 .51898196 .1519928 .5869751 .20098877 .63098147 .2749939 .63098147M.2749939 .33398438C.36299134 .33398438 .4229889 .27789308 .4229889 .19476319 .4229889 .11064148 .36299134 .05455017 .272995 .05455017 .18699646 .05455017 .1269989 .11164856 .1269989 .19476319 .1269989 .27789308 .18699646 .33398438 .2749939 .33398438Z"/>
<clipPath id="clip_5">
<path transform="matrix(1,0,0,-1,0,648)" d="M168.50276 129.88622H680V608H168.50276Z"/>
</clipPath>
<path id="font_2_20" d="M.22099304 .3247528H.23199463L.2689972 .3257599C.3659973 .3257599 .41600038 .28172303 .41600038 .19665528 .41600038 .10758972 .36099244 .05455017 .2689972 .05455017 .17298889 .05455017 .12599182 .10258484 .11999512 .20567322H.03199768C.035995485 .1486206 .04598999 .11160278 .06298828 .079574588 .09899902 .011550903 .16899109-.0234375 .2659912-.0234375 .4119873-.0234375 .5059967 .063568118 .5059967 .19766236 .5059967 .28771974 .47099305 .33776856 .38598634 .36679078 .45199586 .392807 .4850006 .44284059 .4850006 .5138855 .4850006 .63597109 .4039917 .7089844 .2689972 .7089844 .12599182 .7089844 .049987794 .63098147 .04699707 .47987367H.1349945C.13598633 .52290347 .13999939 .5469208 .15098572 .56892397 .17098999 .60795596 .21499634 .63197329 .269989 .63197329 .34799195 .63197329 .394989 .5859375 .394989 .5108948 .394989 .46084596 .3769989 .4308319 .33799745 .41482545 .31399537 .40481568 .2829895 .4008026 .22099304 .3998108V.3247528Z"/>
<clipPath id="clip_6">
<path transform="matrix(1,0,0,-1,0,648)" d="M168.50276 129.88622H680V608H168.50276Z"/>
</clipPath>
<path id="font_2_23" d="M.49798585 .5236664C.48098756 .63998416 .40499879 .7089844 .29699708 .7089844 .21899414 .7089844 .14898682 .67097476 .10699463 .60791018 .06298828 .53871157 .042999269 .4514618 .042999269 .32243348 .042999269 .20349121 .06098938 .1275177 .102996829 .06454468 .14099121 .0075531008 .20298767-.0234375 .2809906-.0234375 .41600038-.0234375 .5130005 .076538089 .5130005 .21548462 .5130005 .34742738 .4229889 .4404297 .29599 .4404297 .22599793 .4404297 .17098999 .41342164 .1329956 .36141969 .13398743 .5346985 .18998719 .63098147 .29100038 .63098147 .35299684 .63098147 .3959961 .5918579 .4099884 .5236664H.49798585M.2849884 .36242677C.36999513 .36242677 .4229889 .30345155 .4229889 .2084961 .4229889 .119522098 .36299134 .05455017 .28199769 .05455017 .19999695 .05455017 .13798523 .122528079 .13798523 .21348572 .13798523 .30145265 .19799805 .36242677 .2849884 .36242677Z"/>
<path id="font_2_21" d="M.32699586 .17001343V0H.4149933V.17001343H.519989V.24902344H.4149933V.7090149H.34999085L.027999878 .26301576V.17001343H.32699586M.32699586 .24902344H.10499573L.32699586 .559021V.24902344Z"/>
<path id="font_2_85" d="M.2539978 .52441409H.16799927V.66841128H.084991458V.52441409H.01399231V.45640565H.084991458V.059570314C.084991458 .0065612795 .12098694-.0234375 .18598938-.0234375 .20599365-.0234375 .22599793-.021438599 .2539978-.016448975V.05355835C.24299622 .05055237 .22999573 .049560548 .21398926 .049560548 .17799378 .049560548 .16799927 .059570314 .16799927 .09664917V.45640565H.2539978V.52441409Z"/>
<path id="font_2_80" d="M.27198792 .5390625C.125 .5390625 .035995485 .434021 .035995485 .25779725 .035995485 .081588748 .12399292-.0234375 .272995-.0234375 .41999818-.0234375 .5099945 .081588748 .5099945 .25379945 .5099945 .43502809 .4229889 .5390625 .27198792 .5390625M.272995 .4620514C.36698915 .4620514 .4229889 .384964 .4229889 .25480653 .4229889 .13165283 .36499024 .05355835 .272995 .05355835 .17999268 .05355835 .12298584 .13064575 .12298584 .25779725 .12298584 .3839569 .17999268 .4620514 .272995 .4620514Z"/>
<path id="font_2_70" d="M.5130005 .23374939C.5130005 .31376649 .5069885 .36186219 .49198915 .40093995 .45799256 .48706056 .37799073 .5390625 .27999879 .5390625 .13398743 .5390625 .039993287 .4269867 .039993287 .25474549 .039993287 .08258057 .1309967-.0234375 .27799989-.0234375 .397995-.0234375 .48098756 .044555665 .5019989 .15867615H.41799928C.394989 .08959961 .34799195 .05355835 .2809906 .05355835 .22799683 .05355835 .18299866 .07757568 .15499878 .12162781 .1349945 .1516571 .12799073 .18170166 .1269989 .23374939H.5130005M.1289978 .3017578C.13598633 .39894105 .19499207 .4620514 .2789917 .4620514 .36099244 .4620514 .42399598 .3939209 .42399598 .30775453 .42399598 .30575563 .42399598 .3037567 .4229889 .3017578H.1289978Z"/>
<path id="font_2_79" d="M.069992069 .52441409V0H.1539917V.2892151C.1539917 .39604188 .20999146 .4660492 .29599 .4660492 .3619995 .4660492 .4039917 .42604066 .4039917 .3630371V0H.4869995V.39604188C.4869995 .4830475 .42199708 .5390625 .32099916 .5390625 .24299622 .5390625 .19299317 .50904849 .14698792 .43605042V.52441409H.069992069Z"/>
<path id="font_2_77" d="M.1519928 .7285156H.067993167V0H.1519928V.7285156Z"/>
<path id="font_2_72" d="M.4119873 .52404788V.44804383C.36999513 .51005557 .31900025 .5390625 .2519989 .5390625 .11898804 .5390625 .0289917 .42300416 .0289917 .25279237 .0289917 .16668701 .051986696 .09660339 .09498596 .046554567 .13398743 .0025482178 .18998719-.0234375 .24499512-.0234375 .31098939-.0234375 .35699464 .004562378 .4039917 .0705719V.043548585C.4039917-.027450562 .394989-.07044983 .37399293-.09944153 .35198976-.13044739 .30899049-.1484375 .2579956-.1484375 .21998596-.1484375 .18598938-.138443 .16299439-.12043762 .14399719-.10543823 .13598633-.09144592 .1309967-.060440065H.04598999C.054992677-.15943909 .13198853-.21844483 .25498963-.21844483 .33299256-.21844483 .3999939-.19345093 .43399049-.15144348 .47399903-.10343933 .4889984-.03744507 .4889984 .08560181V.52404788H.4119873M.26098634 .4620514C.35099793 .4620514 .4039917 .3859558 .4039917 .25480653 .4039917 .12965393 .34999085 .05355835 .2619934 .05355835 .17098999 .05355835 .115997318 .13064575 .115997318 .25779725 .115997318 .3839569 .17199707 .4620514 .26098634 .4620514Z"/>
<path id="font_2_73" d="M.069992069 .7285156V0H.15299988V.28903199C.15299988 .39604188 .20899964 .4660492 .29499818 .4660492 .32199098 .4660492 .34899903 .4570465 .36898805 .44204713 .3929901 .42504884 .40299989 .40003968 .40299989 .3630371V0H.48599244V.39604188C.48599244 .48405458 .4229889 .5390625 .32099916 .5390625 .24699402 .5390625 .20199585 .51605227 .15299988 .45205689V.7285156H.069992069Z"/>
<clipPath id="clip_7">
<path transform="matrix(1,0,0,-1,0,648)" d="M168.50276 129.88622H680V608H168.50276Z"/>
</clipPath>
<path id="font_8_50" d="M.41999818 .3212433C.41999818 .38223268 .4189911 .4861908 .3769989 .5661621 .33999635 .6361389 .2809906 .6611328 .22898865 .6611328 .18099976 .6611328 .11999512 .63912966 .08198547 .56715396 .041992189 .4921875 .037994386 .3992157 .037994386 .3212433 .037994386 .26426698 .038986207 .17730713 .069992069 .10133362 .11299133-.0016326904 .18998719-.015625 .22898865-.015625 .2749939-.015625 .34498597 .0033721924 .38598634 .09832764 .41600038 .16731262 .41999818 .24827576 .41999818 .3212433M.22898865 .00036621095C.16499329 .00036621095 .1269989 .055343629 .11299133 .13131714 .101989749 .19029236 .101989749 .27626039 .101989749 .33224488 .101989749 .4092102 .101989749 .4731903 .114990238 .5341644 .13398743 .6191406 .18998719 .64512637 .22898865 .64512637 .269989 .64512637 .32299806 .61813357 .34199525 .53616335 .35499574 .479187 .35598756 .4122162 .35598756 .33224488 .35598756 .26727296 .35598756 .18730164 .34399415 .12832642 .32299806 .019363404 .2639923 .00036621095 .22898865 .00036621095Z"/>
<path id="font_9_59" d="M.18399048 .04798889C.18399048 .07699585 .1599884 .09700012 .13598633 .09700012 .10699463 .09700012 .08699036 .07299805 .08699036 .04899597 .08699036 .019989014 .11099243 0 .1349945 0 .1639862 0 .18399048 .023986817 .18399048 .04798889Z"/>
<path id="font_8_51" d="M.2659912 .63912966C.2659912 .66012576 .2649994 .6611328 .25099183 .6611328 .21199036 .61424258 .15299988 .5993042 .09700012 .5973053 .09399414 .5973053 .08898926 .5973053 .08799744 .5953064 .08699036 .5933075 .08699036 .5913086 .08699036 .5703125 .117996219 .5703125 .16999817 .5763092 .20999146 .600296V.073013309C.20999146 .037994386 .20799256 .025985718 .12199402 .025985718H.09199524V0C.13999939 .0009918213 .18998719 .0019989014 .23799134 .0019989014 .28599549 .0019989014 .33599855 .0009918213 .38398744 0V.025985718H.35398866C.2679901 .025985718 .2659912 .037002565 .2659912 .073013309V.63912966Z"/>
<clipPath id="clip_10">
<path transform="matrix(1,0,0,-1,0,648)" d="M168.50276 129.88622H680V608H168.50276Z"/>
</clipPath>
<path id="font_8_55" d="M.11399841 .58535769C.12399292 .5813446 .16499329 .5683594 .20698548 .5683594 .2999878 .5683594 .35099793 .61834719 .37998963 .64715579 .37998963 .65515139 .37998963 .66015627 .37399293 .66015627 .37298585 .66015627 .37098695 .66015627 .36299134 .6561432 .32798768 .6411438 .2869873 .62934878 .23699951 .62934878 .20698548 .62934878 .1619873 .6332855 .11299133 .65515139 .101989749 .66015627 .099990848 .66015627 .09899902 .66015627 .09399414 .66015627 .09298706 .65914919 .09298706 .63916018V.34931947C.09298706 .33129884 .09298706 .32629396 .102996829 .32629396 .10798645 .32629396 .10998535 .32829286 .114990238 .33529664 .14698792 .3803711 .19099427 .39941407 .24099732 .39941407 .27598573 .39941407 .35099793 .3773651 .35099793 .20610047 .35099793 .17408753 .35099793 .116119388 .32099916 .07022095 .29599 .029312134 .25698854 .008361816 .21398926 .008361816 .147995 .008361816 .08099365 .054260255 .06298828 .13108826 .066986087 .13009644 .07499695 .12809754 .07899475 .12809754 .09199524 .12809754 .116989139 .13510132 .116989139 .16609192 .116989139 .19309998 .09799194 .20410156 .07899475 .20410156 .055999757 .20410156 .040985109 .190094 .040985109 .16209412 .040985109 .07521057 .10998535-.015625 .21598816-.015625 .31900025-.015625 .4169922 .07322693 .4169922 .2020874 .4169922 .32228089 .33898927 .41540528 .24198914 .41540528 .19099427 .41540528 .147995 .39640809 .11399841 .3603363V.58535769Z"/>
<clipPath id="clip_11">
<path transform="matrix(1,0,0,-1,0,648)" d="M168.50276 129.88622H680V608H168.50276Z"/>
</clipPath>
<path id="font_8_52" d="M.4169922 .15492249H.39898683C.3889923 .083969119 .3809967 .07197571 .3769989 .06599426 .37199403 .057998659 .2999878 .057998659 .28599549 .057998659H.09399414C.12998963 .096969608 .19999695 .16792298 .2849884 .24986267 .34599305 .30781556 .4169922 .37576295 .4169922 .47473146 .4169922 .59298709 .32299806 .6611328 .21798706 .6611328 .10798645 .6611328 .040985109 .5639038 .040985109 .47373963 .040985109 .43473817 .069992069 .42973329 .08198547 .42973329 .09199524 .42973329 .12199402 .43572999 .12199402 .47073365 .12199402 .5017395 .09599304 .5107422 .08198547 .5107422 .07598877 .5107422 .069992069 .5097351 .06599426 .5077362 .084991458 .59298709 .14299011 .63513186 .20399475 .63513186 .29100038 .63513186 .34799195 .5659027 .34799195 .47473146 .34799195 .38775636 .29699708 .31282044 .23999024 .24786377L.040985109 .022994996V0H.3929901L.4169922 .15492249Z"/>
<clipPath id="clip_12">
<path transform="matrix(1,0,0,-1,0,648)" d="M168.50276 129.88622H680V608H168.50276Z"/>
</clipPath>
<path id="font_2_66" d="M.5349884 .048553468C.526001 .046554567 .5219879 .046554567 .5169983 .046554567 .48799134 .046554567 .47200013 .061569215 .47200013 .08760071V.39598084C.47200013 .48905946 .4039917 .5390625 .2749939 .5390625 .19898987 .5390625 .13598633 .5170593 .100997928 .47805787 .07699585 .45103456 .066986087 .42100526 .06498718 .36894227H.14898682C.1559906 .43301393 .19400025 .4620514 .27198792 .4620514 .34700013 .4620514 .3889923 .434021 .3889923 .3839569V.36193849C.3889923 .32688905 .36799623 .3118744 .3019867 .30386354 .18399048 .28884889 .1659851 .28483583 .13398743 .27182008 .07299805 .24679566 .041992189 .19973755 .041992189 .13165283 .041992189 .03656006 .10798645-.0234375 .21398926-.0234375 .27999879-.0234375 .33299256-.00044250489 .3919983 .05355835 .397995 .0005493164 .42399598-.0234375 .47799684-.0234375 .49499513-.0234375 .5079956-.021438599 .5349884-.014450073V.048553468M.3889923 .16468811C.3889923 .13665772 .3809967 .119644168 .35598756 .09661865 .32199098 .06556702 .2809906 .049560548 .23199463 .049560548 .16699219 .049560548 .1289978 .080596927 .1289978 .13365174 .1289978 .1887207 .1659851 .2167511 .25498963 .22976685 .34298707 .24179077 .36099244 .24578858 .3889923 .25880433V.16468811Z"/>
<path id="font_2_9" d="M.23599243 .7285156C.13598633 .59750369 .07299805 .41551209 .07299805 .2585144 .07299805 .10050964 .13598633-.08149719 .23599243-.2124939H.29100038C.20298767-.069488529 .1539917 .09851074 .1539917 .2585144 .1539917 .417511 .20298767 .5865021 .29100038 .7285156H.23599243Z"/>
<path id="font_2_78" d="M.069992069 .52441409V0H.1539917V.32925416C.1539917 .40504457 .20899964 .4660492 .2769928 .4660492 .33898927 .4660492 .37399293 .4280548 .37399293 .3610382V0H.45799256V.32904054C.45799256 .40504457 .5130005 .4660492 .58099368 .4660492 .6419983 .4660492 .6779938 .42704774 .6779938 .3610382V0H.7619934V.3930359C.7619934 .48706056 .70799258 .5390625 .6100006 .5390625 .5399933 .5390625 .49798585 .51805117 .44898988 .4590454 .41799928 .5150604 .37599183 .5390625 .30799867 .5390625 .23799134 .5390625 .19198609 .5130615 .14698792 .45005799V.52441409H.069992069Z"/>
<path id="font_2_84" d="M.43798829 .37794496C.43699647 .48104859 .36898805 .5390625 .24798584 .5390625 .12599182 .5390625 .04699707 .47605897 .04699707 .37895204 .04699707 .29685975 .08898926 .25779725 .21299744 .22776795L.29100038 .20874024C.34899903 .19473267 .37199403 .17370606 .37199403 .13565064 .37199403 .08659363 .32299806 .05355835 .25 .05355835 .20498657 .05355835 .16699219 .0665741 .1459961 .08859253 .1329956 .10362244 .1269989 .118637088 .12199402 .15568543H.033996583C.037994386 .034561159 .10598755-.0234375 .24299622-.0234375 .375-.0234375 .45899964 .041549684 .45899964 .14266968 .45899964 .22076416 .4149933 .2638092 .31098939 .28884889L.23098755 .30786134C.16299439 .32388307 .13398743 .34591676 .13398743 .3829651 .13398743 .431015 .1769867 .4620514 .24499512 .4620514 .31199647 .4620514 .34799195 .43301393 .34999085 .37794496H.43798829Z"/>
<path id="font_2_10" d="M.09298706-.2124939C.19299317-.08149719 .2559967 .10050964 .2559967 .25750733 .2559967 .41551209 .19299317 .59750369 .09298706 .7285156H.037994386C.12599182 .58551028 .1749878 .417511 .1749878 .25750733 .1749878 .09851074 .12599182-.070495609 .037994386-.2124939H.09298706Z"/>
<clipPath id="clip_13">
<path transform="matrix(1,0,0,-1,0,648)" d="M168.50276 129.88622H680V608H168.50276Z"/>
</clipPath>
<clipPath id="clip_14">
<path transform="matrix(1,0,0,-1,191.75264,496.38136)" d="M-14.5-14.5H14.5V14.5H-14.5Z"/>
</clipPath>
<clipPath id="clip_15">
<path transform="matrix(1,0,0,-1,258.18086,495.73414)" d="M-14.5-14.5H14.5V14.5H-14.5Z"/>
</clipPath>
<clipPath id="clip_16">
<path transform="matrix(1,0,0,-1,324.60908,495.843)" d="M-14.5-14.5H14.5V14.5H-14.5Z"/>
</clipPath>
<clipPath id="clip_17">
<path transform="matrix(1,0,0,-1,391.0373,492.43043)" d="M-14.5-14.5H14.5V14.5H-14.5Z"/>
</clipPath>
<clipPath id="clip_18">
<path transform="matrix(1,0,0,-1,457.4655,481.25233)" d="M-14.5-14.5H14.5V14.5H-14.5Z"/>
</clipPath>
<clipPath id="clip_19">
<path transform="matrix(1,0,0,-1,523.89376,463.70664)" d="M-14.5-14.5H14.5V14.5H-14.5Z"/>
</clipPath>
<clipPath id="clip_20">
<path transform="matrix(1,0,0,-1,590.32199,429.97789)" d="M-14.5-14.5H14.5V14.5H-14.5Z"/>
</clipPath>
<clipPath id="clip_21">
<path transform="matrix(1,0,0,-1,656.7502,376.27159)" d="M-14.5-14.5H14.5V14.5H-14.5Z"/>
</clipPath>
<clipPath id="clip_22">
<path transform="matrix(1,0,0,-1,0,648)" d="M168.50276 129.88622H680V608H168.50276Z"/>
</clipPath>
<clipPath id="clip_23">
<path transform="matrix(1,0,0,-1,191.75264,403.8786)" d="M-16.5-16.5H16.5V16.5H-16.5Z"/>
</clipPath>
<clipPath id="clip_24">
<path transform="matrix(1,0,0,-1,258.18086,400.71635)" d="M-16.5-16.5H16.5V16.5H-16.5Z"/>
</clipPath>
<clipPath id="clip_25">
<path transform="matrix(1,0,0,-1,324.60908,400.68333)" d="M-16.5-16.5H16.5V16.5H-16.5Z"/>
</clipPath>
<clipPath id="clip_26">
<path transform="matrix(1,0,0,-1,391.0373,462.88816)" d="M-16.5-16.5H16.5V16.5H-16.5Z"/>
</clipPath>
<clipPath id="clip_27">
<path transform="matrix(1,0,0,-1,457.4655,430.50086)" d="M-16.5-16.5H16.5V16.5H-16.5Z"/>
</clipPath>
<clipPath id="clip_28">
<path transform="matrix(1,0,0,-1,523.89376,373.98255)" d="M-16.5-16.5H16.5V16.5H-16.5Z"/>
</clipPath>
<clipPath id="clip_29">
<path transform="matrix(1,0,0,-1,590.32199,265.94349)" d="M-16.5-16.5H16.5V16.5H-16.5Z"/>
</clipPath>
<clipPath id="clip_30">
<path transform="matrix(1,0,0,-1,656.7502,61.73239)" d="M-16.5-16.5H16.5V16.5H-16.5Z"/>
</clipPath>
<path id="font_2_35" d="M.07899475 0H.4079895C.47698976 0 .5279999 .018997193 .5669861 .06098938 .6029968 .09899902 .6230011 .15100098 .6230011 .20799256 .6230011 .29600526 .58299258 .34899903 .48999024 .3849945 .55599978 .41600038 .59098818 .46987916 .59098818 .5437317 .59098818 .59661868 .57099917 .6435089 .5329895 .6775055 .49499513 .71250918 .44499208 .7285156 .375 .7285156H.07899475V0M.17199707 .4149933V.6465149H.35198976C.4039917 .6465149 .43299867 .63952639 .45799256 .6205597 .48399354 .6006012 .49798585 .57066348 .49798585 .53074648 .49798585 .49183656 .48399354 .46090699 .45799256 .4409485 .43299867 .4219818 .4039917 .4149933 .35198976 .4149933H.17199707M.17199707 .08198547V.3330078H.39898683C.44400025 .3330078 .47399903 .32200624 .49598695 .29800416 .5179901 .2749939 .5299988 .24299622 .5299988 .20700073 .5299988 .17199707 .5179901 .13999939 .49598695 .116989139 .47399903 .09298706 .44400025 .08198547 .39898683 .08198547H.17199707Z"/>
<path id="font_2_39" d="M.18299866 .33203126H.5309906V.41401673H.18299866V.6465149H.57899478V.7285156H.08999634V0H.18299866V.33203126Z"/>
<path id="font_2_50" d="M.73298647-.001449585 .6389923 .07557678C.70799258 .1516571 .74198916 .24575806 .74198916 .36088563 .74198916 .5871277 .59999087 .74121096 .3899994 .74121096 .17999268 .74121096 .037994386 .5871277 .037994386 .35887147 .037994386 .1306305 .17999268-.0234375 .3899994-.0234375 .46199037-.0234375 .5219879-.007446289 .58099368 .027557373L.6859894-.059448244 .73298647-.001449585M.48098756 .20471192 .43499757 .14865113 .5089874 .08657837C.46598817 .06655884 .43299867 .058547975 .3889923 .058547975 .23399353 .058547975 .1309967 .17868042 .1309967 .35887147 .1309967 .53907778 .23498535 .6592102 .3899994 .6592102 .54499819 .6592102 .6489868 .53907778 .6489868 .35987855 .6489868 .2657776 .6239929 .19270325 .56999209 .13163758L.48098756 .20471192Z"/>
<path id="font_2_43" d="M.33299256 .7285156V.21554566C.33299256 .157547 .32699586 .124557498 .30999757 .09954834 .2919922 .07154846 .2579956 .05455017 .22099304 .05455017 .15098572 .05455017 .11199951 .10154724 .11199951 .1865387V.23353577H.016998291V.1695404C.016998291 .05155945 .09498596-.0234375 .21998596-.0234375 .34700013-.0234375 .42599488 .05555725 .42599488 .18154907V.7285156H.33299256Z"/>
<path id="font_2_45" d="M.17298889 .7285156H.07998657V0H.5329895V.08198547H.17298889V.7285156Z"/>
<path id="font_2_86" d="M.48199464-.00044250489V.52441409H.39898683V.22688294C.39898683 .11968994 .34298707 .049560548 .2559967 .049560548 .18998719 .049560548 .147995 .08963013 .147995 .15275574V.52441409H.06498718V.11968994C.06498718 .032562257 .12998963-.0234375 .23199463-.0234375 .30899049-.0234375 .35798646 .0035552979 .40699769 .07260132V-.00044250489H.48199464Z"/>
<path id="font_2_83" d="M.068984989 .52441409V0H.15299988V.27220155C.15299988 .34727479 .17199707 .39631654 .21199036 .42533876 .23799134 .4443512 .2630005 .45036317 .32099916 .45135499V.5364075C.30699159 .5380554 .2999878 .5390625 .2889862 .5390625 .23498535 .5390625 .19400025 .50704959 .1459961 .42904664V.52441409H.068984989Z"/>
</defs>


<g clip-path="url(#clip_1)">
<path transform="matrix(1,0,0,-1,0,648)" stroke-width=".8" stroke-linecap="square" stroke-linejoin="round" fill="none" stroke="#b0b0b0" d="M258.18086 129.88622V608"/>
</g>
<path transform="matrix(1,0,0,-1,0,648)" d="M258.18086 129.88622V126.386219"/>
<path transform="matrix(1,0,0,-1,0,648)" stroke-width=".8" stroke-linecap="butt" stroke-linejoin="round" fill="none" stroke="#000000" d="M258.18086 129.88622V126.386219"/>
<use data-text="1" xlink:href="#font_2_18" transform="matrix(31.880448,0,0,-31.880448,241.34807,554.3284)"/>
<use data-text="k" xlink:href="#font_2_76" transform="matrix(31.880448,0,0,-31.880448,259.04173,554.3284)"/>
<g clip-path="url(#clip_3)">
<path transform="matrix(1,0,0,-1,0,648)" stroke-width=".8" stroke-linecap="square" stroke-linejoin="round" fill="none" stroke="#b0b0b0" d="M324.60908 129.88622V608"/>
</g>
<path transform="matrix(1,0,0,-1,0,648)" d="M324.60908 129.88622V126.386219"/>
<path transform="matrix(1,0,0,-1,0,648)" stroke-width=".8" stroke-linecap="butt" stroke-linejoin="round" fill="none" stroke="#000000" d="M324.60908 129.88622V126.386219"/>
<use data-text="2" xlink:href="#font_2_19" transform="matrix(31.880448,0,0,-31.880448,307.77629,554.3284)"/>
<use data-text="k" xlink:href="#font_2_76" transform="matrix(31.880448,0,0,-31.880448,325.4699,554.3284)"/>
<g clip-path="url(#clip_4)">
<path transform="matrix(1,0,0,-1,0,648)" stroke-width=".8" stroke-linecap="square" stroke-linejoin="round" fill="none" stroke="#b0b0b0" d="M457.46549 129.88622V608"/>
</g>
<path transform="matrix(1,0,0,-1,0,648)" d="M457.46549 129.88622V126.386219"/>
<path transform="matrix(1,0,0,-1,0,648)" stroke-width=".8" stroke-linecap="butt" stroke-linejoin="round" fill="none" stroke="#000000" d="M457.46549 129.88622V126.386219"/>
<use data-text="8" xlink:href="#font_2_25" transform="matrix(31.880448,0,0,-31.880448,440.63273,554.3284)"/>
<use data-text="k" xlink:href="#font_2_76" transform="matrix(31.880448,0,0,-31.880448,458.32637,554.3284)"/>
<g clip-path="url(#clip_5)">
<path transform="matrix(1,0,0,-1,0,648)" stroke-width=".8" stroke-linecap="square" stroke-linejoin="round" fill="none" stroke="#b0b0b0" d="M588.049 129.88622V608"/>
</g>
<path transform="matrix(1,0,0,-1,0,648)" d="M588.049 129.88622V126.386219"/>
<path transform="matrix(1,0,0,-1,0,648)" stroke-width=".8" stroke-linecap="butt" stroke-linejoin="round" fill="none" stroke="#000000" d="M588.049 129.88622V126.386219"/>
<use data-text="3" xlink:href="#font_2_20" transform="matrix(31.880448,0,0,-31.880448,562.3536,554.3284)"/>
<use data-text="2" xlink:href="#font_2_19" transform="matrix(31.880448,0,0,-31.880448,580.04727,554.3284)"/>
<use data-text="k" xlink:href="#font_2_76" transform="matrix(31.880448,0,0,-31.880448,597.7409,554.3284)"/>
<g clip-path="url(#clip_6)">
<path transform="matrix(1,0,0,-1,0,648)" stroke-width=".8" stroke-linecap="square" stroke-linejoin="round" fill="none" stroke="#b0b0b0" d="M654.47726 129.88622V608"/>
</g>
<path transform="matrix(1,0,0,-1,0,648)" d="M654.47726 129.88622V126.386219"/>
<path transform="matrix(1,0,0,-1,0,648)" stroke-width=".8" stroke-linecap="butt" stroke-linejoin="round" fill="none" stroke="#000000" d="M654.47726 129.88622V126.386219"/>
<use data-text="6" xlink:href="#font_2_23" transform="matrix(31.880448,0,0,-31.880448,628.7818,554.3284)"/>
<use data-text="4" xlink:href="#font_2_21" transform="matrix(31.880448,0,0,-31.880448,646.47549,554.3284)"/>
<use data-text="k" xlink:href="#font_2_76" transform="matrix(31.880448,0,0,-31.880448,664.1691,554.3284)"/>
<use data-text="t" xlink:href="#font_2_85" transform="matrix(39.85056,0,0,-39.85056,316.09834,599.5121)"/>
<use data-text="o" xlink:href="#font_2_80" transform="matrix(39.85056,0,0,-39.85056,327.13694,599.5121)"/>
<use data-text="k" xlink:href="#font_2_76" transform="matrix(39.85056,0,0,-39.85056,349.254,599.5121)"/>
<use data-text="e" xlink:href="#font_2_70" transform="matrix(39.85056,0,0,-39.85056,368.38249,599.5121)"/>
<use data-text="n" xlink:href="#font_2_79" transform="matrix(39.85056,0,0,-39.85056,390.49955,599.5121)"/>
<use data-text="l" xlink:href="#font_2_77" transform="matrix(39.85056,0,0,-39.85056,423.69468,599.5121)"/>
<use data-text="e" xlink:href="#font_2_70" transform="matrix(39.85056,0,0,-39.85056,432.50166,599.5121)"/>
<use data-text="n" xlink:href="#font_2_79" transform="matrix(39.85056,0,0,-39.85056,454.6187,599.5121)"/>
<use data-text="g" xlink:href="#font_2_72" transform="matrix(39.85056,0,0,-39.85056,476.73579,599.5121)"/>
<use data-text="t" xlink:href="#font_2_85" transform="matrix(39.85056,0,0,-39.85056,498.85285,599.5121)"/>
<use data-text="h" xlink:href="#font_2_73" transform="matrix(39.85056,0,0,-39.85056,509.89146,599.5121)"/>
<g clip-path="url(#clip_7)">
<path transform="matrix(1,0,0,-1,0,648)" stroke-width=".8" stroke-linecap="square" stroke-linejoin="round" fill="none" stroke="#b0b0b0" d="M168.50276 199.0896H680"/>
</g>
<path transform="matrix(1,0,0,-1,0,648)" d="M168.50276 199.0896H165.00276"/>
<path transform="matrix(1,0,0,-1,0,648)" stroke-width=".8" stroke-linecap="butt" stroke-linejoin="round" fill="none" stroke="#000000" d="M168.50276 199.0896H165.00276"/>
<use data-text="0" xlink:href="#font_8_50" transform="matrix(37.858034,0,0,-37.858034,92.6187,462.39723)"/>
<use data-text="." xlink:href="#font_9_59" transform="matrix(37.858034,0,0,-37.858034,109.98108,462.39723)"/>
<use data-text="1" xlink:href="#font_8_51" transform="matrix(37.858034,0,0,-37.858034,120.27801,462.39723)"/>
<use data-text="0" xlink:href="#font_8_50" transform="matrix(37.858034,0,0,-37.858034,137.61699,462.39723)"/>
<g clip-path="url(#clip_10)">
<path transform="matrix(1,0,0,-1,0,648)" stroke-width=".8" stroke-linecap="square" stroke-linejoin="round" fill="none" stroke="#b0b0b0" d="M168.50276 308.33415H680"/>
</g>
<path transform="matrix(1,0,0,-1,0,648)" d="M168.50276 308.33415H165.00276"/>
<path transform="matrix(1,0,0,-1,0,648)" stroke-width=".8" stroke-linecap="butt" stroke-linejoin="round" fill="none" stroke="#000000" d="M168.50276 308.33415H165.00276"/>
<use data-text="0" xlink:href="#font_8_50" transform="matrix(37.858034,0,0,-37.858034,92.6187,353.15269)"/>
<use data-text="." xlink:href="#font_9_59" transform="matrix(37.858034,0,0,-37.858034,109.98108,353.15269)"/>
<use data-text="1" xlink:href="#font_8_51" transform="matrix(37.858034,0,0,-37.858034,120.27801,353.15269)"/>
<use data-text="5" xlink:href="#font_8_55" transform="matrix(37.858034,0,0,-37.858034,137.61699,353.15269)"/>
<g clip-path="url(#clip_11)">
<path transform="matrix(1,0,0,-1,0,648)" stroke-width=".8" stroke-linecap="square" stroke-linejoin="round" fill="none" stroke="#b0b0b0" d="M168.50276 417.57868H680"/>
</g>
<path transform="matrix(1,0,0,-1,0,648)" d="M168.50276 417.57868H165.00276"/>
<path transform="matrix(1,0,0,-1,0,648)" stroke-width=".8" stroke-linecap="butt" stroke-linejoin="round" fill="none" stroke="#000000" d="M168.50276 417.57868H165.00276"/>
<use data-text="0" xlink:href="#font_8_50" transform="matrix(37.858034,0,0,-37.858034,92.6187,243.90811)"/>
<use data-text="." xlink:href="#font_9_59" transform="matrix(37.858034,0,0,-37.858034,109.98108,243.90811)"/>
<use data-text="2" xlink:href="#font_8_52" transform="matrix(37.858034,0,0,-37.858034,120.27801,243.90811)"/>
<use data-text="0" xlink:href="#font_8_50" transform="matrix(37.858034,0,0,-37.858034,137.61699,243.90811)"/>
<g clip-path="url(#clip_12)">
<path transform="matrix(1,0,0,-1,0,648)" stroke-width=".8" stroke-linecap="square" stroke-linejoin="round" fill="none" stroke="#b0b0b0" d="M168.50276 526.82327H680"/>
</g>
<path transform="matrix(1,0,0,-1,0,648)" d="M168.50276 526.82327H165.00276"/>
<path transform="matrix(1,0,0,-1,0,648)" stroke-width=".8" stroke-linecap="butt" stroke-linejoin="round" fill="none" stroke="#000000" d="M168.50276 526.82327H165.00276"/>
<use data-text="0" xlink:href="#font_8_50" transform="matrix(37.858034,0,0,-37.858034,92.6187,134.66358)"/>
<use data-text="." xlink:href="#font_9_59" transform="matrix(37.858034,0,0,-37.858034,109.98108,134.66358)"/>
<use data-text="2" xlink:href="#font_8_52" transform="matrix(37.858034,0,0,-37.858034,120.27801,134.66358)"/>
<use data-text="5" xlink:href="#font_8_55" transform="matrix(37.858034,0,0,-37.858034,137.61699,134.66358)"/>
<use data-text="t" xlink:href="#font_2_85" transform="matrix(0,-39.85056,-39.85056,-0,69.13075,362.08445)"/>
<use data-text="o" xlink:href="#font_2_80" transform="matrix(0,-39.85056,-39.85056,-0,69.13075,351.04585)"/>
<use data-text="t" xlink:href="#font_2_85" transform="matrix(0,-39.85056,-39.85056,-0,69.13075,328.92878)"/>
<use data-text="a" xlink:href="#font_2_66" transform="matrix(0,-39.85056,-39.85056,-0,69.13075,317.89018)"/>
<use data-text="l" xlink:href="#font_2_77" transform="matrix(0,-39.85056,-39.85056,-0,69.13075,295.7731)"/>
<use data-text="(" xlink:href="#font_2_9" transform="matrix(0,-39.85056,-39.85056,-0,69.13075,275.88807)"/>
<use data-text="m" xlink:href="#font_2_78" transform="matrix(0,-39.85056,-39.85056,-0,69.13075,262.65769)"/>
<use data-text="s" xlink:href="#font_2_84" transform="matrix(0,-39.85056,-39.85056,-0,69.13075,229.50202)"/>
<use data-text=")" xlink:href="#font_2_10" transform="matrix(0,-39.85056,-39.85056,-0,69.13075,209.57672)"/>
<g clip-path="url(#clip_13)">
<path transform="matrix(1,0,0,-1,0,648)" stroke-width="7" stroke-linecap="square" stroke-linejoin="round" fill="none" stroke="#ff3e30" d="M191.75264 151.61865 258.18086 152.26589 324.60908 152.15702 391.03727 155.56957 457.46549 166.74768 523.8937 184.29337 590.3219 218.02214 656.7501 271.72846"/>
<g clip-path="url(#clip_14)">
<path transform="matrix(1,0,0,-1,191.75264,496.38136)" d="M0-7C1.856422-7 3.637059-6.262436 4.949747-4.949747 6.262436-3.637059 7-1.856422 7 0 7 1.856422 6.262436 3.637059 4.949747 4.949747 3.637059 6.262436 1.856422 7 0 7-1.856422 7-3.637059 6.262436-4.949747 4.949747-6.262436 3.637059-7 1.856422-7 0-7-1.856422-6.262436-3.637059-4.949747-4.949747-3.637059-6.262436-1.856422-7 0-7Z" fill="#ff3e30"/>
<path transform="matrix(1,0,0,-1,191.75264,496.38136)" stroke-width="1.5" stroke-linecap="butt" stroke-linejoin="round" fill="none" stroke="#000000" d="M0-7C1.856422-7 3.637059-6.262436 4.949747-4.949747 6.262436-3.637059 7-1.856422 7 0 7 1.856422 6.262436 3.637059 4.949747 4.949747 3.637059 6.262436 1.856422 7 0 7-1.856422 7-3.637059 6.262436-4.949747 4.949747-6.262436 3.637059-7 1.856422-7 0-7-1.856422-6.262436-3.637059-4.949747-4.949747-3.637059-6.262436-1.856422-7 0-7Z"/>
</g>
<g clip-path="url(#clip_15)">
<path transform="matrix(1,0,0,-1,258.18086,495.73414)" d="M0-7C1.856422-7 3.637059-6.262436 4.949747-4.949747 6.262436-3.637059 7-1.856422 7 0 7 1.856422 6.262436 3.637059 4.949747 4.949747 3.637059 6.262436 1.856422 7 0 7-1.856422 7-3.637059 6.262436-4.949747 4.949747-6.262436 3.637059-7 1.856422-7 0-7-1.856422-6.262436-3.637059-4.949747-4.949747-3.637059-6.262436-1.856422-7 0-7Z" fill="#ff3e30"/>
<path transform="matrix(1,0,0,-1,258.18086,495.73414)" stroke-width="1.5" stroke-linecap="butt" stroke-linejoin="round" fill="none" stroke="#000000" d="M0-7C1.856422-7 3.637059-6.262436 4.949747-4.949747 6.262436-3.637059 7-1.856422 7 0 7 1.856422 6.262436 3.637059 4.949747 4.949747 3.637059 6.262436 1.856422 7 0 7-1.856422 7-3.637059 6.262436-4.949747 4.949747-6.262436 3.637059-7 1.856422-7 0-7-1.856422-6.262436-3.637059-4.949747-4.949747-3.637059-6.262436-1.856422-7 0-7Z"/>
</g>
<g clip-path="url(#clip_16)">
<path transform="matrix(1,0,0,-1,324.60908,495.843)" d="M0-7C1.856422-7 3.637059-6.262436 4.949747-4.949747 6.262436-3.637059 7-1.856422 7 0 7 1.856422 6.262436 3.637059 4.949747 4.949747 3.637059 6.262436 1.856422 7 0 7-1.856422 7-3.637059 6.262436-4.949747 4.949747-6.262436 3.637059-7 1.856422-7 0-7-1.856422-6.262436-3.637059-4.949747-4.949747-3.637059-6.262436-1.856422-7 0-7Z" fill="#ff3e30"/>
<path transform="matrix(1,0,0,-1,324.60908,495.843)" stroke-width="1.5" stroke-linecap="butt" stroke-linejoin="round" fill="none" stroke="#000000" d="M0-7C1.856422-7 3.637059-6.262436 4.949747-4.949747 6.262436-3.637059 7-1.856422 7 0 7 1.856422 6.262436 3.637059 4.949747 4.949747 3.637059 6.262436 1.856422 7 0 7-1.856422 7-3.637059 6.262436-4.949747 4.949747-6.262436 3.637059-7 1.856422-7 0-7-1.856422-6.262436-3.637059-4.949747-4.949747-3.637059-6.262436-1.856422-7 0-7Z"/>
</g>
<g clip-path="url(#clip_17)">
<path transform="matrix(1,0,0,-1,391.0373,492.43043)" d="M0-7C1.856422-7 3.637059-6.262436 4.949747-4.949747 6.262436-3.637059 7-1.856422 7 0 7 1.856422 6.262436 3.637059 4.949747 4.949747 3.637059 6.262436 1.856422 7 0 7-1.856422 7-3.637059 6.262436-4.949747 4.949747-6.262436 3.637059-7 1.856422-7 0-7-1.856422-6.262436-3.637059-4.949747-4.949747-3.637059-6.262436-1.856422-7 0-7Z" fill="#ff3e30"/>
<path transform="matrix(1,0,0,-1,391.0373,492.43043)" stroke-width="1.5" stroke-linecap="butt" stroke-linejoin="round" fill="none" stroke="#000000" d="M0-7C1.856422-7 3.637059-6.262436 4.949747-4.949747 6.262436-3.637059 7-1.856422 7 0 7 1.856422 6.262436 3.637059 4.949747 4.949747 3.637059 6.262436 1.856422 7 0 7-1.856422 7-3.637059 6.262436-4.949747 4.949747-6.262436 3.637059-7 1.856422-7 0-7-1.856422-6.262436-3.637059-4.949747-4.949747-3.637059-6.262436-1.856422-7 0-7Z"/>
</g>
<g clip-path="url(#clip_18)">
<path transform="matrix(1,0,0,-1,457.4655,481.25233)" d="M0-7C1.856422-7 3.637059-6.262436 4.949747-4.949747 6.262436-3.637059 7-1.856422 7 0 7 1.856422 6.262436 3.637059 4.949747 4.949747 3.637059 6.262436 1.856422 7 0 7-1.856422 7-3.637059 6.262436-4.949747 4.949747-6.262436 3.637059-7 1.856422-7 0-7-1.856422-6.262436-3.637059-4.949747-4.949747-3.637059-6.262436-1.856422-7 0-7Z" fill="#ff3e30"/>
<path transform="matrix(1,0,0,-1,457.4655,481.25233)" stroke-width="1.5" stroke-linecap="butt" stroke-linejoin="round" fill="none" stroke="#000000" d="M0-7C1.856422-7 3.637059-6.262436 4.949747-4.949747 6.262436-3.637059 7-1.856422 7 0 7 1.856422 6.262436 3.637059 4.949747 4.949747 3.637059 6.262436 1.856422 7 0 7-1.856422 7-3.637059 6.262436-4.949747 4.949747-6.262436 3.637059-7 1.856422-7 0-7-1.856422-6.262436-3.637059-4.949747-4.949747-3.637059-6.262436-1.856422-7 0-7Z"/>
</g>
<g clip-path="url(#clip_19)">
<path transform="matrix(1,0,0,-1,523.89376,463.70664)" d="M0-7C1.856422-7 3.637059-6.262436 4.949747-4.949747 6.262436-3.637059 7-1.856422 7 0 7 1.856422 6.262436 3.637059 4.949747 4.949747 3.637059 6.262436 1.856422 7 0 7-1.856422 7-3.637059 6.262436-4.949747 4.949747-6.262436 3.637059-7 1.856422-7 0-7-1.856422-6.262436-3.637059-4.949747-4.949747-3.637059-6.262436-1.856422-7 0-7Z" fill="#ff3e30"/>
<path transform="matrix(1,0,0,-1,523.89376,463.70664)" stroke-width="1.5" stroke-linecap="butt" stroke-linejoin="round" fill="none" stroke="#000000" d="M0-7C1.856422-7 3.637059-6.262436 4.949747-4.949747 6.262436-3.637059 7-1.856422 7 0 7 1.856422 6.262436 3.637059 4.949747 4.949747 3.637059 6.262436 1.856422 7 0 7-1.856422 7-3.637059 6.262436-4.949747 4.949747-6.262436 3.637059-7 1.856422-7 0-7-1.856422-6.262436-3.637059-4.949747-4.949747-3.637059-6.262436-1.856422-7 0-7Z"/>
</g>
<g clip-path="url(#clip_20)">
<path transform="matrix(1,0,0,-1,590.32199,429.97789)" d="M0-7C1.856422-7 3.637059-6.262436 4.949747-4.949747 6.262436-3.637059 7-1.856422 7 0 7 1.856422 6.262436 3.637059 4.949747 4.949747 3.637059 6.262436 1.856422 7 0 7-1.856422 7-3.637059 6.262436-4.949747 4.949747-6.262436 3.637059-7 1.856422-7 0-7-1.856422-6.262436-3.637059-4.949747-4.949747-3.637059-6.262436-1.856422-7 0-7Z" fill="#ff3e30"/>
<path transform="matrix(1,0,0,-1,590.32199,429.97789)" stroke-width="1.5" stroke-linecap="butt" stroke-linejoin="round" fill="none" stroke="#000000" d="M0-7C1.856422-7 3.637059-6.262436 4.949747-4.949747 6.262436-3.637059 7-1.856422 7 0 7 1.856422 6.262436 3.637059 4.949747 4.949747 3.637059 6.262436 1.856422 7 0 7-1.856422 7-3.637059 6.262436-4.949747 4.949747-6.262436 3.637059-7 1.856422-7 0-7-1.856422-6.262436-3.637059-4.949747-4.949747-3.637059-6.262436-1.856422-7 0-7Z"/>
</g>
<g clip-path="url(#clip_21)">
<path transform="matrix(1,0,0,-1,656.7502,376.27159)" d="M0-7C1.856422-7 3.637059-6.262436 4.949747-4.949747 6.262436-3.637059 7-1.856422 7 0 7 1.856422 6.262436 3.637059 4.949747 4.949747 3.637059 6.262436 1.856422 7 0 7-1.856422 7-3.637059 6.262436-4.949747 4.949747-6.262436 3.637059-7 1.856422-7 0-7-1.856422-6.262436-3.637059-4.949747-4.949747-3.637059-6.262436-1.856422-7 0-7Z" fill="#ff3e30"/>
<path transform="matrix(1,0,0,-1,656.7502,376.27159)" stroke-width="1.5" stroke-linecap="butt" stroke-linejoin="round" fill="none" stroke="#000000" d="M0-7C1.856422-7 3.637059-6.262436 4.949747-4.949747 6.262436-3.637059 7-1.856422 7 0 7 1.856422 6.262436 3.637059 4.949747 4.949747 3.637059 6.262436 1.856422 7 0 7-1.856422 7-3.637059 6.262436-4.949747 4.949747-6.262436 3.637059-7 1.856422-7 0-7-1.856422-6.262436-3.637059-4.949747-4.949747-3.637059-6.262436-1.856422-7 0-7Z"/>
</g>
</g>
<g clip-path="url(#clip_22)">
<path transform="matrix(1,0,0,-1,0,648)" stroke-width="7" stroke-linecap="butt" stroke-dasharray="44.8,11.2,7,11.2" stroke-linejoin="round" fill="none" stroke="#176bef" d="M191.75264 244.12142 258.18086 247.28366 324.60908 247.31667 391.03727 185.11182 457.46549 217.4991 523.8937 274.01744 590.3219 382.05647 656.7501 586.2676"/>
<g clip-path="url(#clip_23)">
<path transform="matrix(1,0,0,-1,191.75264,403.8786)" d="M0 9-9-9H9Z" fill="#176bef"/>
<path transform="matrix(1,0,0,-1,191.75264,403.8786)" stroke-width="1.5" stroke-linecap="butt" stroke-miterlimit="10" stroke-linejoin="miter" fill="none" stroke="#000000" d="M0 9-9-9H9Z"/>
</g>
<g clip-path="url(#clip_24)">
<path transform="matrix(1,0,0,-1,258.18086,400.71635)" d="M0 9-9-9H9Z" fill="#176bef"/>
<path transform="matrix(1,0,0,-1,258.18086,400.71635)" stroke-width="1.5" stroke-linecap="butt" stroke-miterlimit="10" stroke-linejoin="miter" fill="none" stroke="#000000" d="M0 9-9-9H9Z"/>
</g>
<g clip-path="url(#clip_25)">
<path transform="matrix(1,0,0,-1,324.60908,400.68333)" d="M0 9-9-9H9Z" fill="#176bef"/>
<path transform="matrix(1,0,0,-1,324.60908,400.68333)" stroke-width="1.5" stroke-linecap="butt" stroke-miterlimit="10" stroke-linejoin="miter" fill="none" stroke="#000000" d="M0 9-9-9H9Z"/>
</g>
<g clip-path="url(#clip_26)">
<path transform="matrix(1,0,0,-1,391.0373,462.88816)" d="M0 9-9-9H9Z" fill="#176bef"/>
<path transform="matrix(1,0,0,-1,391.0373,462.88816)" stroke-width="1.5" stroke-linecap="butt" stroke-miterlimit="10" stroke-linejoin="miter" fill="none" stroke="#000000" d="M0 9-9-9H9Z"/>
</g>
<g clip-path="url(#clip_27)">
<path transform="matrix(1,0,0,-1,457.4655,430.50086)" d="M0 9-9-9H9Z" fill="#176bef"/>
<path transform="matrix(1,0,0,-1,457.4655,430.50086)" stroke-width="1.5" stroke-linecap="butt" stroke-miterlimit="10" stroke-linejoin="miter" fill="none" stroke="#000000" d="M0 9-9-9H9Z"/>
</g>
<g clip-path="url(#clip_28)">
<path transform="matrix(1,0,0,-1,523.89376,373.98255)" d="M0 9-9-9H9Z" fill="#176bef"/>
<path transform="matrix(1,0,0,-1,523.89376,373.98255)" stroke-width="1.5" stroke-linecap="butt" stroke-miterlimit="10" stroke-linejoin="miter" fill="none" stroke="#000000" d="M0 9-9-9H9Z"/>
</g>
<g clip-path="url(#clip_29)">
<path transform="matrix(1,0,0,-1,590.32199,265.94349)" d="M0 9-9-9H9Z" fill="#176bef"/>
<path transform="matrix(1,0,0,-1,590.32199,265.94349)" stroke-width="1.5" stroke-linecap="butt" stroke-miterlimit="10" stroke-linejoin="miter" fill="none" stroke="#000000" d="M0 9-9-9H9Z"/>
</g>
<g clip-path="url(#clip_30)">
<path transform="matrix(1,0,0,-1,656.7502,61.73239)" d="M0 9-9-9H9Z" fill="#176bef"/>
<path transform="matrix(1,0,0,-1,656.7502,61.73239)" stroke-width="1.5" stroke-linecap="butt" stroke-miterlimit="10" stroke-linejoin="miter" fill="none" stroke="#000000" d="M0 9-9-9H9Z"/>
</g>
</g>
<path transform="matrix(1,0,0,-1,0,648)" stroke-width=".8" stroke-linecap="square" stroke-miterlimit="10" stroke-linejoin="miter" fill="none" stroke="#000000" d="M168.50276 129.88622V608"/>
<path transform="matrix(1,0,0,-1,0,648)" stroke-width=".8" stroke-linecap="square" stroke-miterlimit="10" stroke-linejoin="miter" fill="none" stroke="#000000" d="M680 129.88622V608"/>
<path transform="matrix(1,0,0,-1,0,648)" stroke-width=".8" stroke-linecap="square" stroke-miterlimit="10" stroke-linejoin="miter" fill="none" stroke="#000000" d="M168.50276 129.88622H680"/>
<path transform="matrix(1,0,0,-1,0,648)" stroke-width=".8" stroke-linecap="square" stroke-miterlimit="10" stroke-linejoin="miter" fill="none" stroke="#000000" d="M168.50276 608H680"/>
<path transform="matrix(1,0,0,-1,0,648)" d="M195.10277 330.56947H487.90437C492.97105 330.56947 495.50437 333.10279 495.50437 338.16947V424.14436C495.50437 429.21104 492.97105 431.74436 487.90437 431.74436H195.10277C190.0361 431.74436 187.50276 429.21104 187.50276 424.14436V338.16947C187.50276 333.10279 190.0361 330.56947 195.10277 330.56947Z" fill="none"/>
<path transform="matrix(1,0,0,-1,0,648)" stroke-width="1" stroke-linecap="butt" stroke-miterlimit="10" stroke-linejoin="miter" fill="none" stroke="#000000" d="M195.10277 330.56947H487.90437C492.97105 330.56947 495.50437 333.10279 495.50437 338.16947V424.14436C495.50437 429.21104 492.97105 431.74436 487.90437 431.74436H195.10277C190.0361 431.74436 187.50276 429.21104 187.50276 424.14436V338.16947C187.50276 333.10279 190.0361 330.56947 195.10277 330.56947Z"/>
<path transform="matrix(1,0,0,-1,0,648)" stroke-width="7" stroke-linecap="square" stroke-linejoin="round" fill="none" stroke="#ff3e30" d="M198.90277 406.67076H236.90277 274.90278"/>
<path transform="matrix(1,0,0,-1,0,648)" d="M236.90277 399.67076C238.75919 399.67076 240.53983 400.4083 241.85251 401.721 243.1652 403.0337 243.90277 404.81434 243.90277 406.67076 243.90277 408.52717 243.1652 410.3078 241.85251 411.62049 240.53983 412.93318 238.75919 413.67076 236.90277 413.67076 235.04634 413.67076 233.2657 412.93318 231.95302 411.62049 230.64034 410.3078 229.90277 408.52717 229.90277 406.67076 229.90277 404.81434 230.64034 403.0337 231.95302 401.721 233.2657 400.4083 235.04634 399.67076 236.90277 399.67076Z" fill="#ff3e30"/>
<path transform="matrix(1,0,0,-1,0,648)" stroke-width="1.5" stroke-linecap="butt" stroke-linejoin="round" fill="none" stroke="#000000" d="M236.90277 399.67076C238.75919 399.67076 240.53983 400.4083 241.85251 401.721 243.1652 403.0337 243.90277 404.81434 243.90277 406.67076 243.90277 408.52717 243.1652 410.3078 241.85251 411.62049 240.53983 412.93318 238.75919 413.67076 236.90277 413.67076 235.04634 413.67076 233.2657 412.93318 231.95302 411.62049 230.64034 410.3078 229.90277 408.52717 229.90277 406.67076 229.90277 404.81434 230.64034 403.0337 231.95302 401.721 233.2657 400.4083 235.04634 399.67076 236.90277 399.67076Z"/>
<use data-text="B" xlink:href="#font_2_35" transform="matrix(37.858034,0,0,-37.858034,305.30278,254.62924)"/>
<use data-text="F" xlink:href="#font_2_39" transform="matrix(37.858034,0,0,-37.858034,330.5162,254.62924)"/>
<use data-text="1" xlink:href="#font_2_18" transform="matrix(37.858034,0,0,-37.858034,353.60963,254.62924)"/>
<use data-text="6" xlink:href="#font_2_23" transform="matrix(37.858034,0,0,-37.858034,374.62083,254.62924)"/>
<path transform="matrix(1,0,0,-1,0,648)" stroke-width="7" stroke-linecap="butt" stroke-dasharray="44.8,11.2,7,11.2" stroke-linejoin="round" fill="none" stroke="#176bef" d="M198.90277 363.333H236.90277 274.90278"/>
<path transform="matrix(1,0,0,-1,0,648)" d="M236.90277 372.333 227.90277 354.333H245.90277Z" fill="#176bef"/>
<path transform="matrix(1,0,0,-1,0,648)" stroke-width="1.5" stroke-linecap="butt" stroke-miterlimit="10" stroke-linejoin="miter" fill="none" stroke="#000000" d="M236.90277 372.333 227.90277 354.333H245.90277Z"/>
<use data-text="Q" xlink:href="#font_2_50" transform="matrix(37.858034,0,0,-37.858034,305.30278,297.967)"/>
<use data-text="J" xlink:href="#font_2_43" transform="matrix(37.858034,0,0,-37.858034,334.71846,297.967)"/>
<use data-text="L" xlink:href="#font_2_45" transform="matrix(37.858034,0,0,-37.858034,353.64747,297.967)"/>
<use data-text="(" xlink:href="#font_2_9" transform="matrix(37.858034,0,0,-37.858034,385.18284,297.967)"/>
<use data-text="o" xlink:href="#font_2_80" transform="matrix(37.858034,0,0,-37.858034,397.7517,297.967)"/>
<use data-text="u" xlink:href="#font_2_86" transform="matrix(37.858034,0,0,-37.858034,418.7629,297.967)"/>
<use data-text="r" xlink:href="#font_2_83" transform="matrix(37.858034,0,0,-37.858034,439.7741,297.967)"/>
<use data-text="s" xlink:href="#font_2_84" transform="matrix(37.858034,0,0,-37.858034,452.343,297.967)"/>
<use data-text=")" xlink:href="#font_2_10" transform="matrix(37.858034,0,0,-37.858034,471.272,297.967)"/>
</svg>
