<svg xmlns="http://www.w3.org/2000/svg" xmlns:xlink="http://www.w3.org/1999/xlink" xmlns:inkscape="http://www.inkscape.org/namespaces/inkscape" version="1.1" width="1080" height="1080" viewBox="0 0 1080 1080">
<defs>
<clipPath id="clip_1">
<path transform="matrix(1,0,0,-1,0,1080)" d="M150.66542 116.50459H1058.4V1058.4H150.66542Z"/>
</clipPath>
<path id="font_2_51" d="M.2659912 .63912966C.2659912 .66012576 .2649994 .6611328 .25099183 .6611328 .21199036 .61424258 .15299988 .5993042 .09700012 .5973053 .09399414 .5973053 .08898926 .5973053 .08799744 .5953064 .08699036 .5933075 .08699036 .5913086 .08699036 .5703125 .117996219 .5703125 .16999817 .5763092 .20999146 .600296V.073013309C.20999146 .037994386 .20799256 .025985718 .12199402 .025985718H.09199524V0C.13999939 .0009918213 .18998719 .0019989014 .23799134 .0019989014 .28599549 .0019989014 .33599855 .0009918213 .38398744 0V.025985718H.35398866C.2679901 .025985718 .2659912 .037002565 .2659912 .073013309V.63912966Z"/>
<clipPath id="clip_3">
<path transform="matrix(1,0,0,-1,0,1080)" d="M150.66542 116.50459H1058.4V1058.4H150.66542Z"/>
</clipPath>
<path id="font_2_52" d="M.4169922 .15492249H.39898683C.3889923 .083969119 .3809967 .07197571 .3769989 .06599426 .37199403 .057998659 .2999878 .057998659 .28599549 .057998659H.09399414C.12998963 .096969608 .19999695 .16792298 .2849884 .24986267 .34599305 .30781556 .4169922 .37576295 .4169922 .47473146 .4169922 .59298709 .32299806 .6611328 .21798706 .6611328 .10798645 .6611328 .040985109 .5639038 .040985109 .47373963 .040985109 .43473817 .069992069 .42973329 .08198547 .42973329 .09199524 .42973329 .12199402 .43572999 .12199402 .47073365 .12199402 .5017395 .09599304 .5107422 .08198547 .5107422 .07598877 .5107422 .069992069 .5097351 .06599426 .5077362 .084991458 .59298709 .14299011 .63513186 .20399475 .63513186 .29100038 .63513186 .34799195 .5659027 .34799195 .47473146 .34799195 .38775636 .29699708 .31282044 .23999024 .24786377L.040985109 .022994996V0H.3929901L.4169922 .15492249Z"/>
<clipPath id="clip_4">
<path transform="matrix(1,0,0,-1,0,1080)" d="M150.66542 116.50459H1058.4V1058.4H150.66542Z"/>
</clipPath>
<path id="font_2_53" d="M.22099304 .34036256C.30999757 .34036256 .34899903 .2633667 .34899903 .17434693 .34899903 .054367067 .2849884 .008361816 .22698975 .008361816 .17399597 .008361816 .08799744 .034362794 .06098938 .11135864 .06599426 .10934448 .070999149 .10934448 .07598877 .10934448 .099990848 .10934448 .117996219 .12535095 .117996219 .15135193 .117996219 .18035889 .09599304 .19335938 .07598877 .19335938 .05899048 .19335938 .032989503 .18534851 .032989503 .14834595 .032989503 .056365968 .12298584-.015625 .22898865-.015625 .33999635-.015625 .4249878 .0713501 .4249878 .1733551 .4249878 .27035523 .34498597 .34036256 .25 .35136415 .32598878 .3673706 .39898683 .43536378 .39898683 .5263672 .39898683 .6042328 .31999208 .6611328 .22999573 .6611328 .13899231 .6611328 .05899048 .6052246 .05899048 .5253601 .05899048 .4903717 .084991458 .484375 .09799194 .484375 .11898804 .484375 .13699341 .49736024 .13699341 .5233612 .13699341 .5493622 .11898804 .5623627 .09799194 .5623627 .09399414 .5623627 .08898926 .5623627 .084991458 .56036379 .11399841 .62615969 .19299317 .63812258 .22799683 .63812258 .2630005 .63812258 .32899476 .6211853 .32899476 .5253601 .32899476 .49736024 .32499696 .44737245 .29100038 .4033661 .26098634 .36436463 .22698975 .36236573 .19400025 .359375 .18899536 .359375 .1659851 .35736085 .1619873 .35736085 .15499878 .35636903 .15098572 .35536195 .15098572 .3483734 .15098572 .34136964 .1519928 .34036256 .17199707 .34036256H.22099304Z"/>
<clipPath id="clip_5">
<path transform="matrix(1,0,0,-1,0,1080)" d="M150.66542 116.50459H1058.4V1058.4H150.66542Z"/>
</clipPath>
<path id="font_2_54" d="M.33599855 .64694216C.33599855 .66793826 .33499146 .6689453 .31698609 .6689453L.019989014 .1959076V.16992188H.27799989V.07196045C.27799989 .035980226 .27598573 .025985718 .20599365 .025985718H.18699646V0C.21899414 .0019989014 .272995 .0019989014 .30699159 .0019989014 .34098817 .0019989014 .394989 .0019989014 .4269867 0V.025985718H.4079895C.33799745 .025985718 .33599855 .035980226 .33599855 .07196045V.16992188H.43798829V.1959076H.33599855V.64694216M.2809906 .5809326V.1959076H.039993287L.2809906 .5809326Z"/>
<clipPath id="clip_6">
<path transform="matrix(1,0,0,-1,0,1080)" d="M150.66542 116.50459H1058.4V1058.4H150.66542Z"/>
</clipPath>
<path id="font_2_55" d="M.11399841 .58535769C.12399292 .5813446 .16499329 .5683594 .20698548 .5683594 .2999878 .5683594 .35099793 .61834719 .37998963 .64715579 .37998963 .65515139 .37998963 .66015627 .37399293 .66015627 .37298585 .66015627 .37098695 .66015627 .36299134 .6561432 .32798768 .6411438 .2869873 .62934878 .23699951 .62934878 .20698548 .62934878 .1619873 .6332855 .11299133 .65515139 .101989749 .66015627 .099990848 .66015627 .09899902 .66015627 .09399414 .66015627 .09298706 .65914919 .09298706 .63916018V.34931947C.09298706 .33129884 .09298706 .32629396 .102996829 .32629396 .10798645 .32629396 .10998535 .32829286 .114990238 .33529664 .14698792 .3803711 .19099427 .39941407 .24099732 .39941407 .27598573 .39941407 .35099793 .3773651 .35099793 .20610047 .35099793 .17408753 .35099793 .116119388 .32099916 .07022095 .29599 .029312134 .25698854 .008361816 .21398926 .008361816 .147995 .008361816 .08099365 .054260255 .06298828 .13108826 .066986087 .13009644 .07499695 .12809754 .07899475 .12809754 .09199524 .12809754 .116989139 .13510132 .116989139 .16609192 .116989139 .19309998 .09799194 .20410156 .07899475 .20410156 .055999757 .20410156 .040985109 .190094 .040985109 .16209412 .040985109 .07521057 .10998535-.015625 .21598816-.015625 .31900025-.015625 .4169922 .07322693 .4169922 .2020874 .4169922 .32228089 .33898927 .41540528 .24198914 .41540528 .19099427 .41540528 .147995 .39640809 .11399841 .3603363V.58535769Z"/>
<path id="font_7_35" d="M.07899475 0H.4079895C.47698976 0 .5279999 .018997193 .5669861 .06098938 .6029968 .09899902 .6230011 .15100098 .6230011 .20799256 .6230011 .29600526 .58299258 .34899903 .48999024 .3849945 .55599978 .41600038 .59098818 .46987916 .59098818 .5437317 .59098818 .59661868 .57099917 .6435089 .5329895 .6775055 .49499513 .71250918 .44499208 .7285156 .375 .7285156H.07899475V0M.17199707 .4149933V.6465149H.35198976C.4039917 .6465149 .43299867 .63952639 .45799256 .6205597 .48399354 .6006012 .49798585 .57066348 .49798585 .53074648 .49798585 .49183656 .48399354 .46090699 .45799256 .4409485 .43299867 .4219818 .4039917 .4149933 .35198976 .4149933H.17199707M.17199707 .08198547V.3330078H.39898683C.44400025 .3330078 .47399903 .32200624 .49598695 .29800416 .5179901 .2749939 .5299988 .24299622 .5299988 .20700073 .5299988 .17199707 .5179901 .13999939 .49598695 .116989139 .47399903 .09298706 .44400025 .08198547 .39898683 .08198547H.17199707Z"/>
<path id="font_7_74" d="M.1499939 .5235901H.066986087V0H.1499939V.5235901M.1499939 .7285156H.06599426V.62350466H.1499939V.7285156Z"/>
<path id="font_7_85" d="M.2539978 .52441409H.16799927V.66841128H.084991458V.52441409H.01399231V.45640565H.084991458V.059570314C.084991458 .0065612795 .12098694-.0234375 .18598938-.0234375 .20599365-.0234375 .22599793-.021438599 .2539978-.016448975V.05355835C.24299622 .05055237 .22999573 .049560548 .21398926 .049560548 .17799378 .049560548 .16799927 .059570314 .16799927 .09664917V.45640565H.2539978V.52441409Z"/>
<path id="font_7_88" d="M.55400088 0 .70799258 .52441409H.6139984L.5099945 .11607361 .40699769 .52441409H.30499269L.20498657 .11607361 .09799194 .52441409H.005996704L.1579895 0H.2519989L.35299684 .41133119 .45899964 0H.55400088Z"/>
<path id="font_7_69" d="M.49499513 .7285156H.4119873V.4580536C.3769989 .51104739 .32099916 .5390625 .25099183 .5390625 .114990238 .5390625 .025985718 .43000794 .025985718 .26280213 .025985718 .08558655 .11299133-.0234375 .2539978-.0234375 .32598878-.0234375 .37599183 .0035552979 .42099 .068573V-.00044250489H.49499513V.7285156M.2649994 .46105958C.35499574 .46105958 .4119873 .38095094 .4119873 .25579835 .4119873 .13465882 .35398866 .05455017 .2659912 .05455017 .17399597 .05455017 .11299133 .13565064 .11299133 .25779725 .11299133 .3799591 .17399597 .46105958 .2649994 .46105958Z"/>
<path id="font_7_73" d="M.069992069 .7285156V0H.15299988V.28903199C.15299988 .39604188 .20899964 .4660492 .29499818 .4660492 .32199098 .4660492 .34899903 .4570465 .36898805 .44204713 .3929901 .42504884 .40299989 .40003968 .40299989 .3630371V0H.48599244V.39604188C.48599244 .48405458 .4229889 .5390625 .32099916 .5390625 .24699402 .5390625 .20199585 .51605227 .15299988 .45205689V.7285156H.069992069Z"/>
<path id="font_7_9" d="M.23599243 .7285156C.13598633 .59750369 .07299805 .41551209 .07299805 .2585144 .07299805 .10050964 .13598633-.08149719 .23599243-.2124939H.29100038C.20298767-.069488529 .1539917 .09851074 .1539917 .2585144 .1539917 .417511 .20298767 .5865021 .29100038 .7285156H.23599243Z"/>
<path id="font_8_99" d="M.23098755 .6693268C.23199463 .6733246 .23399353 .6793213 .23399353 .6843262 .23399353 .69433596 .22399903 .69433596 .22200012 .69433596 .22099304 .69433596 .18499756 .69132998 .16699219 .68933108 .1499939 .688324 .1349945 .6863251 .116989139 .68533328 .09298706 .68333438 .085998538 .6823273 .085998538 .6643219 .085998538 .6543274 .09599304 .6543274 .10598755 .6543274 .15699768 .6543274 .15699768 .6453247 .15699768 .6353302 .15699768 .6283417 .14898682 .59935 .14498902 .58135989L.12098694 .48538209C.11099243 .44540406 .053985597 .2183075 .049987794 .20030213 .04499817 .17529297 .04499817 .15829468 .04499817 .14527893 .04499817 .04324341 .101989749-.009765625 .16699219-.009765625 .2829895-.009765625 .40299989 .13928223 .40299989 .28434754 .40299989 .3763733 .35099793 .44140626 .27598573 .44140626 .22399903 .44140626 .1769867 .39839173 .1579895 .37838746L.23098755 .6693268M.16799927 .010223389C.13598633 .010223389 .100997928 .034240724 .100997928 .11227417 .100997928 .14527893 .10398865 .16429138 .12199402 .23431397 .125 .24732971 .14099121 .3113556 .14498902 .32435609 .14698792 .33236695 .20599365 .42140199 .27398683 .42140199 .31799317 .42140199 .33799745 .37738038 .33799745 .32536317 .33799745 .27734376 .30999757 .16429138 .2849884 .11227417 .2599945 .058242799 .21398926 .010223389 .16799927 .010223389Z"/>
<path id="font_7_10" d="M.09298706-.2124939C.19299317-.08149719 .2559967 .10050964 .2559967 .25750733 .2559967 .41551209 .19299317 .59750369 .09298706 .7285156H.037994386C.12599182 .58551028 .1749878 .417511 .1749878 .25750733 .1749878 .09851074 .12599182-.070495609 .037994386-.2124939H.09298706Z"/>
<clipPath id="clip_9">
<path transform="matrix(1,0,0,-1,0,1080)" d="M150.66542 116.50459H1058.4V1058.4H150.66542Z"/>
</clipPath>
<path id="font_2_50" d="M.41999818 .3212433C.41999818 .38223268 .4189911 .4861908 .3769989 .5661621 .33999635 .6361389 .2809906 .6611328 .22898865 .6611328 .18099976 .6611328 .11999512 .63912966 .08198547 .56715396 .041992189 .4921875 .037994386 .3992157 .037994386 .3212433 .037994386 .26426698 .038986207 .17730713 .069992069 .10133362 .11299133-.0016326904 .18998719-.015625 .22898865-.015625 .2749939-.015625 .34498597 .0033721924 .38598634 .09832764 .41600038 .16731262 .41999818 .24827576 .41999818 .3212433M.22898865 .00036621095C.16499329 .00036621095 .1269989 .055343629 .11299133 .13131714 .101989749 .19029236 .101989749 .27626039 .101989749 .33224488 .101989749 .4092102 .101989749 .4731903 .114990238 .5341644 .13398743 .6191406 .18998719 .64512637 .22898865 .64512637 .269989 .64512637 .32299806 .61813357 .34199525 .53616335 .35499574 .479187 .35598756 .4122162 .35598756 .33224488 .35598756 .26727296 .35598756 .18730164 .34399415 .12832642 .32299806 .019363404 .2639923 .00036621095 .22898865 .00036621095Z"/>
<path id="font_10_1" d="M.6589966 .23046875C.6759949 .23046875 .69400027 .23046875 .69400027 .25045777 .69400027 .27046205 .6759949 .27046205 .6589966 .27046205H.117996219C.100997928 .27046205 .08299255 .27046205 .08299255 .25045777 .08299255 .23046875 .100997928 .23046875 .117996219 .23046875H.6589966Z"/>
<clipPath id="clip_11">
<path transform="matrix(1,0,0,-1,0,1080)" d="M150.66542 116.50459H1058.4V1058.4H150.66542Z"/>
</clipPath>
<clipPath id="clip_12">
<path transform="matrix(1,0,0,-1,0,1080)" d="M150.66542 116.50459H1058.4V1058.4H150.66542Z"/>
</clipPath>
<path id="font_7_46" d="M.46798707 0 .6729889 .61058047V0H.7609863V.7285156H.6319885L.41999818 .093948367 .20399475 .7285156H.07499695V0H.16299439V.61058047L.36999513 0H.46798707Z"/>
<path id="font_7_70" d="M.5130005 .23374939C.5130005 .31376649 .5069885 .36186219 .49198915 .40093995 .45799256 .48706056 .37799073 .5390625 .27999879 .5390625 .13398743 .5390625 .039993287 .4269867 .039993287 .25474549 .039993287 .08258057 .1309967-.0234375 .27799989-.0234375 .397995-.0234375 .48098756 .044555665 .5019989 .15867615H.41799928C.394989 .08959961 .34799195 .05355835 .2809906 .05355835 .22799683 .05355835 .18299866 .07757568 .15499878 .12162781 .1349945 .1516571 .12799073 .18170166 .1269989 .23374939H.5130005M.1289978 .3017578C.13598633 .39894105 .19499207 .4620514 .2789917 .4620514 .36099244 .4620514 .42399598 .3939209 .42399598 .30775453 .42399598 .30575563 .42399598 .3037567 .4229889 .3017578H.1289978Z"/>
<path id="font_7_66" d="M.5349884 .048553468C.526001 .046554567 .5219879 .046554567 .5169983 .046554567 .48799134 .046554567 .47200013 .061569215 .47200013 .08760071V.39598084C.47200013 .48905946 .4039917 .5390625 .2749939 .5390625 .19898987 .5390625 .13598633 .5170593 .100997928 .47805787 .07699585 .45103456 .066986087 .42100526 .06498718 .36894227H.14898682C.1559906 .43301393 .19400025 .4620514 .27198792 .4620514 .34700013 .4620514 .3889923 .434021 .3889923 .3839569V.36193849C.3889923 .32688905 .36799623 .3118744 .3019867 .30386354 .18399048 .28884889 .1659851 .28483583 .13398743 .27182008 .07299805 .24679566 .041992189 .19973755 .041992189 .13165283 .041992189 .03656006 .10798645-.0234375 .21398926-.0234375 .27999879-.0234375 .33299256-.00044250489 .3919983 .05355835 .397995 .0005493164 .42399598-.0234375 .47799684-.0234375 .49499513-.0234375 .5079956-.021438599 .5349884-.014450073V.048553468M.3889923 .16468811C.3889923 .13665772 .3809967 .119644168 .35598756 .09661865 .32199098 .06556702 .2809906 .049560548 .23199463 .049560548 .16699219 .049560548 .1289978 .080596927 .1289978 .13365174 .1289978 .1887207 .1659851 .2167511 .25498963 .22976685 .34298707 .24179077 .36099244 .24578858 .3889923 .25880433V.16468811Z"/>
<path id="font_7_79" d="M.069992069 .52441409V0H.1539917V.2892151C.1539917 .39604188 .20999146 .4660492 .29599 .4660492 .3619995 .4660492 .4039917 .42604066 .4039917 .3630371V0H.4869995V.39604188C.4869995 .4830475 .42199708 .5390625 .32099916 .5390625 .24299622 .5390625 .19299317 .50904849 .14698792 .43605042V.52441409H.069992069Z"/>
<path id="font_7_84" d="M.43798829 .37794496C.43699647 .48104859 .36898805 .5390625 .24798584 .5390625 .12599182 .5390625 .04699707 .47605897 .04699707 .37895204 .04699707 .29685975 .08898926 .25779725 .21299744 .22776795L.29100038 .20874024C.34899903 .19473267 .37199403 .17370606 .37199403 .13565064 .37199403 .08659363 .32299806 .05355835 .25 .05355835 .20498657 .05355835 .16699219 .0665741 .1459961 .08859253 .1329956 .10362244 .1269989 .118637088 .12199402 .15568543H.033996583C.037994386 .034561159 .10598755-.0234375 .24299622-.0234375 .375-.0234375 .45899964 .041549684 .45899964 .14266968 .45899964 .22076416 .4149933 .2638092 .31098939 .28884889L.23098755 .30786134C.16299439 .32388307 .13398743 .34591676 .13398743 .3829651 .13398743 .431015 .1769867 .4620514 .24499512 .4620514 .31199647 .4620514 .34799195 .43301393 .34999085 .37794496H.43798829Z"/>
<path id="font_7_82" d="M.49499513-.21824646V.52404788H.42099V.45404054C.38198854 .50904849 .32299806 .5390625 .2539978 .5390625 .115997318 .5390625 .025985718 .42601014 .025985718 .25180055 .025985718 .081588748 .11199951-.0234375 .25-.0234375 .32299806-.0234375 .37298585 .0025482178 .4119873 .059555055V-.21824646H.49499513M.2659912 .46105958C.35499574 .46105958 .4119873 .38095094 .4119873 .25480653 .4119873 .13465882 .35398866 .05455017 .2659912 .05455017 .17399597 .05455017 .11299133 .13565064 .11299133 .25779725 .11299133 .37895204 .17399597 .46105958 .2659912 .46105958Z"/>
<path id="font_7_86" d="M.48199464-.00044250489V.52441409H.39898683V.22688294C.39898683 .11968994 .34298707 .049560548 .2559967 .049560548 .18998719 .049560548 .147995 .08963013 .147995 .15275574V.52441409H.06498718V.11968994C.06498718 .032562257 .12998963-.0234375 .23199463-.0234375 .30899049-.0234375 .35798646 .0035552979 .40699769 .07260132V-.00044250489H.48199464Z"/>
<path id="font_7_83" d="M.068984989 .52441409V0H.15299988V.27220155C.15299988 .34727479 .17199707 .39631654 .21199036 .42533876 .23799134 .4443512 .2630005 .45036317 .32099916 .45135499V.5364075C.30699159 .5380554 .2999878 .5390625 .2889862 .5390625 .23498535 .5390625 .19400025 .50704959 .1459961 .42904664V.52441409H.068984989Z"/>
<path id="font_7_80" d="M.27198792 .5390625C.125 .5390625 .035995485 .434021 .035995485 .25779725 .035995485 .081588748 .12399292-.0234375 .272995-.0234375 .41999818-.0234375 .5099945 .081588748 .5099945 .25379945 .5099945 .43502809 .4229889 .5390625 .27198792 .5390625M.272995 .4620514C.36698915 .4620514 .4229889 .384964 .4229889 .25480653 .4229889 .13165283 .36499024 .05355835 .272995 .05355835 .17999268 .05355835 .12298584 .13064575 .12298584 .25779725 .12298584 .3839569 .17999268 .4620514 .272995 .4620514Z"/>
<path id="font_8_69" d="M.15699768 .07395935C.147995 .038986207 .1459961 .0289917 .07598877 .0289917 .056991579 .0289917 .04699707 .0289917 .04699707 .010986328 .04699707 0 .052993776 0 .07299805 0H.3899994C.59199526 0 .78900149 .20887757 .78900149 .43174745 .78900149 .5756531 .7029877 .6826172 .55999758 .6826172H.23899842C.21998596 .6826172 .21099854 .6826172 .21099854 .66360476 .21099854 .6536102 .21998596 .6536102 .23498535 .6536102 .29599 .6536102 .29599 .6456146 .29599 .6346283 .29599 .6326294 .29599 .6266327 .2919922 .6116333L.15699768 .07395935M.36799623 .6146393C.3769989 .6516113 .3809967 .6536102 .41999818 .6536102H.5299988C.6239929 .6536102 .70999148 .6026459 .70999148 .46472169 .70999148 .4147644 .6899872 .24085999 .59298709 .13093567 .5649872 .09794617 .4889984 .0289917 .37399293 .0289917H.2599945C.24598694 .0289917 .24398804 .0289917 .23799134 .02999878 .22698975 .0309906 .22599793 .032989503 .22599793 .040985109 .22599793 .047973634 .22799683 .053970338 .22999573 .06297302L.36799623 .6146393Z"/>
<path id="font_13_111" d="M.45298768 .30262757C.45298768 .32460023 .45298768 .43652345 .36499024 .43652345 .32998658 .43652345 .29599 .42051698 .2689972 .3835144 .2630005 .3985138 .24099732 .43652345 .19299317 .43652345 .147995 .43652345 .116989139 .40751649 .10899353 .3985138 .10798645 .43051148 .08699036 .43051148 .068984989 .43051148H.038986207C.024993897 .43051148-.0010070801 .43051148-.0010070801 .40151979-.0010070801 .37252809 .021987915 .37252809 .052993776 .37252809V.057998659C.020996094 .057998659-.0010070801 .057998659-.0010070801 .0289917-.0010070801 0 .024993897 0 .038986207 0H.12298584C.13699341 0 .16299439 0 .16299439 .0289917 .16299439 .057998659 .13999939 .057998659 .10899353 .057998659V.24171448C.10899353 .32559205 .14498902 .37850953 .18899536 .37850953 .21699524 .37850953 .22499085 .3435669 .22499085 .29663087V.057998659C.20799256 .057998659 .18099976 .057998659 .18099976 .0289917 .18099976 0 .20799256 0 .22200012 0H.29499818C.30899049 0 .33499146 0 .33499146 .0289917 .33499146 .057998659 .31199647 .057998659 .2809906 .057998659V.24171448C.2809906 .32559205 .31698609 .37850953 .36099244 .37850953 .3889923 .37850953 .39698792 .3435669 .39698792 .29663087V.057998659C.37998963 .057998659 .35299684 .057998659 .35299684 .0289917 .35299684 0 .37998963 0 .3939972 0H.46699525C.48098756 0 .5069885 0 .5069885 .0289917 .5069885 .057998659 .48399354 .057998659 .45298768 .057998659V.30262757Z"/>
<path id="font_13_117" d="M.41999818 .40242005C.41999818 .4184265 .41999818 .4404297 .3919983 .4404297 .36799623 .4404297 .3619995 .41741944 .3619995 .4164276 .32199098 .4404297 .27598573 .4404297 .2559967 .4404297 .09298706 .4404297 .070999149 .35740663 .070999149 .32337953 .070999149 .28233338 .09498596 .25431825 .1289978 .23529053 .16099549 .21728516 .18998719 .21228028 .27198792 .19926453 .31098939 .19226074 .3909912 .179245 .3909912 .124191287 .3909912 .0871582 .35699464 .052139284 .2639923 .052139284 .19999695 .052139284 .1579895 .07714844 .13699341 .1492157 .13198853 .16323853 .1289978 .17424011 .10398865 .17424011 .070999149 .17424011 .070999149 .15522766 .070999149 .13520813V.03213501C.070999149 .01612854 .070999149-.005859375 .09899902-.005859375 .11099243-.005859375 .11999512-.005859375 .1349945 .035125734 .18099976-.0028686524 .23298645-.005859375 .2639923-.005859375 .44898988-.005859375 .44898988 .11418152 .44898988 .124191287 .44898988 .22828675 .32499696 .24931336 .2769928 .25631715 .18899536 .2713318 .1289978 .28134156 .1289978 .32337953 .1289978 .35040284 .1599884 .38241578 .2539978 .38241578 .34899903 .38241578 .35299684 .33738709 .35499574 .3113556 .35699464 .29135133 .375 .28834535 .3869934 .28834535 .41999818 .28834535 .41999818 .3063507 .41999818 .32637025V.40242005Z"/>
<path id="font_13_103" d="M.41600038 .19238281C.43699647 .19238281 .45599366 .19238281 .45599366 .22937012 .45599366 .34640504 .3899994 .4404297 .2649994 .4404297 .14898682 .4404297 .055999757 .34040834 .055999757 .21836853 .055999757 .09220886 .15699768-.005859375 .27999879-.005859375 .40899659-.005859375 .45599366 .08319092 .45599366 .10923767 .45599366 .115249637 .45399476 .13728333 .4229889 .13728333 .4039917 .13728333 .397995 .13026428 .3919983 .115249637 .36698915 .057144166 .3019867 .052139284 .2829895 .052139284 .19999695 .052139284 .13398743 .115249637 .12298584 .19238281H.41600038M.12399292 .24737549C.13699341 .33239747 .20199585 .38241578 .2649994 .38241578 .36499024 .38241578 .38598634 .2973938 .3899994 .24737549H.12399292Z"/>
<clipPath id="clip_14">
<path transform="matrix(1,0,0,-1,0,1080)" d="M150.66542 116.50459H1058.4V1058.4H150.66542Z"/>
</clipPath>
<clipPath id="clip_15">
<path transform="matrix(1,0,0,-1,191.92609,146.47333)" d="M-15-15H15V15H-15Z"/>
</clipPath>
<clipPath id="clip_16">
<path transform="matrix(1,0,0,-1,398.2294,294.2439)" d="M-15-15H15V15H-15Z"/>
</clipPath>
<clipPath id="clip_17">
<path transform="matrix(1,0,0,-1,604.5327,454.4021)" d="M-15-15H15V15H-15Z"/>
</clipPath>
<clipPath id="clip_18">
<path transform="matrix(1,0,0,-1,810.83609,623.2831)" d="M-15-15H15V15H-15Z"/>
</clipPath>
<clipPath id="clip_19">
<path transform="matrix(1,0,0,-1,1017.1394,788.40078)" d="M-15-15H15V15H-15Z"/>
</clipPath>
<clipPath id="clip_20">
<path transform="matrix(1,0,0,-1,0,1080)" d="M150.66542 116.50459H1058.4V1058.4H150.66542Z"/>
</clipPath>
<clipPath id="clip_21">
<path transform="matrix(1,0,0,-1,0,1080)" d="M150.66542 116.50459H1058.4V1058.4H150.66542Z"/>
</clipPath>
<path id="font_7_53" d="M.35398866 .6465149H.59298709V.7285156H.020996094V.6465149H.26098634V0H.35398866V.6465149Z"/>
<path id="font_7_67" d="M.053985597 .7285156V-.00044250489H.1289978V.0665741C.16899109 .005554199 .22200012-.0234375 .29499818-.0234375 .43299867-.0234375 .522995 .08959961 .522995 .2638092 .522995 .434021 .43699647 .5390625 .29899598 .5390625 .22698975 .5390625 .17599488 .51205447 .13699341 .4530487V.7285156H.053985597M.2829895 .46105958C.37599183 .46105958 .43598939 .3799591 .43598939 .25480653 .43598939 .13565064 .37399293 .05455017 .2829895 .05455017 .19499207 .05455017 .13699341 .13465882 .13699341 .25779725 .13699341 .38095094 .19499207 .46105958 .2829895 .46105958Z"/>
<path id="font_7_50" d="M.73298647-.001449585 .6389923 .07557678C.70799258 .1516571 .74198916 .24575806 .74198916 .36088563 .74198916 .5871277 .59999087 .74121096 .3899994 .74121096 .17999268 .74121096 .037994386 .5871277 .037994386 .35887147 .037994386 .1306305 .17999268-.0234375 .3899994-.0234375 .46199037-.0234375 .5219879-.007446289 .58099368 .027557373L.6859894-.059448244 .73298647-.001449585M.48098756 .20471192 .43499757 .14865113 .5089874 .08657837C.46598817 .06655884 .43299867 .058547975 .3889923 .058547975 .23399353 .058547975 .1309967 .17868042 .1309967 .35887147 .1309967 .53907778 .23498535 .6592102 .3899994 .6592102 .54499819 .6592102 .6489868 .53907778 .6489868 .35987855 .6489868 .2657776 .6239929 .19270325 .56999209 .13163758L.48098756 .20471192Z"/>
<path id="font_7_45" d="M.17298889 .7285156H.07998657V0H.5329895V.08198547H.17298889V.7285156Z"/>
<path id="font_7_27" d="M.21398926 .10398865H.10998535V0H.21398926V.10398865M.21398926 .52441409H.10998535V.42041017H.21398926V.52441409Z"/>
<path id="font_7_54" d="M.5519867 .7285156V.21653748C.5519867 .11854553 .48098756 .058547975 .3639984 .058547975 .30999757 .058547975 .2659912 .07154846 .23098755 .09655762 .19499207 .124557498 .17799378 .1615448 .17799378 .21653748V.7285156H.084991458V.21653748C.084991458 .06855774 .19099427-.0234375 .3639984-.0234375 .5349884-.0234375 .644989 .07055664 .644989 .21653748V.7285156H.5519867Z"/>
<path id="font_7_81" d="M.053985597-.21824646H.13798523V.05455017C.18199158 .0005493164 .23098755-.0234375 .29899598-.0234375 .43399049-.0234375 .522995 .08558655 .522995 .25279237 .522995 .4290161 .43699647 .5390625 .2979889 .5390625 .22698975 .5390625 .16999817 .50704959 .1309967 .44503785V.52404788H.053985597V-.21824646M.28399659 .46105958C.37599183 .46105958 .43598939 .3799591 .43598939 .25480653 .43598939 .13565064 .375 .05455017 .28399659 .05455017 .19599915 .05455017 .13798523 .13465882 .13798523 .25779725 .13798523 .38095094 .19599915 .46105958 .28399659 .46105958Z"/>
<path id="font_10_113" d="M.3889923-.8549652 .21299744-.4659729C.20599365-.44996644 .20098877-.44996644 .19799805-.44996644 .19699097-.44996644 .19198609-.44996644 .18099976-.45796205L.085998538-.52996829C.07299805-.53996279 .07299805-.54296877 .07299805-.54597476 .07299805-.55096438 .07598877-.55696108 .08299255-.55696108 .08898926-.55696108 .10598755-.54296877 .116989139-.53497317 .12298584-.52996829 .13798523-.5189667 .14898682-.51097109L.34599305-.9439697C.35299684-.95996096 .35798646-.95996096 .36698915-.95996096 .38198854-.95996096 .3849945-.95396426 .3919983-.9399719L.84599307 .000030517579C.8529968 .014038086 .8529968 .018035889 .8529968 .02003479 .8529968 .030029297 .8450012 .040039064 .83299258 .040039064 .82499697 .040039064 .81799319 .03503418 .80999758 .01902771L.3889923-.8549652Z"/>
<path id="font_8_26" d="M.25898744 .3766632H.37199403C.34498597 .26483155 .32798768 .19194031 .32798768 .112075809 .32798768 .098083499 .32798768-.009765625 .36898805-.009765625 .3899994-.009765625 .4079895 .009231567 .4079895 .02619934 .4079895 .031188965 .4079895 .033187868 .40098573 .048171998 .37399293 .11706543 .37399293 .20292664 .37399293 .20991516 .37399293 .21591187 .37399293 .28678895 .394989 .3766632H.5069885C.519989 .3766632 .5529938 .3766632 .5529938 .4086609 .5529938 .43066407 .5339966 .43066407 .5159912 .43066407H.18699646C.1639862 .43066407 .12998963 .43066407 .083999637 .38165284 .057998659 .35269166 .025985718 .29977418 .025985718 .29377748 .025985718 .28779603 .0309906 .28579713 .036987306 .28579713 .04399109 .28579713 .04499817 .28878785 .049987794 .29478456 .101989749 .3766632 .1539917 .3766632 .1789856 .3766632H.23599243C.21398926 .30177308 .18899536 .21490479 .10699463 .04017639 .09899902 .02420044 .09899902 .022216797 .09899902 .016220093 .09899902-.004776001 .116989139-.009765625 .12599182-.009765625 .15499878-.009765625 .16299439 .016220093 .1749878 .058151246 .19099427 .109069827 .19099427 .111068729 .20098877 .15100098L.25898744 .3766632Z"/>
</defs>


<g clip-path="url(#clip_1)">
<path transform="matrix(1,0,0,-1,0,1080)" stroke-width=".7" stroke-linecap="butt" stroke-dasharray="2.59,1.12" stroke-linejoin="round" fill="none" stroke="#b0b0b0" stroke-opacity=".7" d="M191.92609 116.50459V1058.4"/>
</g>
<path transform="matrix(1,0,0,-1,0,1080)" d="M191.92609 116.50459V113.00459"/>
<path transform="matrix(1,0,0,-1,0,1080)" stroke-width=".8" stroke-linecap="butt" stroke-linejoin="round" fill="none" stroke="#000000" d="M191.92609 116.50459V113.00459"/>
<use data-text="1" xlink:href="#font_2_51" transform="matrix(39.85056,0,0,-39.85056,182.78798,998.8887)"/>
<g clip-path="url(#clip_3)">
<path transform="matrix(1,0,0,-1,0,1080)" stroke-width=".7" stroke-linecap="butt" stroke-dasharray="2.59,1.12" stroke-linejoin="round" fill="none" stroke="#b0b0b0" stroke-opacity=".7" d="M398.2294 116.50459V1058.4"/>
</g>
<path transform="matrix(1,0,0,-1,0,1080)" d="M398.2294 116.50459V113.00459"/>
<path transform="matrix(1,0,0,-1,0,1080)" stroke-width=".8" stroke-linecap="butt" stroke-linejoin="round" fill="none" stroke="#000000" d="M398.2294 116.50459V113.00459"/>
<use data-text="2" xlink:href="#font_2_52" transform="matrix(39.85056,0,0,-39.85056,389.0913,998.8887)"/>
<g clip-path="url(#clip_4)">
<path transform="matrix(1,0,0,-1,0,1080)" stroke-width=".7" stroke-linecap="butt" stroke-dasharray="2.59,1.12" stroke-linejoin="round" fill="none" stroke="#b0b0b0" stroke-opacity=".7" d="M604.5327 116.50459V1058.4"/>
</g>
<path transform="matrix(1,0,0,-1,0,1080)" d="M604.5327 116.50459V113.00459"/>
<path transform="matrix(1,0,0,-1,0,1080)" stroke-width=".8" stroke-linecap="butt" stroke-linejoin="round" fill="none" stroke="#000000" d="M604.5327 116.50459V113.00459"/>
<use data-text="3" xlink:href="#font_2_53" transform="matrix(39.85056,0,0,-39.85056,595.3946,998.8887)"/>
<g clip-path="url(#clip_5)">
<path transform="matrix(1,0,0,-1,0,1080)" stroke-width=".7" stroke-linecap="butt" stroke-dasharray="2.59,1.12" stroke-linejoin="round" fill="none" stroke="#b0b0b0" stroke-opacity=".7" d="M810.836 116.50459V1058.4"/>
</g>
<path transform="matrix(1,0,0,-1,0,1080)" d="M810.836 116.50459V113.00459"/>
<path transform="matrix(1,0,0,-1,0,1080)" stroke-width=".8" stroke-linecap="butt" stroke-linejoin="round" fill="none" stroke="#000000" d="M810.836 116.50459V113.00459"/>
<use data-text="4" xlink:href="#font_2_54" transform="matrix(39.85056,0,0,-39.85056,801.69796,998.8887)"/>
<g clip-path="url(#clip_6)">
<path transform="matrix(1,0,0,-1,0,1080)" stroke-width=".7" stroke-linecap="butt" stroke-dasharray="2.59,1.12" stroke-linejoin="round" fill="none" stroke="#b0b0b0" stroke-opacity=".7" d="M1017.13937 116.50459V1058.4"/>
</g>
<path transform="matrix(1,0,0,-1,0,1080)" d="M1017.13937 116.50459V113.00459"/>
<path transform="matrix(1,0,0,-1,0,1080)" stroke-width=".8" stroke-linecap="butt" stroke-linejoin="round" fill="none" stroke="#000000" d="M1017.13937 116.50459V113.00459"/>
<use data-text="5" xlink:href="#font_2_55" transform="matrix(39.85056,0,0,-39.85056,1008.0012,998.8887)"/>
<use data-text="B" xlink:href="#font_7_35" transform="matrix(49.8132,0,0,-49.8132,483.45555,1047.79)"/>
<use data-text="i" xlink:href="#font_7_74" transform="matrix(49.8132,0,0,-49.8132,516.6311,1047.79)"/>
<use data-text="t" xlink:href="#font_7_85" transform="matrix(49.8132,0,0,-49.8132,527.63986,1047.79)"/>
<use data-text="w" xlink:href="#font_7_88" transform="matrix(49.8132,0,0,-49.8132,541.4381,1047.79)"/>
<use data-text="i" xlink:href="#font_7_74" transform="matrix(49.8132,0,0,-49.8132,577.35348,1047.79)"/>
<use data-text="d" xlink:href="#font_7_69" transform="matrix(49.8132,0,0,-49.8132,588.3622,1047.79)"/>
<use data-text="t" xlink:href="#font_7_85" transform="matrix(49.8132,0,0,-49.8132,616.0085,1047.79)"/>
<use data-text="h" xlink:href="#font_7_73" transform="matrix(49.8132,0,0,-49.8132,629.80679,1047.79)"/>
<use data-text="(" xlink:href="#font_7_9" transform="matrix(49.8132,0,0,-49.8132,671.30068,1047.79)"/>
<use data-text="b" xlink:href="#font_8_99" transform="matrix(49.8132,0,0,-49.8132,688.2843,1047.79)"/>
<use data-text=")" xlink:href="#font_7_10" transform="matrix(49.8132,0,0,-49.8132,709.0222,1047.79)"/>
<g clip-path="url(#clip_9)">
<path transform="matrix(1,0,0,-1,0,1080)" stroke-width=".7" stroke-linecap="butt" stroke-dasharray="2.59,1.12" stroke-linejoin="round" fill="none" stroke="#b0b0b0" stroke-opacity=".7" d="M150.66542 162.4203H1058.4"/>
</g>
<path transform="matrix(1,0,0,-1,0,1080)" d="M150.66542 162.4203H147.16542"/>
<path transform="matrix(1,0,0,-1,0,1080)" stroke-width=".8" stroke-linecap="butt" stroke-linejoin="round" fill="none" stroke="#000000" d="M150.66542 162.4203H147.16542"/>
<use data-text="1" xlink:href="#font_2_51" transform="matrix(39.85056,0,0,-39.85056,72.62337,931.77639)"/>
<use data-text="0" xlink:href="#font_2_50" transform="matrix(39.85056,0,0,-39.85056,90.87492,931.77639)"/>
<use data-text="&#x2212;" xlink:href="#font_10_1" transform="matrix(27.895272,0,0,-27.895272,109.17575,917.3149)"/>
<use data-text="3" xlink:href="#font_2_53" transform="matrix(27.895272,0,0,-27.895272,130.87215,917.3149)"/>
<g clip-path="url(#clip_11)">
<path transform="matrix(1,0,0,-1,0,1080)" stroke-width=".7" stroke-linecap="butt" stroke-dasharray="2.59,1.12" stroke-linejoin="round" fill="none" stroke="#b0b0b0" stroke-opacity=".7" d="M150.66542 463.6136H1058.4"/>
</g>
<path transform="matrix(1,0,0,-1,0,1080)" d="M150.66542 463.6136H147.16542"/>
<path transform="matrix(1,0,0,-1,0,1080)" stroke-width=".8" stroke-linecap="butt" stroke-linejoin="round" fill="none" stroke="#000000" d="M150.66542 463.6136H147.16542"/>
<use data-text="1" xlink:href="#font_2_51" transform="matrix(39.85056,0,0,-39.85056,72.62337,630.58309)"/>
<use data-text="0" xlink:href="#font_2_50" transform="matrix(39.85056,0,0,-39.85056,90.87492,630.58309)"/>
<use data-text="&#x2212;" xlink:href="#font_10_1" transform="matrix(27.895272,0,0,-27.895272,109.17575,616.1216)"/>
<use data-text="2" xlink:href="#font_2_52" transform="matrix(27.895272,0,0,-27.895272,130.87215,616.1216)"/>
<g clip-path="url(#clip_12)">
<path transform="matrix(1,0,0,-1,0,1080)" stroke-width=".7" stroke-linecap="butt" stroke-dasharray="2.59,1.12" stroke-linejoin="round" fill="none" stroke="#b0b0b0" stroke-opacity=".7" d="M150.66542 764.8069H1058.4"/>
</g>
<path transform="matrix(1,0,0,-1,0,1080)" d="M150.66542 764.8069H147.16542"/>
<path transform="matrix(1,0,0,-1,0,1080)" stroke-width=".8" stroke-linecap="butt" stroke-linejoin="round" fill="none" stroke="#000000" d="M150.66542 764.8069H147.16542"/>
<use data-text="1" xlink:href="#font_2_51" transform="matrix(39.85056,0,0,-39.85056,72.62337,329.38978)"/>
<use data-text="0" xlink:href="#font_2_50" transform="matrix(39.85056,0,0,-39.85056,90.87492,329.38978)"/>
<use data-text="&#x2212;" xlink:href="#font_10_1" transform="matrix(27.895272,0,0,-27.895272,109.17575,314.92835)"/>
<use data-text="1" xlink:href="#font_2_51" transform="matrix(27.895272,0,0,-27.895272,130.87215,314.92835)"/>
<path transform="matrix(1,0,0,-1,0,1080)" d="M150.66542 133.23166H148.66542"/>
<path transform="matrix(1,0,0,-1,0,1080)" stroke-width=".6" stroke-linecap="butt" stroke-linejoin="round" fill="none" stroke="#000000" d="M150.66542 133.23166H148.66542"/>
<path transform="matrix(1,0,0,-1,0,1080)" d="M150.66542 148.63846H148.66542"/>
<path transform="matrix(1,0,0,-1,0,1080)" stroke-width=".6" stroke-linecap="butt" stroke-linejoin="round" fill="none" stroke="#000000" d="M150.66542 148.63846H148.66542"/>
<path transform="matrix(1,0,0,-1,0,1080)" d="M150.66542 253.08852H148.66542"/>
<path transform="matrix(1,0,0,-1,0,1080)" stroke-width=".6" stroke-linecap="butt" stroke-linejoin="round" fill="none" stroke="#000000" d="M150.66542 253.08852H148.66542"/>
<path transform="matrix(1,0,0,-1,0,1080)" d="M150.66542 306.126H148.66542"/>
<path transform="matrix(1,0,0,-1,0,1080)" stroke-width=".6" stroke-linecap="butt" stroke-linejoin="round" fill="none" stroke="#000000" d="M150.66542 306.126H148.66542"/>
<path transform="matrix(1,0,0,-1,0,1080)" d="M150.66542 343.7567H148.66542"/>
<path transform="matrix(1,0,0,-1,0,1080)" stroke-width=".6" stroke-linecap="butt" stroke-linejoin="round" fill="none" stroke="#000000" d="M150.66542 343.7567H148.66542"/>
<path transform="matrix(1,0,0,-1,0,1080)" d="M150.66542 372.94538H148.66542"/>
<path transform="matrix(1,0,0,-1,0,1080)" stroke-width=".6" stroke-linecap="butt" stroke-linejoin="round" fill="none" stroke="#000000" d="M150.66542 372.94538H148.66542"/>
<path transform="matrix(1,0,0,-1,0,1080)" d="M150.66542 396.79423H148.66542"/>
<path transform="matrix(1,0,0,-1,0,1080)" stroke-width=".6" stroke-linecap="butt" stroke-linejoin="round" fill="none" stroke="#000000" d="M150.66542 396.79423H148.66542"/>
<path transform="matrix(1,0,0,-1,0,1080)" d="M150.66542 416.95817H148.66542"/>
<path transform="matrix(1,0,0,-1,0,1080)" stroke-width=".6" stroke-linecap="butt" stroke-linejoin="round" fill="none" stroke="#000000" d="M150.66542 416.95817H148.66542"/>
<path transform="matrix(1,0,0,-1,0,1080)" d="M150.66542 434.42494H148.66542"/>
<path transform="matrix(1,0,0,-1,0,1080)" stroke-width=".6" stroke-linecap="butt" stroke-linejoin="round" fill="none" stroke="#000000" d="M150.66542 434.42494H148.66542"/>
<path transform="matrix(1,0,0,-1,0,1080)" d="M150.66542 449.83174H148.66542"/>
<path transform="matrix(1,0,0,-1,0,1080)" stroke-width=".6" stroke-linecap="butt" stroke-linejoin="round" fill="none" stroke="#000000" d="M150.66542 449.83174H148.66542"/>
<path transform="matrix(1,0,0,-1,0,1080)" d="M150.66542 554.2818H148.66542"/>
<path transform="matrix(1,0,0,-1,0,1080)" stroke-width=".6" stroke-linecap="butt" stroke-linejoin="round" fill="none" stroke="#000000" d="M150.66542 554.2818H148.66542"/>
<path transform="matrix(1,0,0,-1,0,1080)" d="M150.66542 607.3193H148.66542"/>
<path transform="matrix(1,0,0,-1,0,1080)" stroke-width=".6" stroke-linecap="butt" stroke-linejoin="round" fill="none" stroke="#000000" d="M150.66542 607.3193H148.66542"/>
<path transform="matrix(1,0,0,-1,0,1080)" d="M150.66542 644.95H148.66542"/>
<path transform="matrix(1,0,0,-1,0,1080)" stroke-width=".6" stroke-linecap="butt" stroke-linejoin="round" fill="none" stroke="#000000" d="M150.66542 644.95H148.66542"/>
<path transform="matrix(1,0,0,-1,0,1080)" d="M150.66542 674.1387H148.66542"/>
<path transform="matrix(1,0,0,-1,0,1080)" stroke-width=".6" stroke-linecap="butt" stroke-linejoin="round" fill="none" stroke="#000000" d="M150.66542 674.1387H148.66542"/>
<path transform="matrix(1,0,0,-1,0,1080)" d="M150.66542 697.9875H148.66542"/>
<path transform="matrix(1,0,0,-1,0,1080)" stroke-width=".6" stroke-linecap="butt" stroke-linejoin="round" fill="none" stroke="#000000" d="M150.66542 697.9875H148.66542"/>
<path transform="matrix(1,0,0,-1,0,1080)" d="M150.66542 718.1514H148.66542"/>
<path transform="matrix(1,0,0,-1,0,1080)" stroke-width=".6" stroke-linecap="butt" stroke-linejoin="round" fill="none" stroke="#000000" d="M150.66542 718.1514H148.66542"/>
<path transform="matrix(1,0,0,-1,0,1080)" d="M150.66542 735.6182H148.66542"/>
<path transform="matrix(1,0,0,-1,0,1080)" stroke-width=".6" stroke-linecap="butt" stroke-linejoin="round" fill="none" stroke="#000000" d="M150.66542 735.6182H148.66542"/>
<path transform="matrix(1,0,0,-1,0,1080)" d="M150.66542 751.025H148.66542"/>
<path transform="matrix(1,0,0,-1,0,1080)" stroke-width=".6" stroke-linecap="butt" stroke-linejoin="round" fill="none" stroke="#000000" d="M150.66542 751.025H148.66542"/>
<path transform="matrix(1,0,0,-1,0,1080)" d="M150.66542 855.4751H148.66542"/>
<path transform="matrix(1,0,0,-1,0,1080)" stroke-width=".6" stroke-linecap="butt" stroke-linejoin="round" fill="none" stroke="#000000" d="M150.66542 855.4751H148.66542"/>
<path transform="matrix(1,0,0,-1,0,1080)" d="M150.66542 908.5126H148.66542"/>
<path transform="matrix(1,0,0,-1,0,1080)" stroke-width=".6" stroke-linecap="butt" stroke-linejoin="round" fill="none" stroke="#000000" d="M150.66542 908.5126H148.66542"/>
<path transform="matrix(1,0,0,-1,0,1080)" d="M150.66542 946.1433H148.66542"/>
<path transform="matrix(1,0,0,-1,0,1080)" stroke-width=".6" stroke-linecap="butt" stroke-linejoin="round" fill="none" stroke="#000000" d="M150.66542 946.1433H148.66542"/>
<path transform="matrix(1,0,0,-1,0,1080)" d="M150.66542 975.3319H148.66542"/>
<path transform="matrix(1,0,0,-1,0,1080)" stroke-width=".6" stroke-linecap="butt" stroke-linejoin="round" fill="none" stroke="#000000" d="M150.66542 975.3319H148.66542"/>
<path transform="matrix(1,0,0,-1,0,1080)" d="M150.66542 999.1808H148.66542"/>
<path transform="matrix(1,0,0,-1,0,1080)" stroke-width=".6" stroke-linecap="butt" stroke-linejoin="round" fill="none" stroke="#000000" d="M150.66542 999.1808H148.66542"/>
<path transform="matrix(1,0,0,-1,0,1080)" d="M150.66542 1019.3447H148.66542"/>
<path transform="matrix(1,0,0,-1,0,1080)" stroke-width=".6" stroke-linecap="butt" stroke-linejoin="round" fill="none" stroke="#000000" d="M150.66542 1019.3447H148.66542"/>
<path transform="matrix(1,0,0,-1,0,1080)" d="M150.66542 1036.8115H148.66542"/>
<path transform="matrix(1,0,0,-1,0,1080)" stroke-width=".6" stroke-linecap="butt" stroke-linejoin="round" fill="none" stroke="#000000" d="M150.66542 1036.8115H148.66542"/>
<path transform="matrix(1,0,0,-1,0,1080)" d="M150.66542 1052.2183H148.66542"/>
<path transform="matrix(1,0,0,-1,0,1080)" stroke-width=".6" stroke-linecap="butt" stroke-linejoin="round" fill="none" stroke="#000000" d="M150.66542 1052.2183H148.66542"/>
<use data-text="M" xlink:href="#font_7_46" transform="matrix(0,-49.8132,-49.8132,-0,58.01344,782.1737)"/>
<use data-text="e" xlink:href="#font_7_70" transform="matrix(0,-49.8132,-49.8132,-0,58.01344,740.7291)"/>
<use data-text="a" xlink:href="#font_7_66" transform="matrix(0,-49.8132,-49.8132,-0,58.01344,713.08279)"/>
<use data-text="n" xlink:href="#font_7_79" transform="matrix(0,-49.8132,-49.8132,-0,58.01344,685.43649)"/>
<use data-text="s" xlink:href="#font_7_84" transform="matrix(0,-49.8132,-49.8132,-0,58.01344,643.94259)"/>
<use data-text="q" xlink:href="#font_7_82" transform="matrix(0,-49.8132,-49.8132,-0,58.01344,619.03598)"/>
<use data-text="u" xlink:href="#font_7_86" transform="matrix(0,-49.8132,-49.8132,-0,58.01344,591.38967)"/>
<use data-text="a" xlink:href="#font_7_66" transform="matrix(0,-49.8132,-49.8132,-0,58.01344,563.7433)"/>
<use data-text="r" xlink:href="#font_7_83" transform="matrix(0,-49.8132,-49.8132,-0,58.01344,536.097)"/>
<use data-text="e" xlink:href="#font_7_70" transform="matrix(0,-49.8132,-49.8132,-0,58.01344,519.559)"/>
<use data-text="d" xlink:href="#font_7_69" transform="matrix(0,-49.8132,-49.8132,-0,58.01344,491.91273)"/>
<use data-text="e" xlink:href="#font_7_70" transform="matrix(0,-49.8132,-49.8132,-0,58.01344,450.41883)"/>
<use data-text="r" xlink:href="#font_7_83" transform="matrix(0,-49.8132,-49.8132,-0,58.01344,422.77253)"/>
<use data-text="r" xlink:href="#font_7_83" transform="matrix(0,-49.8132,-49.8132,-0,58.01344,406.23457)"/>
<use data-text="o" xlink:href="#font_7_80" transform="matrix(0,-49.8132,-49.8132,-0,58.01344,389.6966)"/>
<use data-text="r" xlink:href="#font_7_83" transform="matrix(0,-49.8132,-49.8132,-0,58.01344,362.0503)"/>
<use data-text="(" xlink:href="#font_7_9" transform="matrix(0,-49.8132,-49.8132,-0,58.01344,331.66474)"/>
<use data-text="D" xlink:href="#font_8_69" transform="matrix(0,-49.8132,-49.8132,-0,58.01344,314.33375)"/>
<use data-text="m" xlink:href="#font_13_111" transform="matrix(0,-34.869089,-34.869089,-0,65.48539,273.8366)"/>
<use data-text="s" xlink:href="#font_13_117" transform="matrix(0,-34.869089,-34.869089,-0,65.48539,255.91388)"/>
<use data-text="e" xlink:href="#font_13_103" transform="matrix(0,-34.869089,-34.869089,-0,65.48539,237.99115)"/>
<use data-text=")" xlink:href="#font_7_10" transform="matrix(0,-49.8132,-49.8132,-0,58.01344,219.50934)"/>
<g clip-path="url(#clip_14)">
<path transform="matrix(1,0,0,-1,0,1080)" stroke-width="10" stroke-linecap="square" stroke-linejoin="round" fill="none" stroke="#007acc" d="M191.92609 933.5267 398.2294 785.7561 604.5327 625.5979 810.836 456.71696 1017.13937 291.59928"/>
<g clip-path="url(#clip_15)">
<path transform="matrix(1,0,0,-1,191.92609,146.47333)" d="M0-10C2.652031-10 5.195799-8.946337 7.071068-7.071068 8.946337-5.195799 10-2.652031 10 0 10 2.652031 8.946337 5.195799 7.071068 7.071068 5.195799 8.946337 2.652031 10 0 10-2.652031 10-5.195799 8.946337-7.071068 7.071068-8.946337 5.195799-10 2.652031-10 0-10-2.652031-8.946337-5.195799-7.071068-7.071068-5.195799-8.946337-2.652031-10 0-10Z" fill="#007acc"/>
<path transform="matrix(1,0,0,-1,191.92609,146.47333)" stroke-width="1" stroke-linecap="butt" stroke-linejoin="round" fill="none" stroke="#007acc" d="M0-10C2.652031-10 5.195799-8.946337 7.071068-7.071068 8.946337-5.195799 10-2.652031 10 0 10 2.652031 8.946337 5.195799 7.071068 7.071068 5.195799 8.946337 2.652031 10 0 10-2.652031 10-5.195799 8.946337-7.071068 7.071068-8.946337 5.195799-10 2.652031-10 0-10-2.652031-8.946337-5.195799-7.071068-7.071068-5.195799-8.946337-2.652031-10 0-10Z"/>
</g>
<g clip-path="url(#clip_16)">
<path transform="matrix(1,0,0,-1,398.2294,294.2439)" d="M0-10C2.652031-10 5.195799-8.946337 7.071068-7.071068 8.946337-5.195799 10-2.652031 10 0 10 2.652031 8.946337 5.195799 7.071068 7.071068 5.195799 8.946337 2.652031 10 0 10-2.652031 10-5.195799 8.946337-7.071068 7.071068-8.946337 5.195799-10 2.652031-10 0-10-2.652031-8.946337-5.195799-7.071068-7.071068-5.195799-8.946337-2.652031-10 0-10Z" fill="#007acc"/>
<path transform="matrix(1,0,0,-1,398.2294,294.2439)" stroke-width="1" stroke-linecap="butt" stroke-linejoin="round" fill="none" stroke="#007acc" d="M0-10C2.652031-10 5.195799-8.946337 7.071068-7.071068 8.946337-5.195799 10-2.652031 10 0 10 2.652031 8.946337 5.195799 7.071068 7.071068 5.195799 8.946337 2.652031 10 0 10-2.652031 10-5.195799 8.946337-7.071068 7.071068-8.946337 5.195799-10 2.652031-10 0-10-2.652031-8.946337-5.195799-7.071068-7.071068-5.195799-8.946337-2.652031-10 0-10Z"/>
</g>
<g clip-path="url(#clip_17)">
<path transform="matrix(1,0,0,-1,604.5327,454.4021)" d="M0-10C2.652031-10 5.195799-8.946337 7.071068-7.071068 8.946337-5.195799 10-2.652031 10 0 10 2.652031 8.946337 5.195799 7.071068 7.071068 5.195799 8.946337 2.652031 10 0 10-2.652031 10-5.195799 8.946337-7.071068 7.071068-8.946337 5.195799-10 2.652031-10 0-10-2.652031-8.946337-5.195799-7.071068-7.071068-5.195799-8.946337-2.652031-10 0-10Z" fill="#007acc"/>
<path transform="matrix(1,0,0,-1,604.5327,454.4021)" stroke-width="1" stroke-linecap="butt" stroke-linejoin="round" fill="none" stroke="#007acc" d="M0-10C2.652031-10 5.195799-8.946337 7.071068-7.071068 8.946337-5.195799 10-2.652031 10 0 10 2.652031 8.946337 5.195799 7.071068 7.071068 5.195799 8.946337 2.652031 10 0 10-2.652031 10-5.195799 8.946337-7.071068 7.071068-8.946337 5.195799-10 2.652031-10 0-10-2.652031-8.946337-5.195799-7.071068-7.071068-5.195799-8.946337-2.652031-10 0-10Z"/>
</g>
<g clip-path="url(#clip_18)">
<path transform="matrix(1,0,0,-1,810.83609,623.2831)" d="M0-10C2.652031-10 5.195799-8.946337 7.071068-7.071068 8.946337-5.195799 10-2.652031 10 0 10 2.652031 8.946337 5.195799 7.071068 7.071068 5.195799 8.946337 2.652031 10 0 10-2.652031 10-5.195799 8.946337-7.071068 7.071068-8.946337 5.195799-10 2.652031-10 0-10-2.652031-8.946337-5.195799-7.071068-7.071068-5.195799-8.946337-2.652031-10 0-10Z" fill="#007acc"/>
<path transform="matrix(1,0,0,-1,810.83609,623.2831)" stroke-width="1" stroke-linecap="butt" stroke-linejoin="round" fill="none" stroke="#007acc" d="M0-10C2.652031-10 5.195799-8.946337 7.071068-7.071068 8.946337-5.195799 10-2.652031 10 0 10 2.652031 8.946337 5.195799 7.071068 7.071068 5.195799 8.946337 2.652031 10 0 10-2.652031 10-5.195799 8.946337-7.071068 7.071068-8.946337 5.195799-10 2.652031-10 0-10-2.652031-8.946337-5.195799-7.071068-7.071068-5.195799-8.946337-2.652031-10 0-10Z"/>
</g>
<g clip-path="url(#clip_19)">
<path transform="matrix(1,0,0,-1,1017.1394,788.40078)" d="M0-10C2.652031-10 5.195799-8.946337 7.071068-7.071068 8.946337-5.195799 10-2.652031 10 0 10 2.652031 8.946337 5.195799 7.071068 7.071068 5.195799 8.946337 2.652031 10 0 10-2.652031 10-5.195799 8.946337-7.071068 7.071068-8.946337 5.195799-10 2.652031-10 0-10-2.652031-8.946337-5.195799-7.071068-7.071068-5.195799-8.946337-2.652031-10 0-10Z" fill="#007acc"/>
<path transform="matrix(1,0,0,-1,1017.1394,788.40078)" stroke-width="1" stroke-linecap="butt" stroke-linejoin="round" fill="none" stroke="#007acc" d="M0-10C2.652031-10 5.195799-8.946337 7.071068-7.071068 8.946337-5.195799 10-2.652031 10 0 10 2.652031 8.946337 5.195799 7.071068 7.071068 5.195799 8.946337 2.652031 10 0 10-2.652031 10-5.195799 8.946337-7.071068 7.071068-8.946337 5.195799-10 2.652031-10 0-10-2.652031-8.946337-5.195799-7.071068-7.071068-5.195799-8.946337-2.652031-10 0-10Z"/>
</g>
</g>
<g clip-path="url(#clip_20)">
<path transform="matrix(1,0,0,-1,0,1080)" stroke-width="10" stroke-linecap="butt" stroke-dasharray="37,16" stroke-linejoin="round" fill="none" stroke="#2ca02c" d="M191.92609 884.6637 398.2294 703.3273 604.5327 521.99087 810.836 340.65446 1017.13937 159.31803"/>
</g>
<g clip-path="url(#clip_21)">
<path transform="matrix(1,0,0,-1,0,1080)" stroke-width="10" stroke-linecap="butt" stroke-dasharray="37,16" stroke-linejoin="round" fill="none" stroke="#d62728" d="M191.92609 1015.58657 398.2294 834.2501 604.5327 652.9137 810.836 471.5773 1017.13937 290.24089"/>
</g>
<path transform="matrix(1,0,0,-1,0,1080)" stroke-width=".8" stroke-linecap="square" stroke-miterlimit="10" stroke-linejoin="miter" fill="none" stroke="#000000" d="M150.66542 116.50459V1058.4"/>
<path transform="matrix(1,0,0,-1,0,1080)" stroke-width=".8" stroke-linecap="square" stroke-miterlimit="10" stroke-linejoin="miter" fill="none" stroke="#000000" d="M1058.4 116.50459V1058.4"/>
<path transform="matrix(1,0,0,-1,0,1080)" stroke-width=".8" stroke-linecap="square" stroke-miterlimit="10" stroke-linejoin="miter" fill="none" stroke="#000000" d="M150.66542 116.50459H1058.4"/>
<path transform="matrix(1,0,0,-1,0,1080)" stroke-width=".8" stroke-linecap="square" stroke-miterlimit="10" stroke-linejoin="miter" fill="none" stroke="#000000" d="M150.66542 1058.4H1058.4"/>
<g>
<path transform="matrix(1,0,0,-1,0,1080)" d="M520.8604 844.3329H1030.4C1035.7333 844.3329 1038.4 846.9996 1038.4 852.3329V1030.4C1038.4 1035.7333 1035.7333 1038.4 1030.4 1038.4H520.8604C515.5271 1038.4 512.8604 1035.7333 512.8604 1030.4V852.3329C512.8604 846.9996 515.5271 844.3329 520.8604 844.3329Z" fill="none" fill-opacity=".8"/>
<path transform="matrix(1,0,0,-1,0,1080)" stroke-width="1" stroke-linecap="butt" stroke-miterlimit="10" stroke-linejoin="miter" fill="none" stroke="#cccccc" stroke-opacity=".8" d="M520.8604 844.3329H1030.4C1035.7333 844.3329 1038.4 846.9996 1038.4 852.3329V1030.4C1038.4 1035.7333 1035.7333 1038.4 1030.4 1038.4H520.8604C515.5271 1038.4 512.8604 1035.7333 512.8604 1030.4V852.3329C512.8604 846.9996 515.5271 844.3329 520.8604 844.3329Z"/>
</g>
<path transform="matrix(1,0,0,-1,0,1080)" stroke-width="10" stroke-linecap="square" stroke-linejoin="round" fill="none" stroke="#007acc" d="M528.8604 1008.0067H568.8604 608.8604"/>
<path transform="matrix(1,0,0,-1,0,1080)" d="M568.8604 998.0067C571.51248 998.0067 574.0562 999.06039 575.9315 1000.93569 577.80679 1002.8109 578.8604 1005.3547 578.8604 1008.0067 578.8604 1010.65878 577.80679 1013.2025 575.9315 1015.07778 574.0562 1016.95309 571.51248 1018.0067 568.8604 1018.0067 566.2084 1018.0067 563.6646 1016.95309 561.78939 1015.07778 559.91409 1013.2025 558.8604 1010.65878 558.8604 1008.0067 558.8604 1005.3547 559.91409 1002.8109 561.78939 1000.93569 563.6646 999.06039 566.2084 998.0067 568.8604 998.0067Z" fill="#007acc"/>
<path transform="matrix(1,0,0,-1,0,1080)" stroke-width="1" stroke-linecap="butt" stroke-linejoin="round" fill="none" stroke="#007acc" d="M568.8604 998.0067C571.51248 998.0067 574.0562 999.06039 575.9315 1000.93569 577.80679 1002.8109 578.8604 1005.3547 578.8604 1008.0067 578.8604 1010.65878 577.80679 1013.2025 575.9315 1015.07778 574.0562 1016.95309 571.51248 1018.0067 568.8604 1018.0067 566.2084 1018.0067 563.6646 1016.95309 561.78939 1015.07778 559.91409 1013.2025 558.8604 1010.65878 558.8604 1008.0067 558.8604 1005.3547 559.91409 1002.8109 561.78939 1000.93569 563.6646 999.06039 566.2084 998.0067 568.8604 998.0067Z"/>
<use data-text="T" xlink:href="#font_7_53" transform="matrix(39.85056,0,0,-39.85056,640.8604,85.993289)"/>
<use data-text="u" xlink:href="#font_7_86" transform="matrix(39.85056,0,0,-39.85056,660.3874,85.993289)"/>
<use data-text="r" xlink:href="#font_7_83" transform="matrix(39.85056,0,0,-39.85056,682.50448,85.993289)"/>
<use data-text="b" xlink:href="#font_7_67" transform="matrix(39.85056,0,0,-39.85056,695.73489,85.993289)"/>
<use data-text="o" xlink:href="#font_7_80" transform="matrix(39.85056,0,0,-39.85056,717.8519,85.993289)"/>
<use data-text="Q" xlink:href="#font_7_50" transform="matrix(39.85056,0,0,-39.85056,739.969,85.993289)"/>
<use data-text="u" xlink:href="#font_7_86" transform="matrix(39.85056,0,0,-39.85056,770.93289,85.993289)"/>
<use data-text="a" xlink:href="#font_7_66" transform="matrix(39.85056,0,0,-39.85056,793.0499,85.993289)"/>
<use data-text="n" xlink:href="#font_7_79" transform="matrix(39.85056,0,0,-39.85056,815.167,85.993289)"/>
<use data-text="t" xlink:href="#font_7_85" transform="matrix(39.85056,0,0,-39.85056,837.28408,85.993289)"/>
<use data-text="m" xlink:href="#font_13_111" transform="matrix(27.895272,0,0,-27.895272,848.71878,91.970829)"/>
<use data-text="s" xlink:href="#font_13_117" transform="matrix(27.895272,0,0,-27.895272,863.05697,91.970829)"/>
<use data-text="e" xlink:href="#font_13_103" transform="matrix(27.895272,0,0,-27.895272,877.39517,91.970829)"/>
<path transform="matrix(1,0,0,-1,0,1080)" stroke-width="10" stroke-linecap="butt" stroke-dasharray="37,16" stroke-linejoin="round" fill="none" stroke="#2ca02c" d="M528.8604 951.1255H568.8604 608.8604"/>
<use data-text="L" xlink:href="#font_7_45" transform="matrix(39.85056,0,0,-39.85056,640.8604,142.87451)"/>
<use data-text="o" xlink:href="#font_7_80" transform="matrix(39.85056,0,0,-39.85056,662.9775,142.87451)"/>
<use data-text="w" xlink:href="#font_7_88" transform="matrix(39.85056,0,0,-39.85056,684.4972,142.87451)"/>
<use data-text="e" xlink:href="#font_7_70" transform="matrix(39.85056,0,0,-39.85056,712.831,142.87451)"/>
<use data-text="r" xlink:href="#font_7_83" transform="matrix(39.85056,0,0,-39.85056,734.94808,142.87451)"/>
<use data-text="B" xlink:href="#font_7_35" transform="matrix(39.85056,0,0,-39.85056,759.25656,142.87451)"/>
<use data-text="o" xlink:href="#font_7_80" transform="matrix(39.85056,0,0,-39.85056,785.797,142.87451)"/>
<use data-text="u" xlink:href="#font_7_86" transform="matrix(39.85056,0,0,-39.85056,807.91409,142.87451)"/>
<use data-text="n" xlink:href="#font_7_79" transform="matrix(39.85056,0,0,-39.85056,830.0311,142.87451)"/>
<use data-text="d" xlink:href="#font_7_69" transform="matrix(39.85056,0,0,-39.85056,852.1482,142.87451)"/>
<use data-text=":" xlink:href="#font_7_27" transform="matrix(39.85056,0,0,-39.85056,874.26528,142.87451)"/>
<use data-text="4" xlink:href="#font_2_54" transform="matrix(39.85056,0,0,-39.85056,899.4474,142.87451)"/>
<use data-text="&#x2212;" xlink:href="#font_10_1" transform="matrix(27.895272,0,0,-27.895272,917.7236,128.41309)"/>
<use data-text="b" xlink:href="#font_8_99" transform="matrix(27.895272,0,0,-27.895272,939.42,128.41309)"/>
<path transform="matrix(1,0,0,-1,0,1080)" stroke-width="10" stroke-linecap="butt" stroke-dasharray="37,16" stroke-linejoin="round" fill="none" stroke="#d62728" d="M528.8604 888.07498H568.8604 608.8604"/>
<use data-text="U" xlink:href="#font_7_54" transform="matrix(39.85056,0,0,-39.85056,640.8604,205.92505)"/>
<use data-text="p" xlink:href="#font_7_81" transform="matrix(39.85056,0,0,-39.85056,669.59268,205.92505)"/>
<use data-text="p" xlink:href="#font_7_81" transform="matrix(39.85056,0,0,-39.85056,691.7097,205.92505)"/>
<use data-text="e" xlink:href="#font_7_70" transform="matrix(39.85056,0,0,-39.85056,713.8268,205.92505)"/>
<use data-text="r" xlink:href="#font_7_83" transform="matrix(39.85056,0,0,-39.85056,735.94387,205.92505)"/>
<use data-text="B" xlink:href="#font_7_35" transform="matrix(39.85056,0,0,-39.85056,760.2523,205.92505)"/>
<use data-text="o" xlink:href="#font_7_80" transform="matrix(39.85056,0,0,-39.85056,786.7928,205.92505)"/>
<use data-text="u" xlink:href="#font_7_86" transform="matrix(39.85056,0,0,-39.85056,808.90988,205.92505)"/>
<use data-text="n" xlink:href="#font_7_79" transform="matrix(39.85056,0,0,-39.85056,831.0269,205.92505)"/>
<use data-text="d" xlink:href="#font_7_69" transform="matrix(39.85056,0,0,-39.85056,853.144,205.92505)"/>
<use data-text=":" xlink:href="#font_7_27" transform="matrix(39.85056,0,0,-39.85056,875.26107,205.92505)"/>
<use data-text="&#x221a;" xlink:href="#font_10_113" transform="matrix(39.85056,0,0,-39.85056,900.44326,172.95648)"/>
<use data-text="3" xlink:href="#font_2_53" transform="matrix(39.85056,0,0,-39.85056,933.65219,205.92505)"/>
<use data-text="&#x03c0;" xlink:href="#font_8_26" transform="matrix(27.895272,0,0,-27.895272,953.12387,190.23462)"/>
<use data-text="2" xlink:href="#font_2_52" transform="matrix(27.895272,0,0,-27.895272,954.9747,219.66718)"/>
<use data-text="4" xlink:href="#font_2_54" transform="matrix(39.85056,0,0,-39.85056,970.8143,205.92511)"/>
<use data-text="&#x2212;" xlink:href="#font_10_1" transform="matrix(27.895272,0,0,-27.895272,989.09048,191.46369)"/>
<use data-text="b" xlink:href="#font_8_99" transform="matrix(27.895272,0,0,-27.895272,1010.78689,191.46369)"/>
<path transform="matrix(1,0,0,-1,0,1080)" d="M933.65219 907.0436H951.92837V908.6376H933.65219Z"/>
<path transform="matrix(1,0,0,-1,0,1080)" d="M953.12387 883.2406H969.6187V884.8346H953.12387Z"/>
</svg>
