<svg xmlns="http://www.w3.org/2000/svg" xmlns:xlink="http://www.w3.org/1999/xlink" xmlns:inkscape="http://www.inkscape.org/namespaces/inkscape" version="1.1" width="720" height="648" viewBox="0 0 720 648">
<defs>
<clipPath id="clip_1">
<path transform="matrix(1,0,0,-1,0,648)" d="M168.33896 129.88622H680V608H168.33896Z"/>
</clipPath>
<path id="font_2_18" d="M.25898744 .5049896V0H.34700013V.70899966H.2889862C.2579956 .59999087 .23799134 .58499148 .101989749 .56799319V.5049896H.25898744Z"/>
<clipPath id="clip_3">
<path transform="matrix(1,0,0,-1,0,648)" d="M168.33896 129.88622H680V608H168.33896Z"/>
</clipPath>
<path id="font_2_19" d="M.5059967 .08699036H.1329956C.14199829 .14498902 .17399597 .18199158 .26098634 .23298645L.36099244 .2869873C.45999146 .34098817 .5109863 .4139862 .5109863 .50097659 .5109863 .5599823 .4869995 .614975 .44499208 .65296939 .40299989 .690979 .35099793 .7089844 .28399659 .7089844 .19400025 .7089844 .1269989 .67697146 .08799744 .6169739 .06298828 .5789795 .051986696 .53497317 .049987794 .46298219H.13798523C.14099121 .5109863 .14698792 .539978 .15899658 .562973 .18199158 .6059723 .22799683 .63197329 .2809906 .63197329 .36099244 .63197329 .42099 .5749817 .42099 .49897767 .42099 .4429779 .3880005 .394989 .32499696 .35897828L.23298645 .30699159C.084991458 .22299195 .041992189 .1559906 .033996583 0H.5059967V.08699036Z"/>
<clipPath id="clip_4">
<path transform="matrix(1,0,0,-1,0,648)" d="M168.33896 129.88622H680V608H168.33896Z"/>
</clipPath>
<path id="font_2_21" d="M.32699586 .17001343V0H.4149933V.17001343H.519989V.24902344H.4149933V.7090149H.34999085L.027999878 .26301576V.17001343H.32699586M.32699586 .24902344H.10499573L.32699586 .559021V.24902344Z"/>
<clipPath id="clip_5">
<path transform="matrix(1,0,0,-1,0,648)" d="M168.33896 129.88622H680V608H168.33896Z"/>
</clipPath>
<path id="font_2_25" d="M.3909912 .37297059C.46398927 .41697694 .48799134 .4529724 .48799134 .51997378 .48799134 .63098147 .40098573 .7089844 .2749939 .7089844 .1499939 .7089844 .06199646 .63098147 .06199646 .51997378 .06199646 .4539795 .085998538 .417984 .1579895 .37297059 .07699585 .33398438 .036987306 .27488709 .036987306 .19676209 .036987306 .0665741 .1349945-.0234375 .2749939-.0234375 .4149933-.0234375 .5130005 .0665741 .5130005 .19577027 .5130005 .27488709 .47299195 .33398438 .3909912 .37297059M.2749939 .63098147C.34999085 .63098147 .397995 .5869751 .397995 .51797488 .397995 .4519806 .34899903 .40797425 .2749939 .40797425 .20098877 .40797425 .1519928 .4519806 .1519928 .51898196 .1519928 .5869751 .20098877 .63098147 .2749939 .63098147M.2749939 .33398438C.36299134 .33398438 .4229889 .27789308 .4229889 .19476319 .4229889 .11064148 .36299134 .05455017 .272995 .05455017 .18699646 .05455017 .1269989 .11164856 .1269989 .19476319 .1269989 .27789308 .18699646 .33398438 .2749939 .33398438Z"/>
<clipPath id="clip_6">
<path transform="matrix(1,0,0,-1,0,648)" d="M168.33896 129.88622H680V608H168.33896Z"/>
</clipPath>
<path id="font_2_23" d="M.49798585 .5236664C.48098756 .63998416 .40499879 .7089844 .29699708 .7089844 .21899414 .7089844 .14898682 .67097476 .10699463 .60791018 .06298828 .53871157 .042999269 .4514618 .042999269 .32243348 .042999269 .20349121 .06098938 .1275177 .102996829 .06454468 .14099121 .0075531008 .20298767-.0234375 .2809906-.0234375 .41600038-.0234375 .5130005 .076538089 .5130005 .21548462 .5130005 .34742738 .4229889 .4404297 .29599 .4404297 .22599793 .4404297 .17098999 .41342164 .1329956 .36141969 .13398743 .5346985 .18998719 .63098147 .29100038 .63098147 .35299684 .63098147 .3959961 .5918579 .4099884 .5236664H.49798585M.2849884 .36242677C.36999513 .36242677 .4229889 .30345155 .4229889 .2084961 .4229889 .119522098 .36299134 .05455017 .28199769 .05455017 .19999695 .05455017 .13798523 .122528079 .13798523 .21348572 .13798523 .30145265 .19799805 .36242677 .2849884 .36242677Z"/>
<clipPath id="clip_7">
<path transform="matrix(1,0,0,-1,0,648)" d="M168.33896 129.88622H680V608H168.33896Z"/>
</clipPath>
<path id="font_2_20" d="M.22099304 .3247528H.23199463L.2689972 .3257599C.3659973 .3257599 .41600038 .28172303 .41600038 .19665528 .41600038 .10758972 .36099244 .05455017 .2689972 .05455017 .17298889 .05455017 .12599182 .10258484 .11999512 .20567322H.03199768C.035995485 .1486206 .04598999 .11160278 .06298828 .079574588 .09899902 .011550903 .16899109-.0234375 .2659912-.0234375 .4119873-.0234375 .5059967 .063568118 .5059967 .19766236 .5059967 .28771974 .47099305 .33776856 .38598634 .36679078 .45199586 .392807 .4850006 .44284059 .4850006 .5138855 .4850006 .63597109 .4039917 .7089844 .2689972 .7089844 .12599182 .7089844 .049987794 .63098147 .04699707 .47987367H.1349945C.13598633 .52290347 .13999939 .5469208 .15098572 .56892397 .17098999 .60795596 .21499634 .63197329 .269989 .63197329 .34799195 .63197329 .394989 .5859375 .394989 .5108948 .394989 .46084596 .3769989 .4308319 .33799745 .41482545 .31399537 .40481568 .2829895 .4008026 .22099304 .3998108V.3247528Z"/>
<clipPath id="clip_8">
<path transform="matrix(1,0,0,-1,0,648)" d="M168.33896 129.88622H680V608H168.33896Z"/>
</clipPath>
<path id="font_2_53" d="M.35398866 .6465149H.59298709V.7285156H.020996094V.6465149H.26098634V0H.35398866V.6465149Z"/>
<path id="font_2_80" d="M.27198792 .5390625C.125 .5390625 .035995485 .434021 .035995485 .25779725 .035995485 .081588748 .12399292-.0234375 .272995-.0234375 .41999818-.0234375 .5099945 .081588748 .5099945 .25379945 .5099945 .43502809 .4229889 .5390625 .27198792 .5390625M.272995 .4620514C.36698915 .4620514 .4229889 .384964 .4229889 .25480653 .4229889 .13165283 .36499024 .05355835 .272995 .05355835 .17999268 .05355835 .12298584 .13064575 .12298584 .25779725 .12298584 .3839569 .17999268 .4620514 .272995 .4620514Z"/>
<path id="font_2_81" d="M.053985597-.21824646H.13798523V.05455017C.18199158 .0005493164 .23098755-.0234375 .29899598-.0234375 .43399049-.0234375 .522995 .08558655 .522995 .25279237 .522995 .4290161 .43699647 .5390625 .2979889 .5390625 .22698975 .5390625 .16999817 .50704959 .1309967 .44503785V.52404788H.053985597V-.21824646M.28399659 .46105958C.37599183 .46105958 .43598939 .3799591 .43598939 .25480653 .43598939 .13565064 .375 .05455017 .28399659 .05455017 .19599915 .05455017 .13798523 .13465882 .13798523 .25779725 .13798523 .38095094 .19599915 .46105958 .28399659 .46105958Z"/>
<path id="font_2_14" d="M.28399659 .31222535H.04598999V.24023438H.28399659V.31222535Z"/>
<path id="font_2_76" d="M.14099121 .7285156H.057998659V0H.14099121V.20385742L.22200012 .28381349 .39898683 0H.5019989L.28799439 .34277345 .46998597 .52363589H.36299134L.14099121 .30178834V.7285156Z"/>
<clipPath id="clip_9">
<path transform="matrix(1,0,0,-1,0,648)" d="M168.33896 129.88622H680V608H168.33896Z"/>
</clipPath>
<path id="font_10_50" d="M.41999818 .3212433C.41999818 .38223268 .4189911 .4861908 .3769989 .5661621 .33999635 .6361389 .2809906 .6611328 .22898865 .6611328 .18099976 .6611328 .11999512 .63912966 .08198547 .56715396 .041992189 .4921875 .037994386 .3992157 .037994386 .3212433 .037994386 .26426698 .038986207 .17730713 .069992069 .10133362 .11299133-.0016326904 .18998719-.015625 .22898865-.015625 .2749939-.015625 .34498597 .0033721924 .38598634 .09832764 .41600038 .16731262 .41999818 .24827576 .41999818 .3212433M.22898865 .00036621095C.16499329 .00036621095 .1269989 .055343629 .11299133 .13131714 .101989749 .19029236 .101989749 .27626039 .101989749 .33224488 .101989749 .4092102 .101989749 .4731903 .114990238 .5341644 .13398743 .6191406 .18998719 .64512637 .22898865 .64512637 .269989 .64512637 .32299806 .61813357 .34199525 .53616335 .35499574 .479187 .35598756 .4122162 .35598756 .33224488 .35598756 .26727296 .35598756 .18730164 .34399415 .12832642 .32299806 .019363404 .2639923 .00036621095 .22898865 .00036621095Z"/>
<path id="font_11_59" d="M.18399048 .04798889C.18399048 .07699585 .1599884 .09700012 .13598633 .09700012 .10699463 .09700012 .08699036 .07299805 .08699036 .04899597 .08699036 .019989014 .11099243 0 .1349945 0 .1639862 0 .18399048 .023986817 .18399048 .04798889Z"/>
<path id="font_10_58" d="M.27198792 .3602295C.33499146 .3922119 .39898683 .4402008 .39898683 .51716616 .39898683 .60813906 .31098939 .6611328 .22999573 .6611328 .13899231 .6611328 .05899048 .59513857 .05899048 .5041809 .05899048 .479187 .06498718 .436203 .10398865 .39822389 .11399841 .3882141 .1559906 .3582306 .18299866 .3392334 .13798523 .31625367 .032989503 .26127626 .032989503 .15130615 .032989503 .048355104 .1309967-.015625 .22799683-.015625 .33499146-.015625 .4249878 .061340333 .4249878 .16331482 .4249878 .25427247 .3639984 .2962494 .32398988 .3232422L.27198792 .3602295M.14099121 .4481964C.1329956 .4532013 .09298706 .48417665 .09298706 .53115847 .09298706 .5921478 .1559906 .63812258 .22799683 .63812258 .30699159 .63812258 .36499024 .5821533 .36499024 .51716616 .36499024 .4242096 .26098634 .37123109 .2559967 .37123109 .25498963 .37123109 .2539978 .37123109 .24598694 .37722779L.14099121 .4481964M.32499696 .24327088C.33999635 .23228455 .3880005 .19929505 .3880005 .13832093 .3880005 .06434631 .31399537 .008361816 .22999573 .008361816 .13899231 .008361816 .069992069 .073349 .069992069 .15231323 .069992069 .23127747 .1309967 .29725648 .19999695 .32824708L.32499696 .24327088Z"/>
<path id="font_10_55" d="M.11399841 .58535769C.12399292 .5813446 .16499329 .5683594 .20698548 .5683594 .2999878 .5683594 .35099793 .61834719 .37998963 .64715579 .37998963 .65515139 .37998963 .66015627 .37399293 .66015627 .37298585 .66015627 .37098695 .66015627 .36299134 .6561432 .32798768 .6411438 .2869873 .62934878 .23699951 .62934878 .20698548 .62934878 .1619873 .6332855 .11299133 .65515139 .101989749 .66015627 .099990848 .66015627 .09899902 .66015627 .09399414 .66015627 .09298706 .65914919 .09298706 .63916018V.34931947C.09298706 .33129884 .09298706 .32629396 .102996829 .32629396 .10798645 .32629396 .10998535 .32829286 .114990238 .33529664 .14698792 .3803711 .19099427 .39941407 .24099732 .39941407 .27598573 .39941407 .35099793 .3773651 .35099793 .20610047 .35099793 .17408753 .35099793 .116119388 .32099916 .07022095 .29599 .029312134 .25698854 .008361816 .21398926 .008361816 .147995 .008361816 .08099365 .054260255 .06298828 .13108826 .066986087 .13009644 .07499695 .12809754 .07899475 .12809754 .09199524 .12809754 .116989139 .13510132 .116989139 .16609192 .116989139 .19309998 .09799194 .20410156 .07899475 .20410156 .055999757 .20410156 .040985109 .190094 .040985109 .16209412 .040985109 .07521057 .10998535-.015625 .21598816-.015625 .31900025-.015625 .4169922 .07322693 .4169922 .2020874 .4169922 .32228089 .33898927 .41540528 .24198914 .41540528 .19099427 .41540528 .147995 .39640809 .11399841 .3603363V.58535769Z"/>
<clipPath id="clip_12">
<path transform="matrix(1,0,0,-1,0,648)" d="M168.33896 129.88622H680V608H168.33896Z"/>
</clipPath>
<path id="font_10_57" d="M.45098878 .62350466V.6455078H.21598816C.09899902 .6455078 .09700012 .6582184 .09298706 .6772156H.07499695L.04598999 .49047853H.06399536C.066986087 .5094757 .07398987 .56048586 .085998538 .5794983 .09199524 .5874939 .1659851 .5874939 .18299866 .5874939H.40299989L.2919922 .42245484C.21798706 .31143189 .16699219 .16140747 .16699219 .030380249 .16699219 .018371582 .16699219-.015625 .20298767-.015625 .23899842-.015625 .23899842 .018371582 .23899842 .03137207V.07737732C.23899842 .24142456 .2669983 .34944154 .31298829 .41845704L.45098878 .62350466Z"/>
<clipPath id="clip_13">
<path transform="matrix(1,0,0,-1,0,648)" d="M168.33896 129.88622H680V608H168.33896Z"/>
</clipPath>
<path id="font_10_59" d="M.35198976 .29621888C.35198976 .07608032 .26098634 .008361816 .18598938 .008361816 .16299439 .008361816 .10699463 .011352539 .083999637 .050079347 .10998535 .046081544 .1289978 .06008911 .1289978 .08508301 .1289978 .112091068 .10699463 .12109375 .09298706 .12109375 .083999637 .12109375 .056991579 .11708069 .056991579 .08308411 .056991579 .015319824 .115997318-.015625 .18798828-.015625 .30299378-.015625 .41999818 .11009216 .41999818 .3302002 .41999818 .60414126 .30799867 .6611328 .23199463 .6611328 .1329956 .6611328 .037994386 .57414248 .037994386 .4401703 .037994386 .3162079 .11898804 .2242279 .22099304 .2242279 .30499269 .2242279 .34199525 .30221559 .35198976 .33520509V.29621888M.22299195 .24023438C.19599915 .24023438 .1579895 .245224 .1269989 .3052063 .10598755 .34420777 .10598755 .3901825 .10598755 .43917848 .10598755 .49816896 .10598755 .53915408 .13398743 .58314517 .147995 .60414126 .17399597 .63812258 .23199463 .63812258 .34999085 .63812258 .34999085 .45716859 .34999085 .4171753 .34999085 .34620667 .31799317 .24023438 .22299195 .24023438Z"/>
<clipPath id="clip_14">
<path transform="matrix(1,0,0,-1,0,648)" d="M168.33896 129.88622H680V608H168.33896Z"/>
</clipPath>
<path id="font_10_52" d="M.4169922 .15492249H.39898683C.3889923 .083969119 .3809967 .07197571 .3769989 .06599426 .37199403 .057998659 .2999878 .057998659 .28599549 .057998659H.09399414C.12998963 .096969608 .19999695 .16792298 .2849884 .24986267 .34599305 .30781556 .4169922 .37576295 .4169922 .47473146 .4169922 .59298709 .32299806 .6611328 .21798706 .6611328 .10798645 .6611328 .040985109 .5639038 .040985109 .47373963 .040985109 .43473817 .069992069 .42973329 .08198547 .42973329 .09199524 .42973329 .12199402 .43572999 .12199402 .47073365 .12199402 .5017395 .09599304 .5107422 .08198547 .5107422 .07598877 .5107422 .069992069 .5097351 .06599426 .5077362 .084991458 .59298709 .14299011 .63513186 .20399475 .63513186 .29100038 .63513186 .34799195 .5659027 .34799195 .47473146 .34799195 .38775636 .29699708 .31282044 .23999024 .24786377L.040985109 .022994996V0H.3929901L.4169922 .15492249Z"/>
<clipPath id="clip_15">
<path transform="matrix(1,0,0,-1,0,648)" d="M168.33896 129.88622H680V608H168.33896Z"/>
</clipPath>
<clipPath id="clip_16">
<path transform="matrix(1,0,0,-1,0,648)" d="M168.33896 129.88622H680V608H168.33896Z"/>
</clipPath>
<clipPath id="clip_17">
<path transform="matrix(1,0,0,-1,0,648)" d="M168.33896 129.88622H680V608H168.33896Z"/>
</clipPath>
<path id="font_10_51" d="M.2659912 .63912966C.2659912 .66012576 .2649994 .6611328 .25099183 .6611328 .21199036 .61424258 .15299988 .5993042 .09700012 .5973053 .09399414 .5973053 .08898926 .5973053 .08799744 .5953064 .08699036 .5933075 .08699036 .5913086 .08699036 .5703125 .117996219 .5703125 .16999817 .5763092 .20999146 .600296V.073013309C.20999146 .037994386 .20799256 .025985718 .12199402 .025985718H.09199524V0C.13999939 .0009918213 .18998719 .0019989014 .23799134 .0019989014 .28599549 .0019989014 .33599855 .0009918213 .38398744 0V.025985718H.35398866C.2679901 .025985718 .2659912 .037002565 .2659912 .073013309V.63912966Z"/>
<path id="font_2_51" d="M.18598938 .31350709H.42599488C.5089874 .31350709 .54599 .27355958 .54599 .18371582L.54499819 .11882019C.54499819 .073898319 .5529938 .029968262 .56599429 0H.67900088V.022994996C.6439972 .046951295 .6369934 .072906497 .6349945 .16973877 .6339874 .28953553 .61499026 .3255005 .5359955 .35949708 .6179962 .39950563 .651001 .4505005 .651001 .5335083 .651001 .6595154 .57199099 .7285156 .42900086 .7285156H.09298706V0H.18598938V.31350709M.18598938 .3955078V.6465149H.41099549C.46299745 .6465149 .49299623 .638504 .5159912 .61849978 .54100039 .59750369 .55400088 .5644989 .55400088 .5205078 .55400088 .43449403 .5099945 .3955078 .41099549 .3955078H.18598938Z"/>
<path id="font_2_70" d="M.5130005 .23374939C.5130005 .31376649 .5069885 .36186219 .49198915 .40093995 .45799256 .48706056 .37799073 .5390625 .27999879 .5390625 .13398743 .5390625 .039993287 .4269867 .039993287 .25474549 .039993287 .08258057 .1309967-.0234375 .27799989-.0234375 .397995-.0234375 .48098756 .044555665 .5019989 .15867615H.41799928C.394989 .08959961 .34799195 .05355835 .2809906 .05355835 .22799683 .05355835 .18299866 .07757568 .15499878 .12162781 .1349945 .1516571 .12799073 .18170166 .1269989 .23374939H.5130005M.1289978 .3017578C.13598633 .39894105 .19499207 .4620514 .2789917 .4620514 .36099244 .4620514 .42399598 .3939209 .42399598 .30775453 .42399598 .30575563 .42399598 .3037567 .4229889 .3017578H.1289978Z"/>
<path id="font_2_68" d="M.47099305 .34791566C.46699525 .39897157 .45599366 .4320221 .43598939 .46105958 .3999939 .51005557 .33699037 .5390625 .2639923 .5390625 .12298584 .5390625 .0309906 .4270172 .0309906 .25279237 .0309906 .08358765 .12098694-.0234375 .2630005-.0234375 .3880005-.0234375 .46699525 .05155945 .47698976 .17970276H.3929901C.3789978 .09561157 .33599855 .05355835 .2649994 .05355835 .17298889 .05355835 .117996219 .12864685 .117996219 .25279237 .117996219 .3839569 .17199707 .4620514 .2630005 .4620514 .33299256 .4620514 .3769989 .42100526 .3869934 .34791566H.47099305Z"/>
<path id="font_2_66" d="M.5349884 .048553468C.526001 .046554567 .5219879 .046554567 .5169983 .046554567 .48799134 .046554567 .47200013 .061569215 .47200013 .08760071V.39598084C.47200013 .48905946 .4039917 .5390625 .2749939 .5390625 .19898987 .5390625 .13598633 .5170593 .100997928 .47805787 .07699585 .45103456 .066986087 .42100526 .06498718 .36894227H.14898682C.1559906 .43301393 .19400025 .4620514 .27198792 .4620514 .34700013 .4620514 .3889923 .434021 .3889923 .3839569V.36193849C.3889923 .32688905 .36799623 .3118744 .3019867 .30386354 .18399048 .28884889 .1659851 .28483583 .13398743 .27182008 .07299805 .24679566 .041992189 .19973755 .041992189 .13165283 .041992189 .03656006 .10798645-.0234375 .21398926-.0234375 .27999879-.0234375 .33299256-.00044250489 .3919983 .05355835 .397995 .0005493164 .42399598-.0234375 .47799684-.0234375 .49499513-.0234375 .5079956-.021438599 .5349884-.014450073V.048553468M.3889923 .16468811C.3889923 .13665772 .3809967 .119644168 .35598756 .09661865 .32199098 .06556702 .2809906 .049560548 .23199463 .049560548 .16699219 .049560548 .1289978 .080596927 .1289978 .13365174 .1289978 .1887207 .1659851 .2167511 .25498963 .22976685 .34298707 .24179077 .36099244 .24578858 .3889923 .25880433V.16468811Z"/>
<path id="font_2_77" d="M.1519928 .7285156H.067993167V0H.1519928V.7285156Z"/>
<path id="font_2_33" d="M.6649933 .5010071 .6429901 .43499757C.6179962 .4920044 .57598879 .5220032 .5209961 .5220032 .3869934 .5220032 .2639923 .38998414 .2639923 .2449646 .2639923 .14097595 .33399964 .061965944 .4269867 .061965944 .47999574 .061965944 .522995 .083969119 .56900027 .13397217 .5779877 .08294678 .6159973 .0569458 .67900088 .0569458 .7529907 .0569458 .81399539 .08595276 .86499026 .14595032 .91999819 .20996094 .95098879 .29096986 .95098879 .36898805 .95098879 .57206729 .7579956 .74121096 .5249939 .74121096 .4059906 .74121096 .27999879 .6921997 .19198609 .61213687 .09399414 .522995 .033996583 .3889923 .033996583 .2579651 .033996583 .036026 .23599243-.14160156 .4889984-.14160156 .5629883-.14160156 .6429901-.12660218 .71499636-.099609378L.68699648-.032730104C.6049957-.055648805 .5479889-.06460571 .49398805-.06460571 .28199769-.06460571 .11898804 .0819397 .11898804 .27296449 .11898804 .4830017 .30099488 .6641998 .5119934 .6641998 .7029877 .6641998 .8639984 .5240021 .8639984 .35697938 .8639984 .23995972 .7809906 .12695313 .69599917 .12695313 .6689911 .12695313 .6459961 .14694214 .6459961 .17095948 .6459961 .1799469 .6499939 .19795227 .6579895 .22096253L.7480011 .5010071H.6649933M.5149994 .4580078C.57099917 .4580078 .6119995 .41600038 .60899356 .36198426 .6069946 .3119812 .5799866 .22796631 .5549927 .19096375 .5269928 .14997864 .48999024 .12597656 .45298768 .12597656 .397995 .12597656 .35398866 .17797852 .35398866 .24397278 .35398866 .35598756 .43099977 .4580078 .5149994 .4580078Z"/>
<clipPath id="clip_18">
<path transform="matrix(1,0,0,-1,0,648)" d="M168.33896 129.88622H680V608H168.33896Z"/>
</clipPath>
<clipPath id="clip_19">
<path transform="matrix(1,0,0,-1,191.59627,371.34535)" d="M-12.5-12.5H12.5V12.5H-12.5Z"/>
</clipPath>
<clipPath id="clip_20">
<path transform="matrix(1,0,0,-1,269.12068,118.29616)" d="M-12.5-12.5H12.5V12.5H-12.5Z"/>
</clipPath>
<clipPath id="clip_21">
<path transform="matrix(1,0,0,-1,346.64509,64.709278)" d="M-12.5-12.5H12.5V12.5H-12.5Z"/>
</clipPath>
<clipPath id="clip_22">
<path transform="matrix(1,0,0,-1,424.1695,61.73244)" d="M-12.5-12.5H12.5V12.5H-12.5Z"/>
</clipPath>
<clipPath id="clip_23">
<path transform="matrix(1,0,0,-1,501.6939,61.73244)" d="M-12.5-12.5H12.5V12.5H-12.5Z"/>
</clipPath>
<clipPath id="clip_24">
<path transform="matrix(1,0,0,-1,579.2183,61.73244)" d="M-12.5-12.5H12.5V12.5H-12.5Z"/>
</clipPath>
<clipPath id="clip_25">
<path transform="matrix(1,0,0,-1,656.74276,61.73244)" d="M-12.5-12.5H12.5V12.5H-12.5Z"/>
</clipPath>
<clipPath id="clip_26">
<path transform="matrix(1,0,0,-1,0,648)" d="M168.33896 129.88622H680V608H168.33896Z"/>
</clipPath>
<clipPath id="clip_27">
<path transform="matrix(1,0,0,-1,191.59627,151.0438)" d="M-12.5-12.5H12.5V12.5H-12.5Z"/>
</clipPath>
<clipPath id="clip_28">
<path transform="matrix(1,0,0,-1,269.12068,67.68646)" d="M-12.5-12.5H12.5V12.5H-12.5Z"/>
</clipPath>
<clipPath id="clip_29">
<path transform="matrix(1,0,0,-1,346.64509,61.732446)" d="M-12.5-12.5H12.5V12.5H-12.5Z"/>
</clipPath>
<clipPath id="clip_30">
<path transform="matrix(1,0,0,-1,424.1695,61.732446)" d="M-12.5-12.5H12.5V12.5H-12.5Z"/>
</clipPath>
<clipPath id="clip_31">
<path transform="matrix(1,0,0,-1,501.6939,61.732446)" d="M-12.5-12.5H12.5V12.5H-12.5Z"/>
</clipPath>
<clipPath id="clip_32">
<path transform="matrix(1,0,0,-1,579.2183,61.732446)" d="M-12.5-12.5H12.5V12.5H-12.5Z"/>
</clipPath>
<clipPath id="clip_33">
<path transform="matrix(1,0,0,-1,656.74276,61.732446)" d="M-12.5-12.5H12.5V12.5H-12.5Z"/>
</clipPath>
<clipPath id="clip_34">
<path transform="matrix(1,0,0,-1,0,648)" d="M168.33896 129.88622H680V608H168.33896Z"/>
</clipPath>
<clipPath id="clip_35">
<path transform="matrix(1,0,0,-1,191.59627,430.88639)" d="M-11.5-11.5H11.5V11.5H-11.5Z"/>
</clipPath>
<clipPath id="clip_36">
<path transform="matrix(1,0,0,-1,269.12068,171.88321)" d="M-11.5-11.5H11.5V11.5H-11.5Z"/>
</clipPath>
<clipPath id="clip_37">
<path transform="matrix(1,0,0,-1,346.64509,79.59473)" d="M-11.5-11.5H11.5V11.5H-11.5Z"/>
</clipPath>
<clipPath id="clip_38">
<path transform="matrix(1,0,0,-1,424.1695,61.732439)" d="M-11.5-11.5H11.5V11.5H-11.5Z"/>
</clipPath>
<clipPath id="clip_39">
<path transform="matrix(1,0,0,-1,501.6939,61.732439)" d="M-11.5-11.5H11.5V11.5H-11.5Z"/>
</clipPath>
<clipPath id="clip_40">
<path transform="matrix(1,0,0,-1,579.2183,61.732439)" d="M-11.5-11.5H11.5V11.5H-11.5Z"/>
</clipPath>
<clipPath id="clip_41">
<path transform="matrix(1,0,0,-1,656.74276,61.732439)" d="M-11.5-11.5H11.5V11.5H-11.5Z"/>
</clipPath>
<clipPath id="clip_42">
<path transform="matrix(1,0,0,-1,0,648)" d="M168.33896 129.88622H680V608H168.33896Z"/>
</clipPath>
<clipPath id="clip_43">
<path transform="matrix(1,0,0,-1,191.59627,171.88321)" d="M-11.5-11.5H11.5V11.5H-11.5Z"/>
</clipPath>
<clipPath id="clip_44">
<path transform="matrix(1,0,0,-1,269.12068,64.70949)" d="M-11.5-11.5H11.5V11.5H-11.5Z"/>
</clipPath>
<clipPath id="clip_45">
<path transform="matrix(1,0,0,-1,346.64509,61.73244)" d="M-11.5-11.5H11.5V11.5H-11.5Z"/>
</clipPath>
<clipPath id="clip_46">
<path transform="matrix(1,0,0,-1,424.1695,61.73244)" d="M-11.5-11.5H11.5V11.5H-11.5Z"/>
</clipPath>
<clipPath id="clip_47">
<path transform="matrix(1,0,0,-1,501.6939,61.73244)" d="M-11.5-11.5H11.5V11.5H-11.5Z"/>
</clipPath>
<clipPath id="clip_48">
<path transform="matrix(1,0,0,-1,579.2183,61.73244)" d="M-11.5-11.5H11.5V11.5H-11.5Z"/>
</clipPath>
<clipPath id="clip_49">
<path transform="matrix(1,0,0,-1,656.74276,61.73244)" d="M-11.5-11.5H11.5V11.5H-11.5Z"/>
</clipPath>
<clipPath id="clip_50">
<path transform="matrix(1,0,0,-1,0,648)" d="M168.33896 129.88622H680V608H168.33896Z"/>
</clipPath>
<clipPath id="clip_51">
<path transform="matrix(1,0,0,-1,191.59627,496.38136)" d="M-11.304226-10.736068H11.304226V11.5H-11.304226Z"/>
</clipPath>
<clipPath id="clip_52">
<path transform="matrix(1,0,0,-1,269.12068,165.92902)" d="M-11.304226-10.736068H11.304226V11.5H-11.304226Z"/>
</clipPath>
<clipPath id="clip_53">
<path transform="matrix(1,0,0,-1,346.64509,67.68646)" d="M-11.304226-10.736068H11.304226V11.5H-11.304226Z"/>
</clipPath>
<clipPath id="clip_54">
<path transform="matrix(1,0,0,-1,424.1695,61.732446)" d="M-11.304226-10.736068H11.304226V11.5H-11.304226Z"/>
</clipPath>
<clipPath id="clip_55">
<path transform="matrix(1,0,0,-1,501.6939,61.732446)" d="M-11.304226-10.736068H11.304226V11.5H-11.304226Z"/>
</clipPath>
<clipPath id="clip_56">
<path transform="matrix(1,0,0,-1,579.2183,61.732446)" d="M-11.304226-10.736068H11.304226V11.5H-11.304226Z"/>
</clipPath>
<clipPath id="clip_57">
<path transform="matrix(1,0,0,-1,656.74276,61.732446)" d="M-11.304226-10.736068H11.304226V11.5H-11.304226Z"/>
</clipPath>
<clipPath id="clip_58">
<path transform="matrix(1,0,0,-1,0,648)" d="M168.33896 129.88622H680V608H168.33896Z"/>
</clipPath>
<clipPath id="clip_59">
<path transform="matrix(1,0,0,-1,191.59627,276.0797)" d="M-11.304226-10.736068H11.304226V11.5H-11.304226Z"/>
</clipPath>
<clipPath id="clip_60">
<path transform="matrix(1,0,0,-1,269.12068,94.47987)" d="M-11.304226-10.736068H11.304226V11.5H-11.304226Z"/>
</clipPath>
<clipPath id="clip_61">
<path transform="matrix(1,0,0,-1,346.64509,73.6405)" d="M-11.304226-10.736068H11.304226V11.5H-11.304226Z"/>
</clipPath>
<clipPath id="clip_62">
<path transform="matrix(1,0,0,-1,424.1695,61.73244)" d="M-11.304226-10.736068H11.304226V11.5H-11.304226Z"/>
</clipPath>
<clipPath id="clip_63">
<path transform="matrix(1,0,0,-1,501.6939,61.73244)" d="M-11.304226-10.736068H11.304226V11.5H-11.304226Z"/>
</clipPath>
<clipPath id="clip_64">
<path transform="matrix(1,0,0,-1,579.2183,61.73244)" d="M-11.304226-10.736068H11.304226V11.5H-11.304226Z"/>
</clipPath>
<clipPath id="clip_65">
<path transform="matrix(1,0,0,-1,656.74276,61.73244)" d="M-11.304226-10.736068H11.304226V11.5H-11.304226Z"/>
</clipPath>
<path id="font_2_86" d="M.48199464-.00044250489V.52441409H.39898683V.22688294C.39898683 .11968994 .34298707 .049560548 .2559967 .049560548 .18998719 .049560548 .147995 .08963013 .147995 .15275574V.52441409H.06498718V.11968994C.06498718 .032562257 .12998963-.0234375 .23199463-.0234375 .30899049-.0234375 .35798646 .0035552979 .40699769 .07260132V-.00044250489H.48199464Z"/>
<path id="font_2_83" d="M.068984989 .52441409V0H.15299988V.27220155C.15299988 .34727479 .17199707 .39631654 .21199036 .42533876 .23799134 .4443512 .2630005 .45036317 .32099916 .45135499V.5364075C.30699159 .5380554 .2999878 .5390625 .2889862 .5390625 .23498535 .5390625 .19400025 .50704959 .1459961 .42904664V.52441409H.068984989Z"/>
<path id="font_2_67" d="M.053985597 .7285156V-.00044250489H.1289978V.0665741C.16899109 .005554199 .22200012-.0234375 .29499818-.0234375 .43299867-.0234375 .522995 .08959961 .522995 .2638092 .522995 .434021 .43699647 .5390625 .29899598 .5390625 .22698975 .5390625 .17599488 .51205447 .13699341 .4530487V.7285156H.053985597M.2829895 .46105958C.37599183 .46105958 .43598939 .3799591 .43598939 .25480653 .43598939 .13565064 .37399293 .05455017 .2829895 .05455017 .19499207 .05455017 .13699341 .13465882 .13699341 .25779725 .13699341 .38095094 .19499207 .46105958 .2829895 .46105958Z"/>
<path id="font_2_50" d="M.73298647-.001449585 .6389923 .07557678C.70799258 .1516571 .74198916 .24575806 .74198916 .36088563 .74198916 .5871277 .59999087 .74121096 .3899994 .74121096 .17999268 .74121096 .037994386 .5871277 .037994386 .35887147 .037994386 .1306305 .17999268-.0234375 .3899994-.0234375 .46199037-.0234375 .5219879-.007446289 .58099368 .027557373L.6859894-.059448244 .73298647-.001449585M.48098756 .20471192 .43499757 .14865113 .5089874 .08657837C.46598817 .06655884 .43299867 .058547975 .3889923 .058547975 .23399353 .058547975 .1309967 .17868042 .1309967 .35887147 .1309967 .53907778 .23498535 .6592102 .3899994 .6592102 .54499819 .6592102 .6489868 .53907778 .6489868 .35987855 .6489868 .2657776 .6239929 .19270325 .56999209 .13163758L.48098756 .20471192Z"/>
<path id="font_2_79" d="M.069992069 .52441409V0H.1539917V.2892151C.1539917 .39604188 .20999146 .4660492 .29599 .4660492 .3619995 .4660492 .4039917 .42604066 .4039917 .3630371V0H.4869995V.39604188C.4869995 .4830475 .42199708 .5390625 .32099916 .5390625 .24299622 .5390625 .19299317 .50904849 .14698792 .43605042V.52441409H.069992069Z"/>
<path id="font_2_85" d="M.2539978 .52441409H.16799927V.66841128H.084991458V.52441409H.01399231V.45640565H.084991458V.059570314C.084991458 .0065612795 .12098694-.0234375 .18598938-.0234375 .20599365-.0234375 .22599793-.021438599 .2539978-.016448975V.05355835C.24299622 .05055237 .22999573 .049560548 .21398926 .049560548 .17799378 .049560548 .16799927 .059570314 .16799927 .09664917V.45640565H.2539978V.52441409Z"/>
<path id="font_2_74" d="M.1499939 .5235901H.066986087V0H.1499939V.5235901M.1499939 .7285156H.06599426V.62350466H.1499939V.7285156Z"/>
<path id="font_2_84" d="M.43798829 .37794496C.43699647 .48104859 .36898805 .5390625 .24798584 .5390625 .12599182 .5390625 .04699707 .47605897 .04699707 .37895204 .04699707 .29685975 .08898926 .25779725 .21299744 .22776795L.29100038 .20874024C.34899903 .19473267 .37199403 .17370606 .37199403 .13565064 .37199403 .08659363 .32299806 .05355835 .25 .05355835 .20498657 .05355835 .16699219 .0665741 .1459961 .08859253 .1329956 .10362244 .1269989 .118637088 .12199402 .15568543H.033996583C.037994386 .034561159 .10598755-.0234375 .24299622-.0234375 .375-.0234375 .45899964 .041549684 .45899964 .14266968 .45899964 .22076416 .4149933 .2638092 .31098939 .28884889L.23098755 .30786134C.16299439 .32388307 .13398743 .34591676 .13398743 .3829651 .13398743 .431015 .1769867 .4620514 .24499512 .4620514 .31199647 .4620514 .34799195 .43301393 .34999085 .37794496H.43798829Z"/>
<path id="font_2_49" d="M.18399048 .30862428H.41299439C.46998597 .30862428 .5149994 .32562257 .55400088 .36061097 .59799197 .4006195 .61698916 .44758607 .61698916 .5145569 .61698916 .6515045 .5359955 .7285156 .3919983 .7285156H.09098816V0H.18399048V.30862428M.18399048 .390625V.6465149H.37799073C.46699525 .6465149 .519989 .598526 .519989 .51856997 .519989 .43859864 .46699525 .390625 .37799073 .390625H.18399048Z"/>
</defs>


<g clip-path="url(#clip_1)">
<path transform="matrix(1,0,0,-1,0,648)" stroke-width=".8" stroke-linecap="square" stroke-linejoin="round" fill="none" stroke="#b0b0b0" d="M191.59627 129.88622V608"/>
</g>
<path transform="matrix(1,0,0,-1,0,648)" d="M191.59627 129.88622V126.386219"/>
<path transform="matrix(1,0,0,-1,0,648)" stroke-width=".8" stroke-linecap="butt" stroke-linejoin="round" fill="none" stroke="#000000" d="M191.59627 129.88622V126.386219"/>
<use data-text="1" xlink:href="#font_2_18" transform="matrix(31.880448,0,0,-31.880448,182.7336,554.3284)"/>
<g clip-path="url(#clip_3)">
<path transform="matrix(1,0,0,-1,0,648)" stroke-width=".8" stroke-linecap="square" stroke-linejoin="round" fill="none" stroke="#b0b0b0" d="M269.12068 129.88622V608"/>
</g>
<path transform="matrix(1,0,0,-1,0,648)" d="M269.12068 129.88622V126.386219"/>
<path transform="matrix(1,0,0,-1,0,648)" stroke-width=".8" stroke-linecap="butt" stroke-linejoin="round" fill="none" stroke="#000000" d="M269.12068 129.88622V126.386219"/>
<use data-text="2" xlink:href="#font_2_19" transform="matrix(31.880448,0,0,-31.880448,260.258,554.3284)"/>
<g clip-path="url(#clip_4)">
<path transform="matrix(1,0,0,-1,0,648)" stroke-width=".8" stroke-linecap="square" stroke-linejoin="round" fill="none" stroke="#b0b0b0" d="M346.64509 129.88622V608"/>
</g>
<path transform="matrix(1,0,0,-1,0,648)" d="M346.64509 129.88622V126.386219"/>
<path transform="matrix(1,0,0,-1,0,648)" stroke-width=".8" stroke-linecap="butt" stroke-linejoin="round" fill="none" stroke="#000000" d="M346.64509 129.88622V126.386219"/>
<use data-text="4" xlink:href="#font_2_21" transform="matrix(31.880448,0,0,-31.880448,337.7824,554.3284)"/>
<g clip-path="url(#clip_5)">
<path transform="matrix(1,0,0,-1,0,648)" stroke-width=".8" stroke-linecap="square" stroke-linejoin="round" fill="none" stroke="#b0b0b0" d="M424.16947 129.88622V608"/>
</g>
<path transform="matrix(1,0,0,-1,0,648)" d="M424.16947 129.88622V126.386219"/>
<path transform="matrix(1,0,0,-1,0,648)" stroke-width=".8" stroke-linecap="butt" stroke-linejoin="round" fill="none" stroke="#000000" d="M424.16947 129.88622V126.386219"/>
<use data-text="8" xlink:href="#font_2_25" transform="matrix(31.880448,0,0,-31.880448,415.3068,554.3284)"/>
<g clip-path="url(#clip_6)">
<path transform="matrix(1,0,0,-1,0,648)" stroke-width=".8" stroke-linecap="square" stroke-linejoin="round" fill="none" stroke="#b0b0b0" d="M501.69389 129.88622V608"/>
</g>
<path transform="matrix(1,0,0,-1,0,648)" d="M501.69389 129.88622V126.386219"/>
<path transform="matrix(1,0,0,-1,0,648)" stroke-width=".8" stroke-linecap="butt" stroke-linejoin="round" fill="none" stroke="#000000" d="M501.69389 129.88622V126.386219"/>
<use data-text="1" xlink:href="#font_2_18" transform="matrix(31.880448,0,0,-31.880448,483.96855,554.3284)"/>
<use data-text="6" xlink:href="#font_2_23" transform="matrix(31.880448,0,0,-31.880448,501.66218,554.3284)"/>
<g clip-path="url(#clip_7)">
<path transform="matrix(1,0,0,-1,0,648)" stroke-width=".8" stroke-linecap="square" stroke-linejoin="round" fill="none" stroke="#b0b0b0" d="M579.21829 129.88622V608"/>
</g>
<path transform="matrix(1,0,0,-1,0,648)" d="M579.21829 129.88622V126.386219"/>
<path transform="matrix(1,0,0,-1,0,648)" stroke-width=".8" stroke-linecap="butt" stroke-linejoin="round" fill="none" stroke="#000000" d="M579.21829 129.88622V126.386219"/>
<use data-text="3" xlink:href="#font_2_20" transform="matrix(31.880448,0,0,-31.880448,561.4929,554.3284)"/>
<use data-text="2" xlink:href="#font_2_19" transform="matrix(31.880448,0,0,-31.880448,579.1866,554.3284)"/>
<g clip-path="url(#clip_8)">
<path transform="matrix(1,0,0,-1,0,648)" stroke-width=".8" stroke-linecap="square" stroke-linejoin="round" fill="none" stroke="#b0b0b0" d="M656.7427 129.88622V608"/>
</g>
<path transform="matrix(1,0,0,-1,0,648)" d="M656.7427 129.88622V126.386219"/>
<path transform="matrix(1,0,0,-1,0,648)" stroke-width=".8" stroke-linecap="butt" stroke-linejoin="round" fill="none" stroke="#000000" d="M656.7427 129.88622V126.386219"/>
<use data-text="6" xlink:href="#font_2_23" transform="matrix(31.880448,0,0,-31.880448,639.01736,554.3284)"/>
<use data-text="4" xlink:href="#font_2_21" transform="matrix(31.880448,0,0,-31.880448,656.711,554.3284)"/>
<use data-text="T" xlink:href="#font_2_53" transform="matrix(39.85056,0,0,-39.85056,375.6317,599.5121)"/>
<use data-text="o" xlink:href="#font_2_80" transform="matrix(39.85056,0,0,-39.85056,395.1587,599.5121)"/>
<use data-text="p" xlink:href="#font_2_81" transform="matrix(39.85056,0,0,-39.85056,417.27577,599.5121)"/>
<use data-text="-" xlink:href="#font_2_14" transform="matrix(39.85056,0,0,-39.85056,439.39283,599.5121)"/>
<use data-text="k" xlink:href="#font_2_76" transform="matrix(39.85056,0,0,-39.85056,452.6232,599.5121)"/>
<g clip-path="url(#clip_9)">
<path transform="matrix(1,0,0,-1,0,648)" stroke-width=".8" stroke-linecap="square" stroke-linejoin="round" fill="none" stroke="#b0b0b0" d="M168.33896 139.71038H680"/>
</g>
<path transform="matrix(1,0,0,-1,0,648)" d="M168.33896 139.71038H164.83896"/>
<path transform="matrix(1,0,0,-1,0,648)" stroke-width=".8" stroke-linecap="butt" stroke-linejoin="round" fill="none" stroke="#000000" d="M168.33896 139.71038H164.83896"/>
<use data-text="0" xlink:href="#font_10_50" transform="matrix(29.88792,0,0,-29.88792,91.881229,518.93716)"/>
<use data-text="." xlink:href="#font_11_59" transform="matrix(29.88792,0,0,-29.88792,105.58837,518.93716)"/>
<use data-text="8" xlink:href="#font_10_58" transform="matrix(29.88792,0,0,-29.88792,113.71752,518.93716)"/>
<use data-text="5" xlink:href="#font_10_55" transform="matrix(29.88792,0,0,-29.88792,127.40619,518.93716)"/>
<use data-text="0" xlink:href="#font_10_50" transform="matrix(29.88792,0,0,-29.88792,141.09487,518.93716)"/>
<g clip-path="url(#clip_12)">
<path transform="matrix(1,0,0,-1,0,648)" stroke-width=".8" stroke-linecap="square" stroke-linejoin="round" fill="none" stroke="#b0b0b0" d="M168.33896 214.13657H680"/>
</g>
<path transform="matrix(1,0,0,-1,0,648)" d="M168.33896 214.13657H164.83896"/>
<path transform="matrix(1,0,0,-1,0,648)" stroke-width=".8" stroke-linecap="butt" stroke-linejoin="round" fill="none" stroke="#000000" d="M168.33896 214.13657H164.83896"/>
<use data-text="0" xlink:href="#font_10_50" transform="matrix(29.88792,0,0,-29.88792,91.881229,444.51094)"/>
<use data-text="." xlink:href="#font_11_59" transform="matrix(29.88792,0,0,-29.88792,105.58837,444.51094)"/>
<use data-text="8" xlink:href="#font_10_58" transform="matrix(29.88792,0,0,-29.88792,113.71752,444.51094)"/>
<use data-text="7" xlink:href="#font_10_57" transform="matrix(29.88792,0,0,-29.88792,127.40619,444.51094)"/>
<use data-text="5" xlink:href="#font_10_55" transform="matrix(29.88792,0,0,-29.88792,141.09487,444.51094)"/>
<g clip-path="url(#clip_13)">
<path transform="matrix(1,0,0,-1,0,648)" stroke-width=".8" stroke-linecap="square" stroke-linejoin="round" fill="none" stroke="#b0b0b0" d="M168.33896 288.56278H680"/>
</g>
<path transform="matrix(1,0,0,-1,0,648)" d="M168.33896 288.56278H164.83896"/>
<path transform="matrix(1,0,0,-1,0,648)" stroke-width=".8" stroke-linecap="butt" stroke-linejoin="round" fill="none" stroke="#000000" d="M168.33896 288.56278H164.83896"/>
<use data-text="0" xlink:href="#font_10_50" transform="matrix(29.88792,0,0,-29.88792,91.881229,370.08473)"/>
<use data-text="." xlink:href="#font_11_59" transform="matrix(29.88792,0,0,-29.88792,105.58837,370.08473)"/>
<use data-text="9" xlink:href="#font_10_59" transform="matrix(29.88792,0,0,-29.88792,113.71752,370.08473)"/>
<use data-text="0" xlink:href="#font_10_50" transform="matrix(29.88792,0,0,-29.88792,127.40619,370.08473)"/>
<use data-text="0" xlink:href="#font_10_50" transform="matrix(29.88792,0,0,-29.88792,141.09487,370.08473)"/>
<g clip-path="url(#clip_14)">
<path transform="matrix(1,0,0,-1,0,648)" stroke-width=".8" stroke-linecap="square" stroke-linejoin="round" fill="none" stroke="#b0b0b0" d="M168.33896 362.98896H680"/>
</g>
<path transform="matrix(1,0,0,-1,0,648)" d="M168.33896 362.98896H164.83896"/>
<path transform="matrix(1,0,0,-1,0,648)" stroke-width=".8" stroke-linecap="butt" stroke-linejoin="round" fill="none" stroke="#000000" d="M168.33896 362.98896H164.83896"/>
<use data-text="0" xlink:href="#font_10_50" transform="matrix(29.88792,0,0,-29.88792,91.881229,295.6585)"/>
<use data-text="." xlink:href="#font_11_59" transform="matrix(29.88792,0,0,-29.88792,105.58837,295.6585)"/>
<use data-text="9" xlink:href="#font_10_59" transform="matrix(29.88792,0,0,-29.88792,113.71752,295.6585)"/>
<use data-text="2" xlink:href="#font_10_52" transform="matrix(29.88792,0,0,-29.88792,127.40619,295.6585)"/>
<use data-text="5" xlink:href="#font_10_55" transform="matrix(29.88792,0,0,-29.88792,141.09487,295.6585)"/>
<g clip-path="url(#clip_15)">
<path transform="matrix(1,0,0,-1,0,648)" stroke-width=".8" stroke-linecap="square" stroke-linejoin="round" fill="none" stroke="#b0b0b0" d="M168.33896 437.41517H680"/>
</g>
<path transform="matrix(1,0,0,-1,0,648)" d="M168.33896 437.41517H164.83896"/>
<path transform="matrix(1,0,0,-1,0,648)" stroke-width=".8" stroke-linecap="butt" stroke-linejoin="round" fill="none" stroke="#000000" d="M168.33896 437.41517H164.83896"/>
<use data-text="0" xlink:href="#font_10_50" transform="matrix(29.88792,0,0,-29.88792,91.881229,221.23233)"/>
<use data-text="." xlink:href="#font_11_59" transform="matrix(29.88792,0,0,-29.88792,105.58837,221.23233)"/>
<use data-text="9" xlink:href="#font_10_59" transform="matrix(29.88792,0,0,-29.88792,113.71752,221.23233)"/>
<use data-text="5" xlink:href="#font_10_55" transform="matrix(29.88792,0,0,-29.88792,127.40619,221.23233)"/>
<use data-text="0" xlink:href="#font_10_50" transform="matrix(29.88792,0,0,-29.88792,141.09487,221.23233)"/>
<g clip-path="url(#clip_16)">
<path transform="matrix(1,0,0,-1,0,648)" stroke-width=".8" stroke-linecap="square" stroke-linejoin="round" fill="none" stroke="#b0b0b0" d="M168.33896 511.84138H680"/>
</g>
<path transform="matrix(1,0,0,-1,0,648)" d="M168.33896 511.84138H164.83896"/>
<path transform="matrix(1,0,0,-1,0,648)" stroke-width=".8" stroke-linecap="butt" stroke-linejoin="round" fill="none" stroke="#000000" d="M168.33896 511.84138H164.83896"/>
<use data-text="0" xlink:href="#font_10_50" transform="matrix(29.88792,0,0,-29.88792,91.881229,146.80612)"/>
<use data-text="." xlink:href="#font_11_59" transform="matrix(29.88792,0,0,-29.88792,105.58837,146.80612)"/>
<use data-text="9" xlink:href="#font_10_59" transform="matrix(29.88792,0,0,-29.88792,113.71752,146.80612)"/>
<use data-text="7" xlink:href="#font_10_57" transform="matrix(29.88792,0,0,-29.88792,127.40619,146.80612)"/>
<use data-text="5" xlink:href="#font_10_55" transform="matrix(29.88792,0,0,-29.88792,141.09487,146.80612)"/>
<g clip-path="url(#clip_17)">
<path transform="matrix(1,0,0,-1,0,648)" stroke-width=".8" stroke-linecap="square" stroke-linejoin="round" fill="none" stroke="#b0b0b0" d="M168.33896 586.2676H680"/>
</g>
<path transform="matrix(1,0,0,-1,0,648)" d="M168.33896 586.2676H164.83896"/>
<path transform="matrix(1,0,0,-1,0,648)" stroke-width=".8" stroke-linecap="butt" stroke-linejoin="round" fill="none" stroke="#000000" d="M168.33896 586.2676H164.83896"/>
<use data-text="1" xlink:href="#font_10_51" transform="matrix(29.88792,0,0,-29.88792,91.881229,72.379947)"/>
<use data-text="." xlink:href="#font_11_59" transform="matrix(29.88792,0,0,-29.88792,105.58837,72.379947)"/>
<use data-text="0" xlink:href="#font_10_50" transform="matrix(29.88792,0,0,-29.88792,113.71752,72.379947)"/>
<use data-text="0" xlink:href="#font_10_50" transform="matrix(29.88792,0,0,-29.88792,127.40619,72.379947)"/>
<use data-text="0" xlink:href="#font_10_50" transform="matrix(29.88792,0,0,-29.88792,141.09487,72.379947)"/>
<use data-text="R" xlink:href="#font_2_51" transform="matrix(0,-39.85056,-39.85056,-0,68.39328,395.8978)"/>
<use data-text="e" xlink:href="#font_2_70" transform="matrix(0,-39.85056,-39.85056,-0,68.39328,367.16554)"/>
<use data-text="c" xlink:href="#font_2_68" transform="matrix(0,-39.85056,-39.85056,-0,68.39328,345.04847)"/>
<use data-text="a" xlink:href="#font_2_66" transform="matrix(0,-39.85056,-39.85056,-0,68.39328,325.12318)"/>
<use data-text="l" xlink:href="#font_2_77" transform="matrix(0,-39.85056,-39.85056,-0,68.39328,303.0061)"/>
<use data-text="l" xlink:href="#font_2_77" transform="matrix(0,-39.85056,-39.85056,-0,68.39328,294.19914)"/>
<use data-text="@" xlink:href="#font_2_33" transform="matrix(0,-39.85056,-39.85056,-0,68.39328,285.39216)"/>
<use data-text="1" xlink:href="#font_2_18" transform="matrix(0,-39.85056,-39.85056,-0,68.39328,244.98368)"/>
<use data-text="@" xlink:href="#font_2_33" transform="matrix(0,-39.85056,-39.85056,-0,68.39328,222.86661)"/>
<use data-text="k" xlink:href="#font_2_76" transform="matrix(0,-39.85056,-39.85056,-0,68.39328,182.45813)"/>
<g clip-path="url(#clip_18)">
<path transform="matrix(1,0,0,-1,0,648)" stroke-width="7" stroke-linecap="square" stroke-linejoin="round" fill="none" stroke="#17becf" d="M191.59627 276.65467 269.12068 529.70388 346.64509 583.2907 424.16947 586.2676H501.69389 579.21829 656.7427"/>
<g clip-path="url(#clip_19)">
<path transform="matrix(1,0,0,-1,191.59627,371.34535)" d="M-5-5H5V5H-5Z" fill="#17becf"/>
<path transform="matrix(1,0,0,-1,191.59627,371.34535)" stroke-width="1.5" stroke-linecap="butt" stroke-miterlimit="10" stroke-linejoin="miter" fill="none" stroke="#000000" d="M-5-5H5V5H-5Z"/>
</g>
<g clip-path="url(#clip_20)">
<path transform="matrix(1,0,0,-1,269.12068,118.29616)" d="M-5-5H5V5H-5Z" fill="#17becf"/>
<path transform="matrix(1,0,0,-1,269.12068,118.29616)" stroke-width="1.5" stroke-linecap="butt" stroke-miterlimit="10" stroke-linejoin="miter" fill="none" stroke="#000000" d="M-5-5H5V5H-5Z"/>
</g>
<g clip-path="url(#clip_21)">
<path transform="matrix(1,0,0,-1,346.64509,64.709278)" d="M-5-5H5V5H-5Z" fill="#17becf"/>
<path transform="matrix(1,0,0,-1,346.64509,64.709278)" stroke-width="1.5" stroke-linecap="butt" stroke-miterlimit="10" stroke-linejoin="miter" fill="none" stroke="#000000" d="M-5-5H5V5H-5Z"/>
</g>
<g clip-path="url(#clip_22)">
<path transform="matrix(1,0,0,-1,424.1695,61.73244)" d="M-5-5H5V5H-5Z" fill="#17becf"/>
<path transform="matrix(1,0,0,-1,424.1695,61.73244)" stroke-width="1.5" stroke-linecap="butt" stroke-miterlimit="10" stroke-linejoin="miter" fill="none" stroke="#000000" d="M-5-5H5V5H-5Z"/>
</g>
<g clip-path="url(#clip_23)">
<path transform="matrix(1,0,0,-1,501.6939,61.73244)" d="M-5-5H5V5H-5Z" fill="#17becf"/>
<path transform="matrix(1,0,0,-1,501.6939,61.73244)" stroke-width="1.5" stroke-linecap="butt" stroke-miterlimit="10" stroke-linejoin="miter" fill="none" stroke="#000000" d="M-5-5H5V5H-5Z"/>
</g>
<g clip-path="url(#clip_24)">
<path transform="matrix(1,0,0,-1,579.2183,61.73244)" d="M-5-5H5V5H-5Z" fill="#17becf"/>
<path transform="matrix(1,0,0,-1,579.2183,61.73244)" stroke-width="1.5" stroke-linecap="butt" stroke-miterlimit="10" stroke-linejoin="miter" fill="none" stroke="#000000" d="M-5-5H5V5H-5Z"/>
</g>
<g clip-path="url(#clip_25)">
<path transform="matrix(1,0,0,-1,656.74276,61.73244)" d="M-5-5H5V5H-5Z" fill="#17becf"/>
<path transform="matrix(1,0,0,-1,656.74276,61.73244)" stroke-width="1.5" stroke-linecap="butt" stroke-miterlimit="10" stroke-linejoin="miter" fill="none" stroke="#000000" d="M-5-5H5V5H-5Z"/>
</g>
</g>
<g clip-path="url(#clip_26)">
<path transform="matrix(1,0,0,-1,0,648)" stroke-width="7" stroke-linecap="square" stroke-linejoin="round" fill="none" stroke="#1f77b4" d="M191.59627 496.9562 269.12068 580.31356 346.64509 586.2676H424.16947 501.69389 579.21829 656.7427"/>
<g clip-path="url(#clip_27)">
<path transform="matrix(1,0,0,-1,191.59627,151.0438)" d="M-5-5H5V5H-5Z" fill="#1f77b4"/>
<path transform="matrix(1,0,0,-1,191.59627,151.0438)" stroke-width="1.5" stroke-linecap="butt" stroke-miterlimit="10" stroke-linejoin="miter" fill="none" stroke="#000000" d="M-5-5H5V5H-5Z"/>
</g>
<g clip-path="url(#clip_28)">
<path transform="matrix(1,0,0,-1,269.12068,67.68646)" d="M-5-5H5V5H-5Z" fill="#1f77b4"/>
<path transform="matrix(1,0,0,-1,269.12068,67.68646)" stroke-width="1.5" stroke-linecap="butt" stroke-miterlimit="10" stroke-linejoin="miter" fill="none" stroke="#000000" d="M-5-5H5V5H-5Z"/>
</g>
<g clip-path="url(#clip_29)">
<path transform="matrix(1,0,0,-1,346.64509,61.732446)" d="M-5-5H5V5H-5Z" fill="#1f77b4"/>
<path transform="matrix(1,0,0,-1,346.64509,61.732446)" stroke-width="1.5" stroke-linecap="butt" stroke-miterlimit="10" stroke-linejoin="miter" fill="none" stroke="#000000" d="M-5-5H5V5H-5Z"/>
</g>
<g clip-path="url(#clip_30)">
<path transform="matrix(1,0,0,-1,424.1695,61.732446)" d="M-5-5H5V5H-5Z" fill="#1f77b4"/>
<path transform="matrix(1,0,0,-1,424.1695,61.732446)" stroke-width="1.5" stroke-linecap="butt" stroke-miterlimit="10" stroke-linejoin="miter" fill="none" stroke="#000000" d="M-5-5H5V5H-5Z"/>
</g>
<g clip-path="url(#clip_31)">
<path transform="matrix(1,0,0,-1,501.6939,61.732446)" d="M-5-5H5V5H-5Z" fill="#1f77b4"/>
<path transform="matrix(1,0,0,-1,501.6939,61.732446)" stroke-width="1.5" stroke-linecap="butt" stroke-miterlimit="10" stroke-linejoin="miter" fill="none" stroke="#000000" d="M-5-5H5V5H-5Z"/>
</g>
<g clip-path="url(#clip_32)">
<path transform="matrix(1,0,0,-1,579.2183,61.732446)" d="M-5-5H5V5H-5Z" fill="#1f77b4"/>
<path transform="matrix(1,0,0,-1,579.2183,61.732446)" stroke-width="1.5" stroke-linecap="butt" stroke-miterlimit="10" stroke-linejoin="miter" fill="none" stroke="#000000" d="M-5-5H5V5H-5Z"/>
</g>
<g clip-path="url(#clip_33)">
<path transform="matrix(1,0,0,-1,656.74276,61.732446)" d="M-5-5H5V5H-5Z" fill="#1f77b4"/>
<path transform="matrix(1,0,0,-1,656.74276,61.732446)" stroke-width="1.5" stroke-linecap="butt" stroke-miterlimit="10" stroke-linejoin="miter" fill="none" stroke="#000000" d="M-5-5H5V5H-5Z"/>
</g>
</g>
<g clip-path="url(#clip_34)">
<path transform="matrix(1,0,0,-1,0,648)" stroke-width="5" stroke-linecap="butt" stroke-dasharray="18.5,8" stroke-linejoin="round" fill="none" stroke="#2ca02c" d="M191.59627 217.11362 269.12068 476.1168 346.64509 568.4053 424.16947 586.2676H501.69389 579.21829 656.7427"/>
<g clip-path="url(#clip_35)">
<path transform="matrix(1,0,0,-1,191.59627,430.88639)" d="M0-4C1.060812-4 2.078319-3.578535 2.828427-2.828427 3.578535-2.078319 4-1.060812 4 0 4 1.060812 3.578535 2.078319 2.828427 2.828427 2.078319 3.578535 1.060812 4 0 4-1.060812 4-2.078319 3.578535-2.828427 2.828427-3.578535 2.078319-4 1.060812-4 0-4-1.060812-3.578535-2.078319-2.828427-2.828427-2.078319-3.578535-1.060812-4 0-4Z" fill="#2ca02c"/>
<path transform="matrix(1,0,0,-1,191.59627,430.88639)" stroke-width="1.5" stroke-linecap="butt" stroke-linejoin="round" fill="none" stroke="#000000" d="M0-4C1.060812-4 2.078319-3.578535 2.828427-2.828427 3.578535-2.078319 4-1.060812 4 0 4 1.060812 3.578535 2.078319 2.828427 2.828427 2.078319 3.578535 1.060812 4 0 4-1.060812 4-2.078319 3.578535-2.828427 2.828427-3.578535 2.078319-4 1.060812-4 0-4-1.060812-3.578535-2.078319-2.828427-2.828427-2.078319-3.578535-1.060812-4 0-4Z"/>
</g>
<g clip-path="url(#clip_36)">
<path transform="matrix(1,0,0,-1,269.12068,171.88321)" d="M0-4C1.060812-4 2.078319-3.578535 2.828427-2.828427 3.578535-2.078319 4-1.060812 4 0 4 1.060812 3.578535 2.078319 2.828427 2.828427 2.078319 3.578535 1.060812 4 0 4-1.060812 4-2.078319 3.578535-2.828427 2.828427-3.578535 2.078319-4 1.060812-4 0-4-1.060812-3.578535-2.078319-2.828427-2.828427-2.078319-3.578535-1.060812-4 0-4Z" fill="#2ca02c"/>
<path transform="matrix(1,0,0,-1,269.12068,171.88321)" stroke-width="1.5" stroke-linecap="butt" stroke-linejoin="round" fill="none" stroke="#000000" d="M0-4C1.060812-4 2.078319-3.578535 2.828427-2.828427 3.578535-2.078319 4-1.060812 4 0 4 1.060812 3.578535 2.078319 2.828427 2.828427 2.078319 3.578535 1.060812 4 0 4-1.060812 4-2.078319 3.578535-2.828427 2.828427-3.578535 2.078319-4 1.060812-4 0-4-1.060812-3.578535-2.078319-2.828427-2.828427-2.078319-3.578535-1.060812-4 0-4Z"/>
</g>
<g clip-path="url(#clip_37)">
<path transform="matrix(1,0,0,-1,346.64509,79.59473)" d="M0-4C1.060812-4 2.078319-3.578535 2.828427-2.828427 3.578535-2.078319 4-1.060812 4 0 4 1.060812 3.578535 2.078319 2.828427 2.828427 2.078319 3.578535 1.060812 4 0 4-1.060812 4-2.078319 3.578535-2.828427 2.828427-3.578535 2.078319-4 1.060812-4 0-4-1.060812-3.578535-2.078319-2.828427-2.828427-2.078319-3.578535-1.060812-4 0-4Z" fill="#2ca02c"/>
<path transform="matrix(1,0,0,-1,346.64509,79.59473)" stroke-width="1.5" stroke-linecap="butt" stroke-linejoin="round" fill="none" stroke="#000000" d="M0-4C1.060812-4 2.078319-3.578535 2.828427-2.828427 3.578535-2.078319 4-1.060812 4 0 4 1.060812 3.578535 2.078319 2.828427 2.828427 2.078319 3.578535 1.060812 4 0 4-1.060812 4-2.078319 3.578535-2.828427 2.828427-3.578535 2.078319-4 1.060812-4 0-4-1.060812-3.578535-2.078319-2.828427-2.828427-2.078319-3.578535-1.060812-4 0-4Z"/>
</g>
<g clip-path="url(#clip_38)">
<path transform="matrix(1,0,0,-1,424.1695,61.732439)" d="M0-4C1.060812-4 2.078319-3.578535 2.828427-2.828427 3.578535-2.078319 4-1.060812 4 0 4 1.060812 3.578535 2.078319 2.828427 2.828427 2.078319 3.578535 1.060812 4 0 4-1.060812 4-2.078319 3.578535-2.828427 2.828427-3.578535 2.078319-4 1.060812-4 0-4-1.060812-3.578535-2.078319-2.828427-2.828427-2.078319-3.578535-1.060812-4 0-4Z" fill="#2ca02c"/>
<path transform="matrix(1,0,0,-1,424.1695,61.732439)" stroke-width="1.5" stroke-linecap="butt" stroke-linejoin="round" fill="none" stroke="#000000" d="M0-4C1.060812-4 2.078319-3.578535 2.828427-2.828427 3.578535-2.078319 4-1.060812 4 0 4 1.060812 3.578535 2.078319 2.828427 2.828427 2.078319 3.578535 1.060812 4 0 4-1.060812 4-2.078319 3.578535-2.828427 2.828427-3.578535 2.078319-4 1.060812-4 0-4-1.060812-3.578535-2.078319-2.828427-2.828427-2.078319-3.578535-1.060812-4 0-4Z"/>
</g>
<g clip-path="url(#clip_39)">
<path transform="matrix(1,0,0,-1,501.6939,61.732439)" d="M0-4C1.060812-4 2.078319-3.578535 2.828427-2.828427 3.578535-2.078319 4-1.060812 4 0 4 1.060812 3.578535 2.078319 2.828427 2.828427 2.078319 3.578535 1.060812 4 0 4-1.060812 4-2.078319 3.578535-2.828427 2.828427-3.578535 2.078319-4 1.060812-4 0-4-1.060812-3.578535-2.078319-2.828427-2.828427-2.078319-3.578535-1.060812-4 0-4Z" fill="#2ca02c"/>
<path transform="matrix(1,0,0,-1,501.6939,61.732439)" stroke-width="1.5" stroke-linecap="butt" stroke-linejoin="round" fill="none" stroke="#000000" d="M0-4C1.060812-4 2.078319-3.578535 2.828427-2.828427 3.578535-2.078319 4-1.060812 4 0 4 1.060812 3.578535 2.078319 2.828427 2.828427 2.078319 3.578535 1.060812 4 0 4-1.060812 4-2.078319 3.578535-2.828427 2.828427-3.578535 2.078319-4 1.060812-4 0-4-1.060812-3.578535-2.078319-2.828427-2.828427-2.078319-3.578535-1.060812-4 0-4Z"/>
</g>
<g clip-path="url(#clip_40)">
<path transform="matrix(1,0,0,-1,579.2183,61.732439)" d="M0-4C1.060812-4 2.078319-3.578535 2.828427-2.828427 3.578535-2.078319 4-1.060812 4 0 4 1.060812 3.578535 2.078319 2.828427 2.828427 2.078319 3.578535 1.060812 4 0 4-1.060812 4-2.078319 3.578535-2.828427 2.828427-3.578535 2.078319-4 1.060812-4 0-4-1.060812-3.578535-2.078319-2.828427-2.828427-2.078319-3.578535-1.060812-4 0-4Z" fill="#2ca02c"/>
<path transform="matrix(1,0,0,-1,579.2183,61.732439)" stroke-width="1.5" stroke-linecap="butt" stroke-linejoin="round" fill="none" stroke="#000000" d="M0-4C1.060812-4 2.078319-3.578535 2.828427-2.828427 3.578535-2.078319 4-1.060812 4 0 4 1.060812 3.578535 2.078319 2.828427 2.828427 2.078319 3.578535 1.060812 4 0 4-1.060812 4-2.078319 3.578535-2.828427 2.828427-3.578535 2.078319-4 1.060812-4 0-4-1.060812-3.578535-2.078319-2.828427-2.828427-2.078319-3.578535-1.060812-4 0-4Z"/>
</g>
<g clip-path="url(#clip_41)">
<path transform="matrix(1,0,0,-1,656.74276,61.732439)" d="M0-4C1.060812-4 2.078319-3.578535 2.828427-2.828427 3.578535-2.078319 4-1.060812 4 0 4 1.060812 3.578535 2.078319 2.828427 2.828427 2.078319 3.578535 1.060812 4 0 4-1.060812 4-2.078319 3.578535-2.828427 2.828427-3.578535 2.078319-4 1.060812-4 0-4-1.060812-3.578535-2.078319-2.828427-2.828427-2.078319-3.578535-1.060812-4 0-4Z" fill="#2ca02c"/>
<path transform="matrix(1,0,0,-1,656.74276,61.732439)" stroke-width="1.5" stroke-linecap="butt" stroke-linejoin="round" fill="none" stroke="#000000" d="M0-4C1.060812-4 2.078319-3.578535 2.828427-2.828427 3.578535-2.078319 4-1.060812 4 0 4 1.060812 3.578535 2.078319 2.828427 2.828427 2.078319 3.578535 1.060812 4 0 4-1.060812 4-2.078319 3.578535-2.828427 2.828427-3.578535 2.078319-4 1.060812-4 0-4-1.060812-3.578535-2.078319-2.828427-2.828427-2.078319-3.578535-1.060812-4 0-4Z"/>
</g>
</g>
<g clip-path="url(#clip_42)">
<path transform="matrix(1,0,0,-1,0,648)" stroke-width="5" stroke-linecap="butt" stroke-dasharray="18.5,8" stroke-linejoin="round" fill="none" stroke="#d62728" d="M191.59627 476.1168 269.12068 583.2905 346.64509 586.2676H424.16947 501.69389 579.21829 656.7427"/>
<g clip-path="url(#clip_43)">
<path transform="matrix(1,0,0,-1,191.59627,171.88321)" d="M0-4C1.060812-4 2.078319-3.578535 2.828427-2.828427 3.578535-2.078319 4-1.060812 4 0 4 1.060812 3.578535 2.078319 2.828427 2.828427 2.078319 3.578535 1.060812 4 0 4-1.060812 4-2.078319 3.578535-2.828427 2.828427-3.578535 2.078319-4 1.060812-4 0-4-1.060812-3.578535-2.078319-2.828427-2.828427-2.078319-3.578535-1.060812-4 0-4Z" fill="#d62728"/>
<path transform="matrix(1,0,0,-1,191.59627,171.88321)" stroke-width="1.5" stroke-linecap="butt" stroke-linejoin="round" fill="none" stroke="#000000" d="M0-4C1.060812-4 2.078319-3.578535 2.828427-2.828427 3.578535-2.078319 4-1.060812 4 0 4 1.060812 3.578535 2.078319 2.828427 2.828427 2.078319 3.578535 1.060812 4 0 4-1.060812 4-2.078319 3.578535-2.828427 2.828427-3.578535 2.078319-4 1.060812-4 0-4-1.060812-3.578535-2.078319-2.828427-2.828427-2.078319-3.578535-1.060812-4 0-4Z"/>
</g>
<g clip-path="url(#clip_44)">
<path transform="matrix(1,0,0,-1,269.12068,64.70949)" d="M0-4C1.060812-4 2.078319-3.578535 2.828427-2.828427 3.578535-2.078319 4-1.060812 4 0 4 1.060812 3.578535 2.078319 2.828427 2.828427 2.078319 3.578535 1.060812 4 0 4-1.060812 4-2.078319 3.578535-2.828427 2.828427-3.578535 2.078319-4 1.060812-4 0-4-1.060812-3.578535-2.078319-2.828427-2.828427-2.078319-3.578535-1.060812-4 0-4Z" fill="#d62728"/>
<path transform="matrix(1,0,0,-1,269.12068,64.70949)" stroke-width="1.5" stroke-linecap="butt" stroke-linejoin="round" fill="none" stroke="#000000" d="M0-4C1.060812-4 2.078319-3.578535 2.828427-2.828427 3.578535-2.078319 4-1.060812 4 0 4 1.060812 3.578535 2.078319 2.828427 2.828427 2.078319 3.578535 1.060812 4 0 4-1.060812 4-2.078319 3.578535-2.828427 2.828427-3.578535 2.078319-4 1.060812-4 0-4-1.060812-3.578535-2.078319-2.828427-2.828427-2.078319-3.578535-1.060812-4 0-4Z"/>
</g>
<g clip-path="url(#clip_45)">
<path transform="matrix(1,0,0,-1,346.64509,61.73244)" d="M0-4C1.060812-4 2.078319-3.578535 2.828427-2.828427 3.578535-2.078319 4-1.060812 4 0 4 1.060812 3.578535 2.078319 2.828427 2.828427 2.078319 3.578535 1.060812 4 0 4-1.060812 4-2.078319 3.578535-2.828427 2.828427-3.578535 2.078319-4 1.060812-4 0-4-1.060812-3.578535-2.078319-2.828427-2.828427-2.078319-3.578535-1.060812-4 0-4Z" fill="#d62728"/>
<path transform="matrix(1,0,0,-1,346.64509,61.73244)" stroke-width="1.5" stroke-linecap="butt" stroke-linejoin="round" fill="none" stroke="#000000" d="M0-4C1.060812-4 2.078319-3.578535 2.828427-2.828427 3.578535-2.078319 4-1.060812 4 0 4 1.060812 3.578535 2.078319 2.828427 2.828427 2.078319 3.578535 1.060812 4 0 4-1.060812 4-2.078319 3.578535-2.828427 2.828427-3.578535 2.078319-4 1.060812-4 0-4-1.060812-3.578535-2.078319-2.828427-2.828427-2.078319-3.578535-1.060812-4 0-4Z"/>
</g>
<g clip-path="url(#clip_46)">
<path transform="matrix(1,0,0,-1,424.1695,61.73244)" d="M0-4C1.060812-4 2.078319-3.578535 2.828427-2.828427 3.578535-2.078319 4-1.060812 4 0 4 1.060812 3.578535 2.078319 2.828427 2.828427 2.078319 3.578535 1.060812 4 0 4-1.060812 4-2.078319 3.578535-2.828427 2.828427-3.578535 2.078319-4 1.060812-4 0-4-1.060812-3.578535-2.078319-2.828427-2.828427-2.078319-3.578535-1.060812-4 0-4Z" fill="#d62728"/>
<path transform="matrix(1,0,0,-1,424.1695,61.73244)" stroke-width="1.5" stroke-linecap="butt" stroke-linejoin="round" fill="none" stroke="#000000" d="M0-4C1.060812-4 2.078319-3.578535 2.828427-2.828427 3.578535-2.078319 4-1.060812 4 0 4 1.060812 3.578535 2.078319 2.828427 2.828427 2.078319 3.578535 1.060812 4 0 4-1.060812 4-2.078319 3.578535-2.828427 2.828427-3.578535 2.078319-4 1.060812-4 0-4-1.060812-3.578535-2.078319-2.828427-2.828427-2.078319-3.578535-1.060812-4 0-4Z"/>
</g>
<g clip-path="url(#clip_47)">
<path transform="matrix(1,0,0,-1,501.6939,61.73244)" d="M0-4C1.060812-4 2.078319-3.578535 2.828427-2.828427 3.578535-2.078319 4-1.060812 4 0 4 1.060812 3.578535 2.078319 2.828427 2.828427 2.078319 3.578535 1.060812 4 0 4-1.060812 4-2.078319 3.578535-2.828427 2.828427-3.578535 2.078319-4 1.060812-4 0-4-1.060812-3.578535-2.078319-2.828427-2.828427-2.078319-3.578535-1.060812-4 0-4Z" fill="#d62728"/>
<path transform="matrix(1,0,0,-1,501.6939,61.73244)" stroke-width="1.5" stroke-linecap="butt" stroke-linejoin="round" fill="none" stroke="#000000" d="M0-4C1.060812-4 2.078319-3.578535 2.828427-2.828427 3.578535-2.078319 4-1.060812 4 0 4 1.060812 3.578535 2.078319 2.828427 2.828427 2.078319 3.578535 1.060812 4 0 4-1.060812 4-2.078319 3.578535-2.828427 2.828427-3.578535 2.078319-4 1.060812-4 0-4-1.060812-3.578535-2.078319-2.828427-2.828427-2.078319-3.578535-1.060812-4 0-4Z"/>
</g>
<g clip-path="url(#clip_48)">
<path transform="matrix(1,0,0,-1,579.2183,61.73244)" d="M0-4C1.060812-4 2.078319-3.578535 2.828427-2.828427 3.578535-2.078319 4-1.060812 4 0 4 1.060812 3.578535 2.078319 2.828427 2.828427 2.078319 3.578535 1.060812 4 0 4-1.060812 4-2.078319 3.578535-2.828427 2.828427-3.578535 2.078319-4 1.060812-4 0-4-1.060812-3.578535-2.078319-2.828427-2.828427-2.078319-3.578535-1.060812-4 0-4Z" fill="#d62728"/>
<path transform="matrix(1,0,0,-1,579.2183,61.73244)" stroke-width="1.5" stroke-linecap="butt" stroke-linejoin="round" fill="none" stroke="#000000" d="M0-4C1.060812-4 2.078319-3.578535 2.828427-2.828427 3.578535-2.078319 4-1.060812 4 0 4 1.060812 3.578535 2.078319 2.828427 2.828427 2.078319 3.578535 1.060812 4 0 4-1.060812 4-2.078319 3.578535-2.828427 2.828427-3.578535 2.078319-4 1.060812-4 0-4-1.060812-3.578535-2.078319-2.828427-2.828427-2.078319-3.578535-1.060812-4 0-4Z"/>
</g>
<g clip-path="url(#clip_49)">
<path transform="matrix(1,0,0,-1,656.74276,61.73244)" d="M0-4C1.060812-4 2.078319-3.578535 2.828427-2.828427 3.578535-2.078319 4-1.060812 4 0 4 1.060812 3.578535 2.078319 2.828427 2.828427 2.078319 3.578535 1.060812 4 0 4-1.060812 4-2.078319 3.578535-2.828427 2.828427-3.578535 2.078319-4 1.060812-4 0-4-1.060812-3.578535-2.078319-2.828427-2.828427-2.078319-3.578535-1.060812-4 0-4Z" fill="#d62728"/>
<path transform="matrix(1,0,0,-1,656.74276,61.73244)" stroke-width="1.5" stroke-linecap="butt" stroke-linejoin="round" fill="none" stroke="#000000" d="M0-4C1.060812-4 2.078319-3.578535 2.828427-2.828427 3.578535-2.078319 4-1.060812 4 0 4 1.060812 3.578535 2.078319 2.828427 2.828427 2.078319 3.578535 1.060812 4 0 4-1.060812 4-2.078319 3.578535-2.828427 2.828427-3.578535 2.078319-4 1.060812-4 0-4-1.060812-3.578535-2.078319-2.828427-2.828427-2.078319-3.578535-1.060812-4 0-4Z"/>
</g>
</g>
<g clip-path="url(#clip_50)">
<path transform="matrix(1,0,0,-1,0,648)" stroke-width="5" stroke-linecap="butt" stroke-dasharray="32,8,5,8" stroke-linejoin="round" fill="none" stroke="#8c564b" d="M191.59627 151.61865 269.12068 482.07099 346.64509 580.31356 424.16947 586.2676H501.69389 579.21829 656.7427"/>
<g clip-path="url(#clip_51)">
<path transform="matrix(1,0,0,-1,191.59627,496.38136)" d="M0 4-.898056 1.236068H-3.804226L-1.453085-.472136-2.351141-3.236068 0-1.527864 2.351141-3.236068 1.453085-.472136 3.804226 1.236068H.898056Z" fill="#8c564b"/>
<path transform="matrix(1,0,0,-1,191.59627,496.38136)" stroke-width="1.5" stroke-linecap="butt" stroke-linejoin="bevel" fill="none" stroke="#000000" d="M0 4-.898056 1.236068H-3.804226L-1.453085-.472136-2.351141-3.236068 0-1.527864 2.351141-3.236068 1.453085-.472136 3.804226 1.236068H.898056Z"/>
</g>
<g clip-path="url(#clip_52)">
<path transform="matrix(1,0,0,-1,269.12068,165.92902)" d="M0 4-.898056 1.236068H-3.804226L-1.453085-.472136-2.351141-3.236068 0-1.527864 2.351141-3.236068 1.453085-.472136 3.804226 1.236068H.898056Z" fill="#8c564b"/>
<path transform="matrix(1,0,0,-1,269.12068,165.92902)" stroke-width="1.5" stroke-linecap="butt" stroke-linejoin="bevel" fill="none" stroke="#000000" d="M0 4-.898056 1.236068H-3.804226L-1.453085-.472136-2.351141-3.236068 0-1.527864 2.351141-3.236068 1.453085-.472136 3.804226 1.236068H.898056Z"/>
</g>
<g clip-path="url(#clip_53)">
<path transform="matrix(1,0,0,-1,346.64509,67.68646)" d="M0 4-.898056 1.236068H-3.804226L-1.453085-.472136-2.351141-3.236068 0-1.527864 2.351141-3.236068 1.453085-.472136 3.804226 1.236068H.898056Z" fill="#8c564b"/>
<path transform="matrix(1,0,0,-1,346.64509,67.68646)" stroke-width="1.5" stroke-linecap="butt" stroke-linejoin="bevel" fill="none" stroke="#000000" d="M0 4-.898056 1.236068H-3.804226L-1.453085-.472136-2.351141-3.236068 0-1.527864 2.351141-3.236068 1.453085-.472136 3.804226 1.236068H.898056Z"/>
</g>
<g clip-path="url(#clip_54)">
<path transform="matrix(1,0,0,-1,424.1695,61.732446)" d="M0 4-.898056 1.236068H-3.804226L-1.453085-.472136-2.351141-3.236068 0-1.527864 2.351141-3.236068 1.453085-.472136 3.804226 1.236068H.898056Z" fill="#8c564b"/>
<path transform="matrix(1,0,0,-1,424.1695,61.732446)" stroke-width="1.5" stroke-linecap="butt" stroke-linejoin="bevel" fill="none" stroke="#000000" d="M0 4-.898056 1.236068H-3.804226L-1.453085-.472136-2.351141-3.236068 0-1.527864 2.351141-3.236068 1.453085-.472136 3.804226 1.236068H.898056Z"/>
</g>
<g clip-path="url(#clip_55)">
<path transform="matrix(1,0,0,-1,501.6939,61.732446)" d="M0 4-.898056 1.236068H-3.804226L-1.453085-.472136-2.351141-3.236068 0-1.527864 2.351141-3.236068 1.453085-.472136 3.804226 1.236068H.898056Z" fill="#8c564b"/>
<path transform="matrix(1,0,0,-1,501.6939,61.732446)" stroke-width="1.5" stroke-linecap="butt" stroke-linejoin="bevel" fill="none" stroke="#000000" d="M0 4-.898056 1.236068H-3.804226L-1.453085-.472136-2.351141-3.236068 0-1.527864 2.351141-3.236068 1.453085-.472136 3.804226 1.236068H.898056Z"/>
</g>
<g clip-path="url(#clip_56)">
<path transform="matrix(1,0,0,-1,579.2183,61.732446)" d="M0 4-.898056 1.236068H-3.804226L-1.453085-.472136-2.351141-3.236068 0-1.527864 2.351141-3.236068 1.453085-.472136 3.804226 1.236068H.898056Z" fill="#8c564b"/>
<path transform="matrix(1,0,0,-1,579.2183,61.732446)" stroke-width="1.5" stroke-linecap="butt" stroke-linejoin="bevel" fill="none" stroke="#000000" d="M0 4-.898056 1.236068H-3.804226L-1.453085-.472136-2.351141-3.236068 0-1.527864 2.351141-3.236068 1.453085-.472136 3.804226 1.236068H.898056Z"/>
</g>
<g clip-path="url(#clip_57)">
<path transform="matrix(1,0,0,-1,656.74276,61.732446)" d="M0 4-.898056 1.236068H-3.804226L-1.453085-.472136-2.351141-3.236068 0-1.527864 2.351141-3.236068 1.453085-.472136 3.804226 1.236068H.898056Z" fill="#8c564b"/>
<path transform="matrix(1,0,0,-1,656.74276,61.732446)" stroke-width="1.5" stroke-linecap="butt" stroke-linejoin="bevel" fill="none" stroke="#000000" d="M0 4-.898056 1.236068H-3.804226L-1.453085-.472136-2.351141-3.236068 0-1.527864 2.351141-3.236068 1.453085-.472136 3.804226 1.236068H.898056Z"/>
</g>
</g>
<g clip-path="url(#clip_58)">
<path transform="matrix(1,0,0,-1,0,648)" stroke-width="5" stroke-linecap="butt" stroke-dasharray="32,8,5,8" stroke-linejoin="round" fill="none" stroke="#e377c2" d="M191.59627 371.9203 269.12068 553.52017 346.64509 574.3595 424.16947 586.2676H501.69389 579.21829 656.7427"/>
<g clip-path="url(#clip_59)">
<path transform="matrix(1,0,0,-1,191.59627,276.0797)" d="M0 4-.898056 1.236068H-3.804226L-1.453085-.472136-2.351141-3.236068 0-1.527864 2.351141-3.236068 1.453085-.472136 3.804226 1.236068H.898056Z" fill="#e377c2"/>
<path transform="matrix(1,0,0,-1,191.59627,276.0797)" stroke-width="1.5" stroke-linecap="butt" stroke-linejoin="bevel" fill="none" stroke="#000000" d="M0 4-.898056 1.236068H-3.804226L-1.453085-.472136-2.351141-3.236068 0-1.527864 2.351141-3.236068 1.453085-.472136 3.804226 1.236068H.898056Z"/>
</g>
<g clip-path="url(#clip_60)">
<path transform="matrix(1,0,0,-1,269.12068,94.47987)" d="M0 4-.898056 1.236068H-3.804226L-1.453085-.472136-2.351141-3.236068 0-1.527864 2.351141-3.236068 1.453085-.472136 3.804226 1.236068H.898056Z" fill="#e377c2"/>
<path transform="matrix(1,0,0,-1,269.12068,94.47987)" stroke-width="1.5" stroke-linecap="butt" stroke-linejoin="bevel" fill="none" stroke="#000000" d="M0 4-.898056 1.236068H-3.804226L-1.453085-.472136-2.351141-3.236068 0-1.527864 2.351141-3.236068 1.453085-.472136 3.804226 1.236068H.898056Z"/>
</g>
<g clip-path="url(#clip_61)">
<path transform="matrix(1,0,0,-1,346.64509,73.6405)" d="M0 4-.898056 1.236068H-3.804226L-1.453085-.472136-2.351141-3.236068 0-1.527864 2.351141-3.236068 1.453085-.472136 3.804226 1.236068H.898056Z" fill="#e377c2"/>
<path transform="matrix(1,0,0,-1,346.64509,73.6405)" stroke-width="1.5" stroke-linecap="butt" stroke-linejoin="bevel" fill="none" stroke="#000000" d="M0 4-.898056 1.236068H-3.804226L-1.453085-.472136-2.351141-3.236068 0-1.527864 2.351141-3.236068 1.453085-.472136 3.804226 1.236068H.898056Z"/>
</g>
<g clip-path="url(#clip_62)">
<path transform="matrix(1,0,0,-1,424.1695,61.73244)" d="M0 4-.898056 1.236068H-3.804226L-1.453085-.472136-2.351141-3.236068 0-1.527864 2.351141-3.236068 1.453085-.472136 3.804226 1.236068H.898056Z" fill="#e377c2"/>
<path transform="matrix(1,0,0,-1,424.1695,61.73244)" stroke-width="1.5" stroke-linecap="butt" stroke-linejoin="bevel" fill="none" stroke="#000000" d="M0 4-.898056 1.236068H-3.804226L-1.453085-.472136-2.351141-3.236068 0-1.527864 2.351141-3.236068 1.453085-.472136 3.804226 1.236068H.898056Z"/>
</g>
<g clip-path="url(#clip_63)">
<path transform="matrix(1,0,0,-1,501.6939,61.73244)" d="M0 4-.898056 1.236068H-3.804226L-1.453085-.472136-2.351141-3.236068 0-1.527864 2.351141-3.236068 1.453085-.472136 3.804226 1.236068H.898056Z" fill="#e377c2"/>
<path transform="matrix(1,0,0,-1,501.6939,61.73244)" stroke-width="1.5" stroke-linecap="butt" stroke-linejoin="bevel" fill="none" stroke="#000000" d="M0 4-.898056 1.236068H-3.804226L-1.453085-.472136-2.351141-3.236068 0-1.527864 2.351141-3.236068 1.453085-.472136 3.804226 1.236068H.898056Z"/>
</g>
<g clip-path="url(#clip_64)">
<path transform="matrix(1,0,0,-1,579.2183,61.73244)" d="M0 4-.898056 1.236068H-3.804226L-1.453085-.472136-2.351141-3.236068 0-1.527864 2.351141-3.236068 1.453085-.472136 3.804226 1.236068H.898056Z" fill="#e377c2"/>
<path transform="matrix(1,0,0,-1,579.2183,61.73244)" stroke-width="1.5" stroke-linecap="butt" stroke-linejoin="bevel" fill="none" stroke="#000000" d="M0 4-.898056 1.236068H-3.804226L-1.453085-.472136-2.351141-3.236068 0-1.527864 2.351141-3.236068 1.453085-.472136 3.804226 1.236068H.898056Z"/>
</g>
<g clip-path="url(#clip_65)">
<path transform="matrix(1,0,0,-1,656.74276,61.73244)" d="M0 4-.898056 1.236068H-3.804226L-1.453085-.472136-2.351141-3.236068 0-1.527864 2.351141-3.236068 1.453085-.472136 3.804226 1.236068H.898056Z" fill="#e377c2"/>
<path transform="matrix(1,0,0,-1,656.74276,61.73244)" stroke-width="1.5" stroke-linecap="butt" stroke-linejoin="bevel" fill="none" stroke="#000000" d="M0 4-.898056 1.236068H-3.804226L-1.453085-.472136-2.351141-3.236068 0-1.527864 2.351141-3.236068 1.453085-.472136 3.804226 1.236068H.898056Z"/>
</g>
</g>
<path transform="matrix(1,0,0,-1,0,648)" stroke-width=".8" stroke-linecap="square" stroke-miterlimit="10" stroke-linejoin="miter" fill="none" stroke="#000000" d="M168.33896 129.88622V608"/>
<path transform="matrix(1,0,0,-1,0,648)" stroke-width=".8" stroke-linecap="square" stroke-miterlimit="10" stroke-linejoin="miter" fill="none" stroke="#000000" d="M680 129.88622V608"/>
<path transform="matrix(1,0,0,-1,0,648)" stroke-width=".8" stroke-linecap="square" stroke-miterlimit="10" stroke-linejoin="miter" fill="none" stroke="#000000" d="M168.33896 129.88622H680"/>
<path transform="matrix(1,0,0,-1,0,648)" stroke-width=".8" stroke-linecap="square" stroke-miterlimit="10" stroke-linejoin="miter" fill="none" stroke="#000000" d="M168.33896 608H680"/>
<path transform="matrix(1,0,0,-1,0,648)" d="M338.4833 284.36796H664.11666C668.11666 284.36796 670.11666 286.36796 670.11666 290.36796V492.33348C670.11666 496.33348 668.11666 498.33348 664.11666 498.33348H338.4833C334.4833 498.33348 332.4833 496.33348 332.4833 492.33348V290.36796C332.4833 286.36796 334.4833 284.36796 338.4833 284.36796Z" fill="none"/>
<path transform="matrix(1,0,0,-1,0,648)" stroke-width="1" stroke-linecap="butt" stroke-miterlimit="10" stroke-linejoin="miter" fill="none" stroke="#000000" d="M338.4833 284.36796H664.11666C668.11666 284.36796 670.11666 286.36796 670.11666 290.36796V492.33348C670.11666 496.33348 668.11666 498.33348 664.11666 498.33348H338.4833C334.4833 498.33348 332.4833 496.33348 332.4833 492.33348V290.36796C332.4833 286.36796 334.4833 284.36796 338.4833 284.36796Z"/>
<path transform="matrix(1,0,0,-1,0,648)" stroke-width="7" stroke-linecap="square" stroke-linejoin="round" fill="none" stroke="#17becf" d="M341.4833 478.5385H371.4833 401.4833"/>
<path transform="matrix(1,0,0,-1,0,648)" d="M366.4833 473.5385H376.4833V483.5385H366.4833Z" fill="#17becf"/>
<path transform="matrix(1,0,0,-1,0,648)" stroke-width="1.5" stroke-linecap="butt" stroke-miterlimit="10" stroke-linejoin="miter" fill="none" stroke="#000000" d="M366.4833 473.5385H376.4833V483.5385H366.4833Z"/>
<use data-text="T" xlink:href="#font_2_53" transform="matrix(29.88792,0,0,-29.88792,425.4833,179.96149)"/>
<use data-text="u" xlink:href="#font_2_86" transform="matrix(29.88792,0,0,-29.88792,440.12855,179.96149)"/>
<use data-text="r" xlink:href="#font_2_83" transform="matrix(29.88792,0,0,-29.88792,456.71635,179.96149)"/>
<use data-text="b" xlink:href="#font_2_67" transform="matrix(29.88792,0,0,-29.88792,466.63914,179.96149)"/>
<use data-text="o" xlink:href="#font_2_80" transform="matrix(29.88792,0,0,-29.88792,483.22694,179.96149)"/>
<use data-text="Q" xlink:href="#font_2_50" transform="matrix(29.88792,0,0,-29.88792,499.81474,179.96149)"/>
<use data-text="u" xlink:href="#font_2_86" transform="matrix(29.88792,0,0,-29.88792,523.03768,179.96149)"/>
<use data-text="a" xlink:href="#font_2_66" transform="matrix(29.88792,0,0,-29.88792,539.6254,179.96149)"/>
<use data-text="n" xlink:href="#font_2_79" transform="matrix(29.88792,0,0,-29.88792,556.2132,179.96149)"/>
<use data-text="t" xlink:href="#font_2_85" transform="matrix(29.88792,0,0,-29.88792,572.80099,179.96149)"/>
<use data-text="2" xlink:href="#font_2_19" transform="matrix(29.88792,0,0,-29.88792,589.3884,179.96149)"/>
<use data-text="b" xlink:href="#font_2_67" transform="matrix(29.88792,0,0,-29.88792,614.2847,179.96149)"/>
<use data-text="i" xlink:href="#font_2_74" transform="matrix(29.88792,0,0,-29.88792,630.8725,179.96149)"/>
<use data-text="t" xlink:href="#font_2_85" transform="matrix(29.88792,0,0,-29.88792,637.4777,179.96149)"/>
<use data-text="s" xlink:href="#font_2_84" transform="matrix(29.88792,0,0,-29.88792,645.75668,179.96149)"/>
<path transform="matrix(1,0,0,-1,0,648)" stroke-width="7" stroke-linecap="square" stroke-linejoin="round" fill="none" stroke="#1f77b4" d="M341.4833 444.8776H371.4833 401.4833"/>
<path transform="matrix(1,0,0,-1,0,648)" d="M366.4833 439.8776H376.4833V449.8776H366.4833Z" fill="#1f77b4"/>
<path transform="matrix(1,0,0,-1,0,648)" stroke-width="1.5" stroke-linecap="butt" stroke-miterlimit="10" stroke-linejoin="miter" fill="none" stroke="#000000" d="M366.4833 439.8776H376.4833V449.8776H366.4833Z"/>
<use data-text="T" xlink:href="#font_2_53" transform="matrix(29.88792,0,0,-29.88792,425.4833,213.6224)"/>
<use data-text="u" xlink:href="#font_2_86" transform="matrix(29.88792,0,0,-29.88792,440.12855,213.6224)"/>
<use data-text="r" xlink:href="#font_2_83" transform="matrix(29.88792,0,0,-29.88792,456.71635,213.6224)"/>
<use data-text="b" xlink:href="#font_2_67" transform="matrix(29.88792,0,0,-29.88792,466.63914,213.6224)"/>
<use data-text="o" xlink:href="#font_2_80" transform="matrix(29.88792,0,0,-29.88792,483.22694,213.6224)"/>
<use data-text="Q" xlink:href="#font_2_50" transform="matrix(29.88792,0,0,-29.88792,499.81474,213.6224)"/>
<use data-text="u" xlink:href="#font_2_86" transform="matrix(29.88792,0,0,-29.88792,523.03768,213.6224)"/>
<use data-text="a" xlink:href="#font_2_66" transform="matrix(29.88792,0,0,-29.88792,539.6254,213.6224)"/>
<use data-text="n" xlink:href="#font_2_79" transform="matrix(29.88792,0,0,-29.88792,556.2132,213.6224)"/>
<use data-text="t" xlink:href="#font_2_85" transform="matrix(29.88792,0,0,-29.88792,572.80099,213.6224)"/>
<use data-text="4" xlink:href="#font_2_21" transform="matrix(29.88792,0,0,-29.88792,589.3884,213.6224)"/>
<use data-text="b" xlink:href="#font_2_67" transform="matrix(29.88792,0,0,-29.88792,614.2847,213.6224)"/>
<use data-text="i" xlink:href="#font_2_74" transform="matrix(29.88792,0,0,-29.88792,630.8725,213.6224)"/>
<use data-text="t" xlink:href="#font_2_85" transform="matrix(29.88792,0,0,-29.88792,637.4777,213.6224)"/>
<use data-text="s" xlink:href="#font_2_84" transform="matrix(29.88792,0,0,-29.88792,645.75668,213.6224)"/>
<path transform="matrix(1,0,0,-1,0,648)" stroke-width="5" stroke-linecap="butt" stroke-dasharray="18.5,8" stroke-linejoin="round" fill="none" stroke="#2ca02c" d="M341.4833 411.21669H371.4833 401.4833"/>
<path transform="matrix(1,0,0,-1,0,648)" d="M371.4833 407.21669C372.54414 407.21669 373.56166 407.63813 374.31175 408.38825 375.06187 409.13835 375.4833 410.15586 375.4833 411.21669 375.4833 412.2775 375.06187 413.29499 374.31175 414.0451 373.56166 414.7952 372.54414 415.21669 371.4833 415.21669 370.42253 415.21669 369.405 414.7952 368.65489 414.0451 367.9048 413.29499 367.4833 412.2775 367.4833 411.21669 367.4833 410.15586 367.9048 409.13835 368.65489 408.38825 369.405 407.63813 370.42253 407.21669 371.4833 407.21669Z" fill="#2ca02c"/>
<path transform="matrix(1,0,0,-1,0,648)" stroke-width="1.5" stroke-linecap="butt" stroke-linejoin="round" fill="none" stroke="#000000" d="M371.4833 407.21669C372.54414 407.21669 373.56166 407.63813 374.31175 408.38825 375.06187 409.13835 375.4833 410.15586 375.4833 411.21669 375.4833 412.2775 375.06187 413.29499 374.31175 414.0451 373.56166 414.7952 372.54414 415.21669 371.4833 415.21669 370.42253 415.21669 369.405 414.7952 368.65489 414.0451 367.9048 413.29499 367.4833 412.2775 367.4833 411.21669 367.4833 410.15586 367.9048 409.13835 368.65489 408.38825 369.405 407.63813 370.42253 407.21669 371.4833 407.21669Z"/>
<use data-text="P" xlink:href="#font_2_49" transform="matrix(29.88792,0,0,-29.88792,425.4833,247.28333)"/>
<use data-text="Q" xlink:href="#font_2_50" transform="matrix(29.88792,0,0,-29.88792,445.38868,247.28333)"/>
<use data-text="2" xlink:href="#font_2_19" transform="matrix(29.88792,0,0,-29.88792,476.92015,247.28333)"/>
<use data-text="b" xlink:href="#font_2_67" transform="matrix(29.88792,0,0,-29.88792,501.8165,247.28333)"/>
<use data-text="i" xlink:href="#font_2_74" transform="matrix(29.88792,0,0,-29.88792,518.4043,247.28333)"/>
<use data-text="t" xlink:href="#font_2_85" transform="matrix(29.88792,0,0,-29.88792,525.0095,247.28333)"/>
<use data-text="s" xlink:href="#font_2_84" transform="matrix(29.88792,0,0,-29.88792,533.28848,247.28333)"/>
<path transform="matrix(1,0,0,-1,0,648)" stroke-width="5" stroke-linecap="butt" stroke-dasharray="18.5,8" stroke-linejoin="round" fill="none" stroke="#d62728" d="M341.4833 377.55577H371.4833 401.4833"/>
<path transform="matrix(1,0,0,-1,0,648)" d="M371.4833 373.55577C372.54414 373.55577 373.56166 373.9772 374.31175 374.72734 375.06187 375.47743 375.4833 376.49494 375.4833 377.55577 375.4833 378.61659 375.06187 379.63407 374.31175 380.3842 373.56166 381.13429 372.54414 381.55577 371.4833 381.55577 370.42253 381.55577 369.405 381.13429 368.65489 380.3842 367.9048 379.63407 367.4833 378.61659 367.4833 377.55577 367.4833 376.49494 367.9048 375.47743 368.65489 374.72734 369.405 373.9772 370.42253 373.55577 371.4833 373.55577Z" fill="#d62728"/>
<path transform="matrix(1,0,0,-1,0,648)" stroke-width="1.5" stroke-linecap="butt" stroke-linejoin="round" fill="none" stroke="#000000" d="M371.4833 373.55577C372.54414 373.55577 373.56166 373.9772 374.31175 374.72734 375.06187 375.47743 375.4833 376.49494 375.4833 377.55577 375.4833 378.61659 375.06187 379.63407 374.31175 380.3842 373.56166 381.13429 372.54414 381.55577 371.4833 381.55577 370.42253 381.55577 369.405 381.13429 368.65489 380.3842 367.9048 379.63407 367.4833 378.61659 367.4833 377.55577 367.4833 376.49494 367.9048 375.47743 368.65489 374.72734 369.405 373.9772 370.42253 373.55577 371.4833 373.55577Z"/>
<use data-text="P" xlink:href="#font_2_49" transform="matrix(29.88792,0,0,-29.88792,425.4833,280.94425)"/>
<use data-text="Q" xlink:href="#font_2_50" transform="matrix(29.88792,0,0,-29.88792,445.38868,280.94425)"/>
<use data-text="4" xlink:href="#font_2_21" transform="matrix(29.88792,0,0,-29.88792,476.92015,280.94425)"/>
<use data-text="b" xlink:href="#font_2_67" transform="matrix(29.88792,0,0,-29.88792,501.8165,280.94425)"/>
<use data-text="i" xlink:href="#font_2_74" transform="matrix(29.88792,0,0,-29.88792,518.4043,280.94425)"/>
<use data-text="t" xlink:href="#font_2_85" transform="matrix(29.88792,0,0,-29.88792,525.0095,280.94425)"/>
<use data-text="s" xlink:href="#font_2_84" transform="matrix(29.88792,0,0,-29.88792,533.28848,280.94425)"/>
<path transform="matrix(1,0,0,-1,0,648)" stroke-width="5" stroke-linecap="butt" stroke-dasharray="32,8,5,8" stroke-linejoin="round" fill="none" stroke="#8c564b" d="M341.4833 343.89485H371.4833 401.4833"/>
<path transform="matrix(1,0,0,-1,0,648)" d="M371.4833 347.89485 370.58528 345.1309H367.67909L370.03025 343.4227 369.13218 340.65876 371.4833 342.36698 373.83445 340.65876 372.9364 343.4227 375.28755 345.1309H372.38139Z" fill="#8c564b"/>
<path transform="matrix(1,0,0,-1,0,648)" stroke-width="1.5" stroke-linecap="butt" stroke-linejoin="bevel" fill="none" stroke="#000000" d="M371.4833 347.89485 370.58528 345.1309H367.67909L370.03025 343.4227 369.13218 340.65876 371.4833 342.36698 373.83445 340.65876 372.9364 343.4227 375.28755 345.1309H372.38139Z"/>
<use data-text="R" xlink:href="#font_2_51" transform="matrix(29.88792,0,0,-29.88792,425.4833,314.60517)"/>
<use data-text="a" xlink:href="#font_2_66" transform="matrix(29.88792,0,0,-29.88792,447.0325,314.60517)"/>
<use data-text="b" xlink:href="#font_2_67" transform="matrix(29.88792,0,0,-29.88792,463.6203,314.60517)"/>
<use data-text="i" xlink:href="#font_2_74" transform="matrix(29.88792,0,0,-29.88792,480.2081,314.60517)"/>
<use data-text="t" xlink:href="#font_2_85" transform="matrix(29.88792,0,0,-29.88792,486.81333,314.60517)"/>
<use data-text="Q" xlink:href="#font_2_50" transform="matrix(29.88792,0,0,-29.88792,495.0923,314.60517)"/>
<use data-text="2" xlink:href="#font_2_19" transform="matrix(29.88792,0,0,-29.88792,526.6237,314.60517)"/>
<use data-text="b" xlink:href="#font_2_67" transform="matrix(29.88792,0,0,-29.88792,551.52,314.60517)"/>
<use data-text="i" xlink:href="#font_2_74" transform="matrix(29.88792,0,0,-29.88792,568.1078,314.60517)"/>
<use data-text="t" xlink:href="#font_2_85" transform="matrix(29.88792,0,0,-29.88792,574.713,314.60517)"/>
<use data-text="s" xlink:href="#font_2_84" transform="matrix(29.88792,0,0,-29.88792,582.99197,314.60517)"/>
<path transform="matrix(1,0,0,-1,0,648)" stroke-width="5" stroke-linecap="butt" stroke-dasharray="32,8,5,8" stroke-linejoin="round" fill="none" stroke="#e377c2" d="M341.4833 310.23393H371.4833 401.4833"/>
<path transform="matrix(1,0,0,-1,0,648)" d="M371.4833 314.23393 370.58528 311.46998H367.67909L370.03025 309.76179 369.13218 306.99784 371.4833 308.70606 373.83445 306.99784 372.9364 309.76179 375.28755 311.46998H372.38139Z" fill="#e377c2"/>
<path transform="matrix(1,0,0,-1,0,648)" stroke-width="1.5" stroke-linecap="butt" stroke-linejoin="bevel" fill="none" stroke="#000000" d="M371.4833 314.23393 370.58528 311.46998H367.67909L370.03025 309.76179 369.13218 306.99784 371.4833 308.70606 373.83445 306.99784 372.9364 309.76179 375.28755 311.46998H372.38139Z"/>
<use data-text="R" xlink:href="#font_2_51" transform="matrix(29.88792,0,0,-29.88792,425.4833,348.26609)"/>
<use data-text="a" xlink:href="#font_2_66" transform="matrix(29.88792,0,0,-29.88792,447.0325,348.26609)"/>
<use data-text="b" xlink:href="#font_2_67" transform="matrix(29.88792,0,0,-29.88792,463.6203,348.26609)"/>
<use data-text="i" xlink:href="#font_2_74" transform="matrix(29.88792,0,0,-29.88792,480.2081,348.26609)"/>
<use data-text="t" xlink:href="#font_2_85" transform="matrix(29.88792,0,0,-29.88792,486.81333,348.26609)"/>
<use data-text="Q" xlink:href="#font_2_50" transform="matrix(29.88792,0,0,-29.88792,495.0923,348.26609)"/>
<use data-text="4" xlink:href="#font_2_21" transform="matrix(29.88792,0,0,-29.88792,526.6237,348.26609)"/>
<use data-text="b" xlink:href="#font_2_67" transform="matrix(29.88792,0,0,-29.88792,551.52,348.26609)"/>
<use data-text="i" xlink:href="#font_2_74" transform="matrix(29.88792,0,0,-29.88792,568.1078,348.26609)"/>
<use data-text="t" xlink:href="#font_2_85" transform="matrix(29.88792,0,0,-29.88792,574.713,348.26609)"/>
<use data-text="s" xlink:href="#font_2_84" transform="matrix(29.88792,0,0,-29.88792,582.99197,348.26609)"/>
</svg>
