<?xml version="1.0" encoding="utf-8" standalone="no"?>
<!DOCTYPE svg PUBLIC "-//W3C//DTD SVG 1.1//EN"
  "http://www.w3.org/Graphics/SVG/1.1/DTD/svg11.dtd">
<svg xmlns:xlink="http://www.w3.org/1999/xlink" width="396pt" height="252pt" viewBox="0 0 396 252" xmlns="http://www.w3.org/2000/svg" version="1.1">
 <metadata>
  <rdf:RDF xmlns:dc="http://purl.org/dc/elements/1.1/" xmlns:cc="http://creativecommons.org/ns#" xmlns:rdf="http://www.w3.org/1999/02/22-rdf-syntax-ns#">
   <cc:Work>
    <dc:type rdf:resource="http://purl.org/dc/dcmitype/StillImage"/>
    <dc:date>2026-04-03T17:06:57.882647</dc:date>
    <dc:format>image/svg+xml</dc:format>
    <dc:creator>
     <cc:Agent>
      <dc:title>Matplotlib v3.10.3, https://matplotlib.org/</dc:title>
     </cc:Agent>
    </dc:creator>
   </cc:Work>
  </rdf:RDF>
 </metadata>
 <defs>
  <style type="text/css">*{stroke-linejoin: round; stroke-linecap: butt}</style>
 </defs>
 <g id="figure_1">
  <g id="patch_1">
   <path d="M 0 252 
L 396 252 
L 396 0 
L 0 0 
L 0 252 
z
" style="fill: none"/>
  </g>
  <g id="axes_1">
   <g id="patch_2">
    <path d="M 31.81149 216.597885 
L 385.753666 216.597885 
L 385.753666 3.00024 
L 31.81149 3.00024 
L 31.81149 216.597885 
z
" style="fill: none"/>
   </g>
   <g id="matplotlib.axis_1">
    <g id="xtick_1">
     <g id="line2d_1">
      <defs>
       <path id="m62db1bbb28" d="M 0 0 
L 0 3.5 
" style="stroke: #2c2418; stroke-width: 0.8"/>
      </defs>
      <g>
       <use xlink:href="#m62db1bbb28" x="31.81149" y="216.597885" style="fill: #2c2418; stroke: #2c2418; stroke-width: 0.8"/>
      </g>
     </g>
     <g id="text_1">
      <!-- −0.6 -->
      <g style="fill: #2c2418" transform="translate(21.349771 231.15726) scale(0.1 -0.1)">
       <defs>
        <path id="Georgia-2212" d="M 3650 1553 
L 466 1553 
L 466 1944 
L 3650 1944 
L 3650 1553 
z
" transform="scale(0.015625)"/>
        <path id="Georgia-30" d="M 3209 2919 
Q 3409 2678 3507 2354 
Q 3606 2031 3606 1678 
Q 3606 1253 3484 917 
Q 3363 581 3150 359 
Q 2931 131 2631 15 
Q 2331 -100 1963 -100 
Q 1559 -100 1243 34 
Q 928 169 731 403 
Q 525 647 423 973 
Q 322 1300 322 1678 
Q 322 2050 420 2362 
Q 519 2675 728 2928 
Q 928 3172 1243 3312 
Q 1559 3453 1966 3453 
Q 2394 3453 2700 3309 
Q 3006 3166 3209 2919 
z
M 2916 1678 
Q 2916 2422 2661 2831 
Q 2406 3241 1969 3241 
Q 1525 3241 1269 2831 
Q 1013 2422 1013 1678 
Q 1013 972 1258 542 
Q 1503 113 1963 113 
Q 2422 113 2669 542 
Q 2916 972 2916 1678 
z
" transform="scale(0.015625)"/>
        <path id="Georgia-2e" d="M 1297 359 
Q 1297 184 1170 60 
Q 1044 -63 869 -63 
Q 694 -63 567 60 
Q 441 184 441 359 
Q 441 534 567 661 
Q 694 788 869 788 
Q 1044 788 1170 661 
Q 1297 534 1297 359 
z
" transform="scale(0.015625)"/>
        <path id="Georgia-36" d="M 3359 1441 
Q 3359 1116 3242 831 
Q 3125 547 2928 347 
Q 2700 119 2423 9 
Q 2147 -100 1847 -100 
Q 1500 -100 1219 28 
Q 938 156 741 391 
Q 541 628 431 972 
Q 322 1316 322 1744 
Q 322 2859 986 3625 
Q 1650 4391 2766 4544 
L 2822 4263 
L 2541 4213 
Q 1863 3994 1492 3531 
Q 1122 3069 1013 2409 
Q 1281 2644 1543 2741 
Q 1806 2838 2097 2838 
Q 2619 2838 2989 2438 
Q 3359 2038 3359 1441 
z
M 2681 1356 
Q 2681 1863 2448 2169 
Q 2216 2475 1825 2475 
Q 1591 2475 1389 2387 
Q 1188 2300 1000 2094 
Q 997 2056 990 1920 
Q 984 1784 984 1706 
Q 984 975 1223 561 
Q 1463 147 1853 147 
Q 2225 147 2453 470 
Q 2681 794 2681 1356 
z
" transform="scale(0.015625)"/>
       </defs>
       <use xlink:href="#Georgia-2212"/>
       <use xlink:href="#Georgia-30" transform="translate(64.306641 0)"/>
       <use xlink:href="#Georgia-2e" transform="translate(125.683594 0)"/>
       <use xlink:href="#Georgia-36" transform="translate(152.636719 0)"/>
      </g>
     </g>
    </g>
    <g id="xtick_2">
     <g id="line2d_2">
      <g>
       <use xlink:href="#m62db1bbb28" x="90.801853" y="216.597885" style="fill: #2c2418; stroke: #2c2418; stroke-width: 0.8"/>
      </g>
     </g>
     <g id="text_2">
      <!-- −0.4 -->
      <g style="fill: #2c2418" transform="translate(80.344821 231.15726) scale(0.1 -0.1)">
       <defs>
        <path id="Georgia-34" d="M 3388 281 
L 2753 281 
L 2753 -1141 
L 2153 -1141 
L 2153 281 
L 153 281 
L 153 763 
L 2344 3434 
L 2753 3434 
L 2753 691 
L 3388 691 
L 3388 281 
z
M 2153 691 
L 2153 2738 
L 466 691 
L 2153 691 
z
" transform="scale(0.015625)"/>
       </defs>
       <use xlink:href="#Georgia-2212"/>
       <use xlink:href="#Georgia-30" transform="translate(64.306641 0)"/>
       <use xlink:href="#Georgia-2e" transform="translate(125.683594 0)"/>
       <use xlink:href="#Georgia-34" transform="translate(152.636719 0)"/>
      </g>
     </g>
    </g>
    <g id="xtick_3">
     <g id="line2d_3">
      <g>
       <use xlink:href="#m62db1bbb28" x="149.792215" y="216.597885" style="fill: #2c2418; stroke: #2c2418; stroke-width: 0.8"/>
      </g>
     </g>
     <g id="text_3">
      <!-- −0.2 -->
      <g style="fill: #2c2418" transform="translate(139.367215 231.15726) scale(0.1 -0.1)">
       <defs>
        <path id="Georgia-32" d="M 3272 0 
L 344 0 
L 344 425 
Q 428 522 578 642 
Q 728 763 934 903 
Q 1059 988 1234 1088 
Q 1409 1188 1631 1306 
Q 1878 1438 2011 1538 
Q 2144 1638 2253 1784 
Q 2325 1881 2369 2026 
Q 2413 2172 2413 2441 
Q 2413 2831 2203 3014 
Q 1994 3197 1666 3197 
Q 1463 3197 1281 3117 
Q 1100 3038 1009 2897 
Q 1031 2797 1064 2659 
Q 1097 2522 1097 2391 
Q 1097 2272 998 2180 
Q 900 2088 706 2088 
Q 550 2088 465 2195 
Q 381 2303 381 2484 
Q 381 2653 475 2823 
Q 569 2994 744 3138 
Q 916 3278 1169 3365 
Q 1422 3453 1716 3453 
Q 2356 3453 2732 3167 
Q 3109 2881 3109 2403 
Q 3109 2175 3042 1987 
Q 2975 1800 2825 1656 
Q 2659 1497 2437 1383 
Q 2216 1269 1759 1066 
Q 1488 944 1253 811 
Q 1019 678 869 553 
L 3272 553 
L 3272 0 
z
" transform="scale(0.015625)"/>
       </defs>
       <use xlink:href="#Georgia-2212"/>
       <use xlink:href="#Georgia-30" transform="translate(64.306641 0)"/>
       <use xlink:href="#Georgia-2e" transform="translate(125.683594 0)"/>
       <use xlink:href="#Georgia-32" transform="translate(152.636719 0)"/>
      </g>
     </g>
    </g>
    <g id="xtick_4">
     <g id="line2d_4">
      <g>
       <use xlink:href="#m62db1bbb28" x="208.782578" y="216.597885" style="fill: #2c2418; stroke: #2c2418; stroke-width: 0.8"/>
      </g>
     </g>
     <g id="text_4">
      <!-- 0.0 -->
      <g style="fill: #2c2418" transform="translate(201.297422 231.15726) scale(0.1 -0.1)">
       <use xlink:href="#Georgia-30"/>
       <use xlink:href="#Georgia-2e" transform="translate(61.376953 0)"/>
       <use xlink:href="#Georgia-30" transform="translate(88.330078 0)"/>
      </g>
     </g>
    </g>
    <g id="xtick_5">
     <g id="line2d_5">
      <g>
       <use xlink:href="#m62db1bbb28" x="267.772941" y="216.597885" style="fill: #2c2418; stroke: #2c2418; stroke-width: 0.8"/>
      </g>
     </g>
     <g id="text_5">
      <!-- 0.2 -->
      <g style="fill: #2c2418" transform="translate(260.563566 231.15726) scale(0.1 -0.1)">
       <use xlink:href="#Georgia-30"/>
       <use xlink:href="#Georgia-2e" transform="translate(61.376953 0)"/>
       <use xlink:href="#Georgia-32" transform="translate(88.330078 0)"/>
      </g>
     </g>
    </g>
    <g id="xtick_6">
     <g id="line2d_6">
      <g>
       <use xlink:href="#m62db1bbb28" x="326.763304" y="216.597885" style="fill: #2c2418; stroke: #2c2418; stroke-width: 0.8"/>
      </g>
     </g>
     <g id="text_6">
      <!-- 0.4 -->
      <g style="fill: #2c2418" transform="translate(319.521897 231.15726) scale(0.1 -0.1)">
       <use xlink:href="#Georgia-30"/>
       <use xlink:href="#Georgia-2e" transform="translate(61.376953 0)"/>
       <use xlink:href="#Georgia-34" transform="translate(88.330078 0)"/>
      </g>
     </g>
    </g>
    <g id="xtick_7">
     <g id="line2d_7">
      <g>
       <use xlink:href="#m62db1bbb28" x="385.753666" y="216.597885" style="fill: #2c2418; stroke: #2c2418; stroke-width: 0.8"/>
      </g>
     </g>
     <g id="text_7">
      <!-- 0.6 -->
      <g style="fill: #2c2418" transform="translate(378.507572 231.15726) scale(0.1 -0.1)">
       <use xlink:href="#Georgia-30"/>
       <use xlink:href="#Georgia-2e" transform="translate(61.376953 0)"/>
       <use xlink:href="#Georgia-36" transform="translate(88.330078 0)"/>
      </g>
     </g>
    </g>
    <g id="text_8">
     <!-- $x$ -->
     <g style="fill: #2c2418" transform="translate(205.182578 246.39726) scale(0.12 -0.12)">
      <defs>
       <path id="DejaVuSans-Oblique-78" d="M 3841 3500 
L 2234 1784 
L 3219 0 
L 2559 0 
L 1819 1388 
L 531 0 
L -166 0 
L 1556 1844 
L 641 3500 
L 1300 3500 
L 1972 2234 
L 3144 3500 
L 3841 3500 
z
" transform="scale(0.015625)"/>
      </defs>
      <use xlink:href="#DejaVuSans-Oblique-78" transform="translate(0 0.3125)"/>
     </g>
    </g>
   </g>
   <g id="matplotlib.axis_2">
    <g id="ytick_1">
     <g id="line2d_8">
      <defs>
       <path id="mb373e15d83" d="M 0 0 
L -3.5 0 
" style="stroke: #2c2418; stroke-width: 0.8"/>
      </defs>
      <g>
       <use xlink:href="#mb373e15d83" x="31.81149" y="216.597885" style="fill: #2c2418; stroke: #2c2418; stroke-width: 0.8"/>
      </g>
     </g>
     <g id="text_9">
      <!-- 0 -->
      <g style="fill: #2c2418" transform="translate(18.67399 220.377572) scale(0.1 -0.1)">
       <use xlink:href="#Georgia-30"/>
      </g>
     </g>
    </g>
    <g id="ytick_2">
     <g id="line2d_9">
      <g>
       <use xlink:href="#mb373e15d83" x="31.81149" y="171.526373" style="fill: #2c2418; stroke: #2c2418; stroke-width: 0.8"/>
      </g>
     </g>
     <g id="text_10">
      <!-- 2 -->
      <g style="fill: #2c2418" transform="translate(19.225552 175.306061) scale(0.1 -0.1)">
       <use xlink:href="#Georgia-32"/>
      </g>
     </g>
    </g>
    <g id="ytick_3">
     <g id="line2d_10">
      <g>
       <use xlink:href="#mb373e15d83" x="31.81149" y="126.454861" style="fill: #2c2418; stroke: #2c2418; stroke-width: 0.8"/>
      </g>
     </g>
     <g id="text_11">
      <!-- 4 -->
      <g style="fill: #2c2418" transform="translate(19.16149 130.234549) scale(0.1 -0.1)">
       <use xlink:href="#Georgia-34"/>
      </g>
     </g>
    </g>
    <g id="ytick_4">
     <g id="line2d_11">
      <g>
       <use xlink:href="#mb373e15d83" x="31.81149" y="81.383349" style="fill: #2c2418; stroke: #2c2418; stroke-width: 0.8"/>
      </g>
     </g>
     <g id="text_12">
      <!-- 6 -->
      <g style="fill: #2c2418" transform="translate(19.152115 85.163037) scale(0.1 -0.1)">
       <use xlink:href="#Georgia-36"/>
      </g>
     </g>
    </g>
    <g id="ytick_5">
     <g id="line2d_12">
      <g>
       <use xlink:href="#mb373e15d83" x="31.81149" y="36.311837" style="fill: #2c2418; stroke: #2c2418; stroke-width: 0.8"/>
      </g>
     </g>
     <g id="text_13">
      <!-- 8 -->
      <g style="fill: #2c2418" transform="translate(18.84899 40.091525) scale(0.1 -0.1)">
       <defs>
        <path id="Georgia-38" d="M 3491 1175 
Q 3491 650 3037 272 
Q 2584 -106 1847 -106 
Q 1156 -106 740 241 
Q 325 588 325 1134 
Q 325 1538 570 1808 
Q 816 2078 1297 2266 
Q 900 2488 703 2753 
Q 506 3019 506 3353 
Q 506 3863 939 4206 
Q 1372 4550 1975 4550 
Q 2578 4550 2951 4225 
Q 3325 3900 3325 3409 
Q 3325 3094 3119 2811 
Q 2913 2528 2513 2347 
Q 3031 2125 3261 1856 
Q 3491 1588 3491 1175 
z
M 2734 3444 
Q 2734 3825 2507 4064 
Q 2281 4303 1928 4303 
Q 1575 4303 1350 4073 
Q 1125 3844 1125 3503 
Q 1125 3175 1381 2947 
Q 1638 2719 2294 2459 
Q 2528 2609 2631 2856 
Q 2734 3103 2734 3444 
z
M 2866 1028 
Q 2866 1225 2781 1373 
Q 2697 1522 2538 1644 
Q 2384 1763 2111 1892 
Q 1838 2022 1519 2156 
Q 1219 1994 1078 1742 
Q 938 1491 938 1169 
Q 938 709 1208 426 
Q 1478 144 1928 144 
Q 2359 144 2612 394 
Q 2866 644 2866 1028 
z
" transform="scale(0.015625)"/>
       </defs>
       <use xlink:href="#Georgia-38"/>
      </g>
     </g>
    </g>
    <g id="text_14">
     <!-- Density -->
     <g style="fill: #2c2418" transform="translate(12.07149 130.11375) rotate(-90) scale(0.12 -0.12)">
      <defs>
       <path id="Georgia-44" d="M 4553 2191 
Q 4553 1625 4340 1209 
Q 4128 794 3788 528 
Q 3444 263 3016 131 
Q 2588 0 2131 0 
L 294 0 
L 294 222 
Q 384 222 529 239 
Q 675 256 722 278 
Q 816 319 858 398 
Q 900 478 900 591 
L 900 3791 
Q 900 3897 864 3981 
Q 828 4066 722 4116 
Q 625 4163 512 4184 
Q 400 4206 319 4213 
L 319 4434 
L 2256 4434 
Q 2656 4434 3043 4311 
Q 3431 4188 3719 3978 
Q 4109 3700 4331 3250 
Q 4553 2800 4553 2191 
z
M 3788 2194 
Q 3788 2641 3669 3002 
Q 3550 3363 3322 3631 
Q 3106 3888 2792 4034 
Q 2478 4181 2094 4181 
Q 1966 4181 1805 4176 
Q 1644 4172 1566 4169 
L 1566 759 
Q 1566 475 1731 365 
Q 1897 256 2241 256 
Q 2638 256 2934 397 
Q 3231 538 3416 788 
Q 3609 1050 3698 1395 
Q 3788 1741 3788 2194 
z
" transform="scale(0.015625)"/>
       <path id="Georgia-65" d="M 2963 725 
Q 2769 356 2444 137 
Q 2119 -81 1697 -81 
Q 1325 -81 1045 50 
Q 766 181 584 406 
Q 403 631 314 931 
Q 225 1231 225 1566 
Q 225 1866 320 2155 
Q 416 2444 600 2675 
Q 778 2897 1042 3033 
Q 1306 3169 1634 3169 
Q 1972 3169 2212 3062 
Q 2453 2956 2603 2772 
Q 2747 2597 2817 2359 
Q 2888 2122 2888 1844 
L 2888 1638 
L 847 1638 
Q 847 1334 905 1087 
Q 963 841 1088 653 
Q 1209 472 1406 367 
Q 1603 263 1875 263 
Q 2153 263 2354 392 
Q 2556 522 2744 859 
L 2963 725 
z
M 2272 1900 
Q 2272 2075 2242 2275 
Q 2213 2475 2147 2609 
Q 2075 2753 1950 2843 
Q 1825 2934 1628 2934 
Q 1300 2934 1083 2661 
Q 866 2388 847 1900 
L 2272 1900 
z
" transform="scale(0.015625)"/>
       <path id="Georgia-6e" d="M 3628 0 
L 2119 0 
L 2119 206 
Q 2191 213 2277 219 
Q 2363 225 2419 244 
Q 2506 272 2548 342 
Q 2591 413 2591 525 
L 2591 2109 
Q 2591 2438 2436 2616 
Q 2281 2794 2059 2794 
Q 1894 2794 1756 2742 
Q 1619 2691 1513 2616 
Q 1409 2544 1348 2461 
Q 1288 2378 1259 2328 
L 1259 556 
Q 1259 450 1303 381 
Q 1347 313 1434 275 
Q 1500 244 1576 228 
Q 1653 213 1734 206 
L 1734 0 
L 225 0 
L 225 206 
Q 297 213 373 219 
Q 450 225 506 244 
Q 594 272 636 342 
Q 678 413 678 525 
L 678 2428 
Q 678 2534 633 2623 
Q 588 2713 506 2769 
Q 447 2806 365 2823 
Q 284 2841 191 2847 
L 191 3050 
L 1216 3119 
L 1259 3075 
L 1259 2641 
L 1275 2641 
Q 1350 2716 1462 2820 
Q 1575 2925 1675 2991 
Q 1791 3066 1950 3116 
Q 2109 3166 2309 3166 
Q 2753 3166 2967 2889 
Q 3181 2613 3181 2153 
L 3181 550 
Q 3181 441 3218 373 
Q 3256 306 3347 269 
Q 3422 238 3476 225 
Q 3531 213 3628 206 
L 3628 0 
z
" transform="scale(0.015625)"/>
       <path id="Georgia-73" d="M 2259 1509 
Q 2388 1397 2456 1250 
Q 2525 1103 2525 891 
Q 2525 463 2204 191 
Q 1884 -81 1375 -81 
Q 1106 -81 879 16 
Q 653 113 556 194 
L 494 -9 
L 259 -9 
L 228 1063 
L 444 1063 
Q 469 941 550 778 
Q 631 616 747 484 
Q 869 347 1039 253 
Q 1209 159 1422 159 
Q 1722 159 1884 295 
Q 2047 431 2047 684 
Q 2047 816 1995 911 
Q 1944 1006 1844 1078 
Q 1741 1150 1591 1208 
Q 1441 1266 1256 1322 
Q 1109 1366 929 1442 
Q 750 1519 622 1622 
Q 484 1731 396 1890 
Q 309 2050 309 2266 
Q 309 2644 590 2906 
Q 872 3169 1344 3169 
Q 1525 3169 1714 3122 
Q 1903 3075 2022 3009 
L 2094 3172 
L 2319 3172 
L 2366 2181 
L 2150 2181 
Q 2084 2513 1867 2720 
Q 1650 2928 1338 2928 
Q 1081 2928 934 2800 
Q 788 2672 788 2491 
Q 788 2350 836 2256 
Q 884 2163 981 2097 
Q 1075 2034 1217 1979 
Q 1359 1925 1569 1856 
Q 1775 1791 1958 1703 
Q 2141 1616 2259 1509 
z
" transform="scale(0.015625)"/>
       <path id="Georgia-69" d="M 1722 0 
L 231 0 
L 231 206 
Q 303 213 379 219 
Q 456 225 513 244 
Q 600 272 642 342 
Q 684 413 684 525 
L 684 2428 
Q 684 2528 639 2611 
Q 594 2694 513 2750 
Q 453 2788 340 2814 
Q 228 2841 134 2847 
L 134 3050 
L 1222 3119 
L 1266 3075 
L 1266 563 
Q 1266 453 1308 381 
Q 1350 309 1441 275 
Q 1509 247 1575 230 
Q 1641 213 1722 206 
L 1722 0 
z
M 1328 4334 
Q 1328 4156 1211 4023 
Q 1094 3891 922 3891 
Q 763 3891 645 4017 
Q 528 4144 528 4306 
Q 528 4478 645 4606 
Q 763 4734 922 4734 
Q 1100 4734 1214 4614 
Q 1328 4494 1328 4334 
z
" transform="scale(0.015625)"/>
       <path id="Georgia-74" d="M 2128 134 
Q 1925 50 1744 -8 
Q 1563 -66 1300 -66 
Q 913 -66 755 129 
Q 597 325 597 681 
L 597 2769 
L 41 2769 
L 41 3069 
L 609 3069 
L 609 4028 
L 1178 4028 
L 1178 3069 
L 2063 3069 
L 2063 2769 
L 1184 2769 
L 1184 1047 
Q 1184 853 1198 723 
Q 1213 594 1266 497 
Q 1316 406 1416 359 
Q 1516 313 1684 313 
Q 1763 313 1914 327 
Q 2066 341 2128 363 
L 2128 134 
z
" transform="scale(0.015625)"/>
       <path id="Georgia-79" d="M -9 -1006 
Q -9 -850 77 -751 
Q 163 -653 291 -653 
Q 391 -653 462 -690 
Q 534 -728 591 -788 
Q 638 -834 691 -915 
Q 744 -997 775 -1050 
Q 931 -966 1148 -609 
Q 1366 -253 1463 16 
Q 1166 756 925 1340 
Q 684 1925 422 2550 
Q 363 2694 222 2773 
Q 81 2853 -59 2875 
L -59 3081 
L 1347 3081 
L 1347 2863 
Q 1253 2859 1122 2823 
Q 991 2788 991 2741 
Q 991 2722 1005 2678 
Q 1019 2634 1038 2588 
Q 1156 2278 1400 1695 
Q 1644 1113 1778 763 
Q 1919 1097 2070 1455 
Q 2222 1813 2409 2300 
Q 2431 2359 2472 2464 
Q 2513 2569 2513 2644 
Q 2513 2725 2370 2795 
Q 2228 2866 2100 2881 
L 2100 3081 
L 3244 3081 
L 3244 2888 
Q 3150 2872 2997 2780 
Q 2844 2688 2769 2519 
Q 2397 1656 2108 947 
Q 1819 238 1669 -97 
Q 1472 -534 1317 -779 
Q 1163 -1025 1016 -1166 
Q 872 -1297 755 -1342 
Q 638 -1388 513 -1388 
Q 269 -1388 130 -1272 
Q -9 -1156 -9 -1006 
z
" transform="scale(0.015625)"/>
      </defs>
      <use xlink:href="#Georgia-44"/>
      <use xlink:href="#Georgia-65" transform="translate(74.902344 0)"/>
      <use xlink:href="#Georgia-6e" transform="translate(123.242188 0)"/>
      <use xlink:href="#Georgia-73" transform="translate(182.324219 0)"/>
      <use xlink:href="#Georgia-69" transform="translate(225.537109 0)"/>
      <use xlink:href="#Georgia-74" transform="translate(254.833984 0)"/>
      <use xlink:href="#Georgia-79" transform="translate(289.355469 0)"/>
     </g>
    </g>
   </g>
   <g id="line2d_13">
    <path d="M 31.81149 209.076078 
L 58.016313 205.831452 
L 96.969429 201.022965 
L 116.268928 198.879246 
L 132.735472 197.269915 
L 147.78554 196.019293 
L 161.950309 195.062685 
L 175.5839 194.363288 
L 188.863371 193.903988 
L 201.965783 193.673793 
L 214.891135 193.667759 
L 227.993547 193.885828 
L 241.095958 194.325736 
L 254.552489 195.000176 
L 268.540199 195.926707 
L 283.236147 197.126907 
L 298.994453 198.640767 
L 316.700415 200.571723 
L 338.478748 203.183206 
L 385.753666 209.076078 
L 385.753666 209.076078 
" clip-path="url(#p1eca4bc9e4)" style="fill: none; stroke: #d4a843; stroke-width: 1.8; stroke-linecap: square"/>
   </g>
   <g id="line2d_14">
    <path d="M 31.81149 216.521048 
L 48.278034 216.29263 
L 59.255731 215.929105 
L 68.108712 215.421007 
L 75.722275 214.765392 
L 82.450541 213.969504 
L 88.647627 213.019787 
L 94.490595 211.905281 
L 100.156503 210.598823 
L 105.645351 209.104517 
L 111.134199 207.373977 
L 116.623047 205.40231 
L 122.111895 203.191963 
L 127.777803 200.671474 
L 133.97489 197.662957 
L 140.880215 194.053279 
L 149.910255 189.059207 
L 166.19974 180.011627 
L 172.573886 176.756282 
L 177.885675 174.284377 
L 182.666284 172.298717 
L 187.092775 170.697599 
L 191.165146 169.450826 
L 195.060458 168.478884 
L 198.955769 167.736314 
L 202.674021 167.251007 
L 206.392273 166.990346 
L 210.110525 166.957673 
L 213.828777 167.153409 
L 217.547029 167.575041 
L 221.265281 168.217174 
L 225.160593 169.117449 
L 229.232964 170.294213 
L 233.482395 171.76003 
L 237.908885 173.520189 
L 242.866555 175.737398 
L 248.355403 178.441021 
L 255.083668 182.016816 
L 265.530186 187.861253 
L 277.39318 194.433884 
L 284.652624 198.195764 
L 290.849711 201.161691 
L 296.692678 203.711518 
L 302.181527 205.868602 
L 307.670375 207.785755 
L 313.159223 209.462284 
L 318.648071 210.90458 
L 324.313979 212.160722 
L 330.156946 213.227947 
L 336.354033 214.133381 
L 343.082298 214.888441 
L 350.518802 215.494932 
L 359.017664 215.960259 
L 369.287122 216.29263 
L 382.920712 216.498556 
L 385.753666 216.521048 
L 385.753666 216.521048 
" clip-path="url(#p1eca4bc9e4)" style="fill: none; stroke: #8b9a6b; stroke-width: 1.8; stroke-linecap: square"/>
   </g>
   <g id="line2d_15">
    <path d="M 31.81149 216.597885 
L 113.967153 216.487183 
L 122.111895 216.240045 
L 127.600743 215.862522 
L 131.850174 215.360864 
L 135.568426 214.698386 
L 138.755499 213.906315 
L 141.588453 212.981814 
L 144.244347 211.886709 
L 146.723182 210.630688 
L 149.202017 209.115714 
L 151.503792 207.448718 
L 153.805567 205.505362 
L 156.107342 203.262446 
L 158.409117 200.699826 
L 160.710892 197.801657 
L 163.012667 194.557689 
L 165.491502 190.673761 
L 168.147396 186.070602 
L 170.98035 180.683513 
L 173.990363 174.477253 
L 177.708615 166.262309 
L 183.551583 152.701657 
L 188.686311 140.996584 
L 191.873385 134.283947 
L 194.352219 129.545487 
L 196.476935 125.911653 
L 198.42459 122.985333 
L 200.195187 120.699545 
L 201.788723 118.97235 
L 203.38226 117.576618 
L 204.798737 116.626233 
L 206.215214 115.957443 
L 207.454631 115.607752 
L 208.694048 115.480295 
L 209.933466 115.575902 
L 211.172883 115.893951 
L 212.4123 116.432374 
L 213.828777 117.313021 
L 215.245254 118.469478 
L 216.838791 120.088034 
L 218.432327 122.026363 
L 220.202923 124.530558 
L 222.150579 127.674629 
L 224.452354 131.853598 
L 227.108249 137.193308 
L 230.295322 144.146253 
L 235.075931 155.184146 
L 241.627137 170.237787 
L 245.16833 177.820131 
L 248.178343 183.77196 
L 251.011297 188.886435 
L 253.667191 193.216965 
L 256.146026 196.840647 
L 258.624861 200.061273 
L 260.926636 202.700104 
L 263.228411 205.015145 
L 265.530186 207.025663 
L 267.831961 208.754258 
L 270.310795 210.328962 
L 272.78963 211.63773 
L 275.445524 212.781735 
L 278.278478 213.750153 
L 281.288492 214.542315 
L 284.652624 215.196143 
L 288.547936 215.720171 
L 293.151486 216.110581 
L 299.171513 216.385105 
L 308.024494 216.542473 
L 326.615754 216.595957 
L 385.753666 216.597885 
L 385.753666 216.597885 
" clip-path="url(#p1eca4bc9e4)" style="fill: none; stroke: #c97a50; stroke-width: 1.8; stroke-linecap: square"/>
   </g>
   <g id="line2d_16">
    <path d="M 31.81149 216.597885 
L 158.409117 216.489245 
L 162.481488 216.243069 
L 165.137382 215.872218 
L 167.262098 215.351843 
L 169.032694 214.684111 
L 170.62623 213.828279 
L 172.042707 212.80114 
L 173.282125 211.644546 
L 174.521542 210.196006 
L 175.760959 208.400943 
L 177.000377 206.200048 
L 178.239794 203.530396 
L 179.479211 200.327042 
L 180.718629 196.525124 
L 181.958046 192.062483 
L 183.374523 186.081363 
L 184.791 179.095086 
L 186.384536 169.97838 
L 187.978073 159.514937 
L 189.748669 146.365884 
L 191.873385 128.711124 
L 194.529279 104.558491 
L 199.664008 57.343698 
L 201.434604 43.152852 
L 202.851081 33.336042 
L 204.090498 26.136867 
L 205.152856 21.145759 
L 206.038154 17.892045 
L 206.923452 15.50864 
L 207.631691 14.250615 
L 208.162869 13.693115 
L 208.694048 13.469687 
L 209.048168 13.506942 
L 209.579346 13.841931 
L 210.110525 14.51026 
L 210.641704 15.50864 
L 211.349943 17.344538 
L 212.235241 20.427328 
L 213.120539 24.3464 
L 214.182896 30.079255 
L 215.422314 38.049795 
L 216.838791 48.604728 
L 218.609387 63.479957 
L 221.265281 87.880202 
L 225.868831 130.250212 
L 227.993547 147.749228 
L 229.941202 161.955329 
L 231.711799 173.167207 
L 233.305335 181.836222 
L 234.721812 188.438805 
L 236.138289 194.059736 
L 237.554766 198.77466 
L 238.971243 202.67247 
L 240.21066 205.487941 
L 241.450078 207.816223 
L 242.689495 209.721003 
L 243.928912 211.262758 
L 245.345389 212.651862 
L 246.761866 213.714949 
L 248.178343 214.517463 
L 249.77188 215.177762 
L 251.719535 215.726199 
L 254.021311 216.122983 
L 257.031324 216.393772 
L 261.457814 216.544779 
L 271.196093 216.596129 
L 385.753666 216.597885 
L 385.753666 216.597885 
" clip-path="url(#p1eca4bc9e4)" style="fill: none; stroke: #4878d0; stroke-width: 1.8; stroke-linecap: square"/>
   </g>
   <g id="line2d_17">
    <path d="M 31.81149 216.597885 
L 158.232057 216.487544 
L 162.304428 216.244935 
L 164.960323 215.883046 
L 167.085038 215.377709 
L 168.855634 214.730987 
L 170.449171 213.903264 
L 171.865648 212.910509 
L 173.105065 211.79278 
L 174.344482 210.392595 
L 175.5839 208.656525 
L 176.823317 206.526217 
L 178.062734 203.939405 
L 179.302152 200.831382 
L 180.541569 197.136987 
L 181.780986 192.793113 
L 183.197463 186.959291 
L 184.61394 180.128965 
L 186.030417 172.251326 
L 187.623954 162.111978 
L 189.39455 149.29523 
L 191.342206 133.478929 
L 193.82104 111.317934 
L 200.372246 51.393585 
L 201.965783 39.16612 
L 203.38226 29.89671 
L 204.621677 23.271343 
L 205.684035 18.833819 
L 206.569333 16.07817 
L 207.277571 14.518269 
L 207.80875 13.733774 
L 208.339929 13.284124 
L 208.871108 13.171556 
L 209.402287 13.39663 
L 209.933466 13.958226 
L 210.464644 14.853552 
L 211.172883 16.558552 
L 211.881121 18.833819 
L 212.76642 22.449199 
L 213.828777 27.853223 
L 215.068195 35.494853 
L 216.484672 45.751862 
L 218.255268 60.37589 
L 220.734102 82.977509 
L 226.045891 131.962349 
L 228.170606 149.29523 
L 229.941202 162.111978 
L 231.711799 173.29436 
L 233.305335 181.933193 
L 234.721812 188.508645 
L 236.138289 194.104006 
L 237.554766 198.796228 
L 238.971243 202.675032 
L 240.21066 205.477219 
L 241.450078 207.795365 
L 242.689495 209.692993 
L 243.928912 211.230281 
L 245.345389 212.617079 
L 246.761866 213.680234 
L 248.355403 214.569742 
L 249.948939 215.208978 
L 251.896595 215.741055 
L 254.19837 216.127477 
L 257.208384 216.393008 
L 261.811934 216.546052 
L 271.904332 216.596239 
L 385.753666 216.597885 
L 385.753666 216.597885 
" clip-path="url(#p1eca4bc9e4)" style="fill: none; stroke-dasharray: 5.55,2.4; stroke-dashoffset: 0; stroke: #888888; stroke-width: 1.5"/>
   </g>
   <g id="patch_3">
    <path d="M 31.81149 216.597885 
L 31.81149 3.00024 
" style="fill: none; stroke: #2c2418; stroke-width: 0.8; stroke-linejoin: miter; stroke-linecap: square"/>
   </g>
   <g id="patch_4">
    <path d="M 31.81149 216.597885 
L 385.753666 216.597885 
" style="fill: none; stroke: #2c2418; stroke-width: 0.8; stroke-linejoin: miter; stroke-linecap: square"/>
   </g>
   <g id="legend_1">
    <g id="patch_5">
     <path d="M 287.353666 84.640865 
L 378.753666 84.640865 
Q 380.753666 84.640865 380.753666 82.640865 
L 380.753666 10.00024 
Q 380.753666 8.00024 378.753666 8.00024 
L 287.353666 8.00024 
Q 285.353666 8.00024 285.353666 10.00024 
L 285.353666 82.640865 
Q 285.353666 84.640865 287.353666 84.640865 
L 287.353666 84.640865 
z
" style="fill: none; opacity: 0"/>
    </g>
    <g id="line2d_18">
     <path d="M 289.353666 16.059615 
L 299.353666 16.059615 
L 309.353666 16.059615 
" style="fill: none; stroke: #d4a843; stroke-width: 1.8; stroke-linecap: square"/>
    </g>
    <g id="text_15">
     <!-- $d = 8$ -->
     <g style="fill: #2c2418" transform="translate(317.353666 19.559615) scale(0.1 -0.1)">
      <defs>
       <path id="DejaVuSans-Oblique-64" d="M 2675 525 
Q 2444 222 2128 65 
Q 1813 -91 1428 -91 
Q 903 -91 598 267 
Q 294 625 294 1247 
Q 294 1766 478 2236 
Q 663 2706 1013 3078 
Q 1244 3325 1534 3454 
Q 1825 3584 2144 3584 
Q 2481 3584 2739 3421 
Q 2997 3259 3138 2956 
L 3513 4863 
L 4091 4863 
L 3144 0 
L 2566 0 
L 2675 525 
z
M 891 1350 
Q 891 897 1095 644 
Q 1300 391 1663 391 
Q 1931 391 2161 520 
Q 2391 650 2566 903 
Q 2750 1166 2856 1509 
Q 2963 1853 2963 2188 
Q 2963 2622 2758 2865 
Q 2553 3109 2194 3109 
Q 1922 3109 1687 2981 
Q 1453 2853 1288 2613 
Q 1106 2353 998 2009 
Q 891 1666 891 1350 
z
" transform="scale(0.015625)"/>
       <path id="DejaVuSans-3d" d="M 678 2906 
L 4684 2906 
L 4684 2381 
L 678 2381 
L 678 2906 
z
M 678 1631 
L 4684 1631 
L 4684 1100 
L 678 1100 
L 678 1631 
z
" transform="scale(0.015625)"/>
       <path id="DejaVuSans-38" d="M 2034 2216 
Q 1584 2216 1326 1975 
Q 1069 1734 1069 1313 
Q 1069 891 1326 650 
Q 1584 409 2034 409 
Q 2484 409 2743 651 
Q 3003 894 3003 1313 
Q 3003 1734 2745 1975 
Q 2488 2216 2034 2216 
z
M 1403 2484 
Q 997 2584 770 2862 
Q 544 3141 544 3541 
Q 544 4100 942 4425 
Q 1341 4750 2034 4750 
Q 2731 4750 3128 4425 
Q 3525 4100 3525 3541 
Q 3525 3141 3298 2862 
Q 3072 2584 2669 2484 
Q 3125 2378 3379 2068 
Q 3634 1759 3634 1313 
Q 3634 634 3220 271 
Q 2806 -91 2034 -91 
Q 1263 -91 848 271 
Q 434 634 434 1313 
Q 434 1759 690 2068 
Q 947 2378 1403 2484 
z
M 1172 3481 
Q 1172 3119 1398 2916 
Q 1625 2713 2034 2713 
Q 2441 2713 2670 2916 
Q 2900 3119 2900 3481 
Q 2900 3844 2670 4047 
Q 2441 4250 2034 4250 
Q 1625 4250 1398 4047 
Q 1172 3844 1172 3481 
z
" transform="scale(0.015625)"/>
      </defs>
      <use xlink:href="#DejaVuSans-Oblique-64" transform="translate(0 0.015625)"/>
      <use xlink:href="#DejaVuSans-3d" transform="translate(82.958984 0.015625)"/>
      <use xlink:href="#DejaVuSans-38" transform="translate(186.230469 0.015625)"/>
     </g>
    </g>
    <g id="line2d_19">
     <path d="M 289.353666 30.78774 
L 299.353666 30.78774 
L 309.353666 30.78774 
" style="fill: none; stroke: #8b9a6b; stroke-width: 1.8; stroke-linecap: square"/>
    </g>
    <g id="text_16">
     <!-- $d = 32$ -->
     <g style="fill: #2c2418" transform="translate(317.353666 34.28774) scale(0.1 -0.1)">
      <defs>
       <path id="DejaVuSans-33" d="M 2597 2516 
Q 3050 2419 3304 2112 
Q 3559 1806 3559 1356 
Q 3559 666 3084 287 
Q 2609 -91 1734 -91 
Q 1441 -91 1130 -33 
Q 819 25 488 141 
L 488 750 
Q 750 597 1062 519 
Q 1375 441 1716 441 
Q 2309 441 2620 675 
Q 2931 909 2931 1356 
Q 2931 1769 2642 2001 
Q 2353 2234 1838 2234 
L 1294 2234 
L 1294 2753 
L 1863 2753 
Q 2328 2753 2575 2939 
Q 2822 3125 2822 3475 
Q 2822 3834 2567 4026 
Q 2313 4219 1838 4219 
Q 1578 4219 1281 4162 
Q 984 4106 628 3988 
L 628 4550 
Q 988 4650 1302 4700 
Q 1616 4750 1894 4750 
Q 2613 4750 3031 4423 
Q 3450 4097 3450 3541 
Q 3450 3153 3228 2886 
Q 3006 2619 2597 2516 
z
" transform="scale(0.015625)"/>
       <path id="DejaVuSans-32" d="M 1228 531 
L 3431 531 
L 3431 0 
L 469 0 
L 469 531 
Q 828 903 1448 1529 
Q 2069 2156 2228 2338 
Q 2531 2678 2651 2914 
Q 2772 3150 2772 3378 
Q 2772 3750 2511 3984 
Q 2250 4219 1831 4219 
Q 1534 4219 1204 4116 
Q 875 4013 500 3803 
L 500 4441 
Q 881 4594 1212 4672 
Q 1544 4750 1819 4750 
Q 2544 4750 2975 4387 
Q 3406 4025 3406 3419 
Q 3406 3131 3298 2873 
Q 3191 2616 2906 2266 
Q 2828 2175 2409 1742 
Q 1991 1309 1228 531 
z
" transform="scale(0.015625)"/>
      </defs>
      <use xlink:href="#DejaVuSans-Oblique-64" transform="translate(0 0.015625)"/>
      <use xlink:href="#DejaVuSans-3d" transform="translate(82.958984 0.015625)"/>
      <use xlink:href="#DejaVuSans-33" transform="translate(186.230469 0.015625)"/>
      <use xlink:href="#DejaVuSans-32" transform="translate(249.853516 0.015625)"/>
     </g>
    </g>
    <g id="line2d_20">
     <path d="M 289.353666 45.515865 
L 299.353666 45.515865 
L 309.353666 45.515865 
" style="fill: none; stroke: #c97a50; stroke-width: 1.8; stroke-linecap: square"/>
    </g>
    <g id="text_17">
     <!-- $d = 128$ -->
     <g style="fill: #2c2418" transform="translate(317.353666 49.015865) scale(0.1 -0.1)">
      <defs>
       <path id="DejaVuSans-31" d="M 794 531 
L 1825 531 
L 1825 4091 
L 703 3866 
L 703 4441 
L 1819 4666 
L 2450 4666 
L 2450 531 
L 3481 531 
L 3481 0 
L 794 0 
L 794 531 
z
" transform="scale(0.015625)"/>
      </defs>
      <use xlink:href="#DejaVuSans-Oblique-64" transform="translate(0 0.015625)"/>
      <use xlink:href="#DejaVuSans-3d" transform="translate(82.958984 0.015625)"/>
      <use xlink:href="#DejaVuSans-31" transform="translate(186.230469 0.015625)"/>
      <use xlink:href="#DejaVuSans-32" transform="translate(249.853516 0.015625)"/>
      <use xlink:href="#DejaVuSans-38" transform="translate(313.476562 0.015625)"/>
     </g>
    </g>
    <g id="line2d_21">
     <path d="M 289.353666 60.24399 
L 299.353666 60.24399 
L 309.353666 60.24399 
" style="fill: none; stroke: #4878d0; stroke-width: 1.8; stroke-linecap: square"/>
    </g>
    <g id="text_18">
     <!-- $d = 512$ -->
     <g style="fill: #2c2418" transform="translate(317.353666 63.74399) scale(0.1 -0.1)">
      <defs>
       <path id="DejaVuSans-35" d="M 691 4666 
L 3169 4666 
L 3169 4134 
L 1269 4134 
L 1269 2991 
Q 1406 3038 1543 3061 
Q 1681 3084 1819 3084 
Q 2600 3084 3056 2656 
Q 3513 2228 3513 1497 
Q 3513 744 3044 326 
Q 2575 -91 1722 -91 
Q 1428 -91 1123 -41 
Q 819 9 494 109 
L 494 744 
Q 775 591 1075 516 
Q 1375 441 1709 441 
Q 2250 441 2565 725 
Q 2881 1009 2881 1497 
Q 2881 1984 2565 2268 
Q 2250 2553 1709 2553 
Q 1456 2553 1204 2497 
Q 953 2441 691 2322 
L 691 4666 
z
" transform="scale(0.015625)"/>
      </defs>
      <use xlink:href="#DejaVuSans-Oblique-64" transform="translate(0 0.015625)"/>
      <use xlink:href="#DejaVuSans-3d" transform="translate(82.958984 0.015625)"/>
      <use xlink:href="#DejaVuSans-35" transform="translate(186.230469 0.015625)"/>
      <use xlink:href="#DejaVuSans-31" transform="translate(249.853516 0.015625)"/>
      <use xlink:href="#DejaVuSans-32" transform="translate(313.476562 0.015625)"/>
     </g>
    </g>
    <g id="line2d_22">
     <path d="M 289.353666 74.972115 
L 299.353666 74.972115 
L 309.353666 74.972115 
" style="fill: none; stroke-dasharray: 5.55,2.4; stroke-dashoffset: 0; stroke: #888888; stroke-width: 1.5"/>
    </g>
    <g id="text_19">
     <!-- $\mathcal{N}(0,\, 1/512)$ -->
     <g style="fill: #2c2418" transform="translate(317.353666 78.472115) scale(0.1 -0.1)">
      <defs>
       <path id="STIXNonUnicode-Italic-e23a" d="M 4294 800 
L 4301 800 
Q 5293 4070 5408 4378 
Q 5472 4538 5523 4614 
Q 5830 5088 6253 5088 
Q 6490 5088 6650 4931 
Q 6810 4774 6810 4550 
Q 6810 4378 6720 4272 
Q 6630 4166 6470 4166 
Q 6368 4166 6297 4224 
Q 6227 4282 6198 4349 
Q 6170 4416 6118 4473 
Q 6067 4531 6003 4531 
Q 5939 4531 5881 4508 
Q 5824 4486 5785 4457 
Q 5747 4429 5705 4371 
Q 5664 4314 5638 4275 
Q 5613 4237 5584 4163 
Q 5555 4090 5545 4058 
Q 5536 4026 5510 3952 
Q 5485 3878 5485 3866 
L 4262 -154 
L 4134 -154 
Q 3078 1280 2483 2893 
L 2470 2893 
Q 2406 2579 2358 2361 
Q 2310 2144 2214 1792 
Q 2118 1440 2028 1190 
Q 1939 941 1804 653 
Q 1670 365 1529 185 
Q 1389 6 1203 -115 
Q 1018 -237 813 -237 
Q 576 -237 416 -80 
Q 256 77 256 301 
Q 256 474 345 579 
Q 435 685 595 685 
Q 698 685 768 627 
Q 838 570 867 502 
Q 896 435 947 377 
Q 998 320 1062 320 
Q 1222 320 1369 480 
Q 1517 640 1638 928 
Q 1760 1216 1862 1542 
Q 1965 1869 2057 2288 
Q 2150 2707 2214 3033 
Q 2278 3360 2348 3741 
Q 2419 4122 2458 4294 
L 2630 4294 
Q 2682 4166 2874 3680 
Q 3066 3194 3142 3008 
Q 3219 2822 3392 2422 
Q 3565 2022 3683 1798 
Q 3802 1574 3968 1292 
Q 4134 1011 4294 800 
z
" transform="scale(0.015625)"/>
       <path id="DejaVuSans-28" d="M 1984 4856 
Q 1566 4138 1362 3434 
Q 1159 2731 1159 2009 
Q 1159 1288 1364 580 
Q 1569 -128 1984 -844 
L 1484 -844 
Q 1016 -109 783 600 
Q 550 1309 550 2009 
Q 550 2706 781 3412 
Q 1013 4119 1484 4856 
L 1984 4856 
z
" transform="scale(0.015625)"/>
       <path id="DejaVuSans-30" d="M 2034 4250 
Q 1547 4250 1301 3770 
Q 1056 3291 1056 2328 
Q 1056 1369 1301 889 
Q 1547 409 2034 409 
Q 2525 409 2770 889 
Q 3016 1369 3016 2328 
Q 3016 3291 2770 3770 
Q 2525 4250 2034 4250 
z
M 2034 4750 
Q 2819 4750 3233 4129 
Q 3647 3509 3647 2328 
Q 3647 1150 3233 529 
Q 2819 -91 2034 -91 
Q 1250 -91 836 529 
Q 422 1150 422 2328 
Q 422 3509 836 4129 
Q 1250 4750 2034 4750 
z
" transform="scale(0.015625)"/>
       <path id="DejaVuSans-2c" d="M 750 794 
L 1409 794 
L 1409 256 
L 897 -744 
L 494 -744 
L 750 256 
L 750 794 
z
" transform="scale(0.015625)"/>
       <path id="DejaVuSans-2f" d="M 1625 4666 
L 2156 4666 
L 531 -594 
L 0 -594 
L 1625 4666 
z
" transform="scale(0.015625)"/>
       <path id="DejaVuSans-29" d="M 513 4856 
L 1013 4856 
Q 1481 4119 1714 3412 
Q 1947 2706 1947 2009 
Q 1947 1309 1714 600 
Q 1481 -109 1013 -844 
L 513 -844 
Q 928 -128 1133 580 
Q 1338 1288 1338 2009 
Q 1338 2731 1133 3434 
Q 928 4138 513 4856 
z
" transform="scale(0.015625)"/>
      </defs>
      <use xlink:href="#STIXNonUnicode-Italic-e23a" transform="translate(0 0.5)"/>
      <use xlink:href="#DejaVuSans-28" transform="translate(95.699982 0.5)"/>
      <use xlink:href="#DejaVuSans-30" transform="translate(134.713654 0.5)"/>
      <use xlink:href="#DejaVuSans-2c" transform="translate(198.3367 0.5)"/>
      <use xlink:href="#DejaVuSans-31" transform="translate(265.841908 0.5)"/>
      <use xlink:href="#DejaVuSans-2f" transform="translate(329.464955 0.5)"/>
      <use xlink:href="#DejaVuSans-35" transform="translate(363.156361 0.5)"/>
      <use xlink:href="#DejaVuSans-31" transform="translate(426.779408 0.5)"/>
      <use xlink:href="#DejaVuSans-32" transform="translate(490.402455 0.5)"/>
      <use xlink:href="#DejaVuSans-29" transform="translate(554.025502 0.5)"/>
     </g>
    </g>
   </g>
  </g>
 </g>
 <defs>
  <clipPath id="p1eca4bc9e4">
   <rect x="31.81149" y="3.00024" width="353.942176" height="213.597645"/>
  </clipPath>
 </defs>
</svg>
