<?xml version="1.0" encoding="utf-8" standalone="no"?>
<!DOCTYPE svg PUBLIC "-//W3C//DTD SVG 1.1//EN"
  "http://www.w3.org/Graphics/SVG/1.1/DTD/svg11.dtd">
<svg xmlns:xlink="http://www.w3.org/1999/xlink" width="396pt" height="252pt" viewBox="0 0 396 252" xmlns="http://www.w3.org/2000/svg" version="1.1">
 <metadata>
  <rdf:RDF xmlns:dc="http://purl.org/dc/elements/1.1/" xmlns:cc="http://creativecommons.org/ns#" xmlns:rdf="http://www.w3.org/1999/02/22-rdf-syntax-ns#">
   <cc:Work>
    <dc:type rdf:resource="http://purl.org/dc/dcmitype/StillImage"/>
    <dc:date>2026-04-03T17:06:57.800906</dc:date>
    <dc:format>image/svg+xml</dc:format>
    <dc:creator>
     <cc:Agent>
      <dc:title>Matplotlib v3.10.3, https://matplotlib.org/</dc:title>
     </cc:Agent>
    </dc:creator>
   </cc:Work>
  </rdf:RDF>
 </metadata>
 <defs>
  <style type="text/css">*{stroke-linejoin: round; stroke-linecap: butt}</style>
 </defs>
 <g id="figure_1">
  <g id="patch_1">
   <path d="M 0 252 
L 396 252 
L 396 0 
L 0 0 
L 0 252 
z
" style="fill: none"/>
  </g>
  <g id="axes_1">
   <g id="patch_2">
    <path d="M 40.644302 216.597885 
L 385.29976 216.597885 
L 385.29976 3.00024 
L 40.644302 3.00024 
L 40.644302 216.597885 
z
" style="fill: none"/>
   </g>
   <g id="line2d_1">
    <path d="M 212.972031 216.597885 
L 212.972031 3.00024 
" clip-path="url(#p0982aef804)" style="fill: none; stroke-dasharray: 3.33,1.44; stroke-dashoffset: 0; stroke: #888888; stroke-width: 0.9"/>
   </g>
   <g id="matplotlib.axis_1">
    <g id="xtick_1">
     <g id="line2d_2">
      <defs>
       <path id="m620ba088d2" d="M 0 0 
L 0 3.5 
" style="stroke: #2c2418; stroke-width: 0.8"/>
      </defs>
      <g>
       <use xlink:href="#m620ba088d2" x="40.644302" y="216.597885" style="fill: #2c2418; stroke: #2c2418; stroke-width: 0.8"/>
      </g>
     </g>
     <g id="text_1">
      <!-- 0 -->
      <g style="fill: #2c2418" transform="translate(37.575552 231.15726) scale(0.1 -0.1)">
       <defs>
        <path id="Georgia-30" d="M 3209 2919 
Q 3409 2678 3507 2354 
Q 3606 2031 3606 1678 
Q 3606 1253 3484 917 
Q 3363 581 3150 359 
Q 2931 131 2631 15 
Q 2331 -100 1963 -100 
Q 1559 -100 1243 34 
Q 928 169 731 403 
Q 525 647 423 973 
Q 322 1300 322 1678 
Q 322 2050 420 2362 
Q 519 2675 728 2928 
Q 928 3172 1243 3312 
Q 1559 3453 1966 3453 
Q 2394 3453 2700 3309 
Q 3006 3166 3209 2919 
z
M 2916 1678 
Q 2916 2422 2661 2831 
Q 2406 3241 1969 3241 
Q 1525 3241 1269 2831 
Q 1013 2422 1013 1678 
Q 1013 972 1258 542 
Q 1503 113 1963 113 
Q 2422 113 2669 542 
Q 2916 972 2916 1678 
z
" transform="scale(0.015625)"/>
       </defs>
       <use xlink:href="#Georgia-30"/>
      </g>
     </g>
    </g>
    <g id="xtick_2">
     <g id="line2d_3">
      <g>
       <use xlink:href="#m620ba088d2" x="126.808167" y="216.597885" style="fill: #2c2418; stroke: #2c2418; stroke-width: 0.8"/>
      </g>
     </g>
     <g id="text_2">
      <!-- $\pi/8$ -->
      <g style="fill: #2c2418" transform="translate(119.158167 231.15726) scale(0.1 -0.1)">
       <defs>
        <path id="DejaVuSans-Oblique-3c0" d="M 584 3500 
L 3938 3500 
L 3825 2925 
L 3384 2925 
L 2966 775 
Q 2922 550 2981 450 
Q 3038 353 3209 353 
Q 3256 353 3325 363 
Q 3397 369 3419 372 
L 3338 -44 
Q 3222 -84 3103 -103 
Q 2981 -122 2866 -122 
Q 2491 -122 2388 81 
Q 2284 288 2391 838 
L 2797 2925 
L 1506 2925 
L 938 0 
L 350 0 
L 919 2925 
L 472 2925 
L 584 3500 
z
" transform="scale(0.015625)"/>
        <path id="DejaVuSans-2f" d="M 1625 4666 
L 2156 4666 
L 531 -594 
L 0 -594 
L 1625 4666 
z
" transform="scale(0.015625)"/>
        <path id="DejaVuSans-38" d="M 2034 2216 
Q 1584 2216 1326 1975 
Q 1069 1734 1069 1313 
Q 1069 891 1326 650 
Q 1584 409 2034 409 
Q 2484 409 2743 651 
Q 3003 894 3003 1313 
Q 3003 1734 2745 1975 
Q 2488 2216 2034 2216 
z
M 1403 2484 
Q 997 2584 770 2862 
Q 544 3141 544 3541 
Q 544 4100 942 4425 
Q 1341 4750 2034 4750 
Q 2731 4750 3128 4425 
Q 3525 4100 3525 3541 
Q 3525 3141 3298 2862 
Q 3072 2584 2669 2484 
Q 3125 2378 3379 2068 
Q 3634 1759 3634 1313 
Q 3634 634 3220 271 
Q 2806 -91 2034 -91 
Q 1263 -91 848 271 
Q 434 634 434 1313 
Q 434 1759 690 2068 
Q 947 2378 1403 2484 
z
M 1172 3481 
Q 1172 3119 1398 2916 
Q 1625 2713 2034 2713 
Q 2441 2713 2670 2916 
Q 2900 3119 2900 3481 
Q 2900 3844 2670 4047 
Q 2441 4250 2034 4250 
Q 1625 4250 1398 4047 
Q 1172 3844 1172 3481 
z
" transform="scale(0.015625)"/>
       </defs>
       <use xlink:href="#DejaVuSans-Oblique-3c0" transform="translate(0 0.78125)"/>
       <use xlink:href="#DejaVuSans-2f" transform="translate(60.205078 0.78125)"/>
       <use xlink:href="#DejaVuSans-38" transform="translate(88.896484 0.78125)"/>
      </g>
     </g>
    </g>
    <g id="xtick_3">
     <g id="line2d_4">
      <g>
       <use xlink:href="#m620ba088d2" x="212.972031" y="216.597885" style="fill: #2c2418; stroke: #2c2418; stroke-width: 0.8"/>
      </g>
     </g>
     <g id="text_3">
      <!-- $\pi/4$ -->
      <g style="fill: #2c2418" transform="translate(205.072031 231.15726) scale(0.1 -0.1)">
       <defs>
        <path id="DejaVuSans-34" d="M 2419 4116 
L 825 1625 
L 2419 1625 
L 2419 4116 
z
M 2253 4666 
L 3047 4666 
L 3047 1625 
L 3713 1625 
L 3713 1100 
L 3047 1100 
L 3047 0 
L 2419 0 
L 2419 1100 
L 313 1100 
L 313 1709 
L 2253 4666 
z
" transform="scale(0.015625)"/>
       </defs>
       <use xlink:href="#DejaVuSans-Oblique-3c0" transform="translate(0 0.09375)"/>
       <use xlink:href="#DejaVuSans-2f" transform="translate(60.205078 0.09375)"/>
       <use xlink:href="#DejaVuSans-34" transform="translate(93.896484 0.09375)"/>
      </g>
     </g>
    </g>
    <g id="xtick_4">
     <g id="line2d_5">
      <g>
       <use xlink:href="#m620ba088d2" x="299.135896" y="216.597885" style="fill: #2c2418; stroke: #2c2418; stroke-width: 0.8"/>
      </g>
     </g>
     <g id="text_4">
      <!-- $3\pi/8$ -->
      <g style="fill: #2c2418" transform="translate(288.285896 231.15726) scale(0.1 -0.1)">
       <defs>
        <path id="DejaVuSans-33" d="M 2597 2516 
Q 3050 2419 3304 2112 
Q 3559 1806 3559 1356 
Q 3559 666 3084 287 
Q 2609 -91 1734 -91 
Q 1441 -91 1130 -33 
Q 819 25 488 141 
L 488 750 
Q 750 597 1062 519 
Q 1375 441 1716 441 
Q 2309 441 2620 675 
Q 2931 909 2931 1356 
Q 2931 1769 2642 2001 
Q 2353 2234 1838 2234 
L 1294 2234 
L 1294 2753 
L 1863 2753 
Q 2328 2753 2575 2939 
Q 2822 3125 2822 3475 
Q 2822 3834 2567 4026 
Q 2313 4219 1838 4219 
Q 1578 4219 1281 4162 
Q 984 4106 628 3988 
L 628 4550 
Q 988 4650 1302 4700 
Q 1616 4750 1894 4750 
Q 2613 4750 3031 4423 
Q 3450 4097 3450 3541 
Q 3450 3153 3228 2886 
Q 3006 2619 2597 2516 
z
" transform="scale(0.015625)"/>
       </defs>
       <use xlink:href="#DejaVuSans-33" transform="translate(0 0.78125)"/>
       <use xlink:href="#DejaVuSans-Oblique-3c0" transform="translate(63.623047 0.78125)"/>
       <use xlink:href="#DejaVuSans-2f" transform="translate(123.828125 0.78125)"/>
       <use xlink:href="#DejaVuSans-38" transform="translate(152.519531 0.78125)"/>
      </g>
     </g>
    </g>
    <g id="xtick_5">
     <g id="line2d_6">
      <g>
       <use xlink:href="#m620ba088d2" x="385.29976" y="216.597885" style="fill: #2c2418; stroke: #2c2418; stroke-width: 0.8"/>
      </g>
     </g>
     <g id="text_5">
      <!-- $\pi/2$ -->
      <g style="fill: #2c2418" transform="translate(377.59976 231.15726) scale(0.1 -0.1)">
       <defs>
        <path id="DejaVuSans-32" d="M 1228 531 
L 3431 531 
L 3431 0 
L 469 0 
L 469 531 
Q 828 903 1448 1529 
Q 2069 2156 2228 2338 
Q 2531 2678 2651 2914 
Q 2772 3150 2772 3378 
Q 2772 3750 2511 3984 
Q 2250 4219 1831 4219 
Q 1534 4219 1204 4116 
Q 875 4013 500 3803 
L 500 4441 
Q 881 4594 1212 4672 
Q 1544 4750 1819 4750 
Q 2544 4750 2975 4387 
Q 3406 4025 3406 3419 
Q 3406 3131 3298 2873 
Q 3191 2616 2906 2266 
Q 2828 2175 2409 1742 
Q 1991 1309 1228 531 
z
" transform="scale(0.015625)"/>
       </defs>
       <use xlink:href="#DejaVuSans-Oblique-3c0" transform="translate(0 0.78125)"/>
       <use xlink:href="#DejaVuSans-2f" transform="translate(60.205078 0.78125)"/>
       <use xlink:href="#DejaVuSans-32" transform="translate(90.271484 0.78125)"/>
      </g>
     </g>
    </g>
    <g id="text_6">
     <!-- $\psi$ -->
     <g style="fill: #2c2418" transform="translate(209.012031 246.39726) scale(0.12 -0.12)">
      <defs>
       <path id="DejaVuSans-Oblique-3c8" d="M 1591 -78 
Q 891 38 616 341 
Q 278 713 425 1472 
L 819 3500 
L 1400 3500 
L 1009 1494 
Q 900 922 1119 684 
Q 1313 478 1691 434 
L 2284 3500 
L 2856 3500 
L 2263 438 
Q 2681 481 2928 688 
Q 3247 950 3353 1497 
L 3741 3500 
L 4322 3500 
L 3928 1475 
Q 3775 688 3300 344 
Q 2872 34 2163 -75 
L 1919 -1331 
L 1347 -1331 
L 1591 -78 
z
" transform="scale(0.015625)"/>
      </defs>
      <use xlink:href="#DejaVuSans-Oblique-3c8" transform="translate(0 0.3125)"/>
     </g>
    </g>
   </g>
   <g id="matplotlib.axis_2">
    <g id="ytick_1">
     <g id="line2d_7">
      <defs>
       <path id="m757a1d9daf" d="M 0 0 
L -3.5 0 
" style="stroke: #2c2418; stroke-width: 0.8"/>
      </defs>
      <g>
       <use xlink:href="#m757a1d9daf" x="40.644302" y="216.597885" style="fill: #2c2418; stroke: #2c2418; stroke-width: 0.8"/>
      </g>
     </g>
     <g id="text_7">
      <!-- 0.0 -->
      <g style="fill: #2c2418" transform="translate(18.67399 220.377572) scale(0.1 -0.1)">
       <defs>
        <path id="Georgia-2e" d="M 1297 359 
Q 1297 184 1170 60 
Q 1044 -63 869 -63 
Q 694 -63 567 60 
Q 441 184 441 359 
Q 441 534 567 661 
Q 694 788 869 788 
Q 1044 788 1170 661 
Q 1297 534 1297 359 
z
" transform="scale(0.015625)"/>
       </defs>
       <use xlink:href="#Georgia-30"/>
       <use xlink:href="#Georgia-2e" transform="translate(61.376953 0)"/>
       <use xlink:href="#Georgia-30" transform="translate(88.330078 0)"/>
      </g>
     </g>
    </g>
    <g id="ytick_2">
     <g id="line2d_8">
      <g>
       <use xlink:href="#m757a1d9daf" x="40.644302" y="184.226552" style="fill: #2c2418; stroke: #2c2418; stroke-width: 0.8"/>
      </g>
     </g>
     <g id="text_8">
      <!-- 0.5 -->
      <g style="fill: #2c2418" transform="translate(19.528677 188.00624) scale(0.1 -0.1)">
       <defs>
        <path id="Georgia-35" d="M 2634 1466 
Q 2841 1303 2977 1047 
Q 3113 791 3113 406 
Q 3113 -266 2653 -703 
Q 2194 -1141 1488 -1141 
Q 941 -1141 562 -881 
Q 184 -622 184 -278 
Q 184 -119 262 0 
Q 341 119 503 119 
Q 691 119 789 20 
Q 888 -78 888 -194 
Q 888 -294 853 -444 
Q 819 -594 800 -666 
Q 825 -688 881 -725 
Q 938 -763 1016 -797 
Q 1097 -831 1214 -857 
Q 1331 -884 1488 -884 
Q 1688 -884 1866 -803 
Q 2044 -722 2166 -563 
Q 2300 -388 2367 -164 
Q 2434 59 2434 403 
Q 2434 844 2189 1133 
Q 1944 1422 1544 1422 
Q 1294 1422 1076 1328 
Q 859 1234 688 1016 
L 478 1097 
L 744 3353 
L 2981 3353 
L 2981 2797 
L 997 2797 
L 834 1472 
Q 975 1572 1204 1670 
Q 1434 1769 1709 1769 
Q 1938 1769 2183 1698 
Q 2428 1628 2634 1466 
z
" transform="scale(0.015625)"/>
       </defs>
       <use xlink:href="#Georgia-30"/>
       <use xlink:href="#Georgia-2e" transform="translate(61.376953 0)"/>
       <use xlink:href="#Georgia-35" transform="translate(88.330078 0)"/>
      </g>
     </g>
    </g>
    <g id="ytick_3">
     <g id="line2d_9">
      <g>
       <use xlink:href="#m757a1d9daf" x="40.644302" y="151.85522" style="fill: #2c2418; stroke: #2c2418; stroke-width: 0.8"/>
      </g>
     </g>
     <g id="text_9">
      <!-- 1.0 -->
      <g style="fill: #2c2418" transform="translate(20.514615 155.634907) scale(0.1 -0.1)">
       <defs>
        <path id="Georgia-31" d="M 2528 0 
L 422 0 
L 422 222 
Q 516 228 714 248 
Q 913 269 988 291 
Q 1084 322 1136 392 
Q 1188 463 1188 603 
L 1188 2797 
L 409 2797 
L 409 3059 
L 581 3059 
Q 919 3059 1186 3184 
Q 1453 3309 1569 3453 
L 1828 3453 
Q 1819 3250 1809 2978 
Q 1800 2706 1800 2491 
L 1800 638 
Q 1800 528 1848 442 
Q 1897 356 1988 316 
Q 2069 281 2253 253 
Q 2438 225 2528 222 
L 2528 0 
z
" transform="scale(0.015625)"/>
       </defs>
       <use xlink:href="#Georgia-31"/>
       <use xlink:href="#Georgia-2e" transform="translate(42.96875 0)"/>
       <use xlink:href="#Georgia-30" transform="translate(69.921875 0)"/>
      </g>
     </g>
    </g>
    <g id="ytick_4">
     <g id="line2d_10">
      <g>
       <use xlink:href="#m757a1d9daf" x="40.644302" y="119.483887" style="fill: #2c2418; stroke: #2c2418; stroke-width: 0.8"/>
      </g>
     </g>
     <g id="text_10">
      <!-- 1.5 -->
      <g style="fill: #2c2418" transform="translate(21.369302 123.263575) scale(0.1 -0.1)">
       <use xlink:href="#Georgia-31"/>
       <use xlink:href="#Georgia-2e" transform="translate(42.96875 0)"/>
       <use xlink:href="#Georgia-35" transform="translate(69.921875 0)"/>
      </g>
     </g>
    </g>
    <g id="ytick_5">
     <g id="line2d_11">
      <g>
       <use xlink:href="#m757a1d9daf" x="40.644302" y="87.112555" style="fill: #2c2418; stroke: #2c2418; stroke-width: 0.8"/>
      </g>
     </g>
     <g id="text_11">
      <!-- 2.0 -->
      <g style="fill: #2c2418" transform="translate(19.225552 90.892242) scale(0.1 -0.1)">
       <defs>
        <path id="Georgia-32" d="M 3272 0 
L 344 0 
L 344 425 
Q 428 522 578 642 
Q 728 763 934 903 
Q 1059 988 1234 1088 
Q 1409 1188 1631 1306 
Q 1878 1438 2011 1538 
Q 2144 1638 2253 1784 
Q 2325 1881 2369 2026 
Q 2413 2172 2413 2441 
Q 2413 2831 2203 3014 
Q 1994 3197 1666 3197 
Q 1463 3197 1281 3117 
Q 1100 3038 1009 2897 
Q 1031 2797 1064 2659 
Q 1097 2522 1097 2391 
Q 1097 2272 998 2180 
Q 900 2088 706 2088 
Q 550 2088 465 2195 
Q 381 2303 381 2484 
Q 381 2653 475 2823 
Q 569 2994 744 3138 
Q 916 3278 1169 3365 
Q 1422 3453 1716 3453 
Q 2356 3453 2732 3167 
Q 3109 2881 3109 2403 
Q 3109 2175 3042 1987 
Q 2975 1800 2825 1656 
Q 2659 1497 2437 1383 
Q 2216 1269 1759 1066 
Q 1488 944 1253 811 
Q 1019 678 869 553 
L 3272 553 
L 3272 0 
z
" transform="scale(0.015625)"/>
       </defs>
       <use xlink:href="#Georgia-32"/>
       <use xlink:href="#Georgia-2e" transform="translate(55.859375 0)"/>
       <use xlink:href="#Georgia-30" transform="translate(82.8125 0)"/>
      </g>
     </g>
    </g>
    <g id="ytick_6">
     <g id="line2d_12">
      <g>
       <use xlink:href="#m757a1d9daf" x="40.644302" y="54.741222" style="fill: #2c2418; stroke: #2c2418; stroke-width: 0.8"/>
      </g>
     </g>
     <g id="text_12">
      <!-- 2.5 -->
      <g style="fill: #2c2418" transform="translate(20.08024 58.52091) scale(0.1 -0.1)">
       <use xlink:href="#Georgia-32"/>
       <use xlink:href="#Georgia-2e" transform="translate(55.859375 0)"/>
       <use xlink:href="#Georgia-35" transform="translate(82.8125 0)"/>
      </g>
     </g>
    </g>
    <g id="ytick_7">
     <g id="line2d_13">
      <g>
       <use xlink:href="#m757a1d9daf" x="40.644302" y="22.36989" style="fill: #2c2418; stroke: #2c2418; stroke-width: 0.8"/>
      </g>
     </g>
     <g id="text_13">
      <!-- 3.0 -->
      <g style="fill: #2c2418" transform="translate(19.294302 26.149577) scale(0.1 -0.1)">
       <defs>
        <path id="Georgia-33" d="M 1522 -1141 
Q 1228 -1141 984 -1067 
Q 741 -994 566 -869 
Q 391 -744 295 -581 
Q 200 -419 200 -247 
Q 200 -94 275 29 
Q 350 153 516 153 
Q 703 153 801 61 
Q 900 -31 900 -150 
Q 900 -250 867 -403 
Q 834 -556 816 -622 
Q 838 -650 895 -697 
Q 953 -744 1038 -781 
Q 1138 -828 1247 -856 
Q 1356 -884 1556 -884 
Q 1744 -884 1917 -821 
Q 2091 -759 2222 -622 
Q 2359 -478 2436 -286 
Q 2513 -94 2513 219 
Q 2513 388 2477 553 
Q 2441 719 2344 841 
Q 2247 963 2080 1030 
Q 1913 1097 1656 1097 
L 1247 1097 
L 1247 1456 
L 1519 1456 
Q 1950 1456 2140 1693 
Q 2331 1931 2331 2409 
Q 2331 2800 2147 2998 
Q 1963 3197 1625 3197 
Q 1463 3197 1358 3158 
Q 1253 3119 1188 3081 
Q 1109 3038 1059 2984 
Q 1009 2931 984 2906 
Q 1006 2806 1037 2661 
Q 1069 2516 1069 2384 
Q 1069 2269 970 2176 
Q 872 2084 681 2084 
Q 516 2084 439 2203 
Q 363 2322 363 2478 
Q 363 2641 453 2809 
Q 544 2978 722 3125 
Q 900 3272 1156 3362 
Q 1413 3453 1747 3453 
Q 2131 3453 2382 3339 
Q 2634 3225 2778 3063 
Q 2919 2903 2972 2728 
Q 3025 2553 3025 2428 
Q 3025 2272 2981 2114 
Q 2938 1956 2838 1822 
Q 2728 1675 2548 1554 
Q 2369 1434 2097 1359 
L 2097 1309 
Q 2272 1294 2470 1231 
Q 2669 1169 2828 1047 
Q 2994 919 3100 717 
Q 3206 516 3206 206 
Q 3206 -394 2725 -767 
Q 2244 -1141 1522 -1141 
z
" transform="scale(0.015625)"/>
       </defs>
       <use xlink:href="#Georgia-33"/>
       <use xlink:href="#Georgia-2e" transform="translate(55.175781 0)"/>
       <use xlink:href="#Georgia-30" transform="translate(82.128906 0)"/>
      </g>
     </g>
    </g>
    <g id="text_14">
     <!-- $f_\ell(\psi)$ -->
     <g style="fill: #2c2418" transform="translate(12.07149 122.459062) rotate(-90) scale(0.12 -0.12)">
      <defs>
       <path id="DejaVuSans-Oblique-66" d="M 3059 4863 
L 2969 4384 
L 2419 4384 
Q 2106 4384 1964 4261 
Q 1822 4138 1753 3809 
L 1691 3500 
L 2638 3500 
L 2553 3053 
L 1606 3053 
L 1013 0 
L 434 0 
L 1031 3053 
L 481 3053 
L 563 3500 
L 1113 3500 
L 1159 3744 
Q 1278 4363 1576 4613 
Q 1875 4863 2516 4863 
L 3059 4863 
z
" transform="scale(0.015625)"/>
       <path id="DejaVuSans-Oblique-2113" d="M 950 838 
Q 1078 213 1350 213 
Q 1531 213 1766 572 
L 2181 572 
Q 1994 253 1775 88 
Q 1538 -91 1319 -91 
Q 831 -91 634 344 
L 400 0 
L -88 0 
Q 250 459 500 888 
Q 469 1131 469 1397 
Q 469 1872 566 2347 
Q 931 4131 1256 4497 
Q 1481 4750 1866 4750 
Q 2256 4750 2256 4209 
Q 2253 3966 2197 3675 
Q 1972 2484 950 838 
z
M 947 1656 
Q 1531 2744 1709 3613 
Q 1803 4072 1803 4191 
Q 1803 4406 1725 4406 
Q 1384 4134 1081 2516 
Q 997 2063 947 1656 
z
" transform="scale(0.015625)"/>
       <path id="DejaVuSans-28" d="M 1984 4856 
Q 1566 4138 1362 3434 
Q 1159 2731 1159 2009 
Q 1159 1288 1364 580 
Q 1569 -128 1984 -844 
L 1484 -844 
Q 1016 -109 783 600 
Q 550 1309 550 2009 
Q 550 2706 781 3412 
Q 1013 4119 1484 4856 
L 1984 4856 
z
" transform="scale(0.015625)"/>
       <path id="DejaVuSans-29" d="M 513 4856 
L 1013 4856 
Q 1481 4119 1714 3412 
Q 1947 2706 1947 2009 
Q 1947 1309 1714 600 
Q 1481 -109 1013 -844 
L 513 -844 
Q 928 -128 1133 580 
Q 1338 1288 1338 2009 
Q 1338 2731 1133 3434 
Q 928 4138 513 4856 
z
" transform="scale(0.015625)"/>
      </defs>
      <use xlink:href="#DejaVuSans-Oblique-66" transform="translate(0 0.015625)"/>
      <use xlink:href="#DejaVuSans-Oblique-2113" transform="translate(35.205078 -16.390625) scale(0.7)"/>
      <use xlink:href="#DejaVuSans-28" transform="translate(66.855469 0.015625)"/>
      <use xlink:href="#DejaVuSans-Oblique-3c8" transform="translate(105.869141 0.015625)"/>
      <use xlink:href="#DejaVuSans-29" transform="translate(171.835938 0.015625)"/>
     </g>
    </g>
   </g>
   <g id="line2d_14">
    <path d="M 40.644305 216.597884 
L 65.644325 201.971722 
L 79.092612 194.369621 
L 90.299518 188.284667 
L 100.299526 183.102381 
L 109.609878 178.526639 
L 118.230575 174.533481 
L 126.506444 170.943987 
L 134.437485 167.747473 
L 142.023698 164.928516 
L 149.437497 162.412145 
L 156.506468 160.243032 
L 163.575439 158.307815 
L 170.471997 156.65289 
L 177.19614 155.267297 
L 183.920283 154.112031 
L 190.472013 153.212073 
L 197.023742 152.538114 
L 203.403058 152.101339 
L 209.782373 151.882582 
L 216.161689 151.882582 
L 222.541005 152.101339 
L 228.92032 152.538114 
L 235.47205 153.212073 
L 242.023779 154.112031 
L 248.575509 155.234777 
L 255.299652 156.614526 
L 262.023795 158.219541 
L 268.920353 160.093397 
L 275.989324 162.245689 
L 283.230709 164.6843 
L 290.644508 167.415116 
L 298.403135 170.513156 
L 306.50659 173.99461 
L 314.954873 177.871286 
L 323.920397 182.235825 
L 333.403164 187.10112 
L 343.920414 192.753167 
L 355.816975 199.40758 
L 370.47216 207.874137 
L 385.299758 216.597884 
L 385.299758 216.597884 
" clip-path="url(#p0982aef804)" style="fill: none; stroke: #d4a843; stroke-width: 1.8; stroke-linecap: square"/>
   </g>
   <g id="line2d_15">
    <path d="M 40.644305 216.597885 
L 52.023624 216.490093 
L 58.230526 216.202965 
L 63.402944 215.749376 
L 68.230534 215.102014 
L 72.713296 214.273949 
L 77.023645 213.246884 
L 81.161579 212.029715 
L 85.1271 210.637771 
L 89.09262 209.015872 
L 93.05814 207.158013 
L 97.023661 205.061384 
L 101.161595 202.61956 
L 105.29953 199.922604 
L 109.609878 196.850874 
L 114.09264 193.386842 
L 118.920231 189.372349 
L 124.092649 184.779687 
L 129.954722 179.268273 
L 137.023694 172.298149 
L 149.265083 159.840306 
L 158.575435 150.513896 
L 164.782337 144.599098 
L 170.127169 139.81039 
L 174.782345 135.931231 
L 179.092693 132.624377 
L 183.058214 129.854637 
L 186.85132 127.473219 
L 190.472013 125.462657 
L 193.920292 123.800385 
L 197.196156 122.460009 
L 200.472021 121.360758 
L 203.575472 120.547985 
L 206.678923 119.962296 
L 209.782373 119.606964 
L 212.885824 119.483977 
L 215.989275 119.594024 
L 219.092726 119.936488 
L 222.196177 120.509454 
L 225.299627 121.309718 
L 228.403078 122.332813 
L 231.678943 123.648172 
L 235.127222 125.285133 
L 238.5755 127.169903 
L 242.196193 129.401545 
L 245.9893 131.999089 
L 250.127234 135.111163 
L 254.609996 138.77644 
L 259.437586 143.01941 
L 264.954832 148.175608 
L 271.678976 154.783642 
L 282.541053 165.826772 
L 293.230717 176.583105 
L 299.782447 182.868147 
L 305.472107 188.024326 
L 310.644525 192.40976 
L 315.299701 196.075222 
L 319.782463 199.329316 
L 324.092811 202.187611 
L 328.230746 204.672363 
L 332.36868 206.898103 
L 336.506615 208.863749 
L 340.472135 210.505973 
L 344.610069 211.973864 
L 348.748004 213.200801 
L 352.885938 214.200403 
L 357.196287 215.018183 
L 361.851463 215.671109 
L 366.851467 216.142584 
L 372.541127 216.446162 
L 379.610098 216.584356 
L 385.299758 216.597885 
L 385.299758 216.597885 
" clip-path="url(#p0982aef804)" style="fill: none; stroke: #8b9a6b; stroke-width: 1.8; stroke-linecap: square"/>
   </g>
   <g id="line2d_16">
    <path d="M 40.644305 216.597885 
L 80.989165 216.48794 
L 89.09262 216.228926 
L 94.954694 215.82437 
L 99.782284 215.267813 
L 103.920218 214.566942 
L 107.540911 213.736779 
L 110.98919 212.717542 
L 114.09264 211.577135 
L 117.196091 210.195447 
L 120.127128 208.642969 
L 122.885751 206.94052 
L 125.644374 204.985014 
L 128.402997 202.759317 
L 131.16162 200.248351 
L 133.920243 197.439614 
L 136.678866 194.3237 
L 139.609903 190.670023 
L 142.540939 186.66107 
L 145.64439 182.033268 
L 148.920255 176.734097 
L 152.368534 170.722406 
L 156.16164 163.643724 
L 160.471988 155.096834 
L 165.644406 144.31812 
L 181.851316 110.147611 
L 185.644423 102.879444 
L 188.920288 97.06523 
L 191.851324 92.304075 
L 194.437533 88.49902 
L 196.851328 85.317756 
L 199.09271 82.708917 
L 201.161677 80.613673 
L 203.230644 78.833088 
L 205.127197 77.487451 
L 207.023751 76.423741 
L 208.74789 75.706457 
L 210.472029 75.230498 
L 212.196169 74.998095 
L 213.920308 75.010335 
L 215.644447 75.267162 
L 217.368587 75.767372 
L 219.092726 76.508623 
L 220.816865 77.487451 
L 222.713418 78.833088 
L 224.609972 80.453096 
L 226.678939 82.52262 
L 228.92032 85.104984 
L 231.334115 88.259563 
L 233.920324 92.038362 
L 236.678947 96.482146 
L 239.782398 101.930214 
L 243.230677 108.452152 
L 247.368611 116.781186 
L 253.058271 128.794158 
L 264.954832 154.040981 
L 269.610008 163.311416 
L 273.575529 170.722406 
L 277.196221 177.023273 
L 280.472086 182.300541 
L 283.575537 186.906687 
L 286.678988 191.118319 
L 289.610025 194.730224 
L 292.541062 197.989413 
L 295.472098 200.903569 
L 298.230721 203.341936 
L 300.989344 205.498582 
L 303.747967 207.389149 
L 306.679004 209.126007 
L 309.610041 210.605121 
L 312.713492 211.916878 
L 315.989357 213.049064 
L 319.437635 213.997227 
L 323.058328 214.764832 
L 327.196262 215.408202 
L 331.851438 215.899971 
L 337.368684 216.253952 
L 344.610069 216.48151 
L 355.989389 216.585226 
L 385.299758 216.597885 
L 385.299758 216.597885 
" clip-path="url(#p0982aef804)" style="fill: none; stroke: #c97a50; stroke-width: 1.8; stroke-linecap: square"/>
   </g>
   <g id="line2d_17">
    <path d="M 40.644305 216.597885 
L 112.023673 216.487684 
L 119.092644 216.2359 
L 123.920235 215.848676 
L 127.713341 215.327333 
L 130.989206 214.649279 
L 133.747829 213.858022 
L 136.334038 212.883975 
L 138.747833 211.727642 
L 140.989214 210.40045 
L 143.058181 208.924721 
L 145.127148 207.175743 
L 147.196116 205.120727 
L 149.265083 202.726516 
L 151.33405 199.960336 
L 153.403017 196.790651 
L 155.471984 193.188113 
L 157.540952 189.126594 
L 159.609919 184.584269 
L 161.8513 179.101951 
L 164.092681 173.023997 
L 166.506476 165.810724 
L 169.092685 157.329356 
L 171.851308 147.468345 
L 174.782345 136.158227 
L 178.230624 121.939548 
L 182.8858 101.701372 
L 190.989255 66.371952 
L 194.265119 53.20232 
L 196.851328 43.686245 
L 199.09271 36.239368 
L 201.161677 30.137133 
L 202.885816 25.68348 
L 204.609955 21.852469 
L 206.161681 18.969613 
L 207.540992 16.877049 
L 208.74789 15.420556 
L 209.954787 14.321531 
L 210.989271 13.668388 
L 212.023755 13.284575 
L 213.058238 13.171556 
L 213.920308 13.284575 
L 214.954791 13.668388 
L 215.989275 14.321531 
L 217.023759 15.241514 
L 218.230656 16.647358 
L 219.437554 18.404342 
L 220.816865 20.830635 
L 222.368591 24.074014 
L 223.920316 27.835174 
L 225.644455 32.583527 
L 227.541009 38.443276 
L 229.78239 46.134405 
L 232.368599 55.882964 
L 235.47205 68.54004 
L 239.609984 86.443541 
L 248.920336 127.012674 
L 252.368615 140.911688 
L 255.472066 152.49988 
L 258.230689 161.947913 
L 260.816898 170.017 
L 263.230693 176.835105 
L 265.472074 182.545612 
L 267.713455 187.666842 
L 269.954836 192.216697 
L 272.023803 195.93168 
L 274.092771 199.206935 
L 276.161738 202.071103 
L 278.230705 204.555266 
L 280.299672 206.691974 
L 282.368639 208.514362 
L 284.437607 210.055374 
L 286.678988 211.444471 
L 288.920369 212.579924 
L 291.334164 213.560747 
L 293.920373 214.379156 
L 296.85141 215.071899 
L 300.127275 215.617761 
L 304.092795 216.045013 
L 309.092799 216.345414 
L 316.16177 216.524844 
L 329.437643 216.593642 
L 385.299758 216.597885 
L 385.299758 216.597885 
" clip-path="url(#p0982aef804)" style="fill: none; stroke: #4878d0; stroke-width: 1.8; stroke-linecap: square"/>
   </g>
   <g id="patch_3">
    <path d="M 40.644302 216.597885 
L 40.644302 3.00024 
" style="fill: none; stroke: #2c2418; stroke-width: 0.8; stroke-linejoin: miter; stroke-linecap: square"/>
   </g>
   <g id="patch_4">
    <path d="M 40.644302 216.597885 
L 385.29976 216.597885 
" style="fill: none; stroke: #2c2418; stroke-width: 0.8; stroke-linejoin: miter; stroke-linecap: square"/>
   </g>
   <g id="legend_1">
    <g id="patch_5">
     <path d="M 323.49976 69.91274 
L 378.29976 69.91274 
Q 380.29976 69.91274 380.29976 67.91274 
L 380.29976 10.00024 
Q 380.29976 8.00024 378.29976 8.00024 
L 323.49976 8.00024 
Q 321.49976 8.00024 321.49976 10.00024 
L 321.49976 67.91274 
Q 321.49976 69.91274 323.49976 69.91274 
L 323.49976 69.91274 
z
" style="fill: none; opacity: 0"/>
    </g>
    <g id="line2d_18">
     <path d="M 325.49976 16.059615 
L 335.49976 16.059615 
L 345.49976 16.059615 
" style="fill: none; stroke: #d4a843; stroke-width: 1.8; stroke-linecap: square"/>
    </g>
    <g id="text_15">
     <!-- $\ell = 2$ -->
     <g style="fill: #2c2418" transform="translate(353.49976 19.559615) scale(0.1 -0.1)">
      <defs>
       <path id="DejaVuSans-3d" d="M 678 2906 
L 4684 2906 
L 4684 2381 
L 678 2381 
L 678 2906 
z
M 678 1631 
L 4684 1631 
L 4684 1100 
L 678 1100 
L 678 1631 
z
" transform="scale(0.015625)"/>
      </defs>
      <use xlink:href="#DejaVuSans-Oblique-2113" transform="translate(0 0.78125)"/>
      <use xlink:href="#DejaVuSans-3d" transform="translate(60.791016 0.78125)"/>
      <use xlink:href="#DejaVuSans-32" transform="translate(164.0625 0.78125)"/>
     </g>
    </g>
    <g id="line2d_19">
     <path d="M 325.49976 30.78774 
L 335.49976 30.78774 
L 345.49976 30.78774 
" style="fill: none; stroke: #8b9a6b; stroke-width: 1.8; stroke-linecap: square"/>
    </g>
    <g id="text_16">
     <!-- $\ell = 3$ -->
     <g style="fill: #2c2418" transform="translate(353.49976 34.28774) scale(0.1 -0.1)">
      <use xlink:href="#DejaVuSans-Oblique-2113" transform="translate(0 0.78125)"/>
      <use xlink:href="#DejaVuSans-3d" transform="translate(60.791016 0.78125)"/>
      <use xlink:href="#DejaVuSans-33" transform="translate(164.0625 0.78125)"/>
     </g>
    </g>
    <g id="line2d_20">
     <path d="M 325.49976 45.515865 
L 335.49976 45.515865 
L 345.49976 45.515865 
" style="fill: none; stroke: #c97a50; stroke-width: 1.8; stroke-linecap: square"/>
    </g>
    <g id="text_17">
     <!-- $\ell = 4$ -->
     <g style="fill: #2c2418" transform="translate(353.49976 49.015865) scale(0.1 -0.1)">
      <use xlink:href="#DejaVuSans-Oblique-2113" transform="translate(0 0.78125)"/>
      <use xlink:href="#DejaVuSans-3d" transform="translate(60.791016 0.78125)"/>
      <use xlink:href="#DejaVuSans-34" transform="translate(164.0625 0.78125)"/>
     </g>
    </g>
    <g id="line2d_21">
     <path d="M 325.49976 60.24399 
L 335.49976 60.24399 
L 345.49976 60.24399 
" style="fill: none; stroke: #4878d0; stroke-width: 1.8; stroke-linecap: square"/>
    </g>
    <g id="text_18">
     <!-- $\ell = 5$ -->
     <g style="fill: #2c2418" transform="translate(353.49976 63.74399) scale(0.1 -0.1)">
      <defs>
       <path id="DejaVuSans-35" d="M 691 4666 
L 3169 4666 
L 3169 4134 
L 1269 4134 
L 1269 2991 
Q 1406 3038 1543 3061 
Q 1681 3084 1819 3084 
Q 2600 3084 3056 2656 
Q 3513 2228 3513 1497 
Q 3513 744 3044 326 
Q 2575 -91 1722 -91 
Q 1428 -91 1123 -41 
Q 819 9 494 109 
L 494 744 
Q 775 591 1075 516 
Q 1375 441 1709 441 
Q 2250 441 2565 725 
Q 2881 1009 2881 1497 
Q 2881 1984 2565 2268 
Q 2250 2553 1709 2553 
Q 1456 2553 1204 2497 
Q 953 2441 691 2322 
L 691 4666 
z
" transform="scale(0.015625)"/>
      </defs>
      <use xlink:href="#DejaVuSans-Oblique-2113" transform="translate(0 0.78125)"/>
      <use xlink:href="#DejaVuSans-3d" transform="translate(60.791016 0.78125)"/>
      <use xlink:href="#DejaVuSans-35" transform="translate(164.0625 0.78125)"/>
     </g>
    </g>
   </g>
  </g>
 </g>
 <defs>
  <clipPath id="p0982aef804">
   <rect x="40.644302" y="3.00024" width="344.655458" height="213.597645"/>
  </clipPath>
 </defs>
</svg>
