<?xml version="1.0" encoding="utf-8" standalone="no"?>
<!DOCTYPE svg PUBLIC "-//W3C//DTD SVG 1.1//EN"
  "http://www.w3.org/Graphics/SVG/1.1/DTD/svg11.dtd">
<svg xmlns:xlink="http://www.w3.org/1999/xlink" width="851.309063pt" height="355.724062pt" viewBox="0 0 851.309063 355.724062" xmlns="http://www.w3.org/2000/svg" version="1.1">
 <metadata>
  <rdf:RDF xmlns:dc="http://purl.org/dc/elements/1.1/" xmlns:cc="http://creativecommons.org/ns#" xmlns:rdf="http://www.w3.org/1999/02/22-rdf-syntax-ns#">
   <cc:Work>
    <dc:type rdf:resource="http://purl.org/dc/dcmitype/StillImage"/>
    <dc:date>2026-04-02T17:14:04.506869</dc:date>
    <dc:format>image/svg+xml</dc:format>
    <dc:creator>
     <cc:Agent>
      <dc:title>Matplotlib v3.10.3, https://matplotlib.org/</dc:title>
     </cc:Agent>
    </dc:creator>
   </cc:Work>
  </rdf:RDF>
 </metadata>
 <defs>
  <style type="text/css">*{stroke-linejoin: round; stroke-linecap: butt}</style>
 </defs>
 <g id="figure_1">
  <g id="patch_1">
   <path d="M 0 355.724062 
L 851.309063 355.724062 
L 851.309063 0 
L 0 0 
z
" style="fill: #ffffff"/>
  </g>
  <g id="axes_1">
   <g id="patch_2">
    <path d="M 43.309063 318.64 
L 419.489062 318.64 
L 419.489062 88.8 
L 43.309063 88.8 
z
" style="fill: #ffffff"/>
   </g>
   <g id="matplotlib.axis_1">
    <g id="xtick_1">
     <g id="line2d_1">
      <path d="M 60.408153 318.64 
L 60.408153 88.8 
" clip-path="url(#paa17754ee6)" style="fill: none; stroke: #b0b0b0; stroke-opacity: 0.25; stroke-width: 0.6; stroke-linecap: square"/>
     </g>
     <g id="line2d_2">
      <defs>
       <path id="mc57bd41a6c" d="M 0 0 
L 0 3.5 
" style="stroke: #000000; stroke-width: 0.8"/>
      </defs>
      <g>
       <use xlink:href="#mc57bd41a6c" x="60.408153" y="318.64" style="stroke: #000000; stroke-width: 0.8"/>
      </g>
     </g>
     <g id="text_1">
      <!-- 1 -->
      <g transform="translate(57.226903 333.238437) scale(0.1 -0.1)">
       <defs>
        <path id="DejaVuSans-31" d="M 794 531 
L 1825 531 
L 1825 4091 
L 703 3866 
L 703 4441 
L 1819 4666 
L 2450 4666 
L 2450 531 
L 3481 531 
L 3481 0 
L 794 0 
L 794 531 
z
" transform="scale(0.015625)"/>
       </defs>
       <use xlink:href="#DejaVuSans-31"/>
      </g>
     </g>
    </g>
    <g id="xtick_2">
     <g id="line2d_3">
      <path d="M 117.405123 318.64 
L 117.405123 88.8 
" clip-path="url(#paa17754ee6)" style="fill: none; stroke: #b0b0b0; stroke-opacity: 0.25; stroke-width: 0.6; stroke-linecap: square"/>
     </g>
     <g id="line2d_4">
      <g>
       <use xlink:href="#mc57bd41a6c" x="117.405123" y="318.64" style="stroke: #000000; stroke-width: 0.8"/>
      </g>
     </g>
     <g id="text_2">
      <!-- 2 -->
      <g transform="translate(114.223873 333.238437) scale(0.1 -0.1)">
       <defs>
        <path id="DejaVuSans-32" d="M 1228 531 
L 3431 531 
L 3431 0 
L 469 0 
L 469 531 
Q 828 903 1448 1529 
Q 2069 2156 2228 2338 
Q 2531 2678 2651 2914 
Q 2772 3150 2772 3378 
Q 2772 3750 2511 3984 
Q 2250 4219 1831 4219 
Q 1534 4219 1204 4116 
Q 875 4013 500 3803 
L 500 4441 
Q 881 4594 1212 4672 
Q 1544 4750 1819 4750 
Q 2544 4750 2975 4387 
Q 3406 4025 3406 3419 
Q 3406 3131 3298 2873 
Q 3191 2616 2906 2266 
Q 2828 2175 2409 1742 
Q 1991 1309 1228 531 
z
" transform="scale(0.015625)"/>
       </defs>
       <use xlink:href="#DejaVuSans-32"/>
      </g>
     </g>
    </g>
    <g id="xtick_3">
     <g id="line2d_5">
      <path d="M 174.402093 318.64 
L 174.402093 88.8 
" clip-path="url(#paa17754ee6)" style="fill: none; stroke: #b0b0b0; stroke-opacity: 0.25; stroke-width: 0.6; stroke-linecap: square"/>
     </g>
     <g id="line2d_6">
      <g>
       <use xlink:href="#mc57bd41a6c" x="174.402093" y="318.64" style="stroke: #000000; stroke-width: 0.8"/>
      </g>
     </g>
     <g id="text_3">
      <!-- 4 -->
      <g transform="translate(171.220843 333.238437) scale(0.1 -0.1)">
       <defs>
        <path id="DejaVuSans-34" d="M 2419 4116 
L 825 1625 
L 2419 1625 
L 2419 4116 
z
M 2253 4666 
L 3047 4666 
L 3047 1625 
L 3713 1625 
L 3713 1100 
L 3047 1100 
L 3047 0 
L 2419 0 
L 2419 1100 
L 313 1100 
L 313 1709 
L 2253 4666 
z
" transform="scale(0.015625)"/>
       </defs>
       <use xlink:href="#DejaVuSans-34"/>
      </g>
     </g>
    </g>
    <g id="xtick_4">
     <g id="line2d_7">
      <path d="M 231.399062 318.64 
L 231.399062 88.8 
" clip-path="url(#paa17754ee6)" style="fill: none; stroke: #b0b0b0; stroke-opacity: 0.25; stroke-width: 0.6; stroke-linecap: square"/>
     </g>
     <g id="line2d_8">
      <g>
       <use xlink:href="#mc57bd41a6c" x="231.399062" y="318.64" style="stroke: #000000; stroke-width: 0.8"/>
      </g>
     </g>
     <g id="text_4">
      <!-- 8 -->
      <g transform="translate(228.217812 333.238437) scale(0.1 -0.1)">
       <defs>
        <path id="DejaVuSans-38" d="M 2034 2216 
Q 1584 2216 1326 1975 
Q 1069 1734 1069 1313 
Q 1069 891 1326 650 
Q 1584 409 2034 409 
Q 2484 409 2743 651 
Q 3003 894 3003 1313 
Q 3003 1734 2745 1975 
Q 2488 2216 2034 2216 
z
M 1403 2484 
Q 997 2584 770 2862 
Q 544 3141 544 3541 
Q 544 4100 942 4425 
Q 1341 4750 2034 4750 
Q 2731 4750 3128 4425 
Q 3525 4100 3525 3541 
Q 3525 3141 3298 2862 
Q 3072 2584 2669 2484 
Q 3125 2378 3379 2068 
Q 3634 1759 3634 1313 
Q 3634 634 3220 271 
Q 2806 -91 2034 -91 
Q 1263 -91 848 271 
Q 434 634 434 1313 
Q 434 1759 690 2068 
Q 947 2378 1403 2484 
z
M 1172 3481 
Q 1172 3119 1398 2916 
Q 1625 2713 2034 2713 
Q 2441 2713 2670 2916 
Q 2900 3119 2900 3481 
Q 2900 3844 2670 4047 
Q 2441 4250 2034 4250 
Q 1625 4250 1398 4047 
Q 1172 3844 1172 3481 
z
" transform="scale(0.015625)"/>
       </defs>
       <use xlink:href="#DejaVuSans-38"/>
      </g>
     </g>
    </g>
    <g id="xtick_5">
     <g id="line2d_9">
      <path d="M 288.396032 318.64 
L 288.396032 88.8 
" clip-path="url(#paa17754ee6)" style="fill: none; stroke: #b0b0b0; stroke-opacity: 0.25; stroke-width: 0.6; stroke-linecap: square"/>
     </g>
     <g id="line2d_10">
      <g>
       <use xlink:href="#mc57bd41a6c" x="288.396032" y="318.64" style="stroke: #000000; stroke-width: 0.8"/>
      </g>
     </g>
     <g id="text_5">
      <!-- 16 -->
      <g transform="translate(282.033532 333.238437) scale(0.1 -0.1)">
       <defs>
        <path id="DejaVuSans-36" d="M 2113 2584 
Q 1688 2584 1439 2293 
Q 1191 2003 1191 1497 
Q 1191 994 1439 701 
Q 1688 409 2113 409 
Q 2538 409 2786 701 
Q 3034 994 3034 1497 
Q 3034 2003 2786 2293 
Q 2538 2584 2113 2584 
z
M 3366 4563 
L 3366 3988 
Q 3128 4100 2886 4159 
Q 2644 4219 2406 4219 
Q 1781 4219 1451 3797 
Q 1122 3375 1075 2522 
Q 1259 2794 1537 2939 
Q 1816 3084 2150 3084 
Q 2853 3084 3261 2657 
Q 3669 2231 3669 1497 
Q 3669 778 3244 343 
Q 2819 -91 2113 -91 
Q 1303 -91 875 529 
Q 447 1150 447 2328 
Q 447 3434 972 4092 
Q 1497 4750 2381 4750 
Q 2619 4750 2861 4703 
Q 3103 4656 3366 4563 
z
" transform="scale(0.015625)"/>
       </defs>
       <use xlink:href="#DejaVuSans-31"/>
       <use xlink:href="#DejaVuSans-36" transform="translate(63.623047 0)"/>
      </g>
     </g>
    </g>
    <g id="xtick_6">
     <g id="line2d_11">
      <path d="M 345.393002 318.64 
L 345.393002 88.8 
" clip-path="url(#paa17754ee6)" style="fill: none; stroke: #b0b0b0; stroke-opacity: 0.25; stroke-width: 0.6; stroke-linecap: square"/>
     </g>
     <g id="line2d_12">
      <g>
       <use xlink:href="#mc57bd41a6c" x="345.393002" y="318.64" style="stroke: #000000; stroke-width: 0.8"/>
      </g>
     </g>
     <g id="text_6">
      <!-- 32 -->
      <g transform="translate(339.030502 333.238437) scale(0.1 -0.1)">
       <defs>
        <path id="DejaVuSans-33" d="M 2597 2516 
Q 3050 2419 3304 2112 
Q 3559 1806 3559 1356 
Q 3559 666 3084 287 
Q 2609 -91 1734 -91 
Q 1441 -91 1130 -33 
Q 819 25 488 141 
L 488 750 
Q 750 597 1062 519 
Q 1375 441 1716 441 
Q 2309 441 2620 675 
Q 2931 909 2931 1356 
Q 2931 1769 2642 2001 
Q 2353 2234 1838 2234 
L 1294 2234 
L 1294 2753 
L 1863 2753 
Q 2328 2753 2575 2939 
Q 2822 3125 2822 3475 
Q 2822 3834 2567 4026 
Q 2313 4219 1838 4219 
Q 1578 4219 1281 4162 
Q 984 4106 628 3988 
L 628 4550 
Q 988 4650 1302 4700 
Q 1616 4750 1894 4750 
Q 2613 4750 3031 4423 
Q 3450 4097 3450 3541 
Q 3450 3153 3228 2886 
Q 3006 2619 2597 2516 
z
" transform="scale(0.015625)"/>
       </defs>
       <use xlink:href="#DejaVuSans-33"/>
       <use xlink:href="#DejaVuSans-32" transform="translate(63.623047 0)"/>
      </g>
     </g>
    </g>
    <g id="xtick_7">
     <g id="line2d_13">
      <path d="M 402.389972 318.64 
L 402.389972 88.8 
" clip-path="url(#paa17754ee6)" style="fill: none; stroke: #b0b0b0; stroke-opacity: 0.25; stroke-width: 0.6; stroke-linecap: square"/>
     </g>
     <g id="line2d_14">
      <g>
       <use xlink:href="#mc57bd41a6c" x="402.389972" y="318.64" style="stroke: #000000; stroke-width: 0.8"/>
      </g>
     </g>
     <g id="text_7">
      <!-- 64 -->
      <g transform="translate(396.027472 333.238437) scale(0.1 -0.1)">
       <use xlink:href="#DejaVuSans-36"/>
       <use xlink:href="#DejaVuSans-34" transform="translate(63.623047 0)"/>
      </g>
     </g>
    </g>
    <g id="text_8">
     <!-- Top-k -->
     <g transform="translate(216.948672 347.676406) scale(0.11 -0.11)">
      <defs>
       <path id="DejaVuSans-54" d="M -19 4666 
L 3928 4666 
L 3928 4134 
L 2272 4134 
L 2272 0 
L 1638 0 
L 1638 4134 
L -19 4134 
L -19 4666 
z
" transform="scale(0.015625)"/>
       <path id="DejaVuSans-6f" d="M 1959 3097 
Q 1497 3097 1228 2736 
Q 959 2375 959 1747 
Q 959 1119 1226 758 
Q 1494 397 1959 397 
Q 2419 397 2687 759 
Q 2956 1122 2956 1747 
Q 2956 2369 2687 2733 
Q 2419 3097 1959 3097 
z
M 1959 3584 
Q 2709 3584 3137 3096 
Q 3566 2609 3566 1747 
Q 3566 888 3137 398 
Q 2709 -91 1959 -91 
Q 1206 -91 779 398 
Q 353 888 353 1747 
Q 353 2609 779 3096 
Q 1206 3584 1959 3584 
z
" transform="scale(0.015625)"/>
       <path id="DejaVuSans-70" d="M 1159 525 
L 1159 -1331 
L 581 -1331 
L 581 3500 
L 1159 3500 
L 1159 2969 
Q 1341 3281 1617 3432 
Q 1894 3584 2278 3584 
Q 2916 3584 3314 3078 
Q 3713 2572 3713 1747 
Q 3713 922 3314 415 
Q 2916 -91 2278 -91 
Q 1894 -91 1617 61 
Q 1341 213 1159 525 
z
M 3116 1747 
Q 3116 2381 2855 2742 
Q 2594 3103 2138 3103 
Q 1681 3103 1420 2742 
Q 1159 2381 1159 1747 
Q 1159 1113 1420 752 
Q 1681 391 2138 391 
Q 2594 391 2855 752 
Q 3116 1113 3116 1747 
z
" transform="scale(0.015625)"/>
       <path id="DejaVuSans-2d" d="M 313 2009 
L 1997 2009 
L 1997 1497 
L 313 1497 
L 313 2009 
z
" transform="scale(0.015625)"/>
       <path id="DejaVuSans-6b" d="M 581 4863 
L 1159 4863 
L 1159 1991 
L 2875 3500 
L 3609 3500 
L 1753 1863 
L 3688 0 
L 2938 0 
L 1159 1709 
L 1159 0 
L 581 0 
L 581 4863 
z
" transform="scale(0.015625)"/>
      </defs>
      <use xlink:href="#DejaVuSans-54"/>
      <use xlink:href="#DejaVuSans-6f" transform="translate(44.083984 0)"/>
      <use xlink:href="#DejaVuSans-70" transform="translate(105.265625 0)"/>
      <use xlink:href="#DejaVuSans-2d" transform="translate(168.742188 0)"/>
      <use xlink:href="#DejaVuSans-6b" transform="translate(204.826172 0)"/>
     </g>
    </g>
   </g>
   <g id="matplotlib.axis_2">
    <g id="ytick_1">
     <g id="line2d_15">
      <path d="M 43.309063 318.64 
L 419.489062 318.64 
" clip-path="url(#paa17754ee6)" style="fill: none; stroke: #b0b0b0; stroke-opacity: 0.25; stroke-width: 0.6; stroke-linecap: square"/>
     </g>
     <g id="line2d_16">
      <defs>
       <path id="mcf8d487cba" d="M 0 0 
L -3.5 0 
" style="stroke: #000000; stroke-width: 0.8"/>
      </defs>
      <g>
       <use xlink:href="#mcf8d487cba" x="43.309063" y="318.64" style="stroke: #000000; stroke-width: 0.8"/>
      </g>
     </g>
     <g id="text_9">
      <!-- 0.4 -->
      <g transform="translate(20.405938 322.439219) scale(0.1 -0.1)">
       <defs>
        <path id="DejaVuSans-30" d="M 2034 4250 
Q 1547 4250 1301 3770 
Q 1056 3291 1056 2328 
Q 1056 1369 1301 889 
Q 1547 409 2034 409 
Q 2525 409 2770 889 
Q 3016 1369 3016 2328 
Q 3016 3291 2770 3770 
Q 2525 4250 2034 4250 
z
M 2034 4750 
Q 2819 4750 3233 4129 
Q 3647 3509 3647 2328 
Q 3647 1150 3233 529 
Q 2819 -91 2034 -91 
Q 1250 -91 836 529 
Q 422 1150 422 2328 
Q 422 3509 836 4129 
Q 1250 4750 2034 4750 
z
" transform="scale(0.015625)"/>
        <path id="DejaVuSans-2e" d="M 684 794 
L 1344 794 
L 1344 0 
L 684 0 
L 684 794 
z
" transform="scale(0.015625)"/>
       </defs>
       <use xlink:href="#DejaVuSans-30"/>
       <use xlink:href="#DejaVuSans-2e" transform="translate(63.623047 0)"/>
       <use xlink:href="#DejaVuSans-34" transform="translate(95.410156 0)"/>
      </g>
     </g>
    </g>
    <g id="ytick_2">
     <g id="line2d_17">
      <path d="M 43.309063 283.28 
L 419.489062 283.28 
" clip-path="url(#paa17754ee6)" style="fill: none; stroke: #b0b0b0; stroke-opacity: 0.25; stroke-width: 0.6; stroke-linecap: square"/>
     </g>
     <g id="line2d_18">
      <g>
       <use xlink:href="#mcf8d487cba" x="43.309063" y="283.28" style="stroke: #000000; stroke-width: 0.8"/>
      </g>
     </g>
     <g id="text_10">
      <!-- 0.5 -->
      <g transform="translate(20.405938 287.079219) scale(0.1 -0.1)">
       <defs>
        <path id="DejaVuSans-35" d="M 691 4666 
L 3169 4666 
L 3169 4134 
L 1269 4134 
L 1269 2991 
Q 1406 3038 1543 3061 
Q 1681 3084 1819 3084 
Q 2600 3084 3056 2656 
Q 3513 2228 3513 1497 
Q 3513 744 3044 326 
Q 2575 -91 1722 -91 
Q 1428 -91 1123 -41 
Q 819 9 494 109 
L 494 744 
Q 775 591 1075 516 
Q 1375 441 1709 441 
Q 2250 441 2565 725 
Q 2881 1009 2881 1497 
Q 2881 1984 2565 2268 
Q 2250 2553 1709 2553 
Q 1456 2553 1204 2497 
Q 953 2441 691 2322 
L 691 4666 
z
" transform="scale(0.015625)"/>
       </defs>
       <use xlink:href="#DejaVuSans-30"/>
       <use xlink:href="#DejaVuSans-2e" transform="translate(63.623047 0)"/>
       <use xlink:href="#DejaVuSans-35" transform="translate(95.410156 0)"/>
      </g>
     </g>
    </g>
    <g id="ytick_3">
     <g id="line2d_19">
      <path d="M 43.309063 247.92 
L 419.489062 247.92 
" clip-path="url(#paa17754ee6)" style="fill: none; stroke: #b0b0b0; stroke-opacity: 0.25; stroke-width: 0.6; stroke-linecap: square"/>
     </g>
     <g id="line2d_20">
      <g>
       <use xlink:href="#mcf8d487cba" x="43.309063" y="247.92" style="stroke: #000000; stroke-width: 0.8"/>
      </g>
     </g>
     <g id="text_11">
      <!-- 0.6 -->
      <g transform="translate(20.405938 251.719219) scale(0.1 -0.1)">
       <use xlink:href="#DejaVuSans-30"/>
       <use xlink:href="#DejaVuSans-2e" transform="translate(63.623047 0)"/>
       <use xlink:href="#DejaVuSans-36" transform="translate(95.410156 0)"/>
      </g>
     </g>
    </g>
    <g id="ytick_4">
     <g id="line2d_21">
      <path d="M 43.309063 212.56 
L 419.489062 212.56 
" clip-path="url(#paa17754ee6)" style="fill: none; stroke: #b0b0b0; stroke-opacity: 0.25; stroke-width: 0.6; stroke-linecap: square"/>
     </g>
     <g id="line2d_22">
      <g>
       <use xlink:href="#mcf8d487cba" x="43.309063" y="212.56" style="stroke: #000000; stroke-width: 0.8"/>
      </g>
     </g>
     <g id="text_12">
      <!-- 0.7 -->
      <g transform="translate(20.405938 216.359219) scale(0.1 -0.1)">
       <defs>
        <path id="DejaVuSans-37" d="M 525 4666 
L 3525 4666 
L 3525 4397 
L 1831 0 
L 1172 0 
L 2766 4134 
L 525 4134 
L 525 4666 
z
" transform="scale(0.015625)"/>
       </defs>
       <use xlink:href="#DejaVuSans-30"/>
       <use xlink:href="#DejaVuSans-2e" transform="translate(63.623047 0)"/>
       <use xlink:href="#DejaVuSans-37" transform="translate(95.410156 0)"/>
      </g>
     </g>
    </g>
    <g id="ytick_5">
     <g id="line2d_23">
      <path d="M 43.309063 177.2 
L 419.489062 177.2 
" clip-path="url(#paa17754ee6)" style="fill: none; stroke: #b0b0b0; stroke-opacity: 0.25; stroke-width: 0.6; stroke-linecap: square"/>
     </g>
     <g id="line2d_24">
      <g>
       <use xlink:href="#mcf8d487cba" x="43.309063" y="177.2" style="stroke: #000000; stroke-width: 0.8"/>
      </g>
     </g>
     <g id="text_13">
      <!-- 0.8 -->
      <g transform="translate(20.405938 180.999219) scale(0.1 -0.1)">
       <use xlink:href="#DejaVuSans-30"/>
       <use xlink:href="#DejaVuSans-2e" transform="translate(63.623047 0)"/>
       <use xlink:href="#DejaVuSans-38" transform="translate(95.410156 0)"/>
      </g>
     </g>
    </g>
    <g id="ytick_6">
     <g id="line2d_25">
      <path d="M 43.309063 141.84 
L 419.489062 141.84 
" clip-path="url(#paa17754ee6)" style="fill: none; stroke: #b0b0b0; stroke-opacity: 0.25; stroke-width: 0.6; stroke-linecap: square"/>
     </g>
     <g id="line2d_26">
      <g>
       <use xlink:href="#mcf8d487cba" x="43.309063" y="141.84" style="stroke: #000000; stroke-width: 0.8"/>
      </g>
     </g>
     <g id="text_14">
      <!-- 0.9 -->
      <g transform="translate(20.405938 145.639219) scale(0.1 -0.1)">
       <defs>
        <path id="DejaVuSans-39" d="M 703 97 
L 703 672 
Q 941 559 1184 500 
Q 1428 441 1663 441 
Q 2288 441 2617 861 
Q 2947 1281 2994 2138 
Q 2813 1869 2534 1725 
Q 2256 1581 1919 1581 
Q 1219 1581 811 2004 
Q 403 2428 403 3163 
Q 403 3881 828 4315 
Q 1253 4750 1959 4750 
Q 2769 4750 3195 4129 
Q 3622 3509 3622 2328 
Q 3622 1225 3098 567 
Q 2575 -91 1691 -91 
Q 1453 -91 1209 -44 
Q 966 3 703 97 
z
M 1959 2075 
Q 2384 2075 2632 2365 
Q 2881 2656 2881 3163 
Q 2881 3666 2632 3958 
Q 2384 4250 1959 4250 
Q 1534 4250 1286 3958 
Q 1038 3666 1038 3163 
Q 1038 2656 1286 2365 
Q 1534 2075 1959 2075 
z
" transform="scale(0.015625)"/>
       </defs>
       <use xlink:href="#DejaVuSans-30"/>
       <use xlink:href="#DejaVuSans-2e" transform="translate(63.623047 0)"/>
       <use xlink:href="#DejaVuSans-39" transform="translate(95.410156 0)"/>
      </g>
     </g>
    </g>
    <g id="ytick_7">
     <g id="line2d_27">
      <path d="M 43.309063 106.48 
L 419.489062 106.48 
" clip-path="url(#paa17754ee6)" style="fill: none; stroke: #b0b0b0; stroke-opacity: 0.25; stroke-width: 0.6; stroke-linecap: square"/>
     </g>
     <g id="line2d_28">
      <g>
       <use xlink:href="#mcf8d487cba" x="43.309063" y="106.48" style="stroke: #000000; stroke-width: 0.8"/>
      </g>
     </g>
     <g id="text_15">
      <!-- 1.0 -->
      <g transform="translate(20.405938 110.279219) scale(0.1 -0.1)">
       <use xlink:href="#DejaVuSans-31"/>
       <use xlink:href="#DejaVuSans-2e" transform="translate(63.623047 0)"/>
       <use xlink:href="#DejaVuSans-30" transform="translate(95.410156 0)"/>
      </g>
     </g>
    </g>
    <g id="text_16">
     <!-- Recall@1@k -->
     <g transform="translate(14.118281 237.813125) rotate(-90) scale(0.11 -0.11)">
      <defs>
       <path id="DejaVuSans-52" d="M 2841 2188 
Q 3044 2119 3236 1894 
Q 3428 1669 3622 1275 
L 4263 0 
L 3584 0 
L 2988 1197 
Q 2756 1666 2539 1819 
Q 2322 1972 1947 1972 
L 1259 1972 
L 1259 0 
L 628 0 
L 628 4666 
L 2053 4666 
Q 2853 4666 3247 4331 
Q 3641 3997 3641 3322 
Q 3641 2881 3436 2590 
Q 3231 2300 2841 2188 
z
M 1259 4147 
L 1259 2491 
L 2053 2491 
Q 2509 2491 2742 2702 
Q 2975 2913 2975 3322 
Q 2975 3731 2742 3939 
Q 2509 4147 2053 4147 
L 1259 4147 
z
" transform="scale(0.015625)"/>
       <path id="DejaVuSans-65" d="M 3597 1894 
L 3597 1613 
L 953 1613 
Q 991 1019 1311 708 
Q 1631 397 2203 397 
Q 2534 397 2845 478 
Q 3156 559 3463 722 
L 3463 178 
Q 3153 47 2828 -22 
Q 2503 -91 2169 -91 
Q 1331 -91 842 396 
Q 353 884 353 1716 
Q 353 2575 817 3079 
Q 1281 3584 2069 3584 
Q 2775 3584 3186 3129 
Q 3597 2675 3597 1894 
z
M 3022 2063 
Q 3016 2534 2758 2815 
Q 2500 3097 2075 3097 
Q 1594 3097 1305 2825 
Q 1016 2553 972 2059 
L 3022 2063 
z
" transform="scale(0.015625)"/>
       <path id="DejaVuSans-63" d="M 3122 3366 
L 3122 2828 
Q 2878 2963 2633 3030 
Q 2388 3097 2138 3097 
Q 1578 3097 1268 2742 
Q 959 2388 959 1747 
Q 959 1106 1268 751 
Q 1578 397 2138 397 
Q 2388 397 2633 464 
Q 2878 531 3122 666 
L 3122 134 
Q 2881 22 2623 -34 
Q 2366 -91 2075 -91 
Q 1284 -91 818 406 
Q 353 903 353 1747 
Q 353 2603 823 3093 
Q 1294 3584 2113 3584 
Q 2378 3584 2631 3529 
Q 2884 3475 3122 3366 
z
" transform="scale(0.015625)"/>
       <path id="DejaVuSans-61" d="M 2194 1759 
Q 1497 1759 1228 1600 
Q 959 1441 959 1056 
Q 959 750 1161 570 
Q 1363 391 1709 391 
Q 2188 391 2477 730 
Q 2766 1069 2766 1631 
L 2766 1759 
L 2194 1759 
z
M 3341 1997 
L 3341 0 
L 2766 0 
L 2766 531 
Q 2569 213 2275 61 
Q 1981 -91 1556 -91 
Q 1019 -91 701 211 
Q 384 513 384 1019 
Q 384 1609 779 1909 
Q 1175 2209 1959 2209 
L 2766 2209 
L 2766 2266 
Q 2766 2663 2505 2880 
Q 2244 3097 1772 3097 
Q 1472 3097 1187 3025 
Q 903 2953 641 2809 
L 641 3341 
Q 956 3463 1253 3523 
Q 1550 3584 1831 3584 
Q 2591 3584 2966 3190 
Q 3341 2797 3341 1997 
z
" transform="scale(0.015625)"/>
       <path id="DejaVuSans-6c" d="M 603 4863 
L 1178 4863 
L 1178 0 
L 603 0 
L 603 4863 
z
" transform="scale(0.015625)"/>
       <path id="DejaVuSans-40" d="M 2381 1678 
Q 2381 1231 2603 976 
Q 2825 722 3213 722 
Q 3597 722 3817 978 
Q 4038 1234 4038 1678 
Q 4038 2116 3813 2373 
Q 3588 2631 3206 2631 
Q 2828 2631 2604 2375 
Q 2381 2119 2381 1678 
z
M 4084 744 
Q 3897 503 3655 389 
Q 3413 275 3091 275 
Q 2553 275 2217 664 
Q 1881 1053 1881 1678 
Q 1881 2303 2218 2693 
Q 2556 3084 3091 3084 
Q 3413 3084 3656 2967 
Q 3900 2850 4084 2613 
L 4084 3022 
L 4531 3022 
L 4531 722 
Q 4988 791 5245 1139 
Q 5503 1488 5503 2041 
Q 5503 2375 5404 2669 
Q 5306 2963 5106 3213 
Q 4781 3622 4314 3839 
Q 3847 4056 3297 4056 
Q 2913 4056 2559 3954 
Q 2206 3853 1906 3653 
Q 1416 3334 1139 2817 
Q 863 2300 863 1697 
Q 863 1200 1042 765 
Q 1222 331 1563 0 
Q 1891 -325 2322 -495 
Q 2753 -666 3244 -666 
Q 3647 -666 4036 -530 
Q 4425 -394 4750 -141 
L 5031 -488 
Q 4641 -791 4180 -952 
Q 3719 -1113 3244 -1113 
Q 2666 -1113 2153 -908 
Q 1641 -703 1241 -313 
Q 841 78 631 592 
Q 422 1106 422 1697 
Q 422 2266 634 2781 
Q 847 3297 1241 3688 
Q 1644 4084 2172 4295 
Q 2700 4506 3291 4506 
Q 3953 4506 4520 4234 
Q 5088 3963 5472 3463 
Q 5706 3156 5829 2797 
Q 5953 2438 5953 2053 
Q 5953 1231 5456 756 
Q 4959 281 4084 263 
L 4084 744 
z
" transform="scale(0.015625)"/>
      </defs>
      <use xlink:href="#DejaVuSans-52"/>
      <use xlink:href="#DejaVuSans-65" transform="translate(64.982422 0)"/>
      <use xlink:href="#DejaVuSans-63" transform="translate(126.505859 0)"/>
      <use xlink:href="#DejaVuSans-61" transform="translate(181.486328 0)"/>
      <use xlink:href="#DejaVuSans-6c" transform="translate(242.765625 0)"/>
      <use xlink:href="#DejaVuSans-6c" transform="translate(270.548828 0)"/>
      <use xlink:href="#DejaVuSans-40" transform="translate(298.332031 0)"/>
      <use xlink:href="#DejaVuSans-31" transform="translate(398.332031 0)"/>
      <use xlink:href="#DejaVuSans-40" transform="translate(461.955078 0)"/>
      <use xlink:href="#DejaVuSans-6b" transform="translate(561.955078 0)"/>
     </g>
    </g>
   </g>
   <g id="line2d_29">
    <path d="M 60.408153 323.944 
L 117.405123 265.6 
L 174.402093 210.792 
L 231.399062 155.984 
L 288.396032 120.624 
L 345.393002 111.784 
L 402.389972 106.48 
" clip-path="url(#paa17754ee6)" style="fill: none; stroke: #f28e2b; stroke-width: 2; stroke-linecap: square"/>
    <defs>
     <path id="mb5f2b53923" d="M 0 2.5 
C 0.663008 2.5 1.29895 2.236584 1.767767 1.767767 
C 2.236584 1.29895 2.5 0.663008 2.5 0 
C 2.5 -0.663008 2.236584 -1.29895 1.767767 -1.767767 
C 1.29895 -2.236584 0.663008 -2.5 0 -2.5 
C -0.663008 -2.5 -1.29895 -2.236584 -1.767767 -1.767767 
C -2.236584 -1.29895 -2.5 -0.663008 -2.5 0 
C -2.5 0.663008 -2.236584 1.29895 -1.767767 1.767767 
C -1.29895 2.236584 -0.663008 2.5 0 2.5 
z
" style="stroke: #f28e2b"/>
    </defs>
    <g clip-path="url(#paa17754ee6)">
     <use xlink:href="#mb5f2b53923" x="60.408153" y="323.944" style="fill: #f28e2b; stroke: #f28e2b"/>
     <use xlink:href="#mb5f2b53923" x="117.405123" y="265.6" style="fill: #f28e2b; stroke: #f28e2b"/>
     <use xlink:href="#mb5f2b53923" x="174.402093" y="210.792" style="fill: #f28e2b; stroke: #f28e2b"/>
     <use xlink:href="#mb5f2b53923" x="231.399062" y="155.984" style="fill: #f28e2b; stroke: #f28e2b"/>
     <use xlink:href="#mb5f2b53923" x="288.396032" y="120.624" style="fill: #f28e2b; stroke: #f28e2b"/>
     <use xlink:href="#mb5f2b53923" x="345.393002" y="111.784" style="fill: #f28e2b; stroke: #f28e2b"/>
     <use xlink:href="#mb5f2b53923" x="402.389972" y="106.48" style="fill: #f28e2b; stroke: #f28e2b"/>
    </g>
   </g>
   <g id="line2d_30">
    <path d="M 60.408153 308.032 
L 117.405123 239.08 
L 174.402093 175.432 
L 231.399062 140.072 
L 288.396032 113.552 
L 345.393002 106.48 
L 402.389972 106.48 
" clip-path="url(#paa17754ee6)" style="fill: none; stroke-dasharray: 7.4,3.2; stroke-dashoffset: 0; stroke: #9c755f; stroke-width: 2"/>
    <defs>
     <path id="mc8b8b5a916" d="M -2.5 2.5 
L 2.5 2.5 
L 2.5 -2.5 
L -2.5 -2.5 
z
" style="stroke: #9c755f; stroke-linejoin: miter"/>
    </defs>
    <g clip-path="url(#paa17754ee6)">
     <use xlink:href="#mc8b8b5a916" x="60.408153" y="308.032" style="fill: #9c755f; stroke: #9c755f; stroke-linejoin: miter"/>
     <use xlink:href="#mc8b8b5a916" x="117.405123" y="239.08" style="fill: #9c755f; stroke: #9c755f; stroke-linejoin: miter"/>
     <use xlink:href="#mc8b8b5a916" x="174.402093" y="175.432" style="fill: #9c755f; stroke: #9c755f; stroke-linejoin: miter"/>
     <use xlink:href="#mc8b8b5a916" x="231.399062" y="140.072" style="fill: #9c755f; stroke: #9c755f; stroke-linejoin: miter"/>
     <use xlink:href="#mc8b8b5a916" x="288.396032" y="113.552" style="fill: #9c755f; stroke: #9c755f; stroke-linejoin: miter"/>
     <use xlink:href="#mc8b8b5a916" x="345.393002" y="106.48" style="fill: #9c755f; stroke: #9c755f; stroke-linejoin: miter"/>
     <use xlink:href="#mc8b8b5a916" x="402.389972" y="106.48" style="fill: #9c755f; stroke: #9c755f; stroke-linejoin: miter"/>
    </g>
   </g>
   <g id="line2d_31">
    <path d="M 60.408153 168.36 
L 117.405123 125.928 
L 174.402093 108.248 
L 231.399062 108.248 
L 288.396032 106.48 
L 345.393002 106.48 
L 402.389972 106.48 
" clip-path="url(#paa17754ee6)" style="fill: none; stroke: #e15759; stroke-width: 2.5; stroke-linecap: square"/>
    <defs>
     <path id="mb69bebc173" d="M 0 2.5 
C 0.663008 2.5 1.29895 2.236584 1.767767 1.767767 
C 2.236584 1.29895 2.5 0.663008 2.5 0 
C 2.5 -0.663008 2.236584 -1.29895 1.767767 -1.767767 
C 1.29895 -2.236584 0.663008 -2.5 0 -2.5 
C -0.663008 -2.5 -1.29895 -2.236584 -1.767767 -1.767767 
C -2.236584 -1.29895 -2.5 -0.663008 -2.5 0 
C -2.5 0.663008 -2.236584 1.29895 -1.767767 1.767767 
C -1.29895 2.236584 -0.663008 2.5 0 2.5 
z
" style="stroke: #e15759"/>
    </defs>
    <g clip-path="url(#paa17754ee6)">
     <use xlink:href="#mb69bebc173" x="60.408153" y="168.36" style="fill: #e15759; stroke: #e15759"/>
     <use xlink:href="#mb69bebc173" x="117.405123" y="125.928" style="fill: #e15759; stroke: #e15759"/>
     <use xlink:href="#mb69bebc173" x="174.402093" y="108.248" style="fill: #e15759; stroke: #e15759"/>
     <use xlink:href="#mb69bebc173" x="231.399062" y="108.248" style="fill: #e15759; stroke: #e15759"/>
     <use xlink:href="#mb69bebc173" x="288.396032" y="106.48" style="fill: #e15759; stroke: #e15759"/>
     <use xlink:href="#mb69bebc173" x="345.393002" y="106.48" style="fill: #e15759; stroke: #e15759"/>
     <use xlink:href="#mb69bebc173" x="402.389972" y="106.48" style="fill: #e15759; stroke: #e15759"/>
    </g>
   </g>
   <g id="line2d_32">
    <path d="M 60.408153 168.36 
L 117.405123 122.392 
L 174.402093 106.48 
L 231.399062 106.48 
L 288.396032 106.48 
L 345.393002 106.48 
L 402.389972 106.48 
" clip-path="url(#paa17754ee6)" style="fill: none; stroke-dasharray: 9.25,4; stroke-dashoffset: 0; stroke: #9671bd; stroke-width: 2.5"/>
    <defs>
     <path id="m097537648a" d="M -2.5 2.5 
L 2.5 2.5 
L 2.5 -2.5 
L -2.5 -2.5 
z
" style="stroke: #9671bd; stroke-linejoin: miter"/>
    </defs>
    <g clip-path="url(#paa17754ee6)">
     <use xlink:href="#m097537648a" x="60.408153" y="168.36" style="fill: #9671bd; stroke: #9671bd; stroke-linejoin: miter"/>
     <use xlink:href="#m097537648a" x="117.405123" y="122.392" style="fill: #9671bd; stroke: #9671bd; stroke-linejoin: miter"/>
     <use xlink:href="#m097537648a" x="174.402093" y="106.48" style="fill: #9671bd; stroke: #9671bd; stroke-linejoin: miter"/>
     <use xlink:href="#m097537648a" x="231.399062" y="106.48" style="fill: #9671bd; stroke: #9671bd; stroke-linejoin: miter"/>
     <use xlink:href="#m097537648a" x="288.396032" y="106.48" style="fill: #9671bd; stroke: #9671bd; stroke-linejoin: miter"/>
     <use xlink:href="#m097537648a" x="345.393002" y="106.48" style="fill: #9671bd; stroke: #9671bd; stroke-linejoin: miter"/>
     <use xlink:href="#m097537648a" x="402.389972" y="106.48" style="fill: #9671bd; stroke: #9671bd; stroke-linejoin: miter"/>
    </g>
   </g>
   <g id="patch_3">
    <path d="M 43.309063 318.64 
L 43.309063 88.8 
" style="fill: none; stroke: #333333; stroke-width: 0.8; stroke-linejoin: miter; stroke-linecap: square"/>
   </g>
   <g id="patch_4">
    <path d="M 43.309063 318.64 
L 419.489062 318.64 
" style="fill: none; stroke: #333333; stroke-width: 0.8; stroke-linejoin: miter; stroke-linecap: square"/>
   </g>
   <g id="text_17">
    <!-- (a) d=384 -->
    <g transform="translate(200.719375 82.8) scale(0.11 -0.11)">
     <defs>
      <path id="DejaVuSans-Bold-28" d="M 2413 -844 
L 1484 -844 
Q 1006 -72 778 623 
Q 550 1319 550 2003 
Q 550 2688 779 3389 
Q 1009 4091 1484 4856 
L 2413 4856 
Q 2013 4116 1813 3408 
Q 1613 2700 1613 2009 
Q 1613 1319 1811 609 
Q 2009 -100 2413 -844 
z
" transform="scale(0.015625)"/>
      <path id="DejaVuSans-Bold-61" d="M 2106 1575 
Q 1756 1575 1579 1456 
Q 1403 1338 1403 1106 
Q 1403 894 1545 773 
Q 1688 653 1941 653 
Q 2256 653 2472 879 
Q 2688 1106 2688 1447 
L 2688 1575 
L 2106 1575 
z
M 3816 1997 
L 3816 0 
L 2688 0 
L 2688 519 
Q 2463 200 2181 54 
Q 1900 -91 1497 -91 
Q 953 -91 614 226 
Q 275 544 275 1050 
Q 275 1666 698 1953 
Q 1122 2241 2028 2241 
L 2688 2241 
L 2688 2328 
Q 2688 2594 2478 2717 
Q 2269 2841 1825 2841 
Q 1466 2841 1156 2769 
Q 847 2697 581 2553 
L 581 3406 
Q 941 3494 1303 3539 
Q 1666 3584 2028 3584 
Q 2975 3584 3395 3211 
Q 3816 2838 3816 1997 
z
" transform="scale(0.015625)"/>
      <path id="DejaVuSans-Bold-29" d="M 513 -844 
Q 913 -100 1113 609 
Q 1313 1319 1313 2009 
Q 1313 2700 1113 3408 
Q 913 4116 513 4856 
L 1441 4856 
Q 1916 4091 2145 3389 
Q 2375 2688 2375 2003 
Q 2375 1319 2147 623 
Q 1919 -72 1441 -844 
L 513 -844 
z
" transform="scale(0.015625)"/>
      <path id="DejaVuSans-Bold-20" transform="scale(0.015625)"/>
      <path id="DejaVuSans-Bold-64" d="M 2919 2988 
L 2919 4863 
L 4044 4863 
L 4044 0 
L 2919 0 
L 2919 506 
Q 2688 197 2409 53 
Q 2131 -91 1766 -91 
Q 1119 -91 703 423 
Q 288 938 288 1747 
Q 288 2556 703 3070 
Q 1119 3584 1766 3584 
Q 2128 3584 2408 3439 
Q 2688 3294 2919 2988 
z
M 2181 722 
Q 2541 722 2730 984 
Q 2919 1247 2919 1747 
Q 2919 2247 2730 2509 
Q 2541 2772 2181 2772 
Q 1825 2772 1636 2509 
Q 1447 2247 1447 1747 
Q 1447 1247 1636 984 
Q 1825 722 2181 722 
z
" transform="scale(0.015625)"/>
      <path id="DejaVuSans-Bold-3d" d="M 678 3084 
L 4684 3084 
L 4684 2350 
L 678 2350 
L 678 3084 
z
M 678 1663 
L 4684 1663 
L 4684 922 
L 678 922 
L 678 1663 
z
" transform="scale(0.015625)"/>
      <path id="DejaVuSans-Bold-33" d="M 2981 2516 
Q 3453 2394 3698 2092 
Q 3944 1791 3944 1325 
Q 3944 631 3412 270 
Q 2881 -91 1863 -91 
Q 1503 -91 1142 -33 
Q 781 25 428 141 
L 428 1069 
Q 766 900 1098 814 
Q 1431 728 1753 728 
Q 2231 728 2486 893 
Q 2741 1059 2741 1369 
Q 2741 1688 2480 1852 
Q 2219 2016 1709 2016 
L 1228 2016 
L 1228 2791 
L 1734 2791 
Q 2188 2791 2409 2933 
Q 2631 3075 2631 3366 
Q 2631 3634 2415 3781 
Q 2200 3928 1806 3928 
Q 1516 3928 1219 3862 
Q 922 3797 628 3669 
L 628 4550 
Q 984 4650 1334 4700 
Q 1684 4750 2022 4750 
Q 2931 4750 3382 4451 
Q 3834 4153 3834 3553 
Q 3834 3144 3618 2883 
Q 3403 2622 2981 2516 
z
" transform="scale(0.015625)"/>
      <path id="DejaVuSans-Bold-38" d="M 2228 2088 
Q 1891 2088 1709 1903 
Q 1528 1719 1528 1375 
Q 1528 1031 1709 848 
Q 1891 666 2228 666 
Q 2563 666 2741 848 
Q 2919 1031 2919 1375 
Q 2919 1722 2741 1905 
Q 2563 2088 2228 2088 
z
M 1350 2484 
Q 925 2613 709 2878 
Q 494 3144 494 3541 
Q 494 4131 934 4440 
Q 1375 4750 2228 4750 
Q 3075 4750 3515 4442 
Q 3956 4134 3956 3541 
Q 3956 3144 3739 2878 
Q 3522 2613 3097 2484 
Q 3572 2353 3814 2058 
Q 4056 1763 4056 1313 
Q 4056 619 3595 264 
Q 3134 -91 2228 -91 
Q 1319 -91 855 264 
Q 391 619 391 1313 
Q 391 1763 633 2058 
Q 875 2353 1350 2484 
z
M 1631 3419 
Q 1631 3141 1786 2991 
Q 1941 2841 2228 2841 
Q 2509 2841 2662 2991 
Q 2816 3141 2816 3419 
Q 2816 3697 2662 3845 
Q 2509 3994 2228 3994 
Q 1941 3994 1786 3844 
Q 1631 3694 1631 3419 
z
" transform="scale(0.015625)"/>
      <path id="DejaVuSans-Bold-34" d="M 2356 3675 
L 1038 1722 
L 2356 1722 
L 2356 3675 
z
M 2156 4666 
L 3494 4666 
L 3494 1722 
L 4159 1722 
L 4159 850 
L 3494 850 
L 3494 0 
L 2356 0 
L 2356 850 
L 288 850 
L 288 1881 
L 2156 4666 
z
" transform="scale(0.015625)"/>
     </defs>
     <use xlink:href="#DejaVuSans-Bold-28"/>
     <use xlink:href="#DejaVuSans-Bold-61" transform="translate(45.703125 0)"/>
     <use xlink:href="#DejaVuSans-Bold-29" transform="translate(113.183594 0)"/>
     <use xlink:href="#DejaVuSans-Bold-20" transform="translate(158.886719 0)"/>
     <use xlink:href="#DejaVuSans-Bold-64" transform="translate(193.701172 0)"/>
     <use xlink:href="#DejaVuSans-Bold-3d" transform="translate(265.283203 0)"/>
     <use xlink:href="#DejaVuSans-Bold-33" transform="translate(349.072266 0)"/>
     <use xlink:href="#DejaVuSans-Bold-38" transform="translate(418.652344 0)"/>
     <use xlink:href="#DejaVuSans-Bold-34" transform="translate(488.232422 0)"/>
    </g>
   </g>
   <g id="legend_1">
    <g id="line2d_33">
     <path d="M 306.391406 265.887344 
L 315.391406 265.887344 
L 324.391406 265.887344 
" style="fill: none; stroke: #f28e2b; stroke-width: 2; stroke-linecap: square"/>
     <g>
      <use xlink:href="#mb5f2b53923" x="315.391406" y="265.887344" style="fill: #f28e2b; stroke: #f28e2b"/>
     </g>
    </g>
    <g id="text_18">
     <!-- TurboQuant 2-bit -->
     <g transform="translate(331.591406 269.037344) scale(0.09 -0.09)">
      <defs>
       <path id="DejaVuSans-75" d="M 544 1381 
L 544 3500 
L 1119 3500 
L 1119 1403 
Q 1119 906 1312 657 
Q 1506 409 1894 409 
Q 2359 409 2629 706 
Q 2900 1003 2900 1516 
L 2900 3500 
L 3475 3500 
L 3475 0 
L 2900 0 
L 2900 538 
Q 2691 219 2414 64 
Q 2138 -91 1772 -91 
Q 1169 -91 856 284 
Q 544 659 544 1381 
z
M 1991 3584 
L 1991 3584 
z
" transform="scale(0.015625)"/>
       <path id="DejaVuSans-72" d="M 2631 2963 
Q 2534 3019 2420 3045 
Q 2306 3072 2169 3072 
Q 1681 3072 1420 2755 
Q 1159 2438 1159 1844 
L 1159 0 
L 581 0 
L 581 3500 
L 1159 3500 
L 1159 2956 
Q 1341 3275 1631 3429 
Q 1922 3584 2338 3584 
Q 2397 3584 2469 3576 
Q 2541 3569 2628 3553 
L 2631 2963 
z
" transform="scale(0.015625)"/>
       <path id="DejaVuSans-62" d="M 3116 1747 
Q 3116 2381 2855 2742 
Q 2594 3103 2138 3103 
Q 1681 3103 1420 2742 
Q 1159 2381 1159 1747 
Q 1159 1113 1420 752 
Q 1681 391 2138 391 
Q 2594 391 2855 752 
Q 3116 1113 3116 1747 
z
M 1159 2969 
Q 1341 3281 1617 3432 
Q 1894 3584 2278 3584 
Q 2916 3584 3314 3078 
Q 3713 2572 3713 1747 
Q 3713 922 3314 415 
Q 2916 -91 2278 -91 
Q 1894 -91 1617 61 
Q 1341 213 1159 525 
L 1159 0 
L 581 0 
L 581 4863 
L 1159 4863 
L 1159 2969 
z
" transform="scale(0.015625)"/>
       <path id="DejaVuSans-51" d="M 2522 4238 
Q 1834 4238 1429 3725 
Q 1025 3213 1025 2328 
Q 1025 1447 1429 934 
Q 1834 422 2522 422 
Q 3209 422 3611 934 
Q 4013 1447 4013 2328 
Q 4013 3213 3611 3725 
Q 3209 4238 2522 4238 
z
M 3406 84 
L 4238 -825 
L 3475 -825 
L 2784 -78 
Q 2681 -84 2626 -87 
Q 2572 -91 2522 -91 
Q 1538 -91 948 567 
Q 359 1225 359 2328 
Q 359 3434 948 4092 
Q 1538 4750 2522 4750 
Q 3503 4750 4090 4092 
Q 4678 3434 4678 2328 
Q 4678 1516 4351 937 
Q 4025 359 3406 84 
z
" transform="scale(0.015625)"/>
       <path id="DejaVuSans-6e" d="M 3513 2113 
L 3513 0 
L 2938 0 
L 2938 2094 
Q 2938 2591 2744 2837 
Q 2550 3084 2163 3084 
Q 1697 3084 1428 2787 
Q 1159 2491 1159 1978 
L 1159 0 
L 581 0 
L 581 3500 
L 1159 3500 
L 1159 2956 
Q 1366 3272 1645 3428 
Q 1925 3584 2291 3584 
Q 2894 3584 3203 3211 
Q 3513 2838 3513 2113 
z
" transform="scale(0.015625)"/>
       <path id="DejaVuSans-74" d="M 1172 4494 
L 1172 3500 
L 2356 3500 
L 2356 3053 
L 1172 3053 
L 1172 1153 
Q 1172 725 1289 603 
Q 1406 481 1766 481 
L 2356 481 
L 2356 0 
L 1766 0 
Q 1100 0 847 248 
Q 594 497 594 1153 
L 594 3053 
L 172 3053 
L 172 3500 
L 594 3500 
L 594 4494 
L 1172 4494 
z
" transform="scale(0.015625)"/>
       <path id="DejaVuSans-20" transform="scale(0.015625)"/>
       <path id="DejaVuSans-69" d="M 603 3500 
L 1178 3500 
L 1178 0 
L 603 0 
L 603 3500 
z
M 603 4863 
L 1178 4863 
L 1178 4134 
L 603 4134 
L 603 4863 
z
" transform="scale(0.015625)"/>
      </defs>
      <use xlink:href="#DejaVuSans-54"/>
      <use xlink:href="#DejaVuSans-75" transform="translate(45.958984 0)"/>
      <use xlink:href="#DejaVuSans-72" transform="translate(109.337891 0)"/>
      <use xlink:href="#DejaVuSans-62" transform="translate(150.451172 0)"/>
      <use xlink:href="#DejaVuSans-6f" transform="translate(213.927734 0)"/>
      <use xlink:href="#DejaVuSans-51" transform="translate(275.109375 0)"/>
      <use xlink:href="#DejaVuSans-75" transform="translate(353.820312 0)"/>
      <use xlink:href="#DejaVuSans-61" transform="translate(417.199219 0)"/>
      <use xlink:href="#DejaVuSans-6e" transform="translate(478.478516 0)"/>
      <use xlink:href="#DejaVuSans-74" transform="translate(541.857422 0)"/>
      <use xlink:href="#DejaVuSans-20" transform="translate(581.066406 0)"/>
      <use xlink:href="#DejaVuSans-32" transform="translate(612.853516 0)"/>
      <use xlink:href="#DejaVuSans-2d" transform="translate(676.476562 0)"/>
      <use xlink:href="#DejaVuSans-62" transform="translate(712.560547 0)"/>
      <use xlink:href="#DejaVuSans-69" transform="translate(776.037109 0)"/>
      <use xlink:href="#DejaVuSans-74" transform="translate(803.820312 0)"/>
     </g>
    </g>
    <g id="line2d_34">
     <path d="M 306.391406 279.097656 
L 315.391406 279.097656 
L 324.391406 279.097656 
" style="fill: none; stroke-dasharray: 7.4,3.2; stroke-dashoffset: 0; stroke: #9c755f; stroke-width: 2"/>
     <g>
      <use xlink:href="#mc8b8b5a916" x="315.391406" y="279.097656" style="fill: #9c755f; stroke: #9c755f; stroke-linejoin: miter"/>
     </g>
    </g>
    <g id="text_19">
     <!-- PQ 2-bit (LUT256) -->
     <g transform="translate(331.591406 282.247656) scale(0.09 -0.09)">
      <defs>
       <path id="DejaVuSans-50" d="M 1259 4147 
L 1259 2394 
L 2053 2394 
Q 2494 2394 2734 2622 
Q 2975 2850 2975 3272 
Q 2975 3691 2734 3919 
Q 2494 4147 2053 4147 
L 1259 4147 
z
M 628 4666 
L 2053 4666 
Q 2838 4666 3239 4311 
Q 3641 3956 3641 3272 
Q 3641 2581 3239 2228 
Q 2838 1875 2053 1875 
L 1259 1875 
L 1259 0 
L 628 0 
L 628 4666 
z
" transform="scale(0.015625)"/>
       <path id="DejaVuSans-28" d="M 1984 4856 
Q 1566 4138 1362 3434 
Q 1159 2731 1159 2009 
Q 1159 1288 1364 580 
Q 1569 -128 1984 -844 
L 1484 -844 
Q 1016 -109 783 600 
Q 550 1309 550 2009 
Q 550 2706 781 3412 
Q 1013 4119 1484 4856 
L 1984 4856 
z
" transform="scale(0.015625)"/>
       <path id="DejaVuSans-4c" d="M 628 4666 
L 1259 4666 
L 1259 531 
L 3531 531 
L 3531 0 
L 628 0 
L 628 4666 
z
" transform="scale(0.015625)"/>
       <path id="DejaVuSans-55" d="M 556 4666 
L 1191 4666 
L 1191 1831 
Q 1191 1081 1462 751 
Q 1734 422 2344 422 
Q 2950 422 3222 751 
Q 3494 1081 3494 1831 
L 3494 4666 
L 4128 4666 
L 4128 1753 
Q 4128 841 3676 375 
Q 3225 -91 2344 -91 
Q 1459 -91 1007 375 
Q 556 841 556 1753 
L 556 4666 
z
" transform="scale(0.015625)"/>
       <path id="DejaVuSans-29" d="M 513 4856 
L 1013 4856 
Q 1481 4119 1714 3412 
Q 1947 2706 1947 2009 
Q 1947 1309 1714 600 
Q 1481 -109 1013 -844 
L 513 -844 
Q 928 -128 1133 580 
Q 1338 1288 1338 2009 
Q 1338 2731 1133 3434 
Q 928 4138 513 4856 
z
" transform="scale(0.015625)"/>
      </defs>
      <use xlink:href="#DejaVuSans-50"/>
      <use xlink:href="#DejaVuSans-51" transform="translate(60.302734 0)"/>
      <use xlink:href="#DejaVuSans-20" transform="translate(139.013672 0)"/>
      <use xlink:href="#DejaVuSans-32" transform="translate(170.800781 0)"/>
      <use xlink:href="#DejaVuSans-2d" transform="translate(234.423828 0)"/>
      <use xlink:href="#DejaVuSans-62" transform="translate(270.507812 0)"/>
      <use xlink:href="#DejaVuSans-69" transform="translate(333.984375 0)"/>
      <use xlink:href="#DejaVuSans-74" transform="translate(361.767578 0)"/>
      <use xlink:href="#DejaVuSans-20" transform="translate(400.976562 0)"/>
      <use xlink:href="#DejaVuSans-28" transform="translate(432.763672 0)"/>
      <use xlink:href="#DejaVuSans-4c" transform="translate(471.777344 0)"/>
      <use xlink:href="#DejaVuSans-55" transform="translate(522.490234 0)"/>
      <use xlink:href="#DejaVuSans-54" transform="translate(595.683594 0)"/>
      <use xlink:href="#DejaVuSans-32" transform="translate(656.767578 0)"/>
      <use xlink:href="#DejaVuSans-35" transform="translate(720.390625 0)"/>
      <use xlink:href="#DejaVuSans-36" transform="translate(784.013672 0)"/>
      <use xlink:href="#DejaVuSans-29" transform="translate(847.636719 0)"/>
     </g>
    </g>
    <g id="line2d_35">
     <path d="M 306.391406 292.307969 
L 315.391406 292.307969 
L 324.391406 292.307969 
" style="fill: none; stroke: #e15759; stroke-width: 2.5; stroke-linecap: square"/>
     <g>
      <use xlink:href="#mb69bebc173" x="315.391406" y="292.307969" style="fill: #e15759; stroke: #e15759"/>
     </g>
    </g>
    <g id="text_20">
     <!-- TurboQuant 4-bit -->
     <g transform="translate(331.591406 295.457969) scale(0.09 -0.09)">
      <use xlink:href="#DejaVuSans-54"/>
      <use xlink:href="#DejaVuSans-75" transform="translate(45.958984 0)"/>
      <use xlink:href="#DejaVuSans-72" transform="translate(109.337891 0)"/>
      <use xlink:href="#DejaVuSans-62" transform="translate(150.451172 0)"/>
      <use xlink:href="#DejaVuSans-6f" transform="translate(213.927734 0)"/>
      <use xlink:href="#DejaVuSans-51" transform="translate(275.109375 0)"/>
      <use xlink:href="#DejaVuSans-75" transform="translate(353.820312 0)"/>
      <use xlink:href="#DejaVuSans-61" transform="translate(417.199219 0)"/>
      <use xlink:href="#DejaVuSans-6e" transform="translate(478.478516 0)"/>
      <use xlink:href="#DejaVuSans-74" transform="translate(541.857422 0)"/>
      <use xlink:href="#DejaVuSans-20" transform="translate(581.066406 0)"/>
      <use xlink:href="#DejaVuSans-34" transform="translate(612.853516 0)"/>
      <use xlink:href="#DejaVuSans-2d" transform="translate(676.476562 0)"/>
      <use xlink:href="#DejaVuSans-62" transform="translate(712.560547 0)"/>
      <use xlink:href="#DejaVuSans-69" transform="translate(776.037109 0)"/>
      <use xlink:href="#DejaVuSans-74" transform="translate(803.820312 0)"/>
     </g>
    </g>
    <g id="line2d_36">
     <path d="M 306.391406 305.518281 
L 315.391406 305.518281 
L 324.391406 305.518281 
" style="fill: none; stroke-dasharray: 9.25,4; stroke-dashoffset: 0; stroke: #9671bd; stroke-width: 2.5"/>
     <g>
      <use xlink:href="#m097537648a" x="315.391406" y="305.518281" style="fill: #9671bd; stroke: #9671bd; stroke-linejoin: miter"/>
     </g>
    </g>
    <g id="text_21">
     <!-- PQ 4-bit (LUT256) -->
     <g transform="translate(331.591406 308.668281) scale(0.09 -0.09)">
      <use xlink:href="#DejaVuSans-50"/>
      <use xlink:href="#DejaVuSans-51" transform="translate(60.302734 0)"/>
      <use xlink:href="#DejaVuSans-20" transform="translate(139.013672 0)"/>
      <use xlink:href="#DejaVuSans-34" transform="translate(170.800781 0)"/>
      <use xlink:href="#DejaVuSans-2d" transform="translate(234.423828 0)"/>
      <use xlink:href="#DejaVuSans-62" transform="translate(270.507812 0)"/>
      <use xlink:href="#DejaVuSans-69" transform="translate(333.984375 0)"/>
      <use xlink:href="#DejaVuSans-74" transform="translate(361.767578 0)"/>
      <use xlink:href="#DejaVuSans-20" transform="translate(400.976562 0)"/>
      <use xlink:href="#DejaVuSans-28" transform="translate(432.763672 0)"/>
      <use xlink:href="#DejaVuSans-4c" transform="translate(471.777344 0)"/>
      <use xlink:href="#DejaVuSans-55" transform="translate(522.490234 0)"/>
      <use xlink:href="#DejaVuSans-54" transform="translate(595.683594 0)"/>
      <use xlink:href="#DejaVuSans-32" transform="translate(656.767578 0)"/>
      <use xlink:href="#DejaVuSans-35" transform="translate(720.390625 0)"/>
      <use xlink:href="#DejaVuSans-36" transform="translate(784.013672 0)"/>
      <use xlink:href="#DejaVuSans-29" transform="translate(847.636719 0)"/>
     </g>
    </g>
   </g>
  </g>
  <g id="axes_2">
   <g id="patch_5">
    <path d="M 469.369063 318.64 
L 845.549063 318.64 
L 845.549063 88.8 
L 469.369063 88.8 
z
" style="fill: #ffffff"/>
   </g>
   <g id="matplotlib.axis_3">
    <g id="xtick_8">
     <g id="line2d_37">
      <path d="M 486.468153 318.64 
L 486.468153 88.8 
" clip-path="url(#p3ee233f8fc)" style="fill: none; stroke: #b0b0b0; stroke-opacity: 0.25; stroke-width: 0.6; stroke-linecap: square"/>
     </g>
     <g id="line2d_38">
      <g>
       <use xlink:href="#mc57bd41a6c" x="486.468153" y="318.64" style="stroke: #000000; stroke-width: 0.8"/>
      </g>
     </g>
     <g id="text_22">
      <!-- 1 -->
      <g transform="translate(483.286903 333.238437) scale(0.1 -0.1)">
       <use xlink:href="#DejaVuSans-31"/>
      </g>
     </g>
    </g>
    <g id="xtick_9">
     <g id="line2d_39">
      <path d="M 543.465123 318.64 
L 543.465123 88.8 
" clip-path="url(#p3ee233f8fc)" style="fill: none; stroke: #b0b0b0; stroke-opacity: 0.25; stroke-width: 0.6; stroke-linecap: square"/>
     </g>
     <g id="line2d_40">
      <g>
       <use xlink:href="#mc57bd41a6c" x="543.465123" y="318.64" style="stroke: #000000; stroke-width: 0.8"/>
      </g>
     </g>
     <g id="text_23">
      <!-- 2 -->
      <g transform="translate(540.283873 333.238437) scale(0.1 -0.1)">
       <use xlink:href="#DejaVuSans-32"/>
      </g>
     </g>
    </g>
    <g id="xtick_10">
     <g id="line2d_41">
      <path d="M 600.462093 318.64 
L 600.462093 88.8 
" clip-path="url(#p3ee233f8fc)" style="fill: none; stroke: #b0b0b0; stroke-opacity: 0.25; stroke-width: 0.6; stroke-linecap: square"/>
     </g>
     <g id="line2d_42">
      <g>
       <use xlink:href="#mc57bd41a6c" x="600.462093" y="318.64" style="stroke: #000000; stroke-width: 0.8"/>
      </g>
     </g>
     <g id="text_24">
      <!-- 4 -->
      <g transform="translate(597.280843 333.238437) scale(0.1 -0.1)">
       <use xlink:href="#DejaVuSans-34"/>
      </g>
     </g>
    </g>
    <g id="xtick_11">
     <g id="line2d_43">
      <path d="M 657.459063 318.64 
L 657.459063 88.8 
" clip-path="url(#p3ee233f8fc)" style="fill: none; stroke: #b0b0b0; stroke-opacity: 0.25; stroke-width: 0.6; stroke-linecap: square"/>
     </g>
     <g id="line2d_44">
      <g>
       <use xlink:href="#mc57bd41a6c" x="657.459063" y="318.64" style="stroke: #000000; stroke-width: 0.8"/>
      </g>
     </g>
     <g id="text_25">
      <!-- 8 -->
      <g transform="translate(654.277813 333.238437) scale(0.1 -0.1)">
       <use xlink:href="#DejaVuSans-38"/>
      </g>
     </g>
    </g>
    <g id="xtick_12">
     <g id="line2d_45">
      <path d="M 714.456032 318.64 
L 714.456032 88.8 
" clip-path="url(#p3ee233f8fc)" style="fill: none; stroke: #b0b0b0; stroke-opacity: 0.25; stroke-width: 0.6; stroke-linecap: square"/>
     </g>
     <g id="line2d_46">
      <g>
       <use xlink:href="#mc57bd41a6c" x="714.456032" y="318.64" style="stroke: #000000; stroke-width: 0.8"/>
      </g>
     </g>
     <g id="text_26">
      <!-- 16 -->
      <g transform="translate(708.093532 333.238437) scale(0.1 -0.1)">
       <use xlink:href="#DejaVuSans-31"/>
       <use xlink:href="#DejaVuSans-36" transform="translate(63.623047 0)"/>
      </g>
     </g>
    </g>
    <g id="xtick_13">
     <g id="line2d_47">
      <path d="M 771.453002 318.64 
L 771.453002 88.8 
" clip-path="url(#p3ee233f8fc)" style="fill: none; stroke: #b0b0b0; stroke-opacity: 0.25; stroke-width: 0.6; stroke-linecap: square"/>
     </g>
     <g id="line2d_48">
      <g>
       <use xlink:href="#mc57bd41a6c" x="771.453002" y="318.64" style="stroke: #000000; stroke-width: 0.8"/>
      </g>
     </g>
     <g id="text_27">
      <!-- 32 -->
      <g transform="translate(765.090502 333.238437) scale(0.1 -0.1)">
       <use xlink:href="#DejaVuSans-33"/>
       <use xlink:href="#DejaVuSans-32" transform="translate(63.623047 0)"/>
      </g>
     </g>
    </g>
    <g id="xtick_14">
     <g id="line2d_49">
      <path d="M 828.449972 318.64 
L 828.449972 88.8 
" clip-path="url(#p3ee233f8fc)" style="fill: none; stroke: #b0b0b0; stroke-opacity: 0.25; stroke-width: 0.6; stroke-linecap: square"/>
     </g>
     <g id="line2d_50">
      <g>
       <use xlink:href="#mc57bd41a6c" x="828.449972" y="318.64" style="stroke: #000000; stroke-width: 0.8"/>
      </g>
     </g>
     <g id="text_28">
      <!-- 64 -->
      <g transform="translate(822.087472 333.238437) scale(0.1 -0.1)">
       <use xlink:href="#DejaVuSans-36"/>
       <use xlink:href="#DejaVuSans-34" transform="translate(63.623047 0)"/>
      </g>
     </g>
    </g>
    <g id="text_29">
     <!-- Top-k -->
     <g transform="translate(643.008672 347.676406) scale(0.11 -0.11)">
      <use xlink:href="#DejaVuSans-54"/>
      <use xlink:href="#DejaVuSans-6f" transform="translate(44.083984 0)"/>
      <use xlink:href="#DejaVuSans-70" transform="translate(105.265625 0)"/>
      <use xlink:href="#DejaVuSans-2d" transform="translate(168.742188 0)"/>
      <use xlink:href="#DejaVuSans-6b" transform="translate(204.826172 0)"/>
     </g>
    </g>
   </g>
   <g id="matplotlib.axis_4">
    <g id="ytick_8">
     <g id="line2d_51">
      <path d="M 469.369063 318.64 
L 845.549063 318.64 
" clip-path="url(#p3ee233f8fc)" style="fill: none; stroke: #b0b0b0; stroke-opacity: 0.25; stroke-width: 0.6; stroke-linecap: square"/>
     </g>
     <g id="line2d_52">
      <g>
       <use xlink:href="#mcf8d487cba" x="469.369063" y="318.64" style="stroke: #000000; stroke-width: 0.8"/>
      </g>
     </g>
     <g id="text_30">
      <!-- 0.4 -->
      <g transform="translate(446.465938 322.439219) scale(0.1 -0.1)">
       <use xlink:href="#DejaVuSans-30"/>
       <use xlink:href="#DejaVuSans-2e" transform="translate(63.623047 0)"/>
       <use xlink:href="#DejaVuSans-34" transform="translate(95.410156 0)"/>
      </g>
     </g>
    </g>
    <g id="ytick_9">
     <g id="line2d_53">
      <path d="M 469.369063 283.28 
L 845.549063 283.28 
" clip-path="url(#p3ee233f8fc)" style="fill: none; stroke: #b0b0b0; stroke-opacity: 0.25; stroke-width: 0.6; stroke-linecap: square"/>
     </g>
     <g id="line2d_54">
      <g>
       <use xlink:href="#mcf8d487cba" x="469.369063" y="283.28" style="stroke: #000000; stroke-width: 0.8"/>
      </g>
     </g>
     <g id="text_31">
      <!-- 0.5 -->
      <g transform="translate(446.465938 287.079219) scale(0.1 -0.1)">
       <use xlink:href="#DejaVuSans-30"/>
       <use xlink:href="#DejaVuSans-2e" transform="translate(63.623047 0)"/>
       <use xlink:href="#DejaVuSans-35" transform="translate(95.410156 0)"/>
      </g>
     </g>
    </g>
    <g id="ytick_10">
     <g id="line2d_55">
      <path d="M 469.369063 247.92 
L 845.549063 247.92 
" clip-path="url(#p3ee233f8fc)" style="fill: none; stroke: #b0b0b0; stroke-opacity: 0.25; stroke-width: 0.6; stroke-linecap: square"/>
     </g>
     <g id="line2d_56">
      <g>
       <use xlink:href="#mcf8d487cba" x="469.369063" y="247.92" style="stroke: #000000; stroke-width: 0.8"/>
      </g>
     </g>
     <g id="text_32">
      <!-- 0.6 -->
      <g transform="translate(446.465938 251.719219) scale(0.1 -0.1)">
       <use xlink:href="#DejaVuSans-30"/>
       <use xlink:href="#DejaVuSans-2e" transform="translate(63.623047 0)"/>
       <use xlink:href="#DejaVuSans-36" transform="translate(95.410156 0)"/>
      </g>
     </g>
    </g>
    <g id="ytick_11">
     <g id="line2d_57">
      <path d="M 469.369063 212.56 
L 845.549063 212.56 
" clip-path="url(#p3ee233f8fc)" style="fill: none; stroke: #b0b0b0; stroke-opacity: 0.25; stroke-width: 0.6; stroke-linecap: square"/>
     </g>
     <g id="line2d_58">
      <g>
       <use xlink:href="#mcf8d487cba" x="469.369063" y="212.56" style="stroke: #000000; stroke-width: 0.8"/>
      </g>
     </g>
     <g id="text_33">
      <!-- 0.7 -->
      <g transform="translate(446.465938 216.359219) scale(0.1 -0.1)">
       <use xlink:href="#DejaVuSans-30"/>
       <use xlink:href="#DejaVuSans-2e" transform="translate(63.623047 0)"/>
       <use xlink:href="#DejaVuSans-37" transform="translate(95.410156 0)"/>
      </g>
     </g>
    </g>
    <g id="ytick_12">
     <g id="line2d_59">
      <path d="M 469.369063 177.2 
L 845.549063 177.2 
" clip-path="url(#p3ee233f8fc)" style="fill: none; stroke: #b0b0b0; stroke-opacity: 0.25; stroke-width: 0.6; stroke-linecap: square"/>
     </g>
     <g id="line2d_60">
      <g>
       <use xlink:href="#mcf8d487cba" x="469.369063" y="177.2" style="stroke: #000000; stroke-width: 0.8"/>
      </g>
     </g>
     <g id="text_34">
      <!-- 0.8 -->
      <g transform="translate(446.465938 180.999219) scale(0.1 -0.1)">
       <use xlink:href="#DejaVuSans-30"/>
       <use xlink:href="#DejaVuSans-2e" transform="translate(63.623047 0)"/>
       <use xlink:href="#DejaVuSans-38" transform="translate(95.410156 0)"/>
      </g>
     </g>
    </g>
    <g id="ytick_13">
     <g id="line2d_61">
      <path d="M 469.369063 141.84 
L 845.549063 141.84 
" clip-path="url(#p3ee233f8fc)" style="fill: none; stroke: #b0b0b0; stroke-opacity: 0.25; stroke-width: 0.6; stroke-linecap: square"/>
     </g>
     <g id="line2d_62">
      <g>
       <use xlink:href="#mcf8d487cba" x="469.369063" y="141.84" style="stroke: #000000; stroke-width: 0.8"/>
      </g>
     </g>
     <g id="text_35">
      <!-- 0.9 -->
      <g transform="translate(446.465938 145.639219) scale(0.1 -0.1)">
       <use xlink:href="#DejaVuSans-30"/>
       <use xlink:href="#DejaVuSans-2e" transform="translate(63.623047 0)"/>
       <use xlink:href="#DejaVuSans-39" transform="translate(95.410156 0)"/>
      </g>
     </g>
    </g>
    <g id="ytick_14">
     <g id="line2d_63">
      <path d="M 469.369063 106.48 
L 845.549063 106.48 
" clip-path="url(#p3ee233f8fc)" style="fill: none; stroke: #b0b0b0; stroke-opacity: 0.25; stroke-width: 0.6; stroke-linecap: square"/>
     </g>
     <g id="line2d_64">
      <g>
       <use xlink:href="#mcf8d487cba" x="469.369063" y="106.48" style="stroke: #000000; stroke-width: 0.8"/>
      </g>
     </g>
     <g id="text_36">
      <!-- 1.0 -->
      <g transform="translate(446.465938 110.279219) scale(0.1 -0.1)">
       <use xlink:href="#DejaVuSans-31"/>
       <use xlink:href="#DejaVuSans-2e" transform="translate(63.623047 0)"/>
       <use xlink:href="#DejaVuSans-30" transform="translate(95.410156 0)"/>
      </g>
     </g>
    </g>
    <g id="text_37">
     <!-- Recall@1@k -->
     <g transform="translate(440.178281 237.813125) rotate(-90) scale(0.11 -0.11)">
      <use xlink:href="#DejaVuSans-52"/>
      <use xlink:href="#DejaVuSans-65" transform="translate(64.982422 0)"/>
      <use xlink:href="#DejaVuSans-63" transform="translate(126.505859 0)"/>
      <use xlink:href="#DejaVuSans-61" transform="translate(181.486328 0)"/>
      <use xlink:href="#DejaVuSans-6c" transform="translate(242.765625 0)"/>
      <use xlink:href="#DejaVuSans-6c" transform="translate(270.548828 0)"/>
      <use xlink:href="#DejaVuSans-40" transform="translate(298.332031 0)"/>
      <use xlink:href="#DejaVuSans-31" transform="translate(398.332031 0)"/>
      <use xlink:href="#DejaVuSans-40" transform="translate(461.955078 0)"/>
      <use xlink:href="#DejaVuSans-6b" transform="translate(561.955078 0)"/>
     </g>
    </g>
   </g>
   <g id="line2d_65">
    <path d="M 486.468153 295.656 
L 543.465123 246.152 
L 600.462093 182.504 
L 657.459063 148.912 
L 714.456032 124.16 
L 771.453002 110.016 
L 828.449972 106.48 
" clip-path="url(#p3ee233f8fc)" style="fill: none; stroke: #f28e2b; stroke-width: 2; stroke-linecap: square"/>
    <g clip-path="url(#p3ee233f8fc)">
     <use xlink:href="#mb5f2b53923" x="486.468153" y="295.656" style="fill: #f28e2b; stroke: #f28e2b"/>
     <use xlink:href="#mb5f2b53923" x="543.465123" y="246.152" style="fill: #f28e2b; stroke: #f28e2b"/>
     <use xlink:href="#mb5f2b53923" x="600.462093" y="182.504" style="fill: #f28e2b; stroke: #f28e2b"/>
     <use xlink:href="#mb5f2b53923" x="657.459063" y="148.912" style="fill: #f28e2b; stroke: #f28e2b"/>
     <use xlink:href="#mb5f2b53923" x="714.456032" y="124.16" style="fill: #f28e2b; stroke: #f28e2b"/>
     <use xlink:href="#mb5f2b53923" x="771.453002" y="110.016" style="fill: #f28e2b; stroke: #f28e2b"/>
     <use xlink:href="#mb5f2b53923" x="828.449972" y="106.48" style="fill: #f28e2b; stroke: #f28e2b"/>
    </g>
   </g>
   <g id="line2d_66">
    <path d="M 486.468153 281.512 
L 543.465123 240.848 
L 600.462093 187.808 
L 657.459063 148.912 
L 714.456032 122.392 
L 771.453002 110.016 
L 828.449972 106.48 
" clip-path="url(#p3ee233f8fc)" style="fill: none; stroke-dasharray: 7.4,3.2; stroke-dashoffset: 0; stroke: #9c755f; stroke-width: 2"/>
    <g clip-path="url(#p3ee233f8fc)">
     <use xlink:href="#mc8b8b5a916" x="486.468153" y="281.512" style="fill: #9c755f; stroke: #9c755f; stroke-linejoin: miter"/>
     <use xlink:href="#mc8b8b5a916" x="543.465123" y="240.848" style="fill: #9c755f; stroke: #9c755f; stroke-linejoin: miter"/>
     <use xlink:href="#mc8b8b5a916" x="600.462093" y="187.808" style="fill: #9c755f; stroke: #9c755f; stroke-linejoin: miter"/>
     <use xlink:href="#mc8b8b5a916" x="657.459063" y="148.912" style="fill: #9c755f; stroke: #9c755f; stroke-linejoin: miter"/>
     <use xlink:href="#mc8b8b5a916" x="714.456032" y="122.392" style="fill: #9c755f; stroke: #9c755f; stroke-linejoin: miter"/>
     <use xlink:href="#mc8b8b5a916" x="771.453002" y="110.016" style="fill: #9c755f; stroke: #9c755f; stroke-linejoin: miter"/>
     <use xlink:href="#mc8b8b5a916" x="828.449972" y="106.48" style="fill: #9c755f; stroke: #9c755f; stroke-linejoin: miter"/>
    </g>
   </g>
   <g id="line2d_67">
    <path d="M 486.468153 184.272 
L 543.465123 129.464 
L 600.462093 111.784 
L 657.459063 106.48 
L 714.456032 106.48 
L 771.453002 106.48 
L 828.449972 106.48 
" clip-path="url(#p3ee233f8fc)" style="fill: none; stroke: #e15759; stroke-width: 2.5; stroke-linecap: square"/>
    <g clip-path="url(#p3ee233f8fc)">
     <use xlink:href="#mb69bebc173" x="486.468153" y="184.272" style="fill: #e15759; stroke: #e15759"/>
     <use xlink:href="#mb69bebc173" x="543.465123" y="129.464" style="fill: #e15759; stroke: #e15759"/>
     <use xlink:href="#mb69bebc173" x="600.462093" y="111.784" style="fill: #e15759; stroke: #e15759"/>
     <use xlink:href="#mb69bebc173" x="657.459063" y="106.48" style="fill: #e15759; stroke: #e15759"/>
     <use xlink:href="#mb69bebc173" x="714.456032" y="106.48" style="fill: #e15759; stroke: #e15759"/>
     <use xlink:href="#mb69bebc173" x="771.453002" y="106.48" style="fill: #e15759; stroke: #e15759"/>
     <use xlink:href="#mb69bebc173" x="828.449972" y="106.48" style="fill: #e15759; stroke: #e15759"/>
    </g>
   </g>
   <g id="line2d_68">
    <path d="M 486.468153 177.2 
L 543.465123 127.696 
L 600.462093 110.016 
L 657.459063 106.48 
L 714.456032 106.48 
L 771.453002 106.48 
L 828.449972 106.48 
" clip-path="url(#p3ee233f8fc)" style="fill: none; stroke-dasharray: 9.25,4; stroke-dashoffset: 0; stroke: #9671bd; stroke-width: 2.5"/>
    <g clip-path="url(#p3ee233f8fc)">
     <use xlink:href="#m097537648a" x="486.468153" y="177.2" style="fill: #9671bd; stroke: #9671bd; stroke-linejoin: miter"/>
     <use xlink:href="#m097537648a" x="543.465123" y="127.696" style="fill: #9671bd; stroke: #9671bd; stroke-linejoin: miter"/>
     <use xlink:href="#m097537648a" x="600.462093" y="110.016" style="fill: #9671bd; stroke: #9671bd; stroke-linejoin: miter"/>
     <use xlink:href="#m097537648a" x="657.459063" y="106.48" style="fill: #9671bd; stroke: #9671bd; stroke-linejoin: miter"/>
     <use xlink:href="#m097537648a" x="714.456032" y="106.48" style="fill: #9671bd; stroke: #9671bd; stroke-linejoin: miter"/>
     <use xlink:href="#m097537648a" x="771.453002" y="106.48" style="fill: #9671bd; stroke: #9671bd; stroke-linejoin: miter"/>
     <use xlink:href="#m097537648a" x="828.449972" y="106.48" style="fill: #9671bd; stroke: #9671bd; stroke-linejoin: miter"/>
    </g>
   </g>
   <g id="patch_6">
    <path d="M 469.369063 318.64 
L 469.369063 88.8 
" style="fill: none; stroke: #333333; stroke-width: 0.8; stroke-linejoin: miter; stroke-linecap: square"/>
   </g>
   <g id="patch_7">
    <path d="M 469.369063 318.64 
L 845.549063 318.64 
" style="fill: none; stroke: #333333; stroke-width: 0.8; stroke-linejoin: miter; stroke-linecap: square"/>
   </g>
   <g id="text_38">
    <!-- (b) d=1536 -->
    <g transform="translate(622.727422 82.8) scale(0.11 -0.11)">
     <defs>
      <path id="DejaVuSans-Bold-62" d="M 2400 722 
Q 2759 722 2948 984 
Q 3138 1247 3138 1747 
Q 3138 2247 2948 2509 
Q 2759 2772 2400 2772 
Q 2041 2772 1848 2508 
Q 1656 2244 1656 1747 
Q 1656 1250 1848 986 
Q 2041 722 2400 722 
z
M 1656 2988 
Q 1888 3294 2169 3439 
Q 2450 3584 2816 3584 
Q 3463 3584 3878 3070 
Q 4294 2556 4294 1747 
Q 4294 938 3878 423 
Q 3463 -91 2816 -91 
Q 2450 -91 2169 54 
Q 1888 200 1656 506 
L 1656 0 
L 538 0 
L 538 4863 
L 1656 4863 
L 1656 2988 
z
" transform="scale(0.015625)"/>
      <path id="DejaVuSans-Bold-31" d="M 750 831 
L 1813 831 
L 1813 3847 
L 722 3622 
L 722 4441 
L 1806 4666 
L 2950 4666 
L 2950 831 
L 4013 831 
L 4013 0 
L 750 0 
L 750 831 
z
" transform="scale(0.015625)"/>
      <path id="DejaVuSans-Bold-35" d="M 678 4666 
L 3669 4666 
L 3669 3781 
L 1638 3781 
L 1638 3059 
Q 1775 3097 1914 3117 
Q 2053 3138 2203 3138 
Q 3056 3138 3531 2711 
Q 4006 2284 4006 1522 
Q 4006 766 3489 337 
Q 2972 -91 2053 -91 
Q 1656 -91 1267 -14 
Q 878 63 494 219 
L 494 1166 
Q 875 947 1217 837 
Q 1559 728 1863 728 
Q 2300 728 2551 942 
Q 2803 1156 2803 1522 
Q 2803 1891 2551 2103 
Q 2300 2316 1863 2316 
Q 1603 2316 1309 2248 
Q 1016 2181 678 2041 
L 678 4666 
z
" transform="scale(0.015625)"/>
      <path id="DejaVuSans-Bold-36" d="M 2316 2303 
Q 2000 2303 1842 2098 
Q 1684 1894 1684 1484 
Q 1684 1075 1842 870 
Q 2000 666 2316 666 
Q 2634 666 2792 870 
Q 2950 1075 2950 1484 
Q 2950 1894 2792 2098 
Q 2634 2303 2316 2303 
z
M 3803 4544 
L 3803 3681 
Q 3506 3822 3243 3889 
Q 2981 3956 2731 3956 
Q 2194 3956 1894 3657 
Q 1594 3359 1544 2772 
Q 1750 2925 1990 3001 
Q 2231 3078 2516 3078 
Q 3231 3078 3670 2659 
Q 4109 2241 4109 1563 
Q 4109 813 3618 361 
Q 3128 -91 2303 -91 
Q 1394 -91 895 523 
Q 397 1138 397 2266 
Q 397 3422 980 4083 
Q 1563 4744 2578 4744 
Q 2900 4744 3203 4694 
Q 3506 4644 3803 4544 
z
" transform="scale(0.015625)"/>
     </defs>
     <use xlink:href="#DejaVuSans-Bold-28"/>
     <use xlink:href="#DejaVuSans-Bold-62" transform="translate(45.703125 0)"/>
     <use xlink:href="#DejaVuSans-Bold-29" transform="translate(117.285156 0)"/>
     <use xlink:href="#DejaVuSans-Bold-20" transform="translate(162.988281 0)"/>
     <use xlink:href="#DejaVuSans-Bold-64" transform="translate(197.802734 0)"/>
     <use xlink:href="#DejaVuSans-Bold-3d" transform="translate(269.384766 0)"/>
     <use xlink:href="#DejaVuSans-Bold-31" transform="translate(353.173828 0)"/>
     <use xlink:href="#DejaVuSans-Bold-35" transform="translate(422.753906 0)"/>
     <use xlink:href="#DejaVuSans-Bold-33" transform="translate(492.333984 0)"/>
     <use xlink:href="#DejaVuSans-Bold-36" transform="translate(561.914062 0)"/>
    </g>
   </g>
   <g id="legend_2">
    <g id="line2d_69">
     <path d="M 732.451406 265.887344 
L 741.451406 265.887344 
L 750.451406 265.887344 
" style="fill: none; stroke: #f28e2b; stroke-width: 2; stroke-linecap: square"/>
     <g>
      <use xlink:href="#mb5f2b53923" x="741.451406" y="265.887344" style="fill: #f28e2b; stroke: #f28e2b"/>
     </g>
    </g>
    <g id="text_39">
     <!-- TurboQuant 2-bit -->
     <g transform="translate(757.651406 269.037344) scale(0.09 -0.09)">
      <use xlink:href="#DejaVuSans-54"/>
      <use xlink:href="#DejaVuSans-75" transform="translate(45.958984 0)"/>
      <use xlink:href="#DejaVuSans-72" transform="translate(109.337891 0)"/>
      <use xlink:href="#DejaVuSans-62" transform="translate(150.451172 0)"/>
      <use xlink:href="#DejaVuSans-6f" transform="translate(213.927734 0)"/>
      <use xlink:href="#DejaVuSans-51" transform="translate(275.109375 0)"/>
      <use xlink:href="#DejaVuSans-75" transform="translate(353.820312 0)"/>
      <use xlink:href="#DejaVuSans-61" transform="translate(417.199219 0)"/>
      <use xlink:href="#DejaVuSans-6e" transform="translate(478.478516 0)"/>
      <use xlink:href="#DejaVuSans-74" transform="translate(541.857422 0)"/>
      <use xlink:href="#DejaVuSans-20" transform="translate(581.066406 0)"/>
      <use xlink:href="#DejaVuSans-32" transform="translate(612.853516 0)"/>
      <use xlink:href="#DejaVuSans-2d" transform="translate(676.476562 0)"/>
      <use xlink:href="#DejaVuSans-62" transform="translate(712.560547 0)"/>
      <use xlink:href="#DejaVuSans-69" transform="translate(776.037109 0)"/>
      <use xlink:href="#DejaVuSans-74" transform="translate(803.820312 0)"/>
     </g>
    </g>
    <g id="line2d_70">
     <path d="M 732.451406 279.097656 
L 741.451406 279.097656 
L 750.451406 279.097656 
" style="fill: none; stroke-dasharray: 7.4,3.2; stroke-dashoffset: 0; stroke: #9c755f; stroke-width: 2"/>
     <g>
      <use xlink:href="#mc8b8b5a916" x="741.451406" y="279.097656" style="fill: #9c755f; stroke: #9c755f; stroke-linejoin: miter"/>
     </g>
    </g>
    <g id="text_40">
     <!-- PQ 2-bit (LUT256) -->
     <g transform="translate(757.651406 282.247656) scale(0.09 -0.09)">
      <use xlink:href="#DejaVuSans-50"/>
      <use xlink:href="#DejaVuSans-51" transform="translate(60.302734 0)"/>
      <use xlink:href="#DejaVuSans-20" transform="translate(139.013672 0)"/>
      <use xlink:href="#DejaVuSans-32" transform="translate(170.800781 0)"/>
      <use xlink:href="#DejaVuSans-2d" transform="translate(234.423828 0)"/>
      <use xlink:href="#DejaVuSans-62" transform="translate(270.507812 0)"/>
      <use xlink:href="#DejaVuSans-69" transform="translate(333.984375 0)"/>
      <use xlink:href="#DejaVuSans-74" transform="translate(361.767578 0)"/>
      <use xlink:href="#DejaVuSans-20" transform="translate(400.976562 0)"/>
      <use xlink:href="#DejaVuSans-28" transform="translate(432.763672 0)"/>
      <use xlink:href="#DejaVuSans-4c" transform="translate(471.777344 0)"/>
      <use xlink:href="#DejaVuSans-55" transform="translate(522.490234 0)"/>
      <use xlink:href="#DejaVuSans-54" transform="translate(595.683594 0)"/>
      <use xlink:href="#DejaVuSans-32" transform="translate(656.767578 0)"/>
      <use xlink:href="#DejaVuSans-35" transform="translate(720.390625 0)"/>
      <use xlink:href="#DejaVuSans-36" transform="translate(784.013672 0)"/>
      <use xlink:href="#DejaVuSans-29" transform="translate(847.636719 0)"/>
     </g>
    </g>
    <g id="line2d_71">
     <path d="M 732.451406 292.307969 
L 741.451406 292.307969 
L 750.451406 292.307969 
" style="fill: none; stroke: #e15759; stroke-width: 2.5; stroke-linecap: square"/>
     <g>
      <use xlink:href="#mb69bebc173" x="741.451406" y="292.307969" style="fill: #e15759; stroke: #e15759"/>
     </g>
    </g>
    <g id="text_41">
     <!-- TurboQuant 4-bit -->
     <g transform="translate(757.651406 295.457969) scale(0.09 -0.09)">
      <use xlink:href="#DejaVuSans-54"/>
      <use xlink:href="#DejaVuSans-75" transform="translate(45.958984 0)"/>
      <use xlink:href="#DejaVuSans-72" transform="translate(109.337891 0)"/>
      <use xlink:href="#DejaVuSans-62" transform="translate(150.451172 0)"/>
      <use xlink:href="#DejaVuSans-6f" transform="translate(213.927734 0)"/>
      <use xlink:href="#DejaVuSans-51" transform="translate(275.109375 0)"/>
      <use xlink:href="#DejaVuSans-75" transform="translate(353.820312 0)"/>
      <use xlink:href="#DejaVuSans-61" transform="translate(417.199219 0)"/>
      <use xlink:href="#DejaVuSans-6e" transform="translate(478.478516 0)"/>
      <use xlink:href="#DejaVuSans-74" transform="translate(541.857422 0)"/>
      <use xlink:href="#DejaVuSans-20" transform="translate(581.066406 0)"/>
      <use xlink:href="#DejaVuSans-34" transform="translate(612.853516 0)"/>
      <use xlink:href="#DejaVuSans-2d" transform="translate(676.476562 0)"/>
      <use xlink:href="#DejaVuSans-62" transform="translate(712.560547 0)"/>
      <use xlink:href="#DejaVuSans-69" transform="translate(776.037109 0)"/>
      <use xlink:href="#DejaVuSans-74" transform="translate(803.820312 0)"/>
     </g>
    </g>
    <g id="line2d_72">
     <path d="M 732.451406 305.518281 
L 741.451406 305.518281 
L 750.451406 305.518281 
" style="fill: none; stroke-dasharray: 9.25,4; stroke-dashoffset: 0; stroke: #9671bd; stroke-width: 2.5"/>
     <g>
      <use xlink:href="#m097537648a" x="741.451406" y="305.518281" style="fill: #9671bd; stroke: #9671bd; stroke-linejoin: miter"/>
     </g>
    </g>
    <g id="text_42">
     <!-- PQ 4-bit (LUT256) -->
     <g transform="translate(757.651406 308.668281) scale(0.09 -0.09)">
      <use xlink:href="#DejaVuSans-50"/>
      <use xlink:href="#DejaVuSans-51" transform="translate(60.302734 0)"/>
      <use xlink:href="#DejaVuSans-20" transform="translate(139.013672 0)"/>
      <use xlink:href="#DejaVuSans-34" transform="translate(170.800781 0)"/>
      <use xlink:href="#DejaVuSans-2d" transform="translate(234.423828 0)"/>
      <use xlink:href="#DejaVuSans-62" transform="translate(270.507812 0)"/>
      <use xlink:href="#DejaVuSans-69" transform="translate(333.984375 0)"/>
      <use xlink:href="#DejaVuSans-74" transform="translate(361.767578 0)"/>
      <use xlink:href="#DejaVuSans-20" transform="translate(400.976562 0)"/>
      <use xlink:href="#DejaVuSans-28" transform="translate(432.763672 0)"/>
      <use xlink:href="#DejaVuSans-4c" transform="translate(471.777344 0)"/>
      <use xlink:href="#DejaVuSans-55" transform="translate(522.490234 0)"/>
      <use xlink:href="#DejaVuSans-54" transform="translate(595.683594 0)"/>
      <use xlink:href="#DejaVuSans-32" transform="translate(656.767578 0)"/>
      <use xlink:href="#DejaVuSans-35" transform="translate(720.390625 0)"/>
      <use xlink:href="#DejaVuSans-36" transform="translate(784.013672 0)"/>
      <use xlink:href="#DejaVuSans-29" transform="translate(847.636719 0)"/>
     </g>
    </g>
   </g>
  </g>
  <g id="text_43">
   <!-- Recall@1@k — Nearest Neighbor Search -->
   <g transform="translate(244.292812 17.9175) scale(0.16 -0.16)">
    <defs>
     <path id="DejaVuSans-Bold-52" d="M 2297 2597 
Q 2675 2597 2839 2737 
Q 3003 2878 3003 3200 
Q 3003 3519 2839 3656 
Q 2675 3794 2297 3794 
L 1791 3794 
L 1791 2597 
L 2297 2597 
z
M 1791 1766 
L 1791 0 
L 588 0 
L 588 4666 
L 2425 4666 
Q 3347 4666 3776 4356 
Q 4206 4047 4206 3378 
Q 4206 2916 3982 2619 
Q 3759 2322 3309 2181 
Q 3556 2125 3751 1926 
Q 3947 1728 4147 1325 
L 4800 0 
L 3519 0 
L 2950 1159 
Q 2778 1509 2601 1637 
Q 2425 1766 2131 1766 
L 1791 1766 
z
" transform="scale(0.015625)"/>
     <path id="DejaVuSans-Bold-65" d="M 4031 1759 
L 4031 1441 
L 1416 1441 
Q 1456 1047 1700 850 
Q 1944 653 2381 653 
Q 2734 653 3104 758 
Q 3475 863 3866 1075 
L 3866 213 
Q 3469 63 3072 -14 
Q 2675 -91 2278 -91 
Q 1328 -91 801 392 
Q 275 875 275 1747 
Q 275 2603 792 3093 
Q 1309 3584 2216 3584 
Q 3041 3584 3536 3087 
Q 4031 2591 4031 1759 
z
M 2881 2131 
Q 2881 2450 2695 2645 
Q 2509 2841 2209 2841 
Q 1884 2841 1681 2658 
Q 1478 2475 1428 2131 
L 2881 2131 
z
" transform="scale(0.015625)"/>
     <path id="DejaVuSans-Bold-63" d="M 3366 3391 
L 3366 2478 
Q 3138 2634 2908 2709 
Q 2678 2784 2431 2784 
Q 1963 2784 1702 2511 
Q 1441 2238 1441 1747 
Q 1441 1256 1702 982 
Q 1963 709 2431 709 
Q 2694 709 2930 787 
Q 3166 866 3366 1019 
L 3366 103 
Q 3103 6 2833 -42 
Q 2563 -91 2291 -91 
Q 1344 -91 809 395 
Q 275 881 275 1747 
Q 275 2613 809 3098 
Q 1344 3584 2291 3584 
Q 2566 3584 2833 3536 
Q 3100 3488 3366 3391 
z
" transform="scale(0.015625)"/>
     <path id="DejaVuSans-Bold-6c" d="M 538 4863 
L 1656 4863 
L 1656 0 
L 538 0 
L 538 4863 
z
" transform="scale(0.015625)"/>
     <path id="DejaVuSans-Bold-40" d="M 2597 1684 
Q 2597 1300 2761 1078 
Q 2925 856 3206 856 
Q 3484 856 3650 1079 
Q 3816 1303 3816 1684 
Q 3816 2063 3648 2283 
Q 3481 2503 3200 2503 
Q 2925 2503 2761 2283 
Q 2597 2063 2597 1684 
z
M 3878 744 
Q 3784 522 3576 398 
Q 3369 275 3091 275 
Q 2553 275 2217 664 
Q 1881 1053 1881 1678 
Q 1881 2303 2218 2693 
Q 2556 3084 3091 3084 
Q 3369 3084 3576 2959 
Q 3784 2834 3878 2613 
L 3878 3022 
L 4531 3022 
L 4531 856 
Q 4919 916 5141 1230 
Q 5363 1544 5363 2034 
Q 5363 2347 5272 2620 
Q 5181 2894 4997 3122 
Q 4700 3503 4254 3709 
Q 3809 3916 3291 3916 
Q 2928 3916 2597 3820 
Q 2266 3725 1984 3541 
Q 1522 3234 1264 2748 
Q 1006 2263 1006 1697 
Q 1006 1231 1173 823 
Q 1341 416 1656 103 
Q 1969 -203 2373 -364 
Q 2778 -525 3238 -525 
Q 3631 -525 4025 -378 
Q 4419 -231 4697 19 
L 5031 -488 
Q 4641 -791 4180 -952 
Q 3719 -1113 3244 -1113 
Q 2666 -1113 2153 -908 
Q 1641 -703 1241 -313 
Q 841 78 631 592 
Q 422 1106 422 1697 
Q 422 2266 634 2781 
Q 847 3297 1241 3688 
Q 1634 4075 2157 4287 
Q 2681 4500 3244 4500 
Q 3944 4500 4516 4233 
Q 5088 3966 5472 3463 
Q 5706 3156 5826 2798 
Q 5947 2441 5947 2047 
Q 5947 1200 5437 731 
Q 4928 263 4000 263 
L 3878 263 
L 3878 744 
z
" transform="scale(0.015625)"/>
     <path id="DejaVuSans-Bold-6b" d="M 538 4863 
L 1656 4863 
L 1656 2216 
L 2944 3500 
L 4244 3500 
L 2534 1894 
L 4378 0 
L 3022 0 
L 1656 1459 
L 1656 0 
L 538 0 
L 538 4863 
z
" transform="scale(0.015625)"/>
     <path id="DejaVuSans-Bold-2014" d="M 344 2156 
L 6056 2156 
L 6056 1350 
L 344 1350 
L 344 2156 
z
" transform="scale(0.015625)"/>
     <path id="DejaVuSans-Bold-4e" d="M 588 4666 
L 1931 4666 
L 3628 1466 
L 3628 4666 
L 4769 4666 
L 4769 0 
L 3425 0 
L 1728 3200 
L 1728 0 
L 588 0 
L 588 4666 
z
" transform="scale(0.015625)"/>
     <path id="DejaVuSans-Bold-72" d="M 3138 2547 
Q 2991 2616 2845 2648 
Q 2700 2681 2553 2681 
Q 2122 2681 1889 2404 
Q 1656 2128 1656 1613 
L 1656 0 
L 538 0 
L 538 3500 
L 1656 3500 
L 1656 2925 
Q 1872 3269 2151 3426 
Q 2431 3584 2822 3584 
Q 2878 3584 2943 3579 
Q 3009 3575 3134 3559 
L 3138 2547 
z
" transform="scale(0.015625)"/>
     <path id="DejaVuSans-Bold-73" d="M 3272 3391 
L 3272 2541 
Q 2913 2691 2578 2766 
Q 2244 2841 1947 2841 
Q 1628 2841 1473 2761 
Q 1319 2681 1319 2516 
Q 1319 2381 1436 2309 
Q 1553 2238 1856 2203 
L 2053 2175 
Q 2913 2066 3209 1816 
Q 3506 1566 3506 1031 
Q 3506 472 3093 190 
Q 2681 -91 1863 -91 
Q 1516 -91 1145 -36 
Q 775 19 384 128 
L 384 978 
Q 719 816 1070 734 
Q 1422 653 1784 653 
Q 2113 653 2278 743 
Q 2444 834 2444 1013 
Q 2444 1163 2330 1236 
Q 2216 1309 1875 1350 
L 1678 1375 
Q 931 1469 631 1722 
Q 331 1975 331 2491 
Q 331 3047 712 3315 
Q 1094 3584 1881 3584 
Q 2191 3584 2531 3537 
Q 2872 3491 3272 3391 
z
" transform="scale(0.015625)"/>
     <path id="DejaVuSans-Bold-74" d="M 1759 4494 
L 1759 3500 
L 2913 3500 
L 2913 2700 
L 1759 2700 
L 1759 1216 
Q 1759 972 1856 886 
Q 1953 800 2241 800 
L 2816 800 
L 2816 0 
L 1856 0 
Q 1194 0 917 276 
Q 641 553 641 1216 
L 641 2700 
L 84 2700 
L 84 3500 
L 641 3500 
L 641 4494 
L 1759 4494 
z
" transform="scale(0.015625)"/>
     <path id="DejaVuSans-Bold-69" d="M 538 3500 
L 1656 3500 
L 1656 0 
L 538 0 
L 538 3500 
z
M 538 4863 
L 1656 4863 
L 1656 3950 
L 538 3950 
L 538 4863 
z
" transform="scale(0.015625)"/>
     <path id="DejaVuSans-Bold-67" d="M 2919 594 
Q 2688 288 2409 144 
Q 2131 0 1766 0 
Q 1125 0 706 504 
Q 288 1009 288 1791 
Q 288 2575 706 3076 
Q 1125 3578 1766 3578 
Q 2131 3578 2409 3434 
Q 2688 3291 2919 2981 
L 2919 3500 
L 4044 3500 
L 4044 353 
Q 4044 -491 3511 -936 
Q 2978 -1381 1966 -1381 
Q 1638 -1381 1331 -1331 
Q 1025 -1281 716 -1178 
L 716 -306 
Q 1009 -475 1290 -558 
Q 1572 -641 1856 -641 
Q 2406 -641 2662 -400 
Q 2919 -159 2919 353 
L 2919 594 
z
M 2181 2772 
Q 1834 2772 1640 2515 
Q 1447 2259 1447 1791 
Q 1447 1309 1634 1061 
Q 1822 813 2181 813 
Q 2531 813 2725 1069 
Q 2919 1325 2919 1791 
Q 2919 2259 2725 2515 
Q 2531 2772 2181 2772 
z
" transform="scale(0.015625)"/>
     <path id="DejaVuSans-Bold-68" d="M 4056 2131 
L 4056 0 
L 2931 0 
L 2931 347 
L 2931 1625 
Q 2931 2084 2911 2256 
Q 2891 2428 2841 2509 
Q 2775 2619 2662 2680 
Q 2550 2741 2406 2741 
Q 2056 2741 1856 2470 
Q 1656 2200 1656 1722 
L 1656 0 
L 538 0 
L 538 4863 
L 1656 4863 
L 1656 2988 
Q 1909 3294 2193 3439 
Q 2478 3584 2822 3584 
Q 3428 3584 3742 3212 
Q 4056 2841 4056 2131 
z
" transform="scale(0.015625)"/>
     <path id="DejaVuSans-Bold-6f" d="M 2203 2784 
Q 1831 2784 1636 2517 
Q 1441 2250 1441 1747 
Q 1441 1244 1636 976 
Q 1831 709 2203 709 
Q 2569 709 2762 976 
Q 2956 1244 2956 1747 
Q 2956 2250 2762 2517 
Q 2569 2784 2203 2784 
z
M 2203 3584 
Q 3106 3584 3614 3096 
Q 4122 2609 4122 1747 
Q 4122 884 3614 396 
Q 3106 -91 2203 -91 
Q 1297 -91 786 396 
Q 275 884 275 1747 
Q 275 2609 786 3096 
Q 1297 3584 2203 3584 
z
" transform="scale(0.015625)"/>
     <path id="DejaVuSans-Bold-53" d="M 3834 4519 
L 3834 3531 
Q 3450 3703 3084 3790 
Q 2719 3878 2394 3878 
Q 1963 3878 1756 3759 
Q 1550 3641 1550 3391 
Q 1550 3203 1689 3098 
Q 1828 2994 2194 2919 
L 2706 2816 
Q 3484 2659 3812 2340 
Q 4141 2022 4141 1434 
Q 4141 663 3683 286 
Q 3225 -91 2284 -91 
Q 1841 -91 1394 -6 
Q 947 78 500 244 
L 500 1259 
Q 947 1022 1364 901 
Q 1781 781 2169 781 
Q 2563 781 2772 912 
Q 2981 1044 2981 1288 
Q 2981 1506 2839 1625 
Q 2697 1744 2272 1838 
L 1806 1941 
Q 1106 2091 782 2419 
Q 459 2747 459 3303 
Q 459 4000 909 4375 
Q 1359 4750 2203 4750 
Q 2588 4750 2994 4692 
Q 3400 4634 3834 4519 
z
" transform="scale(0.015625)"/>
    </defs>
    <use xlink:href="#DejaVuSans-Bold-52"/>
    <use xlink:href="#DejaVuSans-Bold-65" transform="translate(77.001953 0)"/>
    <use xlink:href="#DejaVuSans-Bold-63" transform="translate(144.824219 0)"/>
    <use xlink:href="#DejaVuSans-Bold-61" transform="translate(204.101562 0)"/>
    <use xlink:href="#DejaVuSans-Bold-6c" transform="translate(271.582031 0)"/>
    <use xlink:href="#DejaVuSans-Bold-6c" transform="translate(305.859375 0)"/>
    <use xlink:href="#DejaVuSans-Bold-40" transform="translate(340.136719 0)"/>
    <use xlink:href="#DejaVuSans-Bold-31" transform="translate(440.136719 0)"/>
    <use xlink:href="#DejaVuSans-Bold-40" transform="translate(509.716797 0)"/>
    <use xlink:href="#DejaVuSans-Bold-6b" transform="translate(609.716797 0)"/>
    <use xlink:href="#DejaVuSans-Bold-20" transform="translate(676.220703 0)"/>
    <use xlink:href="#DejaVuSans-Bold-2014" transform="translate(711.035156 0)"/>
    <use xlink:href="#DejaVuSans-Bold-20" transform="translate(811.035156 0)"/>
    <use xlink:href="#DejaVuSans-Bold-4e" transform="translate(845.849609 0)"/>
    <use xlink:href="#DejaVuSans-Bold-65" transform="translate(929.541016 0)"/>
    <use xlink:href="#DejaVuSans-Bold-61" transform="translate(997.363281 0)"/>
    <use xlink:href="#DejaVuSans-Bold-72" transform="translate(1064.84375 0)"/>
    <use xlink:href="#DejaVuSans-Bold-65" transform="translate(1114.160156 0)"/>
    <use xlink:href="#DejaVuSans-Bold-73" transform="translate(1181.982422 0)"/>
    <use xlink:href="#DejaVuSans-Bold-74" transform="translate(1241.503906 0)"/>
    <use xlink:href="#DejaVuSans-Bold-20" transform="translate(1289.306641 0)"/>
    <use xlink:href="#DejaVuSans-Bold-4e" transform="translate(1324.121094 0)"/>
    <use xlink:href="#DejaVuSans-Bold-65" transform="translate(1407.8125 0)"/>
    <use xlink:href="#DejaVuSans-Bold-69" transform="translate(1475.634766 0)"/>
    <use xlink:href="#DejaVuSans-Bold-67" transform="translate(1509.912109 0)"/>
    <use xlink:href="#DejaVuSans-Bold-68" transform="translate(1581.494141 0)"/>
    <use xlink:href="#DejaVuSans-Bold-62" transform="translate(1652.685547 0)"/>
    <use xlink:href="#DejaVuSans-Bold-6f" transform="translate(1724.267578 0)"/>
    <use xlink:href="#DejaVuSans-Bold-72" transform="translate(1792.96875 0)"/>
    <use xlink:href="#DejaVuSans-Bold-20" transform="translate(1842.285156 0)"/>
    <use xlink:href="#DejaVuSans-Bold-53" transform="translate(1877.099609 0)"/>
    <use xlink:href="#DejaVuSans-Bold-65" transform="translate(1949.121094 0)"/>
    <use xlink:href="#DejaVuSans-Bold-61" transform="translate(2016.943359 0)"/>
    <use xlink:href="#DejaVuSans-Bold-72" transform="translate(2084.423828 0)"/>
    <use xlink:href="#DejaVuSans-Bold-63" transform="translate(2133.740234 0)"/>
    <use xlink:href="#DejaVuSans-Bold-68" transform="translate(2193.017578 0)"/>
   </g>
  </g>
  <g id="text_44">
   <!-- True top-1 in approximate top-k; 10,000 vectors, 200 queries -->
   <g style="fill: #4d4d4d" transform="translate(268.747402 31.548398) scale(0.1025 -0.1025)">
    <defs>
     <path id="DejaVuSans-78" d="M 3513 3500 
L 2247 1797 
L 3578 0 
L 2900 0 
L 1881 1375 
L 863 0 
L 184 0 
L 1544 1831 
L 300 3500 
L 978 3500 
L 1906 2253 
L 2834 3500 
L 3513 3500 
z
" transform="scale(0.015625)"/>
     <path id="DejaVuSans-6d" d="M 3328 2828 
Q 3544 3216 3844 3400 
Q 4144 3584 4550 3584 
Q 5097 3584 5394 3201 
Q 5691 2819 5691 2113 
L 5691 0 
L 5113 0 
L 5113 2094 
Q 5113 2597 4934 2840 
Q 4756 3084 4391 3084 
Q 3944 3084 3684 2787 
Q 3425 2491 3425 1978 
L 3425 0 
L 2847 0 
L 2847 2094 
Q 2847 2600 2669 2842 
Q 2491 3084 2119 3084 
Q 1678 3084 1418 2786 
Q 1159 2488 1159 1978 
L 1159 0 
L 581 0 
L 581 3500 
L 1159 3500 
L 1159 2956 
Q 1356 3278 1631 3431 
Q 1906 3584 2284 3584 
Q 2666 3584 2933 3390 
Q 3200 3197 3328 2828 
z
" transform="scale(0.015625)"/>
     <path id="DejaVuSans-3b" d="M 750 3309 
L 1409 3309 
L 1409 2516 
L 750 2516 
L 750 3309 
z
M 750 794 
L 1409 794 
L 1409 256 
L 897 -744 
L 494 -744 
L 750 256 
L 750 794 
z
" transform="scale(0.015625)"/>
     <path id="DejaVuSans-2c" d="M 750 794 
L 1409 794 
L 1409 256 
L 897 -744 
L 494 -744 
L 750 256 
L 750 794 
z
" transform="scale(0.015625)"/>
     <path id="DejaVuSans-76" d="M 191 3500 
L 800 3500 
L 1894 563 
L 2988 3500 
L 3597 3500 
L 2284 0 
L 1503 0 
L 191 3500 
z
" transform="scale(0.015625)"/>
     <path id="DejaVuSans-73" d="M 2834 3397 
L 2834 2853 
Q 2591 2978 2328 3040 
Q 2066 3103 1784 3103 
Q 1356 3103 1142 2972 
Q 928 2841 928 2578 
Q 928 2378 1081 2264 
Q 1234 2150 1697 2047 
L 1894 2003 
Q 2506 1872 2764 1633 
Q 3022 1394 3022 966 
Q 3022 478 2636 193 
Q 2250 -91 1575 -91 
Q 1294 -91 989 -36 
Q 684 19 347 128 
L 347 722 
Q 666 556 975 473 
Q 1284 391 1588 391 
Q 1994 391 2212 530 
Q 2431 669 2431 922 
Q 2431 1156 2273 1281 
Q 2116 1406 1581 1522 
L 1381 1569 
Q 847 1681 609 1914 
Q 372 2147 372 2553 
Q 372 3047 722 3315 
Q 1072 3584 1716 3584 
Q 2034 3584 2315 3537 
Q 2597 3491 2834 3397 
z
" transform="scale(0.015625)"/>
     <path id="DejaVuSans-71" d="M 947 1747 
Q 947 1113 1208 752 
Q 1469 391 1925 391 
Q 2381 391 2643 752 
Q 2906 1113 2906 1747 
Q 2906 2381 2643 2742 
Q 2381 3103 1925 3103 
Q 1469 3103 1208 2742 
Q 947 2381 947 1747 
z
M 2906 525 
Q 2725 213 2448 61 
Q 2172 -91 1784 -91 
Q 1150 -91 751 415 
Q 353 922 353 1747 
Q 353 2572 751 3078 
Q 1150 3584 1784 3584 
Q 2172 3584 2448 3432 
Q 2725 3281 2906 2969 
L 2906 3500 
L 3481 3500 
L 3481 -1331 
L 2906 -1331 
L 2906 525 
z
" transform="scale(0.015625)"/>
    </defs>
    <use xlink:href="#DejaVuSans-54"/>
    <use xlink:href="#DejaVuSans-72" transform="translate(46.333984 0)"/>
    <use xlink:href="#DejaVuSans-75" transform="translate(87.447266 0)"/>
    <use xlink:href="#DejaVuSans-65" transform="translate(150.826172 0)"/>
    <use xlink:href="#DejaVuSans-20" transform="translate(212.349609 0)"/>
    <use xlink:href="#DejaVuSans-74" transform="translate(244.136719 0)"/>
    <use xlink:href="#DejaVuSans-6f" transform="translate(283.345703 0)"/>
    <use xlink:href="#DejaVuSans-70" transform="translate(344.527344 0)"/>
    <use xlink:href="#DejaVuSans-2d" transform="translate(408.003906 0)"/>
    <use xlink:href="#DejaVuSans-31" transform="translate(444.087891 0)"/>
    <use xlink:href="#DejaVuSans-20" transform="translate(507.710938 0)"/>
    <use xlink:href="#DejaVuSans-69" transform="translate(539.498047 0)"/>
    <use xlink:href="#DejaVuSans-6e" transform="translate(567.28125 0)"/>
    <use xlink:href="#DejaVuSans-20" transform="translate(630.660156 0)"/>
    <use xlink:href="#DejaVuSans-61" transform="translate(662.447266 0)"/>
    <use xlink:href="#DejaVuSans-70" transform="translate(723.726562 0)"/>
    <use xlink:href="#DejaVuSans-70" transform="translate(787.203125 0)"/>
    <use xlink:href="#DejaVuSans-72" transform="translate(850.679688 0)"/>
    <use xlink:href="#DejaVuSans-6f" transform="translate(889.542969 0)"/>
    <use xlink:href="#DejaVuSans-78" transform="translate(947.599609 0)"/>
    <use xlink:href="#DejaVuSans-69" transform="translate(1006.779297 0)"/>
    <use xlink:href="#DejaVuSans-6d" transform="translate(1034.5625 0)"/>
    <use xlink:href="#DejaVuSans-61" transform="translate(1131.974609 0)"/>
    <use xlink:href="#DejaVuSans-74" transform="translate(1193.253906 0)"/>
    <use xlink:href="#DejaVuSans-65" transform="translate(1232.462891 0)"/>
    <use xlink:href="#DejaVuSans-20" transform="translate(1293.986328 0)"/>
    <use xlink:href="#DejaVuSans-74" transform="translate(1325.773438 0)"/>
    <use xlink:href="#DejaVuSans-6f" transform="translate(1364.982422 0)"/>
    <use xlink:href="#DejaVuSans-70" transform="translate(1426.164062 0)"/>
    <use xlink:href="#DejaVuSans-2d" transform="translate(1489.640625 0)"/>
    <use xlink:href="#DejaVuSans-6b" transform="translate(1525.724609 0)"/>
    <use xlink:href="#DejaVuSans-3b" transform="translate(1583.634766 0)"/>
    <use xlink:href="#DejaVuSans-20" transform="translate(1617.326172 0)"/>
    <use xlink:href="#DejaVuSans-31" transform="translate(1649.113281 0)"/>
    <use xlink:href="#DejaVuSans-30" transform="translate(1712.736328 0)"/>
    <use xlink:href="#DejaVuSans-2c" transform="translate(1776.359375 0)"/>
    <use xlink:href="#DejaVuSans-30" transform="translate(1808.146484 0)"/>
    <use xlink:href="#DejaVuSans-30" transform="translate(1871.769531 0)"/>
    <use xlink:href="#DejaVuSans-30" transform="translate(1935.392578 0)"/>
    <use xlink:href="#DejaVuSans-20" transform="translate(1999.015625 0)"/>
    <use xlink:href="#DejaVuSans-76" transform="translate(2030.802734 0)"/>
    <use xlink:href="#DejaVuSans-65" transform="translate(2089.982422 0)"/>
    <use xlink:href="#DejaVuSans-63" transform="translate(2151.505859 0)"/>
    <use xlink:href="#DejaVuSans-74" transform="translate(2206.486328 0)"/>
    <use xlink:href="#DejaVuSans-6f" transform="translate(2245.695312 0)"/>
    <use xlink:href="#DejaVuSans-72" transform="translate(2306.876953 0)"/>
    <use xlink:href="#DejaVuSans-73" transform="translate(2347.990234 0)"/>
    <use xlink:href="#DejaVuSans-2c" transform="translate(2400.089844 0)"/>
    <use xlink:href="#DejaVuSans-20" transform="translate(2431.876953 0)"/>
    <use xlink:href="#DejaVuSans-32" transform="translate(2463.664062 0)"/>
    <use xlink:href="#DejaVuSans-30" transform="translate(2527.287109 0)"/>
    <use xlink:href="#DejaVuSans-30" transform="translate(2590.910156 0)"/>
    <use xlink:href="#DejaVuSans-20" transform="translate(2654.533203 0)"/>
    <use xlink:href="#DejaVuSans-71" transform="translate(2686.320312 0)"/>
    <use xlink:href="#DejaVuSans-75" transform="translate(2749.796875 0)"/>
    <use xlink:href="#DejaVuSans-65" transform="translate(2813.175781 0)"/>
    <use xlink:href="#DejaVuSans-72" transform="translate(2874.699219 0)"/>
    <use xlink:href="#DejaVuSans-69" transform="translate(2915.8125 0)"/>
    <use xlink:href="#DejaVuSans-65" transform="translate(2943.595703 0)"/>
    <use xlink:href="#DejaVuSans-73" transform="translate(3005.119141 0)"/>
   </g>
  </g>
 </g>
 <defs>
  <clipPath id="paa17754ee6">
   <rect x="43.309063" y="88.8" width="376.18" height="229.84"/>
  </clipPath>
  <clipPath id="p3ee233f8fc">
   <rect x="469.369063" y="88.8" width="376.18" height="229.84"/>
  </clipPath>
 </defs>
</svg>
