<?xml version="1.0" encoding="utf-8" standalone="no"?>
<!DOCTYPE svg PUBLIC "-//W3C//DTD SVG 1.1//EN"
  "http://www.w3.org/Graphics/SVG/1.1/DTD/svg11.dtd">
<svg xmlns:xlink="http://www.w3.org/1999/xlink" width="513.360859pt" height="331.041875pt" viewBox="0 0 513.360859 331.041875" xmlns="http://www.w3.org/2000/svg" version="1.1">
 <metadata>
  <rdf:RDF xmlns:dc="http://purl.org/dc/elements/1.1/" xmlns:cc="http://creativecommons.org/ns#" xmlns:rdf="http://www.w3.org/1999/02/22-rdf-syntax-ns#">
   <cc:Work>
    <dc:type rdf:resource="http://purl.org/dc/dcmitype/StillImage"/>
    <dc:date>2026-04-02T17:26:51.968117</dc:date>
    <dc:format>image/svg+xml</dc:format>
    <dc:creator>
     <cc:Agent>
      <dc:title>Matplotlib v3.10.3, https://matplotlib.org/</dc:title>
     </cc:Agent>
    </dc:creator>
   </cc:Work>
  </rdf:RDF>
 </metadata>
 <defs>
  <style type="text/css">*{stroke-linejoin: round; stroke-linecap: butt}</style>
 </defs>
 <g id="figure_1">
  <g id="patch_1">
   <path d="M 0 331.041875 
L 513.360859 331.041875 
L 513.360859 0 
L 0 0 
z
" style="fill: #ffffff"/>
  </g>
  <g id="axes_1">
   <g id="patch_2">
    <path d="M 50.760859 296.117812 
L 509.760859 296.117812 
L 509.760859 66.077812 
L 50.760859 66.077812 
z
" style="fill: #ffffff"/>
   </g>
   <g id="patch_3">
    <path d="M 341.460859 296.117812 
L 502.110859 296.117812 
L 502.110859 66.077812 
L 341.460859 66.077812 
z
" clip-path="url(#pf7537406a4)" style="fill: #e8f5e9; opacity: 0.4; stroke: #e8f5e9; stroke-linejoin: miter"/>
   </g>
   <g id="matplotlib.axis_1">
    <g id="xtick_1">
     <g id="line2d_1">
      <path d="M 81.360859 296.117812 
L 81.360859 66.077812 
" clip-path="url(#pf7537406a4)" style="fill: none; stroke: #b0b0b0; stroke-opacity: 0.2; stroke-width: 0.6; stroke-linecap: square"/>
     </g>
     <g id="line2d_2">
      <defs>
       <path id="m26a81c720a" d="M 0 0 
L 0 3.5 
" style="stroke: #000000; stroke-width: 0.8"/>
      </defs>
      <g>
       <use xlink:href="#m26a81c720a" x="81.360859" y="296.117812" style="stroke: #000000; stroke-width: 0.8"/>
      </g>
     </g>
     <g id="text_1">
      <!-- 80 -->
      <g transform="translate(74.998359 310.71625) scale(0.1 -0.1)">
       <defs>
        <path id="DejaVuSans-38" d="M 2034 2216 
Q 1584 2216 1326 1975 
Q 1069 1734 1069 1313 
Q 1069 891 1326 650 
Q 1584 409 2034 409 
Q 2484 409 2743 651 
Q 3003 894 3003 1313 
Q 3003 1734 2745 1975 
Q 2488 2216 2034 2216 
z
M 1403 2484 
Q 997 2584 770 2862 
Q 544 3141 544 3541 
Q 544 4100 942 4425 
Q 1341 4750 2034 4750 
Q 2731 4750 3128 4425 
Q 3525 4100 3525 3541 
Q 3525 3141 3298 2862 
Q 3072 2584 2669 2484 
Q 3125 2378 3379 2068 
Q 3634 1759 3634 1313 
Q 3634 634 3220 271 
Q 2806 -91 2034 -91 
Q 1263 -91 848 271 
Q 434 634 434 1313 
Q 434 1759 690 2068 
Q 947 2378 1403 2484 
z
M 1172 3481 
Q 1172 3119 1398 2916 
Q 1625 2713 2034 2713 
Q 2441 2713 2670 2916 
Q 2900 3119 2900 3481 
Q 2900 3844 2670 4047 
Q 2441 4250 2034 4250 
Q 1625 4250 1398 4047 
Q 1172 3844 1172 3481 
z
" transform="scale(0.015625)"/>
        <path id="DejaVuSans-30" d="M 2034 4250 
Q 1547 4250 1301 3770 
Q 1056 3291 1056 2328 
Q 1056 1369 1301 889 
Q 1547 409 2034 409 
Q 2525 409 2770 889 
Q 3016 1369 3016 2328 
Q 3016 3291 2770 3770 
Q 2525 4250 2034 4250 
z
M 2034 4750 
Q 2819 4750 3233 4129 
Q 3647 3509 3647 2328 
Q 3647 1150 3233 529 
Q 2819 -91 2034 -91 
Q 1250 -91 836 529 
Q 422 1150 422 2328 
Q 422 3509 836 4129 
Q 1250 4750 2034 4750 
z
" transform="scale(0.015625)"/>
       </defs>
       <use xlink:href="#DejaVuSans-38"/>
       <use xlink:href="#DejaVuSans-30" transform="translate(63.623047 0)"/>
      </g>
     </g>
    </g>
    <g id="xtick_2">
     <g id="line2d_3">
      <path d="M 157.860859 296.117812 
L 157.860859 66.077812 
" clip-path="url(#pf7537406a4)" style="fill: none; stroke: #b0b0b0; stroke-opacity: 0.2; stroke-width: 0.6; stroke-linecap: square"/>
     </g>
     <g id="line2d_4">
      <g>
       <use xlink:href="#m26a81c720a" x="157.860859" y="296.117812" style="stroke: #000000; stroke-width: 0.8"/>
      </g>
     </g>
     <g id="text_2">
      <!-- 85 -->
      <g transform="translate(151.498359 310.71625) scale(0.1 -0.1)">
       <defs>
        <path id="DejaVuSans-35" d="M 691 4666 
L 3169 4666 
L 3169 4134 
L 1269 4134 
L 1269 2991 
Q 1406 3038 1543 3061 
Q 1681 3084 1819 3084 
Q 2600 3084 3056 2656 
Q 3513 2228 3513 1497 
Q 3513 744 3044 326 
Q 2575 -91 1722 -91 
Q 1428 -91 1123 -41 
Q 819 9 494 109 
L 494 744 
Q 775 591 1075 516 
Q 1375 441 1709 441 
Q 2250 441 2565 725 
Q 2881 1009 2881 1497 
Q 2881 1984 2565 2268 
Q 2250 2553 1709 2553 
Q 1456 2553 1204 2497 
Q 953 2441 691 2322 
L 691 4666 
z
" transform="scale(0.015625)"/>
       </defs>
       <use xlink:href="#DejaVuSans-38"/>
       <use xlink:href="#DejaVuSans-35" transform="translate(63.623047 0)"/>
      </g>
     </g>
    </g>
    <g id="xtick_3">
     <g id="line2d_5">
      <path d="M 234.360859 296.117812 
L 234.360859 66.077812 
" clip-path="url(#pf7537406a4)" style="fill: none; stroke: #b0b0b0; stroke-opacity: 0.2; stroke-width: 0.6; stroke-linecap: square"/>
     </g>
     <g id="line2d_6">
      <g>
       <use xlink:href="#m26a81c720a" x="234.360859" y="296.117812" style="stroke: #000000; stroke-width: 0.8"/>
      </g>
     </g>
     <g id="text_3">
      <!-- 90 -->
      <g transform="translate(227.998359 310.71625) scale(0.1 -0.1)">
       <defs>
        <path id="DejaVuSans-39" d="M 703 97 
L 703 672 
Q 941 559 1184 500 
Q 1428 441 1663 441 
Q 2288 441 2617 861 
Q 2947 1281 2994 2138 
Q 2813 1869 2534 1725 
Q 2256 1581 1919 1581 
Q 1219 1581 811 2004 
Q 403 2428 403 3163 
Q 403 3881 828 4315 
Q 1253 4750 1959 4750 
Q 2769 4750 3195 4129 
Q 3622 3509 3622 2328 
Q 3622 1225 3098 567 
Q 2575 -91 1691 -91 
Q 1453 -91 1209 -44 
Q 966 3 703 97 
z
M 1959 2075 
Q 2384 2075 2632 2365 
Q 2881 2656 2881 3163 
Q 2881 3666 2632 3958 
Q 2384 4250 1959 4250 
Q 1534 4250 1286 3958 
Q 1038 3666 1038 3163 
Q 1038 2656 1286 2365 
Q 1534 2075 1959 2075 
z
" transform="scale(0.015625)"/>
       </defs>
       <use xlink:href="#DejaVuSans-39"/>
       <use xlink:href="#DejaVuSans-30" transform="translate(63.623047 0)"/>
      </g>
     </g>
    </g>
    <g id="xtick_4">
     <g id="line2d_7">
      <path d="M 310.860859 296.117812 
L 310.860859 66.077812 
" clip-path="url(#pf7537406a4)" style="fill: none; stroke: #b0b0b0; stroke-opacity: 0.2; stroke-width: 0.6; stroke-linecap: square"/>
     </g>
     <g id="line2d_8">
      <g>
       <use xlink:href="#m26a81c720a" x="310.860859" y="296.117812" style="stroke: #000000; stroke-width: 0.8"/>
      </g>
     </g>
     <g id="text_4">
      <!-- 95 -->
      <g transform="translate(304.498359 310.71625) scale(0.1 -0.1)">
       <use xlink:href="#DejaVuSans-39"/>
       <use xlink:href="#DejaVuSans-35" transform="translate(63.623047 0)"/>
      </g>
     </g>
    </g>
    <g id="xtick_5">
     <g id="line2d_9">
      <path d="M 387.360859 296.117812 
L 387.360859 66.077812 
" clip-path="url(#pf7537406a4)" style="fill: none; stroke: #b0b0b0; stroke-opacity: 0.2; stroke-width: 0.6; stroke-linecap: square"/>
     </g>
     <g id="line2d_10">
      <g>
       <use xlink:href="#m26a81c720a" x="387.360859" y="296.117812" style="stroke: #000000; stroke-width: 0.8"/>
      </g>
     </g>
     <g id="text_5">
      <!-- 100 -->
      <g transform="translate(377.817109 310.71625) scale(0.1 -0.1)">
       <defs>
        <path id="DejaVuSans-31" d="M 794 531 
L 1825 531 
L 1825 4091 
L 703 3866 
L 703 4441 
L 1819 4666 
L 2450 4666 
L 2450 531 
L 3481 531 
L 3481 0 
L 794 0 
L 794 531 
z
" transform="scale(0.015625)"/>
       </defs>
       <use xlink:href="#DejaVuSans-31"/>
       <use xlink:href="#DejaVuSans-30" transform="translate(63.623047 0)"/>
       <use xlink:href="#DejaVuSans-30" transform="translate(127.246094 0)"/>
      </g>
     </g>
    </g>
    <g id="xtick_6">
     <g id="line2d_11">
      <path d="M 463.860859 296.117812 
L 463.860859 66.077812 
" clip-path="url(#pf7537406a4)" style="fill: none; stroke: #b0b0b0; stroke-opacity: 0.2; stroke-width: 0.6; stroke-linecap: square"/>
     </g>
     <g id="line2d_12">
      <g>
       <use xlink:href="#m26a81c720a" x="463.860859" y="296.117812" style="stroke: #000000; stroke-width: 0.8"/>
      </g>
     </g>
     <g id="text_6">
      <!-- 105 -->
      <g transform="translate(454.317109 310.71625) scale(0.1 -0.1)">
       <use xlink:href="#DejaVuSans-31"/>
       <use xlink:href="#DejaVuSans-30" transform="translate(63.623047 0)"/>
       <use xlink:href="#DejaVuSans-35" transform="translate(127.246094 0)"/>
      </g>
     </g>
    </g>
    <g id="xtick_7">
     <g id="line2d_13">
      <path d="M 50.760859 296.117812 
L 50.760859 66.077812 
" clip-path="url(#pf7537406a4)" style="fill: none; stroke: #b0b0b0; stroke-opacity: 0.1; stroke-width: 0.3; stroke-linecap: square"/>
     </g>
     <g id="line2d_14">
      <defs>
       <path id="m3efde18fd6" d="M 0 0 
L 0 2 
" style="stroke: #000000; stroke-width: 0.6"/>
      </defs>
      <g>
       <use xlink:href="#m3efde18fd6" x="50.760859" y="296.117812" style="stroke: #000000; stroke-width: 0.6"/>
      </g>
     </g>
    </g>
    <g id="xtick_8">
     <g id="line2d_15">
      <path d="M 66.060859 296.117812 
L 66.060859 66.077812 
" clip-path="url(#pf7537406a4)" style="fill: none; stroke: #b0b0b0; stroke-opacity: 0.1; stroke-width: 0.3; stroke-linecap: square"/>
     </g>
     <g id="line2d_16">
      <g>
       <use xlink:href="#m3efde18fd6" x="66.060859" y="296.117812" style="stroke: #000000; stroke-width: 0.6"/>
      </g>
     </g>
    </g>
    <g id="xtick_9">
     <g id="line2d_17">
      <path d="M 96.660859 296.117812 
L 96.660859 66.077812 
" clip-path="url(#pf7537406a4)" style="fill: none; stroke: #b0b0b0; stroke-opacity: 0.1; stroke-width: 0.3; stroke-linecap: square"/>
     </g>
     <g id="line2d_18">
      <g>
       <use xlink:href="#m3efde18fd6" x="96.660859" y="296.117812" style="stroke: #000000; stroke-width: 0.6"/>
      </g>
     </g>
    </g>
    <g id="xtick_10">
     <g id="line2d_19">
      <path d="M 111.960859 296.117812 
L 111.960859 66.077812 
" clip-path="url(#pf7537406a4)" style="fill: none; stroke: #b0b0b0; stroke-opacity: 0.1; stroke-width: 0.3; stroke-linecap: square"/>
     </g>
     <g id="line2d_20">
      <g>
       <use xlink:href="#m3efde18fd6" x="111.960859" y="296.117812" style="stroke: #000000; stroke-width: 0.6"/>
      </g>
     </g>
    </g>
    <g id="xtick_11">
     <g id="line2d_21">
      <path d="M 127.260859 296.117812 
L 127.260859 66.077812 
" clip-path="url(#pf7537406a4)" style="fill: none; stroke: #b0b0b0; stroke-opacity: 0.1; stroke-width: 0.3; stroke-linecap: square"/>
     </g>
     <g id="line2d_22">
      <g>
       <use xlink:href="#m3efde18fd6" x="127.260859" y="296.117812" style="stroke: #000000; stroke-width: 0.6"/>
      </g>
     </g>
    </g>
    <g id="xtick_12">
     <g id="line2d_23">
      <path d="M 142.560859 296.117812 
L 142.560859 66.077812 
" clip-path="url(#pf7537406a4)" style="fill: none; stroke: #b0b0b0; stroke-opacity: 0.1; stroke-width: 0.3; stroke-linecap: square"/>
     </g>
     <g id="line2d_24">
      <g>
       <use xlink:href="#m3efde18fd6" x="142.560859" y="296.117812" style="stroke: #000000; stroke-width: 0.6"/>
      </g>
     </g>
    </g>
    <g id="xtick_13">
     <g id="line2d_25">
      <path d="M 173.160859 296.117812 
L 173.160859 66.077812 
" clip-path="url(#pf7537406a4)" style="fill: none; stroke: #b0b0b0; stroke-opacity: 0.1; stroke-width: 0.3; stroke-linecap: square"/>
     </g>
     <g id="line2d_26">
      <g>
       <use xlink:href="#m3efde18fd6" x="173.160859" y="296.117812" style="stroke: #000000; stroke-width: 0.6"/>
      </g>
     </g>
    </g>
    <g id="xtick_14">
     <g id="line2d_27">
      <path d="M 188.460859 296.117812 
L 188.460859 66.077812 
" clip-path="url(#pf7537406a4)" style="fill: none; stroke: #b0b0b0; stroke-opacity: 0.1; stroke-width: 0.3; stroke-linecap: square"/>
     </g>
     <g id="line2d_28">
      <g>
       <use xlink:href="#m3efde18fd6" x="188.460859" y="296.117812" style="stroke: #000000; stroke-width: 0.6"/>
      </g>
     </g>
    </g>
    <g id="xtick_15">
     <g id="line2d_29">
      <path d="M 203.760859 296.117812 
L 203.760859 66.077812 
" clip-path="url(#pf7537406a4)" style="fill: none; stroke: #b0b0b0; stroke-opacity: 0.1; stroke-width: 0.3; stroke-linecap: square"/>
     </g>
     <g id="line2d_30">
      <g>
       <use xlink:href="#m3efde18fd6" x="203.760859" y="296.117812" style="stroke: #000000; stroke-width: 0.6"/>
      </g>
     </g>
    </g>
    <g id="xtick_16">
     <g id="line2d_31">
      <path d="M 219.060859 296.117812 
L 219.060859 66.077812 
" clip-path="url(#pf7537406a4)" style="fill: none; stroke: #b0b0b0; stroke-opacity: 0.1; stroke-width: 0.3; stroke-linecap: square"/>
     </g>
     <g id="line2d_32">
      <g>
       <use xlink:href="#m3efde18fd6" x="219.060859" y="296.117812" style="stroke: #000000; stroke-width: 0.6"/>
      </g>
     </g>
    </g>
    <g id="xtick_17">
     <g id="line2d_33">
      <path d="M 249.660859 296.117812 
L 249.660859 66.077812 
" clip-path="url(#pf7537406a4)" style="fill: none; stroke: #b0b0b0; stroke-opacity: 0.1; stroke-width: 0.3; stroke-linecap: square"/>
     </g>
     <g id="line2d_34">
      <g>
       <use xlink:href="#m3efde18fd6" x="249.660859" y="296.117812" style="stroke: #000000; stroke-width: 0.6"/>
      </g>
     </g>
    </g>
    <g id="xtick_18">
     <g id="line2d_35">
      <path d="M 264.960859 296.117812 
L 264.960859 66.077812 
" clip-path="url(#pf7537406a4)" style="fill: none; stroke: #b0b0b0; stroke-opacity: 0.1; stroke-width: 0.3; stroke-linecap: square"/>
     </g>
     <g id="line2d_36">
      <g>
       <use xlink:href="#m3efde18fd6" x="264.960859" y="296.117812" style="stroke: #000000; stroke-width: 0.6"/>
      </g>
     </g>
    </g>
    <g id="xtick_19">
     <g id="line2d_37">
      <path d="M 280.260859 296.117812 
L 280.260859 66.077812 
" clip-path="url(#pf7537406a4)" style="fill: none; stroke: #b0b0b0; stroke-opacity: 0.1; stroke-width: 0.3; stroke-linecap: square"/>
     </g>
     <g id="line2d_38">
      <g>
       <use xlink:href="#m3efde18fd6" x="280.260859" y="296.117812" style="stroke: #000000; stroke-width: 0.6"/>
      </g>
     </g>
    </g>
    <g id="xtick_20">
     <g id="line2d_39">
      <path d="M 295.560859 296.117812 
L 295.560859 66.077812 
" clip-path="url(#pf7537406a4)" style="fill: none; stroke: #b0b0b0; stroke-opacity: 0.1; stroke-width: 0.3; stroke-linecap: square"/>
     </g>
     <g id="line2d_40">
      <g>
       <use xlink:href="#m3efde18fd6" x="295.560859" y="296.117812" style="stroke: #000000; stroke-width: 0.6"/>
      </g>
     </g>
    </g>
    <g id="xtick_21">
     <g id="line2d_41">
      <path d="M 326.160859 296.117812 
L 326.160859 66.077812 
" clip-path="url(#pf7537406a4)" style="fill: none; stroke: #b0b0b0; stroke-opacity: 0.1; stroke-width: 0.3; stroke-linecap: square"/>
     </g>
     <g id="line2d_42">
      <g>
       <use xlink:href="#m3efde18fd6" x="326.160859" y="296.117812" style="stroke: #000000; stroke-width: 0.6"/>
      </g>
     </g>
    </g>
    <g id="xtick_22">
     <g id="line2d_43">
      <path d="M 341.460859 296.117812 
L 341.460859 66.077812 
" clip-path="url(#pf7537406a4)" style="fill: none; stroke: #b0b0b0; stroke-opacity: 0.1; stroke-width: 0.3; stroke-linecap: square"/>
     </g>
     <g id="line2d_44">
      <g>
       <use xlink:href="#m3efde18fd6" x="341.460859" y="296.117812" style="stroke: #000000; stroke-width: 0.6"/>
      </g>
     </g>
    </g>
    <g id="xtick_23">
     <g id="line2d_45">
      <path d="M 356.760859 296.117812 
L 356.760859 66.077812 
" clip-path="url(#pf7537406a4)" style="fill: none; stroke: #b0b0b0; stroke-opacity: 0.1; stroke-width: 0.3; stroke-linecap: square"/>
     </g>
     <g id="line2d_46">
      <g>
       <use xlink:href="#m3efde18fd6" x="356.760859" y="296.117812" style="stroke: #000000; stroke-width: 0.6"/>
      </g>
     </g>
    </g>
    <g id="xtick_24">
     <g id="line2d_47">
      <path d="M 372.060859 296.117812 
L 372.060859 66.077812 
" clip-path="url(#pf7537406a4)" style="fill: none; stroke: #b0b0b0; stroke-opacity: 0.1; stroke-width: 0.3; stroke-linecap: square"/>
     </g>
     <g id="line2d_48">
      <g>
       <use xlink:href="#m3efde18fd6" x="372.060859" y="296.117812" style="stroke: #000000; stroke-width: 0.6"/>
      </g>
     </g>
    </g>
    <g id="xtick_25">
     <g id="line2d_49">
      <path d="M 402.660859 296.117812 
L 402.660859 66.077812 
" clip-path="url(#pf7537406a4)" style="fill: none; stroke: #b0b0b0; stroke-opacity: 0.1; stroke-width: 0.3; stroke-linecap: square"/>
     </g>
     <g id="line2d_50">
      <g>
       <use xlink:href="#m3efde18fd6" x="402.660859" y="296.117812" style="stroke: #000000; stroke-width: 0.6"/>
      </g>
     </g>
    </g>
    <g id="xtick_26">
     <g id="line2d_51">
      <path d="M 417.960859 296.117812 
L 417.960859 66.077812 
" clip-path="url(#pf7537406a4)" style="fill: none; stroke: #b0b0b0; stroke-opacity: 0.1; stroke-width: 0.3; stroke-linecap: square"/>
     </g>
     <g id="line2d_52">
      <g>
       <use xlink:href="#m3efde18fd6" x="417.960859" y="296.117812" style="stroke: #000000; stroke-width: 0.6"/>
      </g>
     </g>
    </g>
    <g id="xtick_27">
     <g id="line2d_53">
      <path d="M 433.260859 296.117812 
L 433.260859 66.077812 
" clip-path="url(#pf7537406a4)" style="fill: none; stroke: #b0b0b0; stroke-opacity: 0.1; stroke-width: 0.3; stroke-linecap: square"/>
     </g>
     <g id="line2d_54">
      <g>
       <use xlink:href="#m3efde18fd6" x="433.260859" y="296.117812" style="stroke: #000000; stroke-width: 0.6"/>
      </g>
     </g>
    </g>
    <g id="xtick_28">
     <g id="line2d_55">
      <path d="M 448.560859 296.117812 
L 448.560859 66.077812 
" clip-path="url(#pf7537406a4)" style="fill: none; stroke: #b0b0b0; stroke-opacity: 0.1; stroke-width: 0.3; stroke-linecap: square"/>
     </g>
     <g id="line2d_56">
      <g>
       <use xlink:href="#m3efde18fd6" x="448.560859" y="296.117812" style="stroke: #000000; stroke-width: 0.6"/>
      </g>
     </g>
    </g>
    <g id="xtick_29">
     <g id="line2d_57">
      <path d="M 479.160859 296.117812 
L 479.160859 66.077812 
" clip-path="url(#pf7537406a4)" style="fill: none; stroke: #b0b0b0; stroke-opacity: 0.1; stroke-width: 0.3; stroke-linecap: square"/>
     </g>
     <g id="line2d_58">
      <g>
       <use xlink:href="#m3efde18fd6" x="479.160859" y="296.117812" style="stroke: #000000; stroke-width: 0.6"/>
      </g>
     </g>
    </g>
    <g id="xtick_30">
     <g id="line2d_59">
      <path d="M 494.460859 296.117812 
L 494.460859 66.077812 
" clip-path="url(#pf7537406a4)" style="fill: none; stroke: #b0b0b0; stroke-opacity: 0.1; stroke-width: 0.3; stroke-linecap: square"/>
     </g>
     <g id="line2d_60">
      <g>
       <use xlink:href="#m3efde18fd6" x="494.460859" y="296.117812" style="stroke: #000000; stroke-width: 0.6"/>
      </g>
     </g>
    </g>
    <g id="xtick_31">
     <g id="line2d_61">
      <path d="M 509.760859 296.117812 
L 509.760859 66.077812 
" clip-path="url(#pf7537406a4)" style="fill: none; stroke: #b0b0b0; stroke-opacity: 0.1; stroke-width: 0.3; stroke-linecap: square"/>
     </g>
     <g id="line2d_62">
      <g>
       <use xlink:href="#m3efde18fd6" x="509.760859" y="296.117812" style="stroke: #000000; stroke-width: 0.6"/>
      </g>
     </g>
    </g>
    <g id="text_7">
     <!-- NDCG@10 retention vs FP32 (%) -->
     <g transform="translate(190.119297 325.154219) scale(0.11 -0.11)">
      <defs>
       <path id="DejaVuSans-4e" d="M 628 4666 
L 1478 4666 
L 3547 763 
L 3547 4666 
L 4159 4666 
L 4159 0 
L 3309 0 
L 1241 3903 
L 1241 0 
L 628 0 
L 628 4666 
z
" transform="scale(0.015625)"/>
       <path id="DejaVuSans-44" d="M 1259 4147 
L 1259 519 
L 2022 519 
Q 2988 519 3436 956 
Q 3884 1394 3884 2338 
Q 3884 3275 3436 3711 
Q 2988 4147 2022 4147 
L 1259 4147 
z
M 628 4666 
L 1925 4666 
Q 3281 4666 3915 4102 
Q 4550 3538 4550 2338 
Q 4550 1131 3912 565 
Q 3275 0 1925 0 
L 628 0 
L 628 4666 
z
" transform="scale(0.015625)"/>
       <path id="DejaVuSans-43" d="M 4122 4306 
L 4122 3641 
Q 3803 3938 3442 4084 
Q 3081 4231 2675 4231 
Q 1875 4231 1450 3742 
Q 1025 3253 1025 2328 
Q 1025 1406 1450 917 
Q 1875 428 2675 428 
Q 3081 428 3442 575 
Q 3803 722 4122 1019 
L 4122 359 
Q 3791 134 3420 21 
Q 3050 -91 2638 -91 
Q 1578 -91 968 557 
Q 359 1206 359 2328 
Q 359 3453 968 4101 
Q 1578 4750 2638 4750 
Q 3056 4750 3426 4639 
Q 3797 4528 4122 4306 
z
" transform="scale(0.015625)"/>
       <path id="DejaVuSans-47" d="M 3809 666 
L 3809 1919 
L 2778 1919 
L 2778 2438 
L 4434 2438 
L 4434 434 
Q 4069 175 3628 42 
Q 3188 -91 2688 -91 
Q 1594 -91 976 548 
Q 359 1188 359 2328 
Q 359 3472 976 4111 
Q 1594 4750 2688 4750 
Q 3144 4750 3555 4637 
Q 3966 4525 4313 4306 
L 4313 3634 
Q 3963 3931 3569 4081 
Q 3175 4231 2741 4231 
Q 1884 4231 1454 3753 
Q 1025 3275 1025 2328 
Q 1025 1384 1454 906 
Q 1884 428 2741 428 
Q 3075 428 3337 486 
Q 3600 544 3809 666 
z
" transform="scale(0.015625)"/>
       <path id="DejaVuSans-40" d="M 2381 1678 
Q 2381 1231 2603 976 
Q 2825 722 3213 722 
Q 3597 722 3817 978 
Q 4038 1234 4038 1678 
Q 4038 2116 3813 2373 
Q 3588 2631 3206 2631 
Q 2828 2631 2604 2375 
Q 2381 2119 2381 1678 
z
M 4084 744 
Q 3897 503 3655 389 
Q 3413 275 3091 275 
Q 2553 275 2217 664 
Q 1881 1053 1881 1678 
Q 1881 2303 2218 2693 
Q 2556 3084 3091 3084 
Q 3413 3084 3656 2967 
Q 3900 2850 4084 2613 
L 4084 3022 
L 4531 3022 
L 4531 722 
Q 4988 791 5245 1139 
Q 5503 1488 5503 2041 
Q 5503 2375 5404 2669 
Q 5306 2963 5106 3213 
Q 4781 3622 4314 3839 
Q 3847 4056 3297 4056 
Q 2913 4056 2559 3954 
Q 2206 3853 1906 3653 
Q 1416 3334 1139 2817 
Q 863 2300 863 1697 
Q 863 1200 1042 765 
Q 1222 331 1563 0 
Q 1891 -325 2322 -495 
Q 2753 -666 3244 -666 
Q 3647 -666 4036 -530 
Q 4425 -394 4750 -141 
L 5031 -488 
Q 4641 -791 4180 -952 
Q 3719 -1113 3244 -1113 
Q 2666 -1113 2153 -908 
Q 1641 -703 1241 -313 
Q 841 78 631 592 
Q 422 1106 422 1697 
Q 422 2266 634 2781 
Q 847 3297 1241 3688 
Q 1644 4084 2172 4295 
Q 2700 4506 3291 4506 
Q 3953 4506 4520 4234 
Q 5088 3963 5472 3463 
Q 5706 3156 5829 2797 
Q 5953 2438 5953 2053 
Q 5953 1231 5456 756 
Q 4959 281 4084 263 
L 4084 744 
z
" transform="scale(0.015625)"/>
       <path id="DejaVuSans-20" transform="scale(0.015625)"/>
       <path id="DejaVuSans-72" d="M 2631 2963 
Q 2534 3019 2420 3045 
Q 2306 3072 2169 3072 
Q 1681 3072 1420 2755 
Q 1159 2438 1159 1844 
L 1159 0 
L 581 0 
L 581 3500 
L 1159 3500 
L 1159 2956 
Q 1341 3275 1631 3429 
Q 1922 3584 2338 3584 
Q 2397 3584 2469 3576 
Q 2541 3569 2628 3553 
L 2631 2963 
z
" transform="scale(0.015625)"/>
       <path id="DejaVuSans-65" d="M 3597 1894 
L 3597 1613 
L 953 1613 
Q 991 1019 1311 708 
Q 1631 397 2203 397 
Q 2534 397 2845 478 
Q 3156 559 3463 722 
L 3463 178 
Q 3153 47 2828 -22 
Q 2503 -91 2169 -91 
Q 1331 -91 842 396 
Q 353 884 353 1716 
Q 353 2575 817 3079 
Q 1281 3584 2069 3584 
Q 2775 3584 3186 3129 
Q 3597 2675 3597 1894 
z
M 3022 2063 
Q 3016 2534 2758 2815 
Q 2500 3097 2075 3097 
Q 1594 3097 1305 2825 
Q 1016 2553 972 2059 
L 3022 2063 
z
" transform="scale(0.015625)"/>
       <path id="DejaVuSans-74" d="M 1172 4494 
L 1172 3500 
L 2356 3500 
L 2356 3053 
L 1172 3053 
L 1172 1153 
Q 1172 725 1289 603 
Q 1406 481 1766 481 
L 2356 481 
L 2356 0 
L 1766 0 
Q 1100 0 847 248 
Q 594 497 594 1153 
L 594 3053 
L 172 3053 
L 172 3500 
L 594 3500 
L 594 4494 
L 1172 4494 
z
" transform="scale(0.015625)"/>
       <path id="DejaVuSans-6e" d="M 3513 2113 
L 3513 0 
L 2938 0 
L 2938 2094 
Q 2938 2591 2744 2837 
Q 2550 3084 2163 3084 
Q 1697 3084 1428 2787 
Q 1159 2491 1159 1978 
L 1159 0 
L 581 0 
L 581 3500 
L 1159 3500 
L 1159 2956 
Q 1366 3272 1645 3428 
Q 1925 3584 2291 3584 
Q 2894 3584 3203 3211 
Q 3513 2838 3513 2113 
z
" transform="scale(0.015625)"/>
       <path id="DejaVuSans-69" d="M 603 3500 
L 1178 3500 
L 1178 0 
L 603 0 
L 603 3500 
z
M 603 4863 
L 1178 4863 
L 1178 4134 
L 603 4134 
L 603 4863 
z
" transform="scale(0.015625)"/>
       <path id="DejaVuSans-6f" d="M 1959 3097 
Q 1497 3097 1228 2736 
Q 959 2375 959 1747 
Q 959 1119 1226 758 
Q 1494 397 1959 397 
Q 2419 397 2687 759 
Q 2956 1122 2956 1747 
Q 2956 2369 2687 2733 
Q 2419 3097 1959 3097 
z
M 1959 3584 
Q 2709 3584 3137 3096 
Q 3566 2609 3566 1747 
Q 3566 888 3137 398 
Q 2709 -91 1959 -91 
Q 1206 -91 779 398 
Q 353 888 353 1747 
Q 353 2609 779 3096 
Q 1206 3584 1959 3584 
z
" transform="scale(0.015625)"/>
       <path id="DejaVuSans-76" d="M 191 3500 
L 800 3500 
L 1894 563 
L 2988 3500 
L 3597 3500 
L 2284 0 
L 1503 0 
L 191 3500 
z
" transform="scale(0.015625)"/>
       <path id="DejaVuSans-73" d="M 2834 3397 
L 2834 2853 
Q 2591 2978 2328 3040 
Q 2066 3103 1784 3103 
Q 1356 3103 1142 2972 
Q 928 2841 928 2578 
Q 928 2378 1081 2264 
Q 1234 2150 1697 2047 
L 1894 2003 
Q 2506 1872 2764 1633 
Q 3022 1394 3022 966 
Q 3022 478 2636 193 
Q 2250 -91 1575 -91 
Q 1294 -91 989 -36 
Q 684 19 347 128 
L 347 722 
Q 666 556 975 473 
Q 1284 391 1588 391 
Q 1994 391 2212 530 
Q 2431 669 2431 922 
Q 2431 1156 2273 1281 
Q 2116 1406 1581 1522 
L 1381 1569 
Q 847 1681 609 1914 
Q 372 2147 372 2553 
Q 372 3047 722 3315 
Q 1072 3584 1716 3584 
Q 2034 3584 2315 3537 
Q 2597 3491 2834 3397 
z
" transform="scale(0.015625)"/>
       <path id="DejaVuSans-46" d="M 628 4666 
L 3309 4666 
L 3309 4134 
L 1259 4134 
L 1259 2759 
L 3109 2759 
L 3109 2228 
L 1259 2228 
L 1259 0 
L 628 0 
L 628 4666 
z
" transform="scale(0.015625)"/>
       <path id="DejaVuSans-50" d="M 1259 4147 
L 1259 2394 
L 2053 2394 
Q 2494 2394 2734 2622 
Q 2975 2850 2975 3272 
Q 2975 3691 2734 3919 
Q 2494 4147 2053 4147 
L 1259 4147 
z
M 628 4666 
L 2053 4666 
Q 2838 4666 3239 4311 
Q 3641 3956 3641 3272 
Q 3641 2581 3239 2228 
Q 2838 1875 2053 1875 
L 1259 1875 
L 1259 0 
L 628 0 
L 628 4666 
z
" transform="scale(0.015625)"/>
       <path id="DejaVuSans-33" d="M 2597 2516 
Q 3050 2419 3304 2112 
Q 3559 1806 3559 1356 
Q 3559 666 3084 287 
Q 2609 -91 1734 -91 
Q 1441 -91 1130 -33 
Q 819 25 488 141 
L 488 750 
Q 750 597 1062 519 
Q 1375 441 1716 441 
Q 2309 441 2620 675 
Q 2931 909 2931 1356 
Q 2931 1769 2642 2001 
Q 2353 2234 1838 2234 
L 1294 2234 
L 1294 2753 
L 1863 2753 
Q 2328 2753 2575 2939 
Q 2822 3125 2822 3475 
Q 2822 3834 2567 4026 
Q 2313 4219 1838 4219 
Q 1578 4219 1281 4162 
Q 984 4106 628 3988 
L 628 4550 
Q 988 4650 1302 4700 
Q 1616 4750 1894 4750 
Q 2613 4750 3031 4423 
Q 3450 4097 3450 3541 
Q 3450 3153 3228 2886 
Q 3006 2619 2597 2516 
z
" transform="scale(0.015625)"/>
       <path id="DejaVuSans-32" d="M 1228 531 
L 3431 531 
L 3431 0 
L 469 0 
L 469 531 
Q 828 903 1448 1529 
Q 2069 2156 2228 2338 
Q 2531 2678 2651 2914 
Q 2772 3150 2772 3378 
Q 2772 3750 2511 3984 
Q 2250 4219 1831 4219 
Q 1534 4219 1204 4116 
Q 875 4013 500 3803 
L 500 4441 
Q 881 4594 1212 4672 
Q 1544 4750 1819 4750 
Q 2544 4750 2975 4387 
Q 3406 4025 3406 3419 
Q 3406 3131 3298 2873 
Q 3191 2616 2906 2266 
Q 2828 2175 2409 1742 
Q 1991 1309 1228 531 
z
" transform="scale(0.015625)"/>
       <path id="DejaVuSans-28" d="M 1984 4856 
Q 1566 4138 1362 3434 
Q 1159 2731 1159 2009 
Q 1159 1288 1364 580 
Q 1569 -128 1984 -844 
L 1484 -844 
Q 1016 -109 783 600 
Q 550 1309 550 2009 
Q 550 2706 781 3412 
Q 1013 4119 1484 4856 
L 1984 4856 
z
" transform="scale(0.015625)"/>
       <path id="DejaVuSans-25" d="M 4653 2053 
Q 4381 2053 4226 1822 
Q 4072 1591 4072 1178 
Q 4072 772 4226 539 
Q 4381 306 4653 306 
Q 4919 306 5073 539 
Q 5228 772 5228 1178 
Q 5228 1588 5073 1820 
Q 4919 2053 4653 2053 
z
M 4653 2450 
Q 5147 2450 5437 2106 
Q 5728 1763 5728 1178 
Q 5728 594 5436 251 
Q 5144 -91 4653 -91 
Q 4153 -91 3862 251 
Q 3572 594 3572 1178 
Q 3572 1766 3864 2108 
Q 4156 2450 4653 2450 
z
M 1428 4353 
Q 1159 4353 1004 4120 
Q 850 3888 850 3481 
Q 850 3069 1003 2837 
Q 1156 2606 1428 2606 
Q 1700 2606 1854 2837 
Q 2009 3069 2009 3481 
Q 2009 3884 1853 4118 
Q 1697 4353 1428 4353 
z
M 4250 4750 
L 4750 4750 
L 1831 -91 
L 1331 -91 
L 4250 4750 
z
M 1428 4750 
Q 1922 4750 2215 4408 
Q 2509 4066 2509 3481 
Q 2509 2891 2217 2550 
Q 1925 2209 1428 2209 
Q 931 2209 642 2551 
Q 353 2894 353 3481 
Q 353 4063 643 4406 
Q 934 4750 1428 4750 
z
" transform="scale(0.015625)"/>
       <path id="DejaVuSans-29" d="M 513 4856 
L 1013 4856 
Q 1481 4119 1714 3412 
Q 1947 2706 1947 2009 
Q 1947 1309 1714 600 
Q 1481 -109 1013 -844 
L 513 -844 
Q 928 -128 1133 580 
Q 1338 1288 1338 2009 
Q 1338 2731 1133 3434 
Q 928 4138 513 4856 
z
" transform="scale(0.015625)"/>
      </defs>
      <use xlink:href="#DejaVuSans-4e"/>
      <use xlink:href="#DejaVuSans-44" transform="translate(74.804688 0)"/>
      <use xlink:href="#DejaVuSans-43" transform="translate(151.806641 0)"/>
      <use xlink:href="#DejaVuSans-47" transform="translate(221.630859 0)"/>
      <use xlink:href="#DejaVuSans-40" transform="translate(299.121094 0)"/>
      <use xlink:href="#DejaVuSans-31" transform="translate(399.121094 0)"/>
      <use xlink:href="#DejaVuSans-30" transform="translate(462.744141 0)"/>
      <use xlink:href="#DejaVuSans-20" transform="translate(526.367188 0)"/>
      <use xlink:href="#DejaVuSans-72" transform="translate(558.154297 0)"/>
      <use xlink:href="#DejaVuSans-65" transform="translate(597.017578 0)"/>
      <use xlink:href="#DejaVuSans-74" transform="translate(658.541016 0)"/>
      <use xlink:href="#DejaVuSans-65" transform="translate(697.75 0)"/>
      <use xlink:href="#DejaVuSans-6e" transform="translate(759.273438 0)"/>
      <use xlink:href="#DejaVuSans-74" transform="translate(822.652344 0)"/>
      <use xlink:href="#DejaVuSans-69" transform="translate(861.861328 0)"/>
      <use xlink:href="#DejaVuSans-6f" transform="translate(889.644531 0)"/>
      <use xlink:href="#DejaVuSans-6e" transform="translate(950.826172 0)"/>
      <use xlink:href="#DejaVuSans-20" transform="translate(1014.205078 0)"/>
      <use xlink:href="#DejaVuSans-76" transform="translate(1045.992188 0)"/>
      <use xlink:href="#DejaVuSans-73" transform="translate(1105.171875 0)"/>
      <use xlink:href="#DejaVuSans-20" transform="translate(1157.271484 0)"/>
      <use xlink:href="#DejaVuSans-46" transform="translate(1189.058594 0)"/>
      <use xlink:href="#DejaVuSans-50" transform="translate(1246.578125 0)"/>
      <use xlink:href="#DejaVuSans-33" transform="translate(1306.880859 0)"/>
      <use xlink:href="#DejaVuSans-32" transform="translate(1370.503906 0)"/>
      <use xlink:href="#DejaVuSans-20" transform="translate(1434.126953 0)"/>
      <use xlink:href="#DejaVuSans-28" transform="translate(1465.914062 0)"/>
      <use xlink:href="#DejaVuSans-25" transform="translate(1504.927734 0)"/>
      <use xlink:href="#DejaVuSans-29" transform="translate(1599.947266 0)"/>
     </g>
    </g>
   </g>
   <g id="matplotlib.axis_2">
    <g id="ytick_1">
     <g id="line2d_63">
      <defs>
       <path id="m11464b8edd" d="M 0 0 
L -3.5 0 
" style="stroke: #000000; stroke-width: 0.8"/>
      </defs>
      <g>
       <use xlink:href="#m11464b8edd" x="50.760859" y="274.357272" style="stroke: #000000; stroke-width: 0.8"/>
      </g>
     </g>
     <g id="text_8">
      <!-- PQ16 -->
      <g style="fill: #b83234" transform="translate(12.526641 278.346452) scale(0.105 -0.105)">
       <defs>
        <path id="DejaVuSans-Bold-50" d="M 588 4666 
L 2584 4666 
Q 3475 4666 3951 4270 
Q 4428 3875 4428 3144 
Q 4428 2409 3951 2014 
Q 3475 1619 2584 1619 
L 1791 1619 
L 1791 0 
L 588 0 
L 588 4666 
z
M 1791 3794 
L 1791 2491 
L 2456 2491 
Q 2806 2491 2997 2661 
Q 3188 2831 3188 3144 
Q 3188 3456 2997 3625 
Q 2806 3794 2456 3794 
L 1791 3794 
z
" transform="scale(0.015625)"/>
        <path id="DejaVuSans-Bold-51" d="M 2847 -84 
L 2753 -84 
Q 1600 -84 959 553 
Q 319 1191 319 2328 
Q 319 3463 958 4106 
Q 1597 4750 2719 4750 
Q 3853 4750 4486 4112 
Q 5119 3475 5119 2328 
Q 5119 1541 4783 972 
Q 4447 403 3816 116 
L 4756 -934 
L 3609 -934 
L 2847 -84 
z
M 2719 3878 
Q 2169 3878 1866 3472 
Q 1563 3066 1563 2328 
Q 1563 1578 1859 1179 
Q 2156 781 2719 781 
Q 3272 781 3575 1187 
Q 3878 1594 3878 2328 
Q 3878 3066 3575 3472 
Q 3272 3878 2719 3878 
z
" transform="scale(0.015625)"/>
        <path id="DejaVuSans-Bold-31" d="M 750 831 
L 1813 831 
L 1813 3847 
L 722 3622 
L 722 4441 
L 1806 4666 
L 2950 4666 
L 2950 831 
L 4013 831 
L 4013 0 
L 750 0 
L 750 831 
z
" transform="scale(0.015625)"/>
        <path id="DejaVuSans-Bold-36" d="M 2316 2303 
Q 2000 2303 1842 2098 
Q 1684 1894 1684 1484 
Q 1684 1075 1842 870 
Q 2000 666 2316 666 
Q 2634 666 2792 870 
Q 2950 1075 2950 1484 
Q 2950 1894 2792 2098 
Q 2634 2303 2316 2303 
z
M 3803 4544 
L 3803 3681 
Q 3506 3822 3243 3889 
Q 2981 3956 2731 3956 
Q 2194 3956 1894 3657 
Q 1594 3359 1544 2772 
Q 1750 2925 1990 3001 
Q 2231 3078 2516 3078 
Q 3231 3078 3670 2659 
Q 4109 2241 4109 1563 
Q 4109 813 3618 361 
Q 3128 -91 2303 -91 
Q 1394 -91 895 523 
Q 397 1138 397 2266 
Q 397 3422 980 4083 
Q 1563 4744 2578 4744 
Q 2900 4744 3203 4694 
Q 3506 4644 3803 4544 
z
" transform="scale(0.015625)"/>
       </defs>
       <use xlink:href="#DejaVuSans-Bold-50"/>
       <use xlink:href="#DejaVuSans-Bold-51" transform="translate(73.291016 0)"/>
       <use xlink:href="#DejaVuSans-Bold-31" transform="translate(158.300781 0)"/>
       <use xlink:href="#DejaVuSans-Bold-36" transform="translate(227.880859 0)"/>
      </g>
     </g>
    </g>
    <g id="ytick_2">
     <g id="line2d_64">
      <g>
       <use xlink:href="#m11464b8edd" x="50.760859" y="243.270785" style="stroke: #000000; stroke-width: 0.8"/>
      </g>
     </g>
     <g id="text_9">
      <!-- TQ-2b -->
      <g style="fill: #2d5986" transform="translate(8.295469 247.259965) scale(0.105 -0.105)">
       <defs>
        <path id="DejaVuSans-Bold-54" d="M 31 4666 
L 4331 4666 
L 4331 3756 
L 2784 3756 
L 2784 0 
L 1581 0 
L 1581 3756 
L 31 3756 
L 31 4666 
z
" transform="scale(0.015625)"/>
        <path id="DejaVuSans-Bold-2d" d="M 347 2297 
L 2309 2297 
L 2309 1388 
L 347 1388 
L 347 2297 
z
" transform="scale(0.015625)"/>
        <path id="DejaVuSans-Bold-32" d="M 1844 884 
L 3897 884 
L 3897 0 
L 506 0 
L 506 884 
L 2209 2388 
Q 2438 2594 2547 2791 
Q 2656 2988 2656 3200 
Q 2656 3528 2436 3728 
Q 2216 3928 1850 3928 
Q 1569 3928 1234 3808 
Q 900 3688 519 3450 
L 519 4475 
Q 925 4609 1322 4679 
Q 1719 4750 2100 4750 
Q 2938 4750 3402 4381 
Q 3866 4013 3866 3353 
Q 3866 2972 3669 2642 
Q 3472 2313 2841 1759 
L 1844 884 
z
" transform="scale(0.015625)"/>
        <path id="DejaVuSans-Bold-62" d="M 2400 722 
Q 2759 722 2948 984 
Q 3138 1247 3138 1747 
Q 3138 2247 2948 2509 
Q 2759 2772 2400 2772 
Q 2041 2772 1848 2508 
Q 1656 2244 1656 1747 
Q 1656 1250 1848 986 
Q 2041 722 2400 722 
z
M 1656 2988 
Q 1888 3294 2169 3439 
Q 2450 3584 2816 3584 
Q 3463 3584 3878 3070 
Q 4294 2556 4294 1747 
Q 4294 938 3878 423 
Q 3463 -91 2816 -91 
Q 2450 -91 2169 54 
Q 1888 200 1656 506 
L 1656 0 
L 538 0 
L 538 4863 
L 1656 4863 
L 1656 2988 
z
" transform="scale(0.015625)"/>
       </defs>
       <use xlink:href="#DejaVuSans-Bold-54"/>
       <use xlink:href="#DejaVuSans-Bold-51" transform="translate(68.212891 0)"/>
       <use xlink:href="#DejaVuSans-Bold-2d" transform="translate(155.097656 0)"/>
       <use xlink:href="#DejaVuSans-Bold-32" transform="translate(196.601562 0)"/>
       <use xlink:href="#DejaVuSans-Bold-62" transform="translate(266.181641 0)"/>
      </g>
     </g>
    </g>
    <g id="ytick_3">
     <g id="line2d_65">
      <g>
       <use xlink:href="#m11464b8edd" x="50.760859" y="212.184299" style="stroke: #000000; stroke-width: 0.8"/>
      </g>
     </g>
     <g id="text_10">
      <!-- SQ4 -->
      <g style="fill: #c46d10" transform="translate(19.966875 216.173479) scale(0.105 -0.105)">
       <defs>
        <path id="DejaVuSans-Bold-53" d="M 3834 4519 
L 3834 3531 
Q 3450 3703 3084 3790 
Q 2719 3878 2394 3878 
Q 1963 3878 1756 3759 
Q 1550 3641 1550 3391 
Q 1550 3203 1689 3098 
Q 1828 2994 2194 2919 
L 2706 2816 
Q 3484 2659 3812 2340 
Q 4141 2022 4141 1434 
Q 4141 663 3683 286 
Q 3225 -91 2284 -91 
Q 1841 -91 1394 -6 
Q 947 78 500 244 
L 500 1259 
Q 947 1022 1364 901 
Q 1781 781 2169 781 
Q 2563 781 2772 912 
Q 2981 1044 2981 1288 
Q 2981 1506 2839 1625 
Q 2697 1744 2272 1838 
L 1806 1941 
Q 1106 2091 782 2419 
Q 459 2747 459 3303 
Q 459 4000 909 4375 
Q 1359 4750 2203 4750 
Q 2588 4750 2994 4692 
Q 3400 4634 3834 4519 
z
" transform="scale(0.015625)"/>
        <path id="DejaVuSans-Bold-34" d="M 2356 3675 
L 1038 1722 
L 2356 1722 
L 2356 3675 
z
M 2156 4666 
L 3494 4666 
L 3494 1722 
L 4159 1722 
L 4159 850 
L 3494 850 
L 3494 0 
L 2356 0 
L 2356 850 
L 288 850 
L 288 1881 
L 2156 4666 
z
" transform="scale(0.015625)"/>
       </defs>
       <use xlink:href="#DejaVuSans-Bold-53"/>
       <use xlink:href="#DejaVuSans-Bold-51" transform="translate(72.021484 0)"/>
       <use xlink:href="#DejaVuSans-Bold-34" transform="translate(157.03125 0)"/>
      </g>
     </g>
    </g>
    <g id="ytick_4">
     <g id="line2d_66">
      <g>
       <use xlink:href="#m11464b8edd" x="50.760859" y="181.097812" style="stroke: #000000; stroke-width: 0.8"/>
      </g>
     </g>
     <g id="text_11">
      <!-- TQ-4b -->
      <g style="fill: #2d5986" transform="translate(8.295469 185.086992) scale(0.105 -0.105)">
       <use xlink:href="#DejaVuSans-Bold-54"/>
       <use xlink:href="#DejaVuSans-Bold-51" transform="translate(68.212891 0)"/>
       <use xlink:href="#DejaVuSans-Bold-2d" transform="translate(155.097656 0)"/>
       <use xlink:href="#DejaVuSans-Bold-34" transform="translate(196.601562 0)"/>
       <use xlink:href="#DejaVuSans-Bold-62" transform="translate(266.181641 0)"/>
      </g>
     </g>
    </g>
    <g id="ytick_5">
     <g id="line2d_67">
      <g>
       <use xlink:href="#m11464b8edd" x="50.760859" y="150.011326" style="stroke: #000000; stroke-width: 0.8"/>
      </g>
     </g>
     <g id="text_12">
      <!-- OPQ16 -->
      <g style="fill: #b83234" transform="translate(3.6 154.000506) scale(0.105 -0.105)">
       <defs>
        <path id="DejaVuSans-Bold-4f" d="M 2719 3878 
Q 2169 3878 1866 3472 
Q 1563 3066 1563 2328 
Q 1563 1594 1866 1187 
Q 2169 781 2719 781 
Q 3272 781 3575 1187 
Q 3878 1594 3878 2328 
Q 3878 3066 3575 3472 
Q 3272 3878 2719 3878 
z
M 2719 4750 
Q 3844 4750 4481 4106 
Q 5119 3463 5119 2328 
Q 5119 1197 4481 553 
Q 3844 -91 2719 -91 
Q 1597 -91 958 553 
Q 319 1197 319 2328 
Q 319 3463 958 4106 
Q 1597 4750 2719 4750 
z
" transform="scale(0.015625)"/>
       </defs>
       <use xlink:href="#DejaVuSans-Bold-4f"/>
       <use xlink:href="#DejaVuSans-Bold-50" transform="translate(85.009766 0)"/>
       <use xlink:href="#DejaVuSans-Bold-51" transform="translate(158.300781 0)"/>
       <use xlink:href="#DejaVuSans-Bold-31" transform="translate(243.310547 0)"/>
       <use xlink:href="#DejaVuSans-Bold-36" transform="translate(312.890625 0)"/>
      </g>
     </g>
    </g>
    <g id="ytick_6">
     <g id="line2d_68">
      <g>
       <use xlink:href="#m11464b8edd" x="50.760859" y="118.92484" style="stroke: #000000; stroke-width: 0.8"/>
      </g>
     </g>
     <g id="text_13">
      <!-- SQ8 -->
      <g style="fill: #c46d10" transform="translate(19.966875 122.914019) scale(0.105 -0.105)">
       <defs>
        <path id="DejaVuSans-Bold-38" d="M 2228 2088 
Q 1891 2088 1709 1903 
Q 1528 1719 1528 1375 
Q 1528 1031 1709 848 
Q 1891 666 2228 666 
Q 2563 666 2741 848 
Q 2919 1031 2919 1375 
Q 2919 1722 2741 1905 
Q 2563 2088 2228 2088 
z
M 1350 2484 
Q 925 2613 709 2878 
Q 494 3144 494 3541 
Q 494 4131 934 4440 
Q 1375 4750 2228 4750 
Q 3075 4750 3515 4442 
Q 3956 4134 3956 3541 
Q 3956 3144 3739 2878 
Q 3522 2613 3097 2484 
Q 3572 2353 3814 2058 
Q 4056 1763 4056 1313 
Q 4056 619 3595 264 
Q 3134 -91 2228 -91 
Q 1319 -91 855 264 
Q 391 619 391 1313 
Q 391 1763 633 2058 
Q 875 2353 1350 2484 
z
M 1631 3419 
Q 1631 3141 1786 2991 
Q 1941 2841 2228 2841 
Q 2509 2841 2662 2991 
Q 2816 3141 2816 3419 
Q 2816 3697 2662 3845 
Q 2509 3994 2228 3994 
Q 1941 3994 1786 3844 
Q 1631 3694 1631 3419 
z
" transform="scale(0.015625)"/>
       </defs>
       <use xlink:href="#DejaVuSans-Bold-53"/>
       <use xlink:href="#DejaVuSans-Bold-51" transform="translate(72.021484 0)"/>
       <use xlink:href="#DejaVuSans-Bold-38" transform="translate(157.03125 0)"/>
      </g>
     </g>
    </g>
    <g id="ytick_7">
     <g id="line2d_69">
      <g>
       <use xlink:href="#m11464b8edd" x="50.760859" y="87.838353" style="stroke: #000000; stroke-width: 0.8"/>
      </g>
     </g>
     <g id="text_14">
      <!-- TQ-8b -->
      <g style="fill: #2d5986" transform="translate(8.295469 91.827533) scale(0.105 -0.105)">
       <use xlink:href="#DejaVuSans-Bold-54"/>
       <use xlink:href="#DejaVuSans-Bold-51" transform="translate(68.212891 0)"/>
       <use xlink:href="#DejaVuSans-Bold-2d" transform="translate(155.097656 0)"/>
       <use xlink:href="#DejaVuSans-Bold-38" transform="translate(196.601562 0)"/>
       <use xlink:href="#DejaVuSans-Bold-62" transform="translate(266.181641 0)"/>
      </g>
     </g>
    </g>
   </g>
   <g id="line2d_70">
    <path d="M 387.360859 296.117812 
L 387.360859 66.077812 
" clip-path="url(#pf7537406a4)" style="fill: none; stroke-dasharray: 3.7,1.6; stroke-dashoffset: 0; stroke: #8a8a8a; stroke-opacity: 0.6"/>
   </g>
   <g id="line2d_71">
    <path d="M 105.85252 274.357272 
L 233.155571 274.357272 
" clip-path="url(#pf7537406a4)" style="fill: none; stroke: #e15759; stroke-opacity: 0.3; stroke-width: 3; stroke-linecap: round"/>
   </g>
   <g id="line2d_72">
    <path d="M 327.728579 243.270785 
L 384.976591 243.270785 
" clip-path="url(#pf7537406a4)" style="fill: none; stroke: #4e79a7; stroke-opacity: 0.3; stroke-width: 3; stroke-linecap: round"/>
   </g>
   <g id="line2d_73">
    <path d="M 374.249235 212.184299 
L 396.085052 212.184299 
" clip-path="url(#pf7537406a4)" style="fill: none; stroke: #f28e2b; stroke-opacity: 0.3; stroke-width: 3; stroke-linecap: round"/>
   </g>
   <g id="line2d_74">
    <path d="M 369.249442 181.097812 
L 398.044733 181.097812 
" clip-path="url(#pf7537406a4)" style="fill: none; stroke: #4e79a7; stroke-opacity: 0.3; stroke-width: 3; stroke-linecap: round"/>
   </g>
   <g id="line2d_75">
    <path d="M 269.797451 150.011326 
L 325.448375 150.011326 
" clip-path="url(#pf7537406a4)" style="fill: none; stroke: #e15759; stroke-opacity: 0.3; stroke-width: 3; stroke-linecap: round"/>
   </g>
   <g id="line2d_76">
    <path d="M 382.274907 118.92484 
L 388.038368 118.92484 
" clip-path="url(#pf7537406a4)" style="fill: none; stroke: #f28e2b; stroke-opacity: 0.3; stroke-width: 3; stroke-linecap: round"/>
   </g>
   <g id="line2d_77">
    <path d="M 380.887645 87.838353 
L 387.673118 87.838353 
" clip-path="url(#pf7537406a4)" style="fill: none; stroke: #4e79a7; stroke-opacity: 0.3; stroke-width: 3; stroke-linecap: round"/>
   </g>
   <g id="patch_4">
    <path d="M 50.760859 296.117812 
L 50.760859 66.077812 
" style="fill: none; stroke: #000000; stroke-width: 0.8; stroke-linejoin: miter; stroke-linecap: square"/>
   </g>
   <g id="patch_5">
    <path d="M 50.760859 296.117812 
L 509.760859 296.117812 
" style="fill: none; stroke: #000000; stroke-width: 0.8; stroke-linejoin: miter; stroke-linecap: square"/>
   </g>
   <g id="text_15">
    <g id="patch_6">
     <path d="M 400.653359 268.616529 
L 400.653359 249.011529 
Q 400.653359 248.051529 399.693359 248.051529 
L 391.950859 248.051529 
Q 390.990859 248.051529 390.990859 249.011529 
L 390.990859 268.616529 
Q 390.990859 269.576529 391.950859 269.576529 
L 399.693359 269.576529 
Q 400.653359 269.576529 400.653359 268.616529 
z
" style="fill: #ffffff; opacity: 0.85"/>
    </g>
    <!-- FP32 -->
    <g style="fill: #8a8a8a" transform="translate(398.029609 268.616529) rotate(-90) scale(0.08 -0.08)">
     <defs>
      <path id="DejaVuSans-Oblique-46" d="M 1081 4666 
L 3756 4666 
L 3653 4134 
L 1606 4134 
L 1338 2759 
L 3188 2759 
L 3084 2228 
L 1234 2228 
L 800 0 
L 172 0 
L 1081 4666 
z
" transform="scale(0.015625)"/>
      <path id="DejaVuSans-Oblique-50" d="M 1081 4666 
L 2541 4666 
Q 3178 4666 3512 4369 
Q 3847 4072 3847 3500 
Q 3847 2731 3353 2303 
Q 2859 1875 1966 1875 
L 1172 1875 
L 806 0 
L 172 0 
L 1081 4666 
z
M 1613 4147 
L 1275 2394 
L 2069 2394 
Q 2606 2394 2893 2669 
Q 3181 2944 3181 3456 
Q 3181 3784 2986 3965 
Q 2791 4147 2438 4147 
L 1613 4147 
z
" transform="scale(0.015625)"/>
      <path id="DejaVuSans-Oblique-33" d="M 1013 4550 
Q 1356 4650 1679 4700 
Q 2003 4750 2316 4750 
Q 2934 4750 3296 4475 
Q 3659 4200 3659 3738 
Q 3659 3284 3373 2959 
Q 3088 2634 2584 2516 
Q 2978 2403 3162 2165 
Q 3347 1928 3347 1538 
Q 3347 1163 3167 834 
Q 2988 506 2650 269 
Q 2394 88 2037 -1 
Q 1681 -91 1216 -91 
Q 922 -91 622 -33 
Q 322 25 13 141 
L 128 738 
Q 422 575 720 495 
Q 1019 416 1331 416 
Q 1947 416 2330 733 
Q 2713 1050 2713 1556 
Q 2713 1881 2469 2057 
Q 2225 2234 1772 2234 
L 1228 2234 
L 1325 2747 
L 1900 2747 
Q 2419 2747 2717 2984 
Q 3016 3222 3016 3628 
Q 3016 3922 2797 4083 
Q 2578 4244 2181 4244 
Q 1881 4244 1567 4180 
Q 1253 4116 916 3988 
L 1013 4550 
z
" transform="scale(0.015625)"/>
      <path id="DejaVuSans-Oblique-32" d="M 2950 2253 
L 934 525 
L 3163 525 
L 3053 0 
L 25 0 
L 128 531 
L 2234 2338 
Q 2656 2703 2832 2979 
Q 3009 3256 3009 3547 
Q 3009 3850 2796 4040 
Q 2584 4231 2241 4231 
Q 1944 4231 1581 4125 
Q 1219 4019 806 3816 
L 922 4441 
Q 1309 4594 1662 4672 
Q 2016 4750 2316 4750 
Q 2928 4750 3301 4425 
Q 3675 4100 3675 3572 
Q 3675 3216 3497 2892 
Q 3319 2569 2950 2253 
z
" transform="scale(0.015625)"/>
     </defs>
     <use xlink:href="#DejaVuSans-Oblique-46"/>
     <use xlink:href="#DejaVuSans-Oblique-50" transform="translate(57.519531 0)"/>
     <use xlink:href="#DejaVuSans-Oblique-33" transform="translate(117.822266 0)"/>
     <use xlink:href="#DejaVuSans-Oblique-32" transform="translate(181.445312 0)"/>
    </g>
   </g>
   <g id="text_16">
    <!-- near-lossless zone -->
    <g style="fill: #388e3c; opacity: 0.7" transform="translate(438.390391 215.406211) rotate(-90) scale(0.075 -0.075)">
     <defs>
      <path id="DejaVuSans-Oblique-6e" d="M 3566 2113 
L 3156 0 
L 2578 0 
L 2988 2091 
Q 3016 2238 3031 2350 
Q 3047 2463 3047 2528 
Q 3047 2791 2881 2937 
Q 2716 3084 2419 3084 
Q 1956 3084 1622 2776 
Q 1288 2469 1184 1941 
L 800 0 
L 225 0 
L 903 3500 
L 1478 3500 
L 1363 2950 
Q 1603 3253 1940 3418 
Q 2278 3584 2650 3584 
Q 3113 3584 3367 3334 
Q 3622 3084 3622 2631 
Q 3622 2519 3608 2391 
Q 3594 2263 3566 2113 
z
" transform="scale(0.015625)"/>
      <path id="DejaVuSans-Oblique-65" d="M 3078 2063 
Q 3088 2113 3092 2166 
Q 3097 2219 3097 2272 
Q 3097 2653 2873 2875 
Q 2650 3097 2266 3097 
Q 1838 3097 1509 2826 
Q 1181 2556 1013 2059 
L 3078 2063 
z
M 3578 1613 
L 903 1613 
Q 884 1494 878 1425 
Q 872 1356 872 1306 
Q 872 872 1139 634 
Q 1406 397 1894 397 
Q 2269 397 2603 481 
Q 2938 566 3225 728 
L 3116 159 
Q 2806 34 2476 -28 
Q 2147 -91 1806 -91 
Q 1078 -91 686 257 
Q 294 606 294 1247 
Q 294 1794 489 2264 
Q 684 2734 1063 3103 
Q 1306 3334 1642 3459 
Q 1978 3584 2356 3584 
Q 2950 3584 3301 3228 
Q 3653 2872 3653 2272 
Q 3653 2128 3634 1964 
Q 3616 1800 3578 1613 
z
" transform="scale(0.015625)"/>
      <path id="DejaVuSans-Oblique-61" d="M 3438 1997 
L 3047 0 
L 2472 0 
L 2578 531 
Q 2325 219 2001 64 
Q 1678 -91 1281 -91 
Q 834 -91 548 182 
Q 263 456 263 884 
Q 263 1497 752 1853 
Q 1241 2209 2100 2209 
L 2900 2209 
L 2931 2363 
Q 2938 2388 2941 2417 
Q 2944 2447 2944 2509 
Q 2944 2788 2717 2942 
Q 2491 3097 2081 3097 
Q 1800 3097 1504 3025 
Q 1209 2953 897 2809 
L 997 3341 
Q 1322 3463 1633 3523 
Q 1944 3584 2234 3584 
Q 2853 3584 3176 3315 
Q 3500 3047 3500 2534 
Q 3500 2431 3484 2292 
Q 3469 2153 3438 1997 
z
M 2816 1759 
L 2241 1759 
Q 1534 1759 1195 1570 
Q 856 1381 856 984 
Q 856 709 1029 553 
Q 1203 397 1509 397 
Q 1978 397 2328 733 
Q 2678 1069 2791 1631 
L 2816 1759 
z
" transform="scale(0.015625)"/>
      <path id="DejaVuSans-Oblique-72" d="M 2853 2969 
Q 2766 3016 2653 3041 
Q 2541 3066 2413 3066 
Q 1953 3066 1609 2717 
Q 1266 2369 1153 1784 
L 800 0 
L 225 0 
L 909 3500 
L 1484 3500 
L 1375 2956 
Q 1603 3259 1920 3421 
Q 2238 3584 2597 3584 
Q 2691 3584 2781 3573 
Q 2872 3563 2963 3538 
L 2853 2969 
z
" transform="scale(0.015625)"/>
      <path id="DejaVuSans-Oblique-2d" d="M 391 2009 
L 2075 2009 
L 1978 1497 
L 288 1497 
L 391 2009 
z
" transform="scale(0.015625)"/>
      <path id="DejaVuSans-Oblique-6c" d="M 1172 4863 
L 1747 4863 
L 800 0 
L 225 0 
L 1172 4863 
z
" transform="scale(0.015625)"/>
      <path id="DejaVuSans-Oblique-6f" d="M 1625 -91 
Q 1009 -91 651 289 
Q 294 669 294 1325 
Q 294 1706 417 2101 
Q 541 2497 738 2766 
Q 1047 3184 1428 3384 
Q 1809 3584 2291 3584 
Q 2888 3584 3255 3212 
Q 3622 2841 3622 2241 
Q 3622 1825 3500 1412 
Q 3378 1000 3181 728 
Q 2875 309 2494 109 
Q 2113 -91 1625 -91 
z
M 891 1344 
Q 891 869 1089 633 
Q 1288 397 1691 397 
Q 2269 397 2648 901 
Q 3028 1406 3028 2181 
Q 3028 2634 2825 2865 
Q 2622 3097 2228 3097 
Q 1903 3097 1650 2945 
Q 1397 2794 1197 2484 
Q 1050 2253 970 1956 
Q 891 1659 891 1344 
z
" transform="scale(0.015625)"/>
      <path id="DejaVuSans-Oblique-73" d="M 3200 3397 
L 3091 2853 
Q 2863 2978 2609 3040 
Q 2356 3103 2088 3103 
Q 1634 3103 1373 2948 
Q 1113 2794 1113 2528 
Q 1113 2219 1719 2053 
Q 1766 2041 1788 2034 
L 1972 1978 
Q 2547 1819 2739 1644 
Q 2931 1469 2931 1166 
Q 2931 609 2489 259 
Q 2047 -91 1331 -91 
Q 1053 -91 747 -37 
Q 441 16 72 128 
L 184 722 
Q 500 559 806 475 
Q 1113 391 1394 391 
Q 1816 391 2080 572 
Q 2344 753 2344 1031 
Q 2344 1331 1650 1516 
L 1591 1531 
L 1394 1581 
Q 956 1697 753 1886 
Q 550 2075 550 2369 
Q 550 2928 970 3256 
Q 1391 3584 2113 3584 
Q 2397 3584 2667 3537 
Q 2938 3491 3200 3397 
z
" transform="scale(0.015625)"/>
      <path id="DejaVuSans-Oblique-20" transform="scale(0.015625)"/>
      <path id="DejaVuSans-Oblique-7a" d="M 744 3500 
L 3475 3500 
L 3372 2975 
L 738 459 
L 2913 459 
L 2822 0 
L -19 0 
L 84 525 
L 2719 3041 
L 653 3041 
L 744 3500 
z
" transform="scale(0.015625)"/>
     </defs>
     <use xlink:href="#DejaVuSans-Oblique-6e"/>
     <use xlink:href="#DejaVuSans-Oblique-65" transform="translate(63.378906 0)"/>
     <use xlink:href="#DejaVuSans-Oblique-61" transform="translate(124.902344 0)"/>
     <use xlink:href="#DejaVuSans-Oblique-72" transform="translate(186.181641 0)"/>
     <use xlink:href="#DejaVuSans-Oblique-2d" transform="translate(221.794922 0)"/>
     <use xlink:href="#DejaVuSans-Oblique-6c" transform="translate(257.878906 0)"/>
     <use xlink:href="#DejaVuSans-Oblique-6f" transform="translate(285.662109 0)"/>
     <use xlink:href="#DejaVuSans-Oblique-73" transform="translate(346.84375 0)"/>
     <use xlink:href="#DejaVuSans-Oblique-73" transform="translate(398.943359 0)"/>
     <use xlink:href="#DejaVuSans-Oblique-6c" transform="translate(451.042969 0)"/>
     <use xlink:href="#DejaVuSans-Oblique-65" transform="translate(478.826172 0)"/>
     <use xlink:href="#DejaVuSans-Oblique-73" transform="translate(540.349609 0)"/>
     <use xlink:href="#DejaVuSans-Oblique-73" transform="translate(592.449219 0)"/>
     <use xlink:href="#DejaVuSans-Oblique-20" transform="translate(644.548828 0)"/>
     <use xlink:href="#DejaVuSans-Oblique-7a" transform="translate(676.335938 0)"/>
     <use xlink:href="#DejaVuSans-Oblique-6f" transform="translate(728.826172 0)"/>
     <use xlink:href="#DejaVuSans-Oblique-6e" transform="translate(790.007812 0)"/>
     <use xlink:href="#DejaVuSans-Oblique-65" transform="translate(853.386719 0)"/>
    </g>
   </g>
   <g id="PathCollection_1">
    <defs>
     <path id="mcd16e57c87" d="M 0 3 
C 0.795609 3 1.55874 2.683901 2.12132 2.12132 
C 2.683901 1.55874 3 0.795609 3 0 
C 3 -0.795609 2.683901 -1.55874 2.12132 -2.12132 
C 1.55874 -2.683901 0.795609 -3 0 -3 
C -0.795609 -3 -1.55874 -2.683901 -2.12132 -2.12132 
C -2.683901 -1.55874 -3 -0.795609 -3 0 
C -3 0.795609 -2.683901 1.55874 -2.12132 2.12132 
C -1.55874 2.683901 -0.795609 3 0 3 
z
" style="stroke: #b83234; stroke-opacity: 0.65; stroke-width: 0.8"/>
    </defs>
    <g clip-path="url(#pf7537406a4)">
     <use xlink:href="#mcd16e57c87" x="105.85252" y="274.357272" style="fill: #e15759; fill-opacity: 0.65; stroke: #b83234; stroke-opacity: 0.65; stroke-width: 0.8"/>
     <use xlink:href="#mcd16e57c87" x="164.619448" y="274.357272" style="fill: #e15759; fill-opacity: 0.65; stroke: #b83234; stroke-opacity: 0.65; stroke-width: 0.8"/>
     <use xlink:href="#mcd16e57c87" x="233.155571" y="274.357272" style="fill: #e15759; fill-opacity: 0.65; stroke: #b83234; stroke-opacity: 0.65; stroke-width: 0.8"/>
     <use xlink:href="#mcd16e57c87" x="217.937865" y="274.357272" style="fill: #e15759; fill-opacity: 0.65; stroke: #b83234; stroke-opacity: 0.65; stroke-width: 0.8"/>
    </g>
   </g>
   <g id="text_17">
    <!-- 15× -->
    <g style="fill: #333333" transform="translate(468.570586 276.978678) scale(0.095 -0.095)">
     <defs>
      <path id="DejaVuSans-Bold-35" d="M 678 4666 
L 3669 4666 
L 3669 3781 
L 1638 3781 
L 1638 3059 
Q 1775 3097 1914 3117 
Q 2053 3138 2203 3138 
Q 3056 3138 3531 2711 
Q 4006 2284 4006 1522 
Q 4006 766 3489 337 
Q 2972 -91 2053 -91 
Q 1656 -91 1267 -14 
Q 878 63 494 219 
L 494 1166 
Q 875 947 1217 837 
Q 1559 728 1863 728 
Q 2300 728 2551 942 
Q 2803 1156 2803 1522 
Q 2803 1891 2551 2103 
Q 2300 2316 1863 2316 
Q 1603 2316 1309 2248 
Q 1016 2181 678 2041 
L 678 4666 
z
" transform="scale(0.015625)"/>
      <path id="DejaVuSans-Bold-d7" d="M 4563 3359 
L 3206 2003 
L 4563 653 
L 4038 128 
L 2681 1478 
L 1325 128 
L 800 653 
L 2156 2003 
L 800 3359 
L 1325 3884 
L 2681 2528 
L 4038 3884 
L 4563 3359 
z
" transform="scale(0.015625)"/>
     </defs>
     <use xlink:href="#DejaVuSans-Bold-31"/>
     <use xlink:href="#DejaVuSans-Bold-35" transform="translate(69.580078 0)"/>
     <use xlink:href="#DejaVuSans-Bold-d7" transform="translate(139.160156 0)"/>
    </g>
   </g>
   <g id="PathCollection_2">
    <defs>
     <path id="m04974ab268" d="M 0 3 
C 0.795609 3 1.55874 2.683901 2.12132 2.12132 
C 2.683901 1.55874 3 0.795609 3 0 
C 3 -0.795609 2.683901 -1.55874 2.12132 -2.12132 
C 1.55874 -2.683901 0.795609 -3 0 -3 
C -0.795609 -3 -1.55874 -2.683901 -2.12132 -2.12132 
C -2.683901 -1.55874 -3 -0.795609 -3 0 
C -3 0.795609 -2.683901 1.55874 -2.12132 2.12132 
C -1.55874 2.683901 -0.795609 3 0 3 
z
" style="stroke: #2d5986; stroke-opacity: 0.65; stroke-width: 0.8"/>
    </defs>
    <g clip-path="url(#pf7537406a4)">
     <use xlink:href="#m04974ab268" x="375.411796" y="243.270785" style="fill: #4e79a7; fill-opacity: 0.65; stroke: #2d5986; stroke-opacity: 0.65; stroke-width: 0.8"/>
     <use xlink:href="#m04974ab268" x="327.728579" y="243.270785" style="fill: #4e79a7; fill-opacity: 0.65; stroke: #2d5986; stroke-opacity: 0.65; stroke-width: 0.8"/>
     <use xlink:href="#m04974ab268" x="372.443249" y="243.270785" style="fill: #4e79a7; fill-opacity: 0.65; stroke: #2d5986; stroke-opacity: 0.65; stroke-width: 0.8"/>
     <use xlink:href="#m04974ab268" x="384.976591" y="243.270785" style="fill: #4e79a7; fill-opacity: 0.65; stroke: #2d5986; stroke-opacity: 0.65; stroke-width: 0.8"/>
    </g>
   </g>
   <g id="text_18">
    <!-- 15× -->
    <g style="fill: #333333" transform="translate(468.570586 245.892192) scale(0.095 -0.095)">
     <use xlink:href="#DejaVuSans-Bold-31"/>
     <use xlink:href="#DejaVuSans-Bold-35" transform="translate(69.580078 0)"/>
     <use xlink:href="#DejaVuSans-Bold-d7" transform="translate(139.160156 0)"/>
    </g>
   </g>
   <g id="PathCollection_3">
    <defs>
     <path id="m05c40395ed" d="M 0 3 
C 0.795609 3 1.55874 2.683901 2.12132 2.12132 
C 2.683901 1.55874 3 0.795609 3 0 
C 3 -0.795609 2.683901 -1.55874 2.12132 -2.12132 
C 1.55874 -2.683901 0.795609 -3 0 -3 
C -0.795609 -3 -1.55874 -2.683901 -2.12132 -2.12132 
C -2.683901 -1.55874 -3 -0.795609 -3 0 
C -3 0.795609 -2.683901 1.55874 -2.12132 2.12132 
C -1.55874 2.683901 -0.795609 3 0 3 
z
" style="stroke: #c46d10; stroke-opacity: 0.65; stroke-width: 0.8"/>
    </defs>
    <g clip-path="url(#pf7537406a4)">
     <use xlink:href="#m05c40395ed" x="396.085052" y="212.184299" style="fill: #f28e2b; fill-opacity: 0.65; stroke: #c46d10; stroke-opacity: 0.65; stroke-width: 0.8"/>
     <use xlink:href="#m05c40395ed" x="374.249235" y="212.184299" style="fill: #f28e2b; fill-opacity: 0.65; stroke: #c46d10; stroke-opacity: 0.65; stroke-width: 0.8"/>
     <use xlink:href="#m05c40395ed" x="384.275365" y="212.184299" style="fill: #f28e2b; fill-opacity: 0.65; stroke: #c46d10; stroke-opacity: 0.65; stroke-width: 0.8"/>
     <use xlink:href="#m05c40395ed" x="387.29631" y="212.184299" style="fill: #f28e2b; fill-opacity: 0.65; stroke: #c46d10; stroke-opacity: 0.65; stroke-width: 0.8"/>
    </g>
   </g>
   <g id="text_19">
    <!-- 8× -->
    <g style="fill: #333333" transform="translate(471.875547 214.805705) scale(0.095 -0.095)">
     <use xlink:href="#DejaVuSans-Bold-38"/>
     <use xlink:href="#DejaVuSans-Bold-d7" transform="translate(69.580078 0)"/>
    </g>
   </g>
   <g id="PathCollection_4">
    <g clip-path="url(#pf7537406a4)">
     <use xlink:href="#m04974ab268" x="398.044733" y="181.097812" style="fill: #4e79a7; fill-opacity: 0.65; stroke: #2d5986; stroke-opacity: 0.65; stroke-width: 0.8"/>
     <use xlink:href="#m04974ab268" x="369.249442" y="181.097812" style="fill: #4e79a7; fill-opacity: 0.65; stroke: #2d5986; stroke-opacity: 0.65; stroke-width: 0.8"/>
     <use xlink:href="#m04974ab268" x="390.723117" y="181.097812" style="fill: #4e79a7; fill-opacity: 0.65; stroke: #2d5986; stroke-opacity: 0.65; stroke-width: 0.8"/>
     <use xlink:href="#m04974ab268" x="383.938832" y="181.097812" style="fill: #4e79a7; fill-opacity: 0.65; stroke: #2d5986; stroke-opacity: 0.65; stroke-width: 0.8"/>
    </g>
   </g>
   <g id="text_20">
    <!-- 8× -->
    <g style="fill: #333333" transform="translate(471.875547 183.719219) scale(0.095 -0.095)">
     <use xlink:href="#DejaVuSans-Bold-38"/>
     <use xlink:href="#DejaVuSans-Bold-d7" transform="translate(69.580078 0)"/>
    </g>
   </g>
   <g id="PathCollection_5">
    <g clip-path="url(#pf7537406a4)">
     <use xlink:href="#mcd16e57c87" x="285.244506" y="150.011326" style="fill: #e15759; fill-opacity: 0.65; stroke: #b83234; stroke-opacity: 0.65; stroke-width: 0.8"/>
     <use xlink:href="#mcd16e57c87" x="269.797451" y="150.011326" style="fill: #e15759; fill-opacity: 0.65; stroke: #b83234; stroke-opacity: 0.65; stroke-width: 0.8"/>
     <use xlink:href="#mcd16e57c87" x="325.448375" y="150.011326" style="fill: #e15759; fill-opacity: 0.65; stroke: #b83234; stroke-opacity: 0.65; stroke-width: 0.8"/>
     <use xlink:href="#mcd16e57c87" x="300.046108" y="150.011326" style="fill: #e15759; fill-opacity: 0.65; stroke: #b83234; stroke-opacity: 0.65; stroke-width: 0.8"/>
    </g>
   </g>
   <g id="text_21">
    <!-- 7× -->
    <g style="fill: #333333" transform="translate(471.875547 152.632732) scale(0.095 -0.095)">
     <defs>
      <path id="DejaVuSans-Bold-37" d="M 428 4666 
L 3944 4666 
L 3944 3988 
L 2125 0 
L 953 0 
L 2675 3781 
L 428 3781 
L 428 4666 
z
" transform="scale(0.015625)"/>
     </defs>
     <use xlink:href="#DejaVuSans-Bold-37"/>
     <use xlink:href="#DejaVuSans-Bold-d7" transform="translate(69.580078 0)"/>
    </g>
   </g>
   <g id="PathCollection_6">
    <g clip-path="url(#pf7537406a4)">
     <use xlink:href="#m05c40395ed" x="387.888203" y="118.92484" style="fill: #f28e2b; fill-opacity: 0.65; stroke: #c46d10; stroke-opacity: 0.65; stroke-width: 0.8"/>
     <use xlink:href="#m05c40395ed" x="382.274907" y="118.92484" style="fill: #f28e2b; fill-opacity: 0.65; stroke: #c46d10; stroke-opacity: 0.65; stroke-width: 0.8"/>
     <use xlink:href="#m05c40395ed" x="388.038368" y="118.92484" style="fill: #f28e2b; fill-opacity: 0.65; stroke: #c46d10; stroke-opacity: 0.65; stroke-width: 0.8"/>
     <use xlink:href="#m05c40395ed" x="382.804912" y="118.92484" style="fill: #f28e2b; fill-opacity: 0.65; stroke: #c46d10; stroke-opacity: 0.65; stroke-width: 0.8"/>
    </g>
   </g>
   <g id="text_22">
    <!-- 4× -->
    <g style="fill: #333333" transform="translate(471.875547 121.546246) scale(0.095 -0.095)">
     <use xlink:href="#DejaVuSans-Bold-34"/>
     <use xlink:href="#DejaVuSans-Bold-d7" transform="translate(69.580078 0)"/>
    </g>
   </g>
   <g id="PathCollection_7">
    <g clip-path="url(#pf7537406a4)">
     <use xlink:href="#m04974ab268" x="387.673118" y="87.838353" style="fill: #4e79a7; fill-opacity: 0.65; stroke: #2d5986; stroke-opacity: 0.65; stroke-width: 0.8"/>
     <use xlink:href="#m04974ab268" x="380.887645" y="87.838353" style="fill: #4e79a7; fill-opacity: 0.65; stroke: #2d5986; stroke-opacity: 0.65; stroke-width: 0.8"/>
     <use xlink:href="#m04974ab268" x="384.251876" y="87.838353" style="fill: #4e79a7; fill-opacity: 0.65; stroke: #2d5986; stroke-opacity: 0.65; stroke-width: 0.8"/>
     <use xlink:href="#m04974ab268" x="384.738776" y="87.838353" style="fill: #4e79a7; fill-opacity: 0.65; stroke: #2d5986; stroke-opacity: 0.65; stroke-width: 0.8"/>
    </g>
   </g>
   <g id="text_23">
    <!-- 4× -->
    <g style="fill: #333333" transform="translate(471.875547 90.459759) scale(0.095 -0.095)">
     <use xlink:href="#DejaVuSans-Bold-34"/>
     <use xlink:href="#DejaVuSans-Bold-d7" transform="translate(69.580078 0)"/>
    </g>
   </g>
   <g id="text_24">
    <!-- Ratio -->
    <g style="fill: #333333" transform="translate(466.61207 62.755754) scale(0.085 -0.085)">
     <defs>
      <path id="DejaVuSans-Bold-52" d="M 2297 2597 
Q 2675 2597 2839 2737 
Q 3003 2878 3003 3200 
Q 3003 3519 2839 3656 
Q 2675 3794 2297 3794 
L 1791 3794 
L 1791 2597 
L 2297 2597 
z
M 1791 1766 
L 1791 0 
L 588 0 
L 588 4666 
L 2425 4666 
Q 3347 4666 3776 4356 
Q 4206 4047 4206 3378 
Q 4206 2916 3982 2619 
Q 3759 2322 3309 2181 
Q 3556 2125 3751 1926 
Q 3947 1728 4147 1325 
L 4800 0 
L 3519 0 
L 2950 1159 
Q 2778 1509 2601 1637 
Q 2425 1766 2131 1766 
L 1791 1766 
z
" transform="scale(0.015625)"/>
      <path id="DejaVuSans-Bold-61" d="M 2106 1575 
Q 1756 1575 1579 1456 
Q 1403 1338 1403 1106 
Q 1403 894 1545 773 
Q 1688 653 1941 653 
Q 2256 653 2472 879 
Q 2688 1106 2688 1447 
L 2688 1575 
L 2106 1575 
z
M 3816 1997 
L 3816 0 
L 2688 0 
L 2688 519 
Q 2463 200 2181 54 
Q 1900 -91 1497 -91 
Q 953 -91 614 226 
Q 275 544 275 1050 
Q 275 1666 698 1953 
Q 1122 2241 2028 2241 
L 2688 2241 
L 2688 2328 
Q 2688 2594 2478 2717 
Q 2269 2841 1825 2841 
Q 1466 2841 1156 2769 
Q 847 2697 581 2553 
L 581 3406 
Q 941 3494 1303 3539 
Q 1666 3584 2028 3584 
Q 2975 3584 3395 3211 
Q 3816 2838 3816 1997 
z
" transform="scale(0.015625)"/>
      <path id="DejaVuSans-Bold-74" d="M 1759 4494 
L 1759 3500 
L 2913 3500 
L 2913 2700 
L 1759 2700 
L 1759 1216 
Q 1759 972 1856 886 
Q 1953 800 2241 800 
L 2816 800 
L 2816 0 
L 1856 0 
Q 1194 0 917 276 
Q 641 553 641 1216 
L 641 2700 
L 84 2700 
L 84 3500 
L 641 3500 
L 641 4494 
L 1759 4494 
z
" transform="scale(0.015625)"/>
      <path id="DejaVuSans-Bold-69" d="M 538 3500 
L 1656 3500 
L 1656 0 
L 538 0 
L 538 3500 
z
M 538 4863 
L 1656 4863 
L 1656 3950 
L 538 3950 
L 538 4863 
z
" transform="scale(0.015625)"/>
      <path id="DejaVuSans-Bold-6f" d="M 2203 2784 
Q 1831 2784 1636 2517 
Q 1441 2250 1441 1747 
Q 1441 1244 1636 976 
Q 1831 709 2203 709 
Q 2569 709 2762 976 
Q 2956 1244 2956 1747 
Q 2956 2250 2762 2517 
Q 2569 2784 2203 2784 
z
M 2203 3584 
Q 3106 3584 3614 3096 
Q 4122 2609 4122 1747 
Q 4122 884 3614 396 
Q 3106 -91 2203 -91 
Q 1297 -91 786 396 
Q 275 884 275 1747 
Q 275 2609 786 3096 
Q 1297 3584 2203 3584 
z
" transform="scale(0.015625)"/>
     </defs>
     <use xlink:href="#DejaVuSans-Bold-52"/>
     <use xlink:href="#DejaVuSans-Bold-61" transform="translate(77.001953 0)"/>
     <use xlink:href="#DejaVuSans-Bold-74" transform="translate(144.482422 0)"/>
     <use xlink:href="#DejaVuSans-Bold-69" transform="translate(192.285156 0)"/>
     <use xlink:href="#DejaVuSans-Bold-6f" transform="translate(226.5625 0)"/>
    </g>
   </g>
   <g id="PathCollection_8">
    <defs>
     <path id="m74cc76448c" d="M -0 6.708204 
L 6.708204 0 
L 0 -6.708204 
L -6.708204 -0 
z
" style="stroke: #b83234; stroke-width: 1.5"/>
    </defs>
    <g clip-path="url(#pf7537406a4)">
     <use xlink:href="#m74cc76448c" x="180.391351" y="274.357272" style="fill: #e15759; stroke: #b83234; stroke-width: 1.5"/>
    </g>
   </g>
   <g id="PathCollection_9">
    <defs>
     <path id="m30df7e7abe" d="M -0 6.708204 
L 6.708204 0 
L 0 -6.708204 
L -6.708204 -0 
z
" style="stroke: #2d5986; stroke-width: 1.5"/>
    </defs>
    <g clip-path="url(#pf7537406a4)">
     <use xlink:href="#m30df7e7abe" x="365.140054" y="243.270785" style="fill: #4e79a7; stroke: #2d5986; stroke-width: 1.5"/>
    </g>
   </g>
   <g id="PathCollection_10">
    <defs>
     <path id="ma8a66ff437" d="M -0 6.708204 
L 6.708204 0 
L 0 -6.708204 
L -6.708204 -0 
z
" style="stroke: #c46d10; stroke-width: 1.5"/>
    </defs>
    <g clip-path="url(#pf7537406a4)">
     <use xlink:href="#ma8a66ff437" x="385.476491" y="212.184299" style="fill: #f28e2b; stroke: #c46d10; stroke-width: 1.5"/>
    </g>
   </g>
   <g id="PathCollection_11">
    <g clip-path="url(#pf7537406a4)">
     <use xlink:href="#m30df7e7abe" x="385.489031" y="181.097812" style="fill: #4e79a7; stroke: #2d5986; stroke-width: 1.5"/>
    </g>
   </g>
   <g id="PathCollection_12">
    <g clip-path="url(#pf7537406a4)">
     <use xlink:href="#m74cc76448c" x="295.13411" y="150.011326" style="fill: #e15759; stroke: #b83234; stroke-width: 1.5"/>
    </g>
   </g>
   <g id="PathCollection_13">
    <g clip-path="url(#pf7537406a4)">
     <use xlink:href="#ma8a66ff437" x="385.251598" y="118.92484" style="fill: #f28e2b; stroke: #c46d10; stroke-width: 1.5"/>
    </g>
   </g>
   <g id="PathCollection_14">
    <g clip-path="url(#pf7537406a4)">
     <use xlink:href="#m30df7e7abe" x="384.387854" y="87.838353" style="fill: #4e79a7; stroke: #2d5986; stroke-width: 1.5"/>
    </g>
   </g>
   <g id="legend_1">
    <g id="line2d_78">
     <defs>
      <path id="m68da11f4f1" d="M -0 4.949747 
L 4.949747 0 
L 0 -4.949747 
L -4.949747 -0 
z
" style="stroke: #2d5986; stroke-width: 1.2; stroke-linejoin: miter"/>
     </defs>
     <g>
      <use xlink:href="#m68da11f4f1" x="87.063828" y="45.005884" style="fill: #4e79a7; stroke: #2d5986; stroke-width: 1.2; stroke-linejoin: miter"/>
     </g>
    </g>
    <g id="text_25">
     <!-- TurboQuant -->
     <g transform="translate(98.113828 47.980884) scale(0.085 -0.085)">
      <defs>
       <path id="DejaVuSans-54" d="M -19 4666 
L 3928 4666 
L 3928 4134 
L 2272 4134 
L 2272 0 
L 1638 0 
L 1638 4134 
L -19 4134 
L -19 4666 
z
" transform="scale(0.015625)"/>
       <path id="DejaVuSans-75" d="M 544 1381 
L 544 3500 
L 1119 3500 
L 1119 1403 
Q 1119 906 1312 657 
Q 1506 409 1894 409 
Q 2359 409 2629 706 
Q 2900 1003 2900 1516 
L 2900 3500 
L 3475 3500 
L 3475 0 
L 2900 0 
L 2900 538 
Q 2691 219 2414 64 
Q 2138 -91 1772 -91 
Q 1169 -91 856 284 
Q 544 659 544 1381 
z
M 1991 3584 
L 1991 3584 
z
" transform="scale(0.015625)"/>
       <path id="DejaVuSans-62" d="M 3116 1747 
Q 3116 2381 2855 2742 
Q 2594 3103 2138 3103 
Q 1681 3103 1420 2742 
Q 1159 2381 1159 1747 
Q 1159 1113 1420 752 
Q 1681 391 2138 391 
Q 2594 391 2855 752 
Q 3116 1113 3116 1747 
z
M 1159 2969 
Q 1341 3281 1617 3432 
Q 1894 3584 2278 3584 
Q 2916 3584 3314 3078 
Q 3713 2572 3713 1747 
Q 3713 922 3314 415 
Q 2916 -91 2278 -91 
Q 1894 -91 1617 61 
Q 1341 213 1159 525 
L 1159 0 
L 581 0 
L 581 4863 
L 1159 4863 
L 1159 2969 
z
" transform="scale(0.015625)"/>
       <path id="DejaVuSans-51" d="M 2522 4238 
Q 1834 4238 1429 3725 
Q 1025 3213 1025 2328 
Q 1025 1447 1429 934 
Q 1834 422 2522 422 
Q 3209 422 3611 934 
Q 4013 1447 4013 2328 
Q 4013 3213 3611 3725 
Q 3209 4238 2522 4238 
z
M 3406 84 
L 4238 -825 
L 3475 -825 
L 2784 -78 
Q 2681 -84 2626 -87 
Q 2572 -91 2522 -91 
Q 1538 -91 948 567 
Q 359 1225 359 2328 
Q 359 3434 948 4092 
Q 1538 4750 2522 4750 
Q 3503 4750 4090 4092 
Q 4678 3434 4678 2328 
Q 4678 1516 4351 937 
Q 4025 359 3406 84 
z
" transform="scale(0.015625)"/>
       <path id="DejaVuSans-61" d="M 2194 1759 
Q 1497 1759 1228 1600 
Q 959 1441 959 1056 
Q 959 750 1161 570 
Q 1363 391 1709 391 
Q 2188 391 2477 730 
Q 2766 1069 2766 1631 
L 2766 1759 
L 2194 1759 
z
M 3341 1997 
L 3341 0 
L 2766 0 
L 2766 531 
Q 2569 213 2275 61 
Q 1981 -91 1556 -91 
Q 1019 -91 701 211 
Q 384 513 384 1019 
Q 384 1609 779 1909 
Q 1175 2209 1959 2209 
L 2766 2209 
L 2766 2266 
Q 2766 2663 2505 2880 
Q 2244 3097 1772 3097 
Q 1472 3097 1187 3025 
Q 903 2953 641 2809 
L 641 3341 
Q 956 3463 1253 3523 
Q 1550 3584 1831 3584 
Q 2591 3584 2966 3190 
Q 3341 2797 3341 1997 
z
" transform="scale(0.015625)"/>
      </defs>
      <use xlink:href="#DejaVuSans-54"/>
      <use xlink:href="#DejaVuSans-75" transform="translate(45.958984 0)"/>
      <use xlink:href="#DejaVuSans-72" transform="translate(109.337891 0)"/>
      <use xlink:href="#DejaVuSans-62" transform="translate(150.451172 0)"/>
      <use xlink:href="#DejaVuSans-6f" transform="translate(213.927734 0)"/>
      <use xlink:href="#DejaVuSans-51" transform="translate(275.109375 0)"/>
      <use xlink:href="#DejaVuSans-75" transform="translate(353.820312 0)"/>
      <use xlink:href="#DejaVuSans-61" transform="translate(417.199219 0)"/>
      <use xlink:href="#DejaVuSans-6e" transform="translate(478.478516 0)"/>
      <use xlink:href="#DejaVuSans-74" transform="translate(541.857422 0)"/>
     </g>
    </g>
    <g id="line2d_79">
     <defs>
      <path id="m4fd8fc8c66" d="M -0 4.949747 
L 4.949747 0 
L 0 -4.949747 
L -4.949747 -0 
z
" style="stroke: #c46d10; stroke-width: 1.2; stroke-linejoin: miter"/>
     </defs>
     <g>
      <use xlink:href="#m4fd8fc8c66" x="164.504141" y="45.005884" style="fill: #f28e2b; stroke: #c46d10; stroke-width: 1.2; stroke-linejoin: miter"/>
     </g>
    </g>
    <g id="text_26">
     <!-- Scalar Quant. (FAISS) -->
     <g transform="translate(175.554141 47.980884) scale(0.085 -0.085)">
      <defs>
       <path id="DejaVuSans-53" d="M 3425 4513 
L 3425 3897 
Q 3066 4069 2747 4153 
Q 2428 4238 2131 4238 
Q 1616 4238 1336 4038 
Q 1056 3838 1056 3469 
Q 1056 3159 1242 3001 
Q 1428 2844 1947 2747 
L 2328 2669 
Q 3034 2534 3370 2195 
Q 3706 1856 3706 1288 
Q 3706 609 3251 259 
Q 2797 -91 1919 -91 
Q 1588 -91 1214 -16 
Q 841 59 441 206 
L 441 856 
Q 825 641 1194 531 
Q 1563 422 1919 422 
Q 2459 422 2753 634 
Q 3047 847 3047 1241 
Q 3047 1584 2836 1778 
Q 2625 1972 2144 2069 
L 1759 2144 
Q 1053 2284 737 2584 
Q 422 2884 422 3419 
Q 422 4038 858 4394 
Q 1294 4750 2059 4750 
Q 2388 4750 2728 4690 
Q 3069 4631 3425 4513 
z
" transform="scale(0.015625)"/>
       <path id="DejaVuSans-63" d="M 3122 3366 
L 3122 2828 
Q 2878 2963 2633 3030 
Q 2388 3097 2138 3097 
Q 1578 3097 1268 2742 
Q 959 2388 959 1747 
Q 959 1106 1268 751 
Q 1578 397 2138 397 
Q 2388 397 2633 464 
Q 2878 531 3122 666 
L 3122 134 
Q 2881 22 2623 -34 
Q 2366 -91 2075 -91 
Q 1284 -91 818 406 
Q 353 903 353 1747 
Q 353 2603 823 3093 
Q 1294 3584 2113 3584 
Q 2378 3584 2631 3529 
Q 2884 3475 3122 3366 
z
" transform="scale(0.015625)"/>
       <path id="DejaVuSans-6c" d="M 603 4863 
L 1178 4863 
L 1178 0 
L 603 0 
L 603 4863 
z
" transform="scale(0.015625)"/>
       <path id="DejaVuSans-2e" d="M 684 794 
L 1344 794 
L 1344 0 
L 684 0 
L 684 794 
z
" transform="scale(0.015625)"/>
       <path id="DejaVuSans-41" d="M 2188 4044 
L 1331 1722 
L 3047 1722 
L 2188 4044 
z
M 1831 4666 
L 2547 4666 
L 4325 0 
L 3669 0 
L 3244 1197 
L 1141 1197 
L 716 0 
L 50 0 
L 1831 4666 
z
" transform="scale(0.015625)"/>
       <path id="DejaVuSans-49" d="M 628 4666 
L 1259 4666 
L 1259 0 
L 628 0 
L 628 4666 
z
" transform="scale(0.015625)"/>
      </defs>
      <use xlink:href="#DejaVuSans-53"/>
      <use xlink:href="#DejaVuSans-63" transform="translate(63.476562 0)"/>
      <use xlink:href="#DejaVuSans-61" transform="translate(118.457031 0)"/>
      <use xlink:href="#DejaVuSans-6c" transform="translate(179.736328 0)"/>
      <use xlink:href="#DejaVuSans-61" transform="translate(207.519531 0)"/>
      <use xlink:href="#DejaVuSans-72" transform="translate(268.798828 0)"/>
      <use xlink:href="#DejaVuSans-20" transform="translate(309.912109 0)"/>
      <use xlink:href="#DejaVuSans-51" transform="translate(341.699219 0)"/>
      <use xlink:href="#DejaVuSans-75" transform="translate(420.410156 0)"/>
      <use xlink:href="#DejaVuSans-61" transform="translate(483.789062 0)"/>
      <use xlink:href="#DejaVuSans-6e" transform="translate(545.068359 0)"/>
      <use xlink:href="#DejaVuSans-74" transform="translate(608.447266 0)"/>
      <use xlink:href="#DejaVuSans-2e" transform="translate(647.65625 0)"/>
      <use xlink:href="#DejaVuSans-20" transform="translate(679.443359 0)"/>
      <use xlink:href="#DejaVuSans-28" transform="translate(711.230469 0)"/>
      <use xlink:href="#DejaVuSans-46" transform="translate(750.244141 0)"/>
      <use xlink:href="#DejaVuSans-41" transform="translate(798.638672 0)"/>
      <use xlink:href="#DejaVuSans-49" transform="translate(867.046875 0)"/>
      <use xlink:href="#DejaVuSans-53" transform="translate(896.539062 0)"/>
      <use xlink:href="#DejaVuSans-53" transform="translate(960.015625 0)"/>
      <use xlink:href="#DejaVuSans-29" transform="translate(1023.492188 0)"/>
     </g>
    </g>
    <g id="line2d_80">
     <defs>
      <path id="mf85ad85ed4" d="M -0 4.949747 
L 4.949747 0 
L 0 -4.949747 
L -4.949747 -0 
z
" style="stroke: #b83234; stroke-width: 1.2; stroke-linejoin: miter"/>
     </defs>
     <g>
      <use xlink:href="#mf85ad85ed4" x="282.867969" y="45.005884" style="fill: #e15759; stroke: #b83234; stroke-width: 1.2; stroke-linejoin: miter"/>
     </g>
    </g>
    <g id="text_27">
     <!-- Product Quant. (FAISS) -->
     <g transform="translate(293.917969 47.980884) scale(0.085 -0.085)">
      <defs>
       <path id="DejaVuSans-64" d="M 2906 2969 
L 2906 4863 
L 3481 4863 
L 3481 0 
L 2906 0 
L 2906 525 
Q 2725 213 2448 61 
Q 2172 -91 1784 -91 
Q 1150 -91 751 415 
Q 353 922 353 1747 
Q 353 2572 751 3078 
Q 1150 3584 1784 3584 
Q 2172 3584 2448 3432 
Q 2725 3281 2906 2969 
z
M 947 1747 
Q 947 1113 1208 752 
Q 1469 391 1925 391 
Q 2381 391 2643 752 
Q 2906 1113 2906 1747 
Q 2906 2381 2643 2742 
Q 2381 3103 1925 3103 
Q 1469 3103 1208 2742 
Q 947 2381 947 1747 
z
" transform="scale(0.015625)"/>
      </defs>
      <use xlink:href="#DejaVuSans-50"/>
      <use xlink:href="#DejaVuSans-72" transform="translate(58.552734 0)"/>
      <use xlink:href="#DejaVuSans-6f" transform="translate(97.416016 0)"/>
      <use xlink:href="#DejaVuSans-64" transform="translate(158.597656 0)"/>
      <use xlink:href="#DejaVuSans-75" transform="translate(222.074219 0)"/>
      <use xlink:href="#DejaVuSans-63" transform="translate(285.453125 0)"/>
      <use xlink:href="#DejaVuSans-74" transform="translate(340.433594 0)"/>
      <use xlink:href="#DejaVuSans-20" transform="translate(379.642578 0)"/>
      <use xlink:href="#DejaVuSans-51" transform="translate(411.429688 0)"/>
      <use xlink:href="#DejaVuSans-75" transform="translate(490.140625 0)"/>
      <use xlink:href="#DejaVuSans-61" transform="translate(553.519531 0)"/>
      <use xlink:href="#DejaVuSans-6e" transform="translate(614.798828 0)"/>
      <use xlink:href="#DejaVuSans-74" transform="translate(678.177734 0)"/>
      <use xlink:href="#DejaVuSans-2e" transform="translate(717.386719 0)"/>
      <use xlink:href="#DejaVuSans-20" transform="translate(749.173828 0)"/>
      <use xlink:href="#DejaVuSans-28" transform="translate(780.960938 0)"/>
      <use xlink:href="#DejaVuSans-46" transform="translate(819.974609 0)"/>
      <use xlink:href="#DejaVuSans-41" transform="translate(868.369141 0)"/>
      <use xlink:href="#DejaVuSans-49" transform="translate(936.777344 0)"/>
      <use xlink:href="#DejaVuSans-53" transform="translate(966.269531 0)"/>
      <use xlink:href="#DejaVuSans-53" transform="translate(1029.746094 0)"/>
      <use xlink:href="#DejaVuSans-29" transform="translate(1093.222656 0)"/>
     </g>
    </g>
   </g>
  </g>
  <g id="text_28">
   <!-- NDCG@10 Retention vs FP32 Baseline -->
   <g transform="translate(133.281172 14.237812) scale(0.14 -0.14)">
    <defs>
     <path id="DejaVuSans-Bold-4e" d="M 588 4666 
L 1931 4666 
L 3628 1466 
L 3628 4666 
L 4769 4666 
L 4769 0 
L 3425 0 
L 1728 3200 
L 1728 0 
L 588 0 
L 588 4666 
z
" transform="scale(0.015625)"/>
     <path id="DejaVuSans-Bold-44" d="M 1791 3756 
L 1791 909 
L 2222 909 
Q 2959 909 3348 1275 
Q 3738 1641 3738 2338 
Q 3738 3031 3350 3393 
Q 2963 3756 2222 3756 
L 1791 3756 
z
M 588 4666 
L 1856 4666 
Q 2919 4666 3439 4514 
Q 3959 4363 4331 4000 
Q 4659 3684 4818 3271 
Q 4978 2859 4978 2338 
Q 4978 1809 4818 1395 
Q 4659 981 4331 666 
Q 3956 303 3431 151 
Q 2906 0 1856 0 
L 588 0 
L 588 4666 
z
" transform="scale(0.015625)"/>
     <path id="DejaVuSans-Bold-43" d="M 4288 256 
Q 3956 84 3597 -3 
Q 3238 -91 2847 -91 
Q 1681 -91 1000 561 
Q 319 1213 319 2328 
Q 319 3447 1000 4098 
Q 1681 4750 2847 4750 
Q 3238 4750 3597 4662 
Q 3956 4575 4288 4403 
L 4288 3438 
Q 3953 3666 3628 3772 
Q 3303 3878 2944 3878 
Q 2300 3878 1931 3465 
Q 1563 3053 1563 2328 
Q 1563 1606 1931 1193 
Q 2300 781 2944 781 
Q 3303 781 3628 887 
Q 3953 994 4288 1222 
L 4288 256 
z
" transform="scale(0.015625)"/>
     <path id="DejaVuSans-Bold-47" d="M 4781 347 
Q 4331 128 3847 18 
Q 3363 -91 2847 -91 
Q 1681 -91 1000 561 
Q 319 1213 319 2328 
Q 319 3456 1012 4103 
Q 1706 4750 2913 4750 
Q 3378 4750 3804 4662 
Q 4231 4575 4609 4403 
L 4609 3438 
Q 4219 3659 3833 3768 
Q 3447 3878 3059 3878 
Q 2341 3878 1952 3476 
Q 1563 3075 1563 2328 
Q 1563 1588 1938 1184 
Q 2313 781 3003 781 
Q 3191 781 3352 804 
Q 3513 828 3641 878 
L 3641 1784 
L 2906 1784 
L 2906 2591 
L 4781 2591 
L 4781 347 
z
" transform="scale(0.015625)"/>
     <path id="DejaVuSans-Bold-40" d="M 2597 1684 
Q 2597 1300 2761 1078 
Q 2925 856 3206 856 
Q 3484 856 3650 1079 
Q 3816 1303 3816 1684 
Q 3816 2063 3648 2283 
Q 3481 2503 3200 2503 
Q 2925 2503 2761 2283 
Q 2597 2063 2597 1684 
z
M 3878 744 
Q 3784 522 3576 398 
Q 3369 275 3091 275 
Q 2553 275 2217 664 
Q 1881 1053 1881 1678 
Q 1881 2303 2218 2693 
Q 2556 3084 3091 3084 
Q 3369 3084 3576 2959 
Q 3784 2834 3878 2613 
L 3878 3022 
L 4531 3022 
L 4531 856 
Q 4919 916 5141 1230 
Q 5363 1544 5363 2034 
Q 5363 2347 5272 2620 
Q 5181 2894 4997 3122 
Q 4700 3503 4254 3709 
Q 3809 3916 3291 3916 
Q 2928 3916 2597 3820 
Q 2266 3725 1984 3541 
Q 1522 3234 1264 2748 
Q 1006 2263 1006 1697 
Q 1006 1231 1173 823 
Q 1341 416 1656 103 
Q 1969 -203 2373 -364 
Q 2778 -525 3238 -525 
Q 3631 -525 4025 -378 
Q 4419 -231 4697 19 
L 5031 -488 
Q 4641 -791 4180 -952 
Q 3719 -1113 3244 -1113 
Q 2666 -1113 2153 -908 
Q 1641 -703 1241 -313 
Q 841 78 631 592 
Q 422 1106 422 1697 
Q 422 2266 634 2781 
Q 847 3297 1241 3688 
Q 1634 4075 2157 4287 
Q 2681 4500 3244 4500 
Q 3944 4500 4516 4233 
Q 5088 3966 5472 3463 
Q 5706 3156 5826 2798 
Q 5947 2441 5947 2047 
Q 5947 1200 5437 731 
Q 4928 263 4000 263 
L 3878 263 
L 3878 744 
z
" transform="scale(0.015625)"/>
     <path id="DejaVuSans-Bold-30" d="M 2944 2338 
Q 2944 3213 2780 3570 
Q 2616 3928 2228 3928 
Q 1841 3928 1675 3570 
Q 1509 3213 1509 2338 
Q 1509 1453 1675 1090 
Q 1841 728 2228 728 
Q 2613 728 2778 1090 
Q 2944 1453 2944 2338 
z
M 4147 2328 
Q 4147 1169 3647 539 
Q 3147 -91 2228 -91 
Q 1306 -91 806 539 
Q 306 1169 306 2328 
Q 306 3491 806 4120 
Q 1306 4750 2228 4750 
Q 3147 4750 3647 4120 
Q 4147 3491 4147 2328 
z
" transform="scale(0.015625)"/>
     <path id="DejaVuSans-Bold-20" transform="scale(0.015625)"/>
     <path id="DejaVuSans-Bold-65" d="M 4031 1759 
L 4031 1441 
L 1416 1441 
Q 1456 1047 1700 850 
Q 1944 653 2381 653 
Q 2734 653 3104 758 
Q 3475 863 3866 1075 
L 3866 213 
Q 3469 63 3072 -14 
Q 2675 -91 2278 -91 
Q 1328 -91 801 392 
Q 275 875 275 1747 
Q 275 2603 792 3093 
Q 1309 3584 2216 3584 
Q 3041 3584 3536 3087 
Q 4031 2591 4031 1759 
z
M 2881 2131 
Q 2881 2450 2695 2645 
Q 2509 2841 2209 2841 
Q 1884 2841 1681 2658 
Q 1478 2475 1428 2131 
L 2881 2131 
z
" transform="scale(0.015625)"/>
     <path id="DejaVuSans-Bold-6e" d="M 4056 2131 
L 4056 0 
L 2931 0 
L 2931 347 
L 2931 1631 
Q 2931 2084 2911 2256 
Q 2891 2428 2841 2509 
Q 2775 2619 2662 2680 
Q 2550 2741 2406 2741 
Q 2056 2741 1856 2470 
Q 1656 2200 1656 1722 
L 1656 0 
L 538 0 
L 538 3500 
L 1656 3500 
L 1656 2988 
Q 1909 3294 2193 3439 
Q 2478 3584 2822 3584 
Q 3428 3584 3742 3212 
Q 4056 2841 4056 2131 
z
" transform="scale(0.015625)"/>
     <path id="DejaVuSans-Bold-76" d="M 97 3500 
L 1216 3500 
L 2088 1081 
L 2956 3500 
L 4078 3500 
L 2700 0 
L 1472 0 
L 97 3500 
z
" transform="scale(0.015625)"/>
     <path id="DejaVuSans-Bold-73" d="M 3272 3391 
L 3272 2541 
Q 2913 2691 2578 2766 
Q 2244 2841 1947 2841 
Q 1628 2841 1473 2761 
Q 1319 2681 1319 2516 
Q 1319 2381 1436 2309 
Q 1553 2238 1856 2203 
L 2053 2175 
Q 2913 2066 3209 1816 
Q 3506 1566 3506 1031 
Q 3506 472 3093 190 
Q 2681 -91 1863 -91 
Q 1516 -91 1145 -36 
Q 775 19 384 128 
L 384 978 
Q 719 816 1070 734 
Q 1422 653 1784 653 
Q 2113 653 2278 743 
Q 2444 834 2444 1013 
Q 2444 1163 2330 1236 
Q 2216 1309 1875 1350 
L 1678 1375 
Q 931 1469 631 1722 
Q 331 1975 331 2491 
Q 331 3047 712 3315 
Q 1094 3584 1881 3584 
Q 2191 3584 2531 3537 
Q 2872 3491 3272 3391 
z
" transform="scale(0.015625)"/>
     <path id="DejaVuSans-Bold-46" d="M 588 4666 
L 3834 4666 
L 3834 3756 
L 1791 3756 
L 1791 2888 
L 3713 2888 
L 3713 1978 
L 1791 1978 
L 1791 0 
L 588 0 
L 588 4666 
z
" transform="scale(0.015625)"/>
     <path id="DejaVuSans-Bold-33" d="M 2981 2516 
Q 3453 2394 3698 2092 
Q 3944 1791 3944 1325 
Q 3944 631 3412 270 
Q 2881 -91 1863 -91 
Q 1503 -91 1142 -33 
Q 781 25 428 141 
L 428 1069 
Q 766 900 1098 814 
Q 1431 728 1753 728 
Q 2231 728 2486 893 
Q 2741 1059 2741 1369 
Q 2741 1688 2480 1852 
Q 2219 2016 1709 2016 
L 1228 2016 
L 1228 2791 
L 1734 2791 
Q 2188 2791 2409 2933 
Q 2631 3075 2631 3366 
Q 2631 3634 2415 3781 
Q 2200 3928 1806 3928 
Q 1516 3928 1219 3862 
Q 922 3797 628 3669 
L 628 4550 
Q 984 4650 1334 4700 
Q 1684 4750 2022 4750 
Q 2931 4750 3382 4451 
Q 3834 4153 3834 3553 
Q 3834 3144 3618 2883 
Q 3403 2622 2981 2516 
z
" transform="scale(0.015625)"/>
     <path id="DejaVuSans-Bold-42" d="M 2456 2859 
Q 2741 2859 2887 2984 
Q 3034 3109 3034 3353 
Q 3034 3594 2887 3720 
Q 2741 3847 2456 3847 
L 1791 3847 
L 1791 2859 
L 2456 2859 
z
M 2497 819 
Q 2859 819 3042 972 
Q 3225 1125 3225 1434 
Q 3225 1738 3044 1889 
Q 2863 2041 2497 2041 
L 1791 2041 
L 1791 819 
L 2497 819 
z
M 3616 2497 
Q 4003 2384 4215 2081 
Q 4428 1778 4428 1338 
Q 4428 663 3972 331 
Q 3516 0 2584 0 
L 588 0 
L 588 4666 
L 2394 4666 
Q 3366 4666 3802 4372 
Q 4238 4078 4238 3431 
Q 4238 3091 4078 2852 
Q 3919 2613 3616 2497 
z
" transform="scale(0.015625)"/>
     <path id="DejaVuSans-Bold-6c" d="M 538 4863 
L 1656 4863 
L 1656 0 
L 538 0 
L 538 4863 
z
" transform="scale(0.015625)"/>
    </defs>
    <use xlink:href="#DejaVuSans-Bold-4e"/>
    <use xlink:href="#DejaVuSans-Bold-44" transform="translate(83.691406 0)"/>
    <use xlink:href="#DejaVuSans-Bold-43" transform="translate(166.699219 0)"/>
    <use xlink:href="#DejaVuSans-Bold-47" transform="translate(240.087891 0)"/>
    <use xlink:href="#DejaVuSans-Bold-40" transform="translate(322.167969 0)"/>
    <use xlink:href="#DejaVuSans-Bold-31" transform="translate(422.167969 0)"/>
    <use xlink:href="#DejaVuSans-Bold-30" transform="translate(491.748047 0)"/>
    <use xlink:href="#DejaVuSans-Bold-20" transform="translate(561.328125 0)"/>
    <use xlink:href="#DejaVuSans-Bold-52" transform="translate(596.142578 0)"/>
    <use xlink:href="#DejaVuSans-Bold-65" transform="translate(673.144531 0)"/>
    <use xlink:href="#DejaVuSans-Bold-74" transform="translate(740.966797 0)"/>
    <use xlink:href="#DejaVuSans-Bold-65" transform="translate(788.769531 0)"/>
    <use xlink:href="#DejaVuSans-Bold-6e" transform="translate(856.591797 0)"/>
    <use xlink:href="#DejaVuSans-Bold-74" transform="translate(927.783203 0)"/>
    <use xlink:href="#DejaVuSans-Bold-69" transform="translate(975.585938 0)"/>
    <use xlink:href="#DejaVuSans-Bold-6f" transform="translate(1009.863281 0)"/>
    <use xlink:href="#DejaVuSans-Bold-6e" transform="translate(1078.564453 0)"/>
    <use xlink:href="#DejaVuSans-Bold-20" transform="translate(1149.755859 0)"/>
    <use xlink:href="#DejaVuSans-Bold-76" transform="translate(1184.570312 0)"/>
    <use xlink:href="#DejaVuSans-Bold-73" transform="translate(1249.755859 0)"/>
    <use xlink:href="#DejaVuSans-Bold-20" transform="translate(1309.277344 0)"/>
    <use xlink:href="#DejaVuSans-Bold-46" transform="translate(1344.091797 0)"/>
    <use xlink:href="#DejaVuSans-Bold-50" transform="translate(1412.402344 0)"/>
    <use xlink:href="#DejaVuSans-Bold-33" transform="translate(1485.693359 0)"/>
    <use xlink:href="#DejaVuSans-Bold-32" transform="translate(1555.273438 0)"/>
    <use xlink:href="#DejaVuSans-Bold-20" transform="translate(1624.853516 0)"/>
    <use xlink:href="#DejaVuSans-Bold-42" transform="translate(1659.667969 0)"/>
    <use xlink:href="#DejaVuSans-Bold-61" transform="translate(1735.888672 0)"/>
    <use xlink:href="#DejaVuSans-Bold-73" transform="translate(1803.369141 0)"/>
    <use xlink:href="#DejaVuSans-Bold-65" transform="translate(1862.890625 0)"/>
    <use xlink:href="#DejaVuSans-Bold-6c" transform="translate(1930.712891 0)"/>
    <use xlink:href="#DejaVuSans-Bold-69" transform="translate(1964.990234 0)"/>
    <use xlink:href="#DejaVuSans-Bold-6e" transform="translate(1999.267578 0)"/>
    <use xlink:href="#DejaVuSans-Bold-65" transform="translate(2070.458984 0)"/>
   </g>
  </g>
  <g id="text_29">
   <!-- Each dot = one BeIR condition (2 datasets × 2 models); ◆ = mean -->
   <g style="fill: #4d4d4d" transform="translate(124.218086 28.817812) scale(0.095 -0.095)">
    <defs>
     <path id="DejaVuSans-45" d="M 628 4666 
L 3578 4666 
L 3578 4134 
L 1259 4134 
L 1259 2753 
L 3481 2753 
L 3481 2222 
L 1259 2222 
L 1259 531 
L 3634 531 
L 3634 0 
L 628 0 
L 628 4666 
z
" transform="scale(0.015625)"/>
     <path id="DejaVuSans-68" d="M 3513 2113 
L 3513 0 
L 2938 0 
L 2938 2094 
Q 2938 2591 2744 2837 
Q 2550 3084 2163 3084 
Q 1697 3084 1428 2787 
Q 1159 2491 1159 1978 
L 1159 0 
L 581 0 
L 581 4863 
L 1159 4863 
L 1159 2956 
Q 1366 3272 1645 3428 
Q 1925 3584 2291 3584 
Q 2894 3584 3203 3211 
Q 3513 2838 3513 2113 
z
" transform="scale(0.015625)"/>
     <path id="DejaVuSans-3d" d="M 678 2906 
L 4684 2906 
L 4684 2381 
L 678 2381 
L 678 2906 
z
M 678 1631 
L 4684 1631 
L 4684 1100 
L 678 1100 
L 678 1631 
z
" transform="scale(0.015625)"/>
     <path id="DejaVuSans-42" d="M 1259 2228 
L 1259 519 
L 2272 519 
Q 2781 519 3026 730 
Q 3272 941 3272 1375 
Q 3272 1813 3026 2020 
Q 2781 2228 2272 2228 
L 1259 2228 
z
M 1259 4147 
L 1259 2741 
L 2194 2741 
Q 2656 2741 2882 2914 
Q 3109 3088 3109 3444 
Q 3109 3797 2882 3972 
Q 2656 4147 2194 4147 
L 1259 4147 
z
M 628 4666 
L 2241 4666 
Q 2963 4666 3353 4366 
Q 3744 4066 3744 3513 
Q 3744 3084 3544 2831 
Q 3344 2578 2956 2516 
Q 3422 2416 3680 2098 
Q 3938 1781 3938 1306 
Q 3938 681 3513 340 
Q 3088 0 2303 0 
L 628 0 
L 628 4666 
z
" transform="scale(0.015625)"/>
     <path id="DejaVuSans-52" d="M 2841 2188 
Q 3044 2119 3236 1894 
Q 3428 1669 3622 1275 
L 4263 0 
L 3584 0 
L 2988 1197 
Q 2756 1666 2539 1819 
Q 2322 1972 1947 1972 
L 1259 1972 
L 1259 0 
L 628 0 
L 628 4666 
L 2053 4666 
Q 2853 4666 3247 4331 
Q 3641 3997 3641 3322 
Q 3641 2881 3436 2590 
Q 3231 2300 2841 2188 
z
M 1259 4147 
L 1259 2491 
L 2053 2491 
Q 2509 2491 2742 2702 
Q 2975 2913 2975 3322 
Q 2975 3731 2742 3939 
Q 2509 4147 2053 4147 
L 1259 4147 
z
" transform="scale(0.015625)"/>
     <path id="DejaVuSans-d7" d="M 4488 3438 
L 3059 2003 
L 4488 575 
L 4116 197 
L 2681 1631 
L 1247 197 
L 878 575 
L 2303 2003 
L 878 3438 
L 1247 3816 
L 2681 2381 
L 4116 3816 
L 4488 3438 
z
" transform="scale(0.015625)"/>
     <path id="DejaVuSans-6d" d="M 3328 2828 
Q 3544 3216 3844 3400 
Q 4144 3584 4550 3584 
Q 5097 3584 5394 3201 
Q 5691 2819 5691 2113 
L 5691 0 
L 5113 0 
L 5113 2094 
Q 5113 2597 4934 2840 
Q 4756 3084 4391 3084 
Q 3944 3084 3684 2787 
Q 3425 2491 3425 1978 
L 3425 0 
L 2847 0 
L 2847 2094 
Q 2847 2600 2669 2842 
Q 2491 3084 2119 3084 
Q 1678 3084 1418 2786 
Q 1159 2488 1159 1978 
L 1159 0 
L 581 0 
L 581 3500 
L 1159 3500 
L 1159 2956 
Q 1356 3278 1631 3431 
Q 1906 3584 2284 3584 
Q 2666 3584 2933 3390 
Q 3200 3197 3328 2828 
z
" transform="scale(0.015625)"/>
     <path id="DejaVuSans-3b" d="M 750 3309 
L 1409 3309 
L 1409 2516 
L 750 2516 
L 750 3309 
z
M 750 794 
L 1409 794 
L 1409 256 
L 897 -744 
L 494 -744 
L 750 256 
L 750 794 
z
" transform="scale(0.015625)"/>
     <path id="DejaVuSans-25c6" d="M 19 1663 
L 2459 4113 
L 4903 1663 
L 2459 -788 
L 19 1663 
z
" transform="scale(0.015625)"/>
    </defs>
    <use xlink:href="#DejaVuSans-45"/>
    <use xlink:href="#DejaVuSans-61" transform="translate(63.183594 0)"/>
    <use xlink:href="#DejaVuSans-63" transform="translate(124.462891 0)"/>
    <use xlink:href="#DejaVuSans-68" transform="translate(179.443359 0)"/>
    <use xlink:href="#DejaVuSans-20" transform="translate(242.822266 0)"/>
    <use xlink:href="#DejaVuSans-64" transform="translate(274.609375 0)"/>
    <use xlink:href="#DejaVuSans-6f" transform="translate(338.085938 0)"/>
    <use xlink:href="#DejaVuSans-74" transform="translate(399.267578 0)"/>
    <use xlink:href="#DejaVuSans-20" transform="translate(438.476562 0)"/>
    <use xlink:href="#DejaVuSans-3d" transform="translate(470.263672 0)"/>
    <use xlink:href="#DejaVuSans-20" transform="translate(554.052734 0)"/>
    <use xlink:href="#DejaVuSans-6f" transform="translate(585.839844 0)"/>
    <use xlink:href="#DejaVuSans-6e" transform="translate(647.021484 0)"/>
    <use xlink:href="#DejaVuSans-65" transform="translate(710.400391 0)"/>
    <use xlink:href="#DejaVuSans-20" transform="translate(771.923828 0)"/>
    <use xlink:href="#DejaVuSans-42" transform="translate(803.710938 0)"/>
    <use xlink:href="#DejaVuSans-65" transform="translate(872.314453 0)"/>
    <use xlink:href="#DejaVuSans-49" transform="translate(933.837891 0)"/>
    <use xlink:href="#DejaVuSans-52" transform="translate(963.330078 0)"/>
    <use xlink:href="#DejaVuSans-20" transform="translate(1032.8125 0)"/>
    <use xlink:href="#DejaVuSans-63" transform="translate(1064.599609 0)"/>
    <use xlink:href="#DejaVuSans-6f" transform="translate(1119.580078 0)"/>
    <use xlink:href="#DejaVuSans-6e" transform="translate(1180.761719 0)"/>
    <use xlink:href="#DejaVuSans-64" transform="translate(1244.140625 0)"/>
    <use xlink:href="#DejaVuSans-69" transform="translate(1307.617188 0)"/>
    <use xlink:href="#DejaVuSans-74" transform="translate(1335.400391 0)"/>
    <use xlink:href="#DejaVuSans-69" transform="translate(1374.609375 0)"/>
    <use xlink:href="#DejaVuSans-6f" transform="translate(1402.392578 0)"/>
    <use xlink:href="#DejaVuSans-6e" transform="translate(1463.574219 0)"/>
    <use xlink:href="#DejaVuSans-20" transform="translate(1526.953125 0)"/>
    <use xlink:href="#DejaVuSans-28" transform="translate(1558.740234 0)"/>
    <use xlink:href="#DejaVuSans-32" transform="translate(1597.753906 0)"/>
    <use xlink:href="#DejaVuSans-20" transform="translate(1661.376953 0)"/>
    <use xlink:href="#DejaVuSans-64" transform="translate(1693.164062 0)"/>
    <use xlink:href="#DejaVuSans-61" transform="translate(1756.640625 0)"/>
    <use xlink:href="#DejaVuSans-74" transform="translate(1817.919922 0)"/>
    <use xlink:href="#DejaVuSans-61" transform="translate(1857.128906 0)"/>
    <use xlink:href="#DejaVuSans-73" transform="translate(1918.408203 0)"/>
    <use xlink:href="#DejaVuSans-65" transform="translate(1970.507812 0)"/>
    <use xlink:href="#DejaVuSans-74" transform="translate(2032.03125 0)"/>
    <use xlink:href="#DejaVuSans-73" transform="translate(2071.240234 0)"/>
    <use xlink:href="#DejaVuSans-20" transform="translate(2123.339844 0)"/>
    <use xlink:href="#DejaVuSans-d7" transform="translate(2155.126953 0)"/>
    <use xlink:href="#DejaVuSans-20" transform="translate(2238.916016 0)"/>
    <use xlink:href="#DejaVuSans-32" transform="translate(2270.703125 0)"/>
    <use xlink:href="#DejaVuSans-20" transform="translate(2334.326172 0)"/>
    <use xlink:href="#DejaVuSans-6d" transform="translate(2366.113281 0)"/>
    <use xlink:href="#DejaVuSans-6f" transform="translate(2463.525391 0)"/>
    <use xlink:href="#DejaVuSans-64" transform="translate(2524.707031 0)"/>
    <use xlink:href="#DejaVuSans-65" transform="translate(2588.183594 0)"/>
    <use xlink:href="#DejaVuSans-6c" transform="translate(2649.707031 0)"/>
    <use xlink:href="#DejaVuSans-73" transform="translate(2677.490234 0)"/>
    <use xlink:href="#DejaVuSans-29" transform="translate(2729.589844 0)"/>
    <use xlink:href="#DejaVuSans-3b" transform="translate(2768.603516 0)"/>
    <use xlink:href="#DejaVuSans-20" transform="translate(2802.294922 0)"/>
    <use xlink:href="#DejaVuSans-25c6" transform="translate(2834.082031 0)"/>
    <use xlink:href="#DejaVuSans-20" transform="translate(2910.986328 0)"/>
    <use xlink:href="#DejaVuSans-3d" transform="translate(2942.773438 0)"/>
    <use xlink:href="#DejaVuSans-20" transform="translate(3026.5625 0)"/>
    <use xlink:href="#DejaVuSans-6d" transform="translate(3058.349609 0)"/>
    <use xlink:href="#DejaVuSans-65" transform="translate(3155.761719 0)"/>
    <use xlink:href="#DejaVuSans-61" transform="translate(3217.285156 0)"/>
    <use xlink:href="#DejaVuSans-6e" transform="translate(3278.564453 0)"/>
   </g>
  </g>
 </g>
 <defs>
  <clipPath id="pf7537406a4">
   <rect x="50.760859" y="66.077812" width="459" height="230.04"/>
  </clipPath>
 </defs>
</svg>
